G04 #@! TF.GenerationSoftware,KiCad,Pcbnew,(5.99.0-10216-g675444a646)*
G04 #@! TF.CreationDate,2021-05-11T20:11:49+02:00*
G04 #@! TF.ProjectId,ESP-Hiro,4553502d-4869-4726-9f2e-6b696361645f,rev?*
G04 #@! TF.SameCoordinates,Original*
G04 #@! TF.FileFunction,Paste,Top*
G04 #@! TF.FilePolarity,Positive*
%FSLAX46Y46*%
G04 Gerber Fmt 4.6, Leading zero omitted, Abs format (unit mm)*
G04 Created by KiCad (PCBNEW (5.99.0-10216-g675444a646)) date 2021-05-11 20:11:49*
%MOMM*%
%LPD*%
G01*
G04 APERTURE LIST*
G04 Aperture macros list*
%AMRoundRect*
0 Rectangle with rounded corners*
0 $1 Rounding radius*
0 $2 $3 $4 $5 $6 $7 $8 $9 X,Y pos of 4 corners*
0 Add a 4 corners polygon primitive as box body*
4,1,4,$2,$3,$4,$5,$6,$7,$8,$9,$2,$3,0*
0 Add four circle primitives for the rounded corners*
1,1,$1+$1,$2,$3*
1,1,$1+$1,$4,$5*
1,1,$1+$1,$6,$7*
1,1,$1+$1,$8,$9*
0 Add four rect primitives between the rounded corners*
20,1,$1+$1,$2,$3,$4,$5,0*
20,1,$1+$1,$4,$5,$6,$7,0*
20,1,$1+$1,$6,$7,$8,$9,0*
20,1,$1+$1,$8,$9,$2,$3,0*%
G04 Aperture macros list end*
G04 #@! TA.AperFunction,Profile*
%ADD10C,0.050000*%
G04 #@! TD*
%ADD11RoundRect,0.225000X-0.250000X0.225000X-0.250000X-0.225000X0.250000X-0.225000X0.250000X0.225000X0*%
%ADD12RoundRect,0.225000X0.250000X-0.225000X0.250000X0.225000X-0.250000X0.225000X-0.250000X-0.225000X0*%
%ADD13RoundRect,0.250000X0.650000X-0.325000X0.650000X0.325000X-0.650000X0.325000X-0.650000X-0.325000X0*%
%ADD14RoundRect,0.225000X-0.225000X-0.250000X0.225000X-0.250000X0.225000X0.250000X-0.225000X0.250000X0*%
%ADD15R,2.500000X1.800000*%
%ADD16RoundRect,0.150000X0.587500X0.150000X-0.587500X0.150000X-0.587500X-0.150000X0.587500X-0.150000X0*%
%ADD17RoundRect,0.200000X0.200000X0.275000X-0.200000X0.275000X-0.200000X-0.275000X0.200000X-0.275000X0*%
%ADD18RoundRect,0.200000X0.275000X-0.200000X0.275000X0.200000X-0.275000X0.200000X-0.275000X-0.200000X0*%
%ADD19RoundRect,0.200000X-0.200000X-0.275000X0.200000X-0.275000X0.200000X0.275000X-0.200000X0.275000X0*%
%ADD20RoundRect,0.200000X-0.275000X0.200000X-0.275000X-0.200000X0.275000X-0.200000X0.275000X0.200000X0*%
%ADD21RoundRect,0.150000X0.825000X0.150000X-0.825000X0.150000X-0.825000X-0.150000X0.825000X-0.150000X0*%
%ADD22RoundRect,0.150000X0.512500X0.150000X-0.512500X0.150000X-0.512500X-0.150000X0.512500X-0.150000X0*%
%ADD23RoundRect,0.250000X0.325000X0.650000X-0.325000X0.650000X-0.325000X-0.650000X0.325000X-0.650000X0*%
%ADD24RoundRect,0.225000X0.225000X0.250000X-0.225000X0.250000X-0.225000X-0.250000X0.225000X-0.250000X0*%
%ADD25R,1.800000X2.500000*%
%ADD26RoundRect,0.225000X0.225000X0.225000X-0.225000X0.225000X-0.225000X-0.225000X0.225000X-0.225000X0*%
%ADD27RoundRect,0.062500X0.337500X0.062500X-0.337500X0.062500X-0.337500X-0.062500X0.337500X-0.062500X0*%
%ADD28RoundRect,0.062500X0.062500X0.337500X-0.062500X0.337500X-0.062500X-0.337500X0.062500X-0.337500X0*%
%ADD29R,1.450000X0.600000*%
%ADD30R,1.450000X0.300000*%
%ADD31RoundRect,0.120000X0.480000X-0.780000X0.480000X0.780000X-0.480000X0.780000X-0.480000X-0.780000X0*%
%ADD32RoundRect,0.145000X0.580000X-0.755000X0.580000X0.755000X-0.580000X0.755000X-0.580000X-0.755000X0*%
%ADD33R,1.950000X3.000000*%
%ADD34R,2.500000X1.100000*%
%ADD35R,1.100000X2.500000*%
%ADD36RoundRect,0.250000X-1.500000X-0.550000X1.500000X-0.550000X1.500000X0.550000X-1.500000X0.550000X0*%
%ADD37RoundRect,0.100000X0.637500X0.100000X-0.637500X0.100000X-0.637500X-0.100000X0.637500X-0.100000X0*%
%ADD38RoundRect,0.250000X1.500000X0.550000X-1.500000X0.550000X-1.500000X-0.550000X1.500000X-0.550000X0*%
G04 APERTURE END LIST*
D10*
X100000000Y-127000000D02*
X100000000Y-83000000D01*
X200000000Y-127000000D02*
G75*
G02*
X197000000Y-130000000I-3000000J0D01*
G01*
X100000000Y-83000000D02*
G75*
G02*
X103000000Y-80000000I3000000J0D01*
G01*
X154450000Y-80000000D02*
G75*
G03*
X153450000Y-81000000I0J-1000000D01*
G01*
X197000000Y-80000000D02*
X154450000Y-80000000D01*
X100000000Y-127000000D02*
G75*
G03*
X103000000Y-130000000I3000000J0D01*
G01*
X200000000Y-83000000D02*
X200000000Y-127000000D01*
X153450000Y-85900000D02*
G75*
G02*
X152450000Y-86900000I-1000000J0D01*
G01*
X136450000Y-81000000D02*
G75*
G03*
X135450000Y-80000000I-1000000J0D01*
G01*
X197000000Y-80000000D02*
G75*
G02*
X200000000Y-83000000I0J-3000000D01*
G01*
X136450000Y-85900000D02*
X136450000Y-81000000D01*
X153450000Y-85900000D02*
X153450000Y-81000000D01*
X103000000Y-80000000D02*
X135450000Y-80000000D01*
X137450000Y-86900000D02*
G75*
G02*
X136450000Y-85900000I0J1000000D01*
G01*
X137450000Y-86900000D02*
X152450000Y-86900000D01*
X197000000Y-130000000D02*
X103000000Y-130000000D01*
D11*
X186387000Y-113734000D03*
X186387000Y-115284000D03*
D12*
X177243000Y-115076002D03*
X177243000Y-113526002D03*
X186387000Y-112223000D03*
X186387000Y-110673000D03*
X177243000Y-112015002D03*
X177243000Y-110465002D03*
X175719000Y-112015002D03*
X175719000Y-110465002D03*
D13*
X168099000Y-111886002D03*
X168099000Y-108936002D03*
X170639000Y-111886002D03*
X170639000Y-108936002D03*
D14*
X131418000Y-88842000D03*
X132968000Y-88842000D03*
X131418000Y-102939000D03*
X132968000Y-102939000D03*
D12*
X160260000Y-119081000D03*
X160260000Y-117531000D03*
X153783000Y-119081000D03*
X153783000Y-117531000D03*
D15*
X177564000Y-117603002D03*
X181564000Y-117603002D03*
D16*
X111843000Y-89030000D03*
X111843000Y-87130000D03*
X109968000Y-88080000D03*
D17*
X177306000Y-108954002D03*
X175656000Y-108954002D03*
D18*
X172671000Y-112090002D03*
X172671000Y-110440002D03*
X174195000Y-112090002D03*
X174195000Y-110440002D03*
D19*
X172608000Y-108954002D03*
X174258000Y-108954002D03*
D18*
X161657000Y-96843000D03*
X161657000Y-95193000D03*
X163181000Y-96843000D03*
X163181000Y-95193000D03*
D17*
X157656000Y-96843000D03*
X156006000Y-96843000D03*
X157656000Y-98875000D03*
X156006000Y-98875000D03*
D19*
X131368000Y-92906000D03*
X133018000Y-92906000D03*
X131368000Y-90874000D03*
X133018000Y-90874000D03*
D17*
X157656000Y-100907000D03*
X156006000Y-100907000D03*
D20*
X119747000Y-119259000D03*
X119747000Y-120909000D03*
X119747000Y-115957000D03*
X119747000Y-117607000D03*
D19*
X113816600Y-88994400D03*
X115466600Y-88994400D03*
X113842000Y-93160000D03*
X115492000Y-93160000D03*
X113868900Y-100193200D03*
X115518900Y-100193200D03*
X113867400Y-114783000D03*
X115517400Y-114783000D03*
X113816600Y-119169600D03*
X115466600Y-119169600D03*
D17*
X115415800Y-87114800D03*
X113765800Y-87114800D03*
X115492000Y-91382000D03*
X113842000Y-91382000D03*
X115518900Y-98466000D03*
X113868900Y-98466000D03*
X115529600Y-113055800D03*
X113879600Y-113055800D03*
X115454400Y-117493200D03*
X113804400Y-117493200D03*
D21*
X184325000Y-114779000D03*
X184325000Y-113509000D03*
X184325000Y-112239000D03*
X184325000Y-110969000D03*
X179375000Y-110969000D03*
X179375000Y-112239000D03*
X179375000Y-113509000D03*
X179375000Y-114779000D03*
D22*
X158127500Y-119256000D03*
X158127500Y-118306000D03*
X158127500Y-117356000D03*
X155852500Y-117356000D03*
X155852500Y-119256000D03*
D11*
X190994000Y-89337000D03*
X190994000Y-90887000D03*
D23*
X181475000Y-100399000D03*
X178525000Y-100399000D03*
D24*
X190372000Y-96081000D03*
X188822000Y-96081000D03*
D25*
X184390000Y-106349800D03*
X184390000Y-102349800D03*
D16*
X175865500Y-98808500D03*
X175865500Y-96908500D03*
X173990500Y-97858500D03*
X175865500Y-93666000D03*
X175865500Y-91766000D03*
X173990500Y-92716000D03*
D18*
X193026000Y-85095000D03*
X193026000Y-83445000D03*
D17*
X196200000Y-99510000D03*
X194550000Y-99510000D03*
D20*
X178675000Y-93415000D03*
X178675000Y-95065000D03*
D17*
X175499000Y-100398500D03*
X173849000Y-100398500D03*
X175499000Y-95256000D03*
X173849000Y-95256000D03*
D26*
X185383000Y-92750000D03*
X183143000Y-91630000D03*
X184263000Y-92750000D03*
X185383000Y-91630000D03*
X184263000Y-93870000D03*
X183143000Y-93870000D03*
X183143000Y-92750000D03*
X185383000Y-93870000D03*
X184263000Y-91630000D03*
D27*
X186713000Y-94250000D03*
X186713000Y-93750000D03*
X186713000Y-93250000D03*
X186713000Y-92750000D03*
X186713000Y-92250000D03*
X186713000Y-91750000D03*
X186713000Y-91250000D03*
D28*
X185763000Y-90300000D03*
X185263000Y-90300000D03*
X184763000Y-90300000D03*
X184263000Y-90300000D03*
X183763000Y-90300000D03*
X183263000Y-90300000D03*
X182763000Y-90300000D03*
D27*
X181813000Y-91250000D03*
X181813000Y-91750000D03*
X181813000Y-92250000D03*
X181813000Y-92750000D03*
X181813000Y-93250000D03*
X181813000Y-93750000D03*
X181813000Y-94250000D03*
D28*
X182763000Y-95200000D03*
X183263000Y-95200000D03*
X183763000Y-95200000D03*
X184263000Y-95200000D03*
X184763000Y-95200000D03*
X185263000Y-95200000D03*
X185763000Y-95200000D03*
D29*
X193705000Y-95750000D03*
X193705000Y-94950000D03*
D30*
X193705000Y-93750000D03*
X193705000Y-92750000D03*
X193705000Y-92250000D03*
X193705000Y-91250000D03*
D29*
X193705000Y-90050000D03*
X193705000Y-89250000D03*
X193705000Y-89250000D03*
X193705000Y-90050000D03*
D30*
X193705000Y-90750000D03*
X193705000Y-91750000D03*
X193705000Y-93250000D03*
X193705000Y-94250000D03*
D29*
X193705000Y-94950000D03*
X193705000Y-95750000D03*
D31*
X198800000Y-97570000D03*
X198800000Y-87430000D03*
D32*
X194620000Y-97570000D03*
X194620000Y-87430000D03*
D33*
X167923200Y-116764200D03*
X173423200Y-116764200D03*
D16*
X111794500Y-93221000D03*
X111794500Y-91321000D03*
X109919500Y-92271000D03*
D19*
X125844000Y-120338000D03*
X127494000Y-120338000D03*
D16*
X111870700Y-119256000D03*
X111870700Y-117356000D03*
X109995700Y-118306000D03*
D34*
X137250000Y-88983000D03*
X137250000Y-90983000D03*
X137250000Y-92983000D03*
X137250000Y-94983000D03*
X137250000Y-96983000D03*
X137250000Y-98983000D03*
X137250000Y-100983000D03*
X137250000Y-102983000D03*
X152650000Y-102983000D03*
X152650000Y-100983000D03*
X152650000Y-98983000D03*
X152650000Y-96983000D03*
X152650000Y-94983000D03*
X152650000Y-92983000D03*
X152650000Y-90983000D03*
X152650000Y-88983000D03*
D35*
X139940000Y-104683000D03*
X141940000Y-104683000D03*
X143940000Y-104683000D03*
X145940000Y-104683000D03*
X147940000Y-104683000D03*
X149940000Y-104683000D03*
D24*
X175690000Y-126086000D03*
X174140000Y-126086000D03*
D17*
X124446000Y-120338000D03*
X122796000Y-120338000D03*
D25*
X163358000Y-118281600D03*
X163358000Y-114281600D03*
D36*
X109096000Y-107544000D03*
X114496000Y-107544000D03*
D16*
X111796000Y-100305000D03*
X111796000Y-98405000D03*
X109921000Y-99355000D03*
D14*
X188174000Y-115452998D03*
X189724000Y-115452998D03*
D37*
X171758500Y-126819000D03*
X171758500Y-126169000D03*
X171758500Y-125519000D03*
X171758500Y-124869000D03*
X171758500Y-124219000D03*
X171758500Y-123569000D03*
X171758500Y-122919000D03*
X171758500Y-122269000D03*
X171758500Y-121619000D03*
X171758500Y-120969000D03*
X166033500Y-120969000D03*
X166033500Y-121619000D03*
X166033500Y-122269000D03*
X166033500Y-122919000D03*
X166033500Y-123569000D03*
X166033500Y-124219000D03*
X166033500Y-124869000D03*
X166033500Y-125519000D03*
X166033500Y-126169000D03*
X166033500Y-126819000D03*
D38*
X190900000Y-119830000D03*
X185500000Y-119830000D03*
D16*
X111794500Y-114844000D03*
X111794500Y-112944000D03*
X109919500Y-113894000D03*
M02*
