M48
; DRILL file {KiCad (5.99.0-10216-g675444a646)} date Tue May 11 20:11:51 2021
; FORMAT={-:-/ absolute / metric / decimal}
; #@! TF.CreationDate,2021-05-11T20:11:51+02:00
; #@! TF.GenerationSoftware,Kicad,Pcbnew,(5.99.0-10216-g675444a646)
; #@! TF.FileFunction,Plated,1,2,PTH
FMAT,2
METRIC
; #@! TA.AperFunction,Plated,PTH,ViaDrill
T1C0.400
; #@! TA.AperFunction,Plated,PTH,ViaDrill
T2C0.600
; #@! TA.AperFunction,Plated,PTH,ComponentDrill
T3C1.000
; #@! TA.AperFunction,Plated,PTH,ComponentDrill
T4C1.400
%
G90
G05
T1
X109.587Y-91.001
X109.588Y-97.958
X114.463Y-105.385
X117.461Y-121.989
X118.604Y-114.496
X121.906Y-100.907
X122.125Y-122.624
X122.297Y-99.774
X123.176Y-98.494
X124.573Y-97.697
X125.208Y-100.907
X125.462Y-96.97
X128.383Y-122.497
X128.764Y-123.64
X129.145Y-95.7
X129.145Y-102.177
X130.034Y-97.097
X130.161Y-89.604
X130.796Y-87.318
X130.802Y-97.737
X131.05Y-119.957
X131.05Y-121.608
X133.463Y-87.572
X134.606Y-91.89
X139.559Y-101.796
X140.448Y-88.242
X140.448Y-89.858
X142.607Y-107.511
X144.004Y-97.986
X145.02Y-92.652
X146.036Y-97.986
X149.973Y-92.398
X150.735Y-96.843
X151.37Y-118.814
X153.656Y-124.021
X153.783Y-113.734
X155.815Y-103.447
X155.839Y-92.133
X156.196Y-88.588
X156.831Y-94.938
X156.958Y-89.35
X157.593Y-92.906
X157.948Y-113.716
X159.117Y-94.811
X160.006Y-93.668
X163.968Y-108.611
X163.993Y-112.014
X164.59Y-120.031
X166.609Y-108.458
X166.685Y-111.938
X167.523Y-123.699
X168.539Y-124.715
X169.962Y-120.879
X171.309Y-110.432
X172.198Y-107.638
X173.087Y-91.509
X173.386Y-122.905
X173.391Y-120.545
X174.026Y-123.673
X175.804Y-120.625
X176.262Y-114.242
X177.024Y-97.859
X177.151Y-95.827
X177.201Y-124.562
X177.532Y-90.747
X177.913Y-92.493
X179.31Y-109.924
X179.818Y-95.954
X182.866Y-114.496
X183.755Y-92.144
X184.39Y-102.558
X184.39Y-106.495
X186.422Y-118.306
X188.073Y-97.351
X188.327Y-91.523
X189.47Y-97.351
X189.597Y-89.985
X191.629Y-81.73
X192.264Y-94.684
X192.38Y-91.89
X192.391Y-90.366
X192.393Y-93.477
X192.772Y-87.191
T2
X109.511Y-112.548
X109.511Y-116.985
X109.917Y-85.997
T3
X118.12Y-125.6
X120.66Y-125.6
X122.389Y-82.797
X123.2Y-125.6
X125.74Y-125.6
X130.009Y-82.797
X130.312Y-125.6
X132.852Y-125.6
X135.392Y-125.6
X137.932Y-125.6
X142.504Y-125.563
X145.044Y-125.563
X147.584Y-125.563
X150.124Y-125.563
X154.69Y-125.563
X157.23Y-125.563
X157.806Y-84.4
X159.77Y-125.563
X160.346Y-84.4
X162.31Y-125.563
X162.886Y-84.4
X165.426Y-84.4
X169.998Y-84.4
X172.538Y-84.4
X175.078Y-84.4
X177.618Y-84.4
X182.19Y-84.41
X184.73Y-84.41
X187.27Y-84.41
X189.81Y-84.41
T4
X104.41Y-82.13
X104.41Y-87.21
X104.41Y-92.29
X104.41Y-97.37
X104.41Y-102.45
X104.41Y-107.53
X104.41Y-112.61
X104.41Y-117.69
X104.41Y-122.77
X104.41Y-127.85
X195.59Y-114.97
X195.59Y-120.05
T3
X188.7Y-106.0G85X188.7Y-104.0
G05
X192.7Y-100.3G85X190.7Y-100.3
G05
X194.7Y-106.0G85X194.7Y-104.0
G05
T0
M30
