G04 #@! TF.GenerationSoftware,KiCad,Pcbnew,(5.99.0-10216-g675444a646)*
G04 #@! TF.CreationDate,2021-05-11T20:11:49+02:00*
G04 #@! TF.ProjectId,ESP-Hiro,4553502d-4869-4726-9f2e-6b696361645f,rev?*
G04 #@! TF.SameCoordinates,Original*
G04 #@! TF.FileFunction,Soldermask,Bot*
G04 #@! TF.FilePolarity,Negative*
%FSLAX46Y46*%
G04 Gerber Fmt 4.6, Leading zero omitted, Abs format (unit mm)*
G04 Created by KiCad (PCBNEW (5.99.0-10216-g675444a646)) date 2021-05-11 20:11:49*
%MOMM*%
%LPD*%
G01*
G04 APERTURE LIST*
G04 Aperture macros list*
%AMRoundRect*
0 Rectangle with rounded corners*
0 $1 Rounding radius*
0 $2 $3 $4 $5 $6 $7 $8 $9 X,Y pos of 4 corners*
0 Add a 4 corners polygon primitive as box body*
4,1,4,$2,$3,$4,$5,$6,$7,$8,$9,$2,$3,0*
0 Add four circle primitives for the rounded corners*
1,1,$1+$1,$2,$3*
1,1,$1+$1,$4,$5*
1,1,$1+$1,$6,$7*
1,1,$1+$1,$8,$9*
0 Add four rect primitives between the rounded corners*
20,1,$1+$1,$2,$3,$4,$5,0*
20,1,$1+$1,$4,$5,$6,$7,0*
20,1,$1+$1,$6,$7,$8,$9,0*
20,1,$1+$1,$8,$9,$2,$3,0*%
%AMFreePoly0*
4,1,6,1.000000,0.000000,0.500000,-0.750000,-0.500000,-0.750000,-0.500000,0.750000,0.500000,0.750000,1.000000,0.000000,1.000000,0.000000,$1*%
%AMFreePoly1*
4,1,6,0.500000,-0.750000,-0.650000,-0.750000,-0.150000,0.000000,-0.650000,0.750000,0.500000,0.750000,0.500000,-0.750000,0.500000,-0.750000,$1*%
G04 Aperture macros list end*
G04 #@! TA.AperFunction,Profile*
%ADD10C,0.050000*%
G04 #@! TD*
%ADD11O,1.600000X1.600000*%
%ADD12C,1.600000*%
%ADD13R,1.700000X1.700000*%
%ADD14O,1.700000X1.700000*%
%ADD15C,0.650000*%
%ADD16RoundRect,0.249999X-1.550001X0.790001X-1.550001X-0.790001X1.550001X-0.790001X1.550001X0.790001X0*%
%ADD17O,3.600000X2.080000*%
%ADD18C,5.700000*%
%ADD19RoundRect,0.249999X1.550001X-0.790001X1.550001X0.790001X-1.550001X0.790001X-1.550001X-0.790001X0*%
%ADD20R,3.500000X3.500000*%
%ADD21RoundRect,0.750000X0.750000X1.000000X-0.750000X1.000000X-0.750000X-1.000000X0.750000X-1.000000X0*%
%ADD22RoundRect,0.875000X0.875000X0.875000X-0.875000X0.875000X-0.875000X-0.875000X0.875000X-0.875000X0*%
%ADD23FreePoly0,180.000000*%
%ADD24FreePoly1,180.000000*%
%ADD25FreePoly0,270.000000*%
%ADD26FreePoly1,270.000000*%
%ADD27R,1.500000X1.500000*%
%ADD28FreePoly0,0.000000*%
%ADD29C,2.000000*%
%ADD30FreePoly1,0.000000*%
%ADD31C,0.800000*%
%ADD32C,1.000000*%
G04 APERTURE END LIST*
D10*
X100000000Y-127000000D02*
X100000000Y-83000000D01*
X200000000Y-127000000D02*
G75*
G02*
X197000000Y-130000000I-3000000J0D01*
G01*
X100000000Y-83000000D02*
G75*
G02*
X103000000Y-80000000I3000000J0D01*
G01*
X154450000Y-80000000D02*
G75*
G03*
X153450000Y-81000000I0J-1000000D01*
G01*
X197000000Y-80000000D02*
X154450000Y-80000000D01*
X100000000Y-127000000D02*
G75*
G03*
X103000000Y-130000000I3000000J0D01*
G01*
X200000000Y-83000000D02*
X200000000Y-127000000D01*
X153450000Y-85900000D02*
G75*
G02*
X152450000Y-86900000I-1000000J0D01*
G01*
X136450000Y-81000000D02*
G75*
G03*
X135450000Y-80000000I-1000000J0D01*
G01*
X197000000Y-80000000D02*
G75*
G02*
X200000000Y-83000000I0J-3000000D01*
G01*
X136450000Y-85900000D02*
X136450000Y-81000000D01*
X153450000Y-85900000D02*
X153450000Y-81000000D01*
X103000000Y-80000000D02*
X135450000Y-80000000D01*
X137450000Y-86900000D02*
G75*
G02*
X136450000Y-85900000I0J1000000D01*
G01*
X137450000Y-86900000D02*
X152450000Y-86900000D01*
X197000000Y-130000000D02*
X103000000Y-130000000D01*
D11*
X130008600Y-82796800D03*
D12*
X122388600Y-82796800D03*
D13*
X177618000Y-84400000D03*
D14*
X175078000Y-84400000D03*
X172538000Y-84400000D03*
X169998000Y-84400000D03*
D15*
X195150000Y-95390000D03*
X195150000Y-89610000D03*
D16*
X104410000Y-122770000D03*
D17*
X104410000Y-127850000D03*
D16*
X104410000Y-92290000D03*
D17*
X104410000Y-97370000D03*
D16*
X104410000Y-82130000D03*
D17*
X104410000Y-87210000D03*
D16*
X104410000Y-102450000D03*
D17*
X104410000Y-107530000D03*
D16*
X104410000Y-112610000D03*
D17*
X104410000Y-117690000D03*
D13*
X142504000Y-125563000D03*
D14*
X145044000Y-125563000D03*
X147584000Y-125563000D03*
X150124000Y-125563000D03*
D18*
X112000000Y-83000000D03*
X197000000Y-83000000D03*
X112000000Y-127000000D03*
D13*
X130312000Y-125600000D03*
D14*
X132852000Y-125600000D03*
X135392000Y-125600000D03*
X137932000Y-125600000D03*
D13*
X165426000Y-84400000D03*
D14*
X162886000Y-84400000D03*
X160346000Y-84400000D03*
X157806000Y-84400000D03*
D19*
X195590000Y-120050000D03*
D17*
X195590000Y-114970000D03*
D13*
X118120000Y-125600000D03*
D14*
X120660000Y-125600000D03*
X123200000Y-125600000D03*
X125740000Y-125600000D03*
D18*
X197000000Y-127000000D03*
D20*
X188700000Y-105000000D03*
D21*
X194700000Y-105000000D03*
D22*
X191700000Y-100300000D03*
D13*
X154690000Y-125563000D03*
D14*
X157230000Y-125563000D03*
X159770000Y-125563000D03*
X162310000Y-125563000D03*
D13*
X189810000Y-84410000D03*
D14*
X187270000Y-84410000D03*
X184730000Y-84410000D03*
X182190000Y-84410000D03*
D23*
X138125000Y-88969000D03*
D24*
X136675000Y-88969000D03*
D25*
X184390000Y-103738000D03*
D26*
X184390000Y-105188000D03*
D27*
X124008000Y-122624000D03*
X126408000Y-122624000D03*
D23*
X127208000Y-122624000D03*
D28*
X123208000Y-122624000D03*
D29*
X153783000Y-116401000D03*
D27*
X174718000Y-124689000D03*
X172318000Y-124689000D03*
D23*
X175518000Y-124689000D03*
D28*
X171518000Y-124689000D03*
D29*
X195058000Y-97732000D03*
D28*
X171396000Y-116561000D03*
D30*
X172846000Y-116561000D03*
D29*
X187311000Y-89604000D03*
D27*
X172318000Y-121895000D03*
X174718000Y-121895000D03*
D23*
X175518000Y-121895000D03*
D28*
X171518000Y-121895000D03*
D23*
X166369000Y-124816000D03*
D24*
X164919000Y-124816000D03*
D29*
X197598000Y-108146000D03*
D27*
X172318000Y-119104000D03*
X174718000Y-119104000D03*
D23*
X175518000Y-119104000D03*
D28*
X171518000Y-119104000D03*
D29*
X133590000Y-84905000D03*
D31*
X186422000Y-118306000D03*
X183755000Y-92144000D03*
X109588500Y-97958000D03*
X153783000Y-113734000D03*
X129145000Y-102177000D03*
X117461000Y-121989000D03*
X172198000Y-107638000D03*
D32*
X109917200Y-85997200D03*
D31*
X192772000Y-87191000D03*
X131050000Y-119957000D03*
X130796000Y-87318000D03*
X157947800Y-113716200D03*
D32*
X109510800Y-112547800D03*
D31*
X167523286Y-123698714D03*
X109587000Y-91001000D03*
X114463000Y-105385000D03*
X175804000Y-120625000D03*
X155815000Y-103447000D03*
X191629000Y-81730000D03*
D32*
X109510800Y-116985200D03*
D31*
X118604000Y-114496000D03*
X189470000Y-97351000D03*
X189597000Y-89985000D03*
X128764000Y-123640000D03*
X166609200Y-108458400D03*
X131050000Y-121608000D03*
X163967600Y-108610800D03*
X184390000Y-106495000D03*
X133463000Y-87572000D03*
X151370000Y-118814000D03*
X145020000Y-92652000D03*
X130161000Y-89604000D03*
X129145000Y-95700000D03*
X123176000Y-98494000D03*
X140448000Y-88242000D03*
X140448000Y-89858000D03*
X157593000Y-92906000D03*
X159117000Y-94811000D03*
X160006000Y-93668000D03*
X150735000Y-96843000D03*
X155838567Y-92132567D03*
X149973000Y-92398000D03*
X156196000Y-88588000D03*
X144004000Y-97986000D03*
X156958000Y-89350000D03*
X130802223Y-97737186D03*
X156831000Y-94938000D03*
X146036000Y-97986000D03*
X124573000Y-97697000D03*
X134606000Y-91890000D03*
X122296608Y-99773608D03*
X139559000Y-101796000D03*
X153656000Y-124021000D03*
X164590118Y-120030698D03*
X142607000Y-107511000D03*
X125208000Y-100907000D03*
X121906000Y-100907000D03*
X125462000Y-96970000D03*
X130034000Y-97097000D03*
X173087000Y-91509000D03*
X177913000Y-92493000D03*
X177532000Y-90747000D03*
X179818000Y-95954000D03*
X188327000Y-91523000D03*
X188073000Y-97351000D03*
X177201000Y-124562000D03*
X168539286Y-124714714D03*
X176262000Y-114242000D03*
X182866000Y-114496000D03*
X184390000Y-102558000D03*
X192264000Y-94684000D03*
X192391000Y-90366000D03*
X173386134Y-122905161D03*
X173391000Y-120545500D03*
X177151000Y-95827000D03*
X177024000Y-97859000D03*
X192392741Y-93477000D03*
X192379998Y-91890000D03*
X169962000Y-120879000D03*
X171309000Y-110432000D03*
X179310000Y-109924000D03*
X128383000Y-122497000D03*
X122125000Y-122624000D03*
X163993000Y-112014400D03*
X166685400Y-111938200D03*
X174026000Y-123673000D03*
M02*
