M48
; DRILL file {KiCad (5.99.0-9568-gb9d26a55f2)} date 03/08/21 10:56:11
; FORMAT={-:-/ absolute / inch / decimal}
; #@! TF.CreationDate,2021-03-08T10:56:11+01:00
; #@! TF.GenerationSoftware,Kicad,Pcbnew,(5.99.0-9568-gb9d26a55f2)
; #@! TF.FileFunction,Plated,1,2,PTH
FMAT,2
INCH
T1C0.0157
T2C0.0236
T3C0.0394
T4C0.0551
%
G90
G05
T1
X0.3774Y1.5354
X0.3774Y1.1404
X0.6874Y0.3154
X0.7324Y0.6104
X0.8624Y1.1454
X0.8711Y0.2904
X0.8778Y1.19
X0.9124Y1.2404
X0.9674Y1.2718
X0.9924Y1.1454
X1.0024Y1.3004
X1.1174Y0.2954
X1.1324Y0.2504
X1.1474Y1.3504
X1.1474Y1.0954
X1.1824Y1.2954
X1.1874Y1.5904
X1.2124Y1.6804
X1.2127Y1.2702
X1.2224Y0.3954
X1.2224Y0.3304
X1.3174Y1.6704
X1.3624Y1.5004
X1.5574Y1.1104
X1.5924Y1.644
X1.5924Y1.5804
X1.6774Y0.8854
X1.7324Y1.2604
X1.7724Y1.4704
X1.8124Y1.2604
X1.9674Y1.4804
X1.9974Y1.3054
X2.0224Y0.4404
X2.1124Y0.2354
X2.1174Y0.6404
X2.1974Y1.0454
X2.1984Y1.4908
X2.2124Y1.6304
X2.2374Y1.3804
X2.2424Y1.6004
X2.2674Y1.4604
X2.3274Y1.3854
X2.3624Y1.4304
X2.3724Y0.6404
X2.4324Y0.4854
X2.5024Y0.3504
X2.6211Y0.5304
X2.6459Y0.3661
X2.6622Y0.171
X2.6624Y0.3304
X2.6624Y0.2104
X2.701Y0.1859
X2.7464Y0.147
X2.8074Y0.7704
X2.8424Y0.8804
X2.8774Y1.5154
X2.8824Y0.2004
X2.8901Y0.1524
X3.0024Y0.6204
X3.0324Y1.2654
X3.0374Y1.3454
X3.0474Y0.1404
X3.0524Y1.5454
X3.0674Y1.4767
X3.1224Y0.7904
X3.1424Y1.3404
X3.2624Y0.6104
X3.2974Y1.4904
X3.3224Y1.0804
X3.3224Y0.9254
X3.4024Y0.4604
X3.4674Y1.2854
X3.4774Y1.5148
X3.5224Y1.2854
X3.5274Y1.5754
X3.6074Y1.9004
X3.6324Y1.3904
X3.637Y1.5004
X3.6374Y1.5604
X3.6375Y1.4379
X3.6524Y1.6854
X3.8224Y1.5504
X3.8224Y1.4104
T2
X0.3744Y0.7384
X0.3744Y0.5124
X0.3904Y1.7324
X0.6124Y0.8104
T3
X0.7134Y0.1732
X0.8134Y0.1732
X0.8814Y1.8584
X0.9134Y0.1732
X1.0134Y0.1732
X1.1814Y1.8584
X1.1934Y0.1732
X1.2934Y0.1732
X1.3934Y0.1732
X1.4934Y0.1732
X1.6734Y0.1747
X1.7734Y0.1747
X1.8734Y0.1747
X1.9734Y0.1747
X2.1531Y0.1747
X2.2531Y0.1747
X2.2758Y1.7953
X2.3531Y0.1747
X2.3758Y1.7953
X2.4531Y0.1747
X2.4758Y1.7953
X2.5758Y1.7953
X2.7558Y1.7953
X2.8558Y1.7953
X2.9558Y1.7953
X3.0558Y1.7953
X3.2358Y1.7949
X3.3358Y1.7949
X3.4358Y1.7949
X3.5358Y1.7949
T4
X0.1736Y1.8846
X0.1736Y1.6846
X0.1736Y1.4846
X0.1736Y1.2846
X0.1736Y1.0846
X0.1736Y0.8846
X0.1736Y0.6846
X0.1736Y0.4846
X0.1736Y0.2846
X0.1736Y0.0846
X3.7634Y0.5917
X3.7634Y0.3917
T3
G00X3.4921Y0.9449
M15
G01X3.4921Y1.0236
M16
G05
G00X3.6496Y1.1693
M15
G01X3.5709Y1.1693
M16
G05
G00X3.7283Y0.9449
M15
G01X3.7283Y1.0236
M16
G05
T0
M30
