%TF.GenerationSoftware,KiCad,Pcbnew,(5.1.9)-1*%
%TF.CreationDate,2021-01-18T19:47:50+01:00*%
%TF.ProjectId,DC-DC-only,44432d44-432d-46f6-9e6c-792e6b696361,rev?*%
%TF.SameCoordinates,Original*%
%TF.FileFunction,Legend,Bot*%
%TF.FilePolarity,Positive*%
%FSLAX46Y46*%
G04 Gerber Fmt 4.6, Leading zero omitted, Abs format (unit mm)*
G04 Created by KiCad (PCBNEW (5.1.9)-1) date 2021-01-18 19:47:50*
%MOMM*%
%LPD*%
G01*
G04 APERTURE LIST*
%ADD10C,0.300000*%
%ADD11R,1.700000X1.700000*%
%ADD12C,5.700000*%
%ADD13C,1.600000*%
%ADD14O,1.600000X1.600000*%
G04 APERTURE END LIST*
D10*
X140816000Y-85590571D02*
X139958857Y-85590571D01*
X140387428Y-87090571D02*
X140387428Y-85590571D01*
X139458857Y-87090571D02*
X139458857Y-85590571D01*
X138887428Y-85590571D01*
X138744571Y-85662000D01*
X138673142Y-85733428D01*
X138601714Y-85876285D01*
X138601714Y-86090571D01*
X138673142Y-86233428D01*
X138744571Y-86304857D01*
X138887428Y-86376285D01*
X139458857Y-86376285D01*
X138030285Y-87019142D02*
X137816000Y-87090571D01*
X137458857Y-87090571D01*
X137316000Y-87019142D01*
X137244571Y-86947714D01*
X137173142Y-86804857D01*
X137173142Y-86662000D01*
X137244571Y-86519142D01*
X137316000Y-86447714D01*
X137458857Y-86376285D01*
X137744571Y-86304857D01*
X137887428Y-86233428D01*
X137958857Y-86162000D01*
X138030285Y-86019142D01*
X138030285Y-85876285D01*
X137958857Y-85733428D01*
X137887428Y-85662000D01*
X137744571Y-85590571D01*
X137387428Y-85590571D01*
X137173142Y-85662000D01*
X135816000Y-85590571D02*
X136530285Y-85590571D01*
X136601714Y-86304857D01*
X136530285Y-86233428D01*
X136387428Y-86162000D01*
X136030285Y-86162000D01*
X135887428Y-86233428D01*
X135816000Y-86304857D01*
X135744571Y-86447714D01*
X135744571Y-86804857D01*
X135816000Y-86947714D01*
X135887428Y-87019142D01*
X136030285Y-87090571D01*
X136387428Y-87090571D01*
X136530285Y-87019142D01*
X136601714Y-86947714D01*
X134458857Y-86090571D02*
X134458857Y-87090571D01*
X134816000Y-85519142D02*
X135173142Y-86590571D01*
X134244571Y-86590571D01*
X133816000Y-85590571D02*
X132887428Y-85590571D01*
X133387428Y-86162000D01*
X133173142Y-86162000D01*
X133030285Y-86233428D01*
X132958857Y-86304857D01*
X132887428Y-86447714D01*
X132887428Y-86804857D01*
X132958857Y-86947714D01*
X133030285Y-87019142D01*
X133173142Y-87090571D01*
X133601714Y-87090571D01*
X133744571Y-87019142D01*
X133816000Y-86947714D01*
X132387428Y-85590571D02*
X131458857Y-85590571D01*
X131958857Y-86162000D01*
X131744571Y-86162000D01*
X131601714Y-86233428D01*
X131530285Y-86304857D01*
X131458857Y-86447714D01*
X131458857Y-86804857D01*
X131530285Y-86947714D01*
X131601714Y-87019142D01*
X131744571Y-87090571D01*
X132173142Y-87090571D01*
X132316000Y-87019142D01*
X132387428Y-86947714D01*
X130030285Y-87090571D02*
X130887428Y-87090571D01*
X130458857Y-87090571D02*
X130458857Y-85590571D01*
X130601714Y-85804857D01*
X130744571Y-85947714D01*
X130887428Y-86019142D01*
X128244571Y-87090571D02*
X128244571Y-85590571D01*
X127887428Y-85590571D01*
X127673142Y-85662000D01*
X127530285Y-85804857D01*
X127458857Y-85947714D01*
X127387428Y-86233428D01*
X127387428Y-86447714D01*
X127458857Y-86733428D01*
X127530285Y-86876285D01*
X127673142Y-87019142D01*
X127887428Y-87090571D01*
X128244571Y-87090571D01*
X125887428Y-86947714D02*
X125958857Y-87019142D01*
X126173142Y-87090571D01*
X126316000Y-87090571D01*
X126530285Y-87019142D01*
X126673142Y-86876285D01*
X126744571Y-86733428D01*
X126816000Y-86447714D01*
X126816000Y-86233428D01*
X126744571Y-85947714D01*
X126673142Y-85804857D01*
X126530285Y-85662000D01*
X126316000Y-85590571D01*
X126173142Y-85590571D01*
X125958857Y-85662000D01*
X125887428Y-85733428D01*
X125244571Y-86519142D02*
X124101714Y-86519142D01*
X123387428Y-87090571D02*
X123387428Y-85590571D01*
X123030285Y-85590571D01*
X122816000Y-85662000D01*
X122673142Y-85804857D01*
X122601714Y-85947714D01*
X122530285Y-86233428D01*
X122530285Y-86447714D01*
X122601714Y-86733428D01*
X122673142Y-86876285D01*
X122816000Y-87019142D01*
X123030285Y-87090571D01*
X123387428Y-87090571D01*
X121030285Y-86947714D02*
X121101714Y-87019142D01*
X121316000Y-87090571D01*
X121458857Y-87090571D01*
X121673142Y-87019142D01*
X121816000Y-86876285D01*
X121887428Y-86733428D01*
X121958857Y-86447714D01*
X121958857Y-86233428D01*
X121887428Y-85947714D01*
X121816000Y-85804857D01*
X121673142Y-85662000D01*
X121458857Y-85590571D01*
X121316000Y-85590571D01*
X121101714Y-85662000D01*
X121030285Y-85733428D01*
X118601714Y-87019142D02*
X118744571Y-87090571D01*
X119030285Y-87090571D01*
X119173142Y-87019142D01*
X119244571Y-86947714D01*
X119316000Y-86804857D01*
X119316000Y-86376285D01*
X119244571Y-86233428D01*
X119173142Y-86162000D01*
X119030285Y-86090571D01*
X118744571Y-86090571D01*
X118601714Y-86162000D01*
X117744571Y-87090571D02*
X117887428Y-87019142D01*
X117958857Y-86947714D01*
X118030285Y-86804857D01*
X118030285Y-86376285D01*
X117958857Y-86233428D01*
X117887428Y-86162000D01*
X117744571Y-86090571D01*
X117530285Y-86090571D01*
X117387428Y-86162000D01*
X117316000Y-86233428D01*
X117244571Y-86376285D01*
X117244571Y-86804857D01*
X117316000Y-86947714D01*
X117387428Y-87019142D01*
X117530285Y-87090571D01*
X117744571Y-87090571D01*
X116601714Y-86090571D02*
X116601714Y-87090571D01*
X116601714Y-86233428D02*
X116530285Y-86162000D01*
X116387428Y-86090571D01*
X116173142Y-86090571D01*
X116030285Y-86162000D01*
X115958857Y-86304857D01*
X115958857Y-87090571D01*
X115387428Y-86090571D02*
X115030285Y-87090571D01*
X114673142Y-86090571D01*
X113530285Y-87019142D02*
X113673142Y-87090571D01*
X113958857Y-87090571D01*
X114101714Y-87019142D01*
X114173142Y-86876285D01*
X114173142Y-86304857D01*
X114101714Y-86162000D01*
X113958857Y-86090571D01*
X113673142Y-86090571D01*
X113530285Y-86162000D01*
X113458857Y-86304857D01*
X113458857Y-86447714D01*
X114173142Y-86590571D01*
X112816000Y-87090571D02*
X112816000Y-86090571D01*
X112816000Y-86376285D02*
X112744571Y-86233428D01*
X112673142Y-86162000D01*
X112530285Y-86090571D01*
X112387428Y-86090571D01*
X112101714Y-86090571D02*
X111530285Y-86090571D01*
X111887428Y-85590571D02*
X111887428Y-86876285D01*
X111816000Y-87019142D01*
X111673142Y-87090571D01*
X111530285Y-87090571D01*
X110458857Y-87019142D02*
X110601714Y-87090571D01*
X110887428Y-87090571D01*
X111030285Y-87019142D01*
X111101714Y-86876285D01*
X111101714Y-86304857D01*
X111030285Y-86162000D01*
X110887428Y-86090571D01*
X110601714Y-86090571D01*
X110458857Y-86162000D01*
X110387428Y-86304857D01*
X110387428Y-86447714D01*
X111101714Y-86590571D01*
X109744571Y-87090571D02*
X109744571Y-86090571D01*
X109744571Y-86376285D02*
X109673142Y-86233428D01*
X109601714Y-86162000D01*
X109458857Y-86090571D01*
X109316000Y-86090571D01*
X134816000Y-88140571D02*
X134316000Y-89640571D01*
X133816000Y-88140571D01*
X133316000Y-89640571D02*
X133316000Y-88640571D01*
X133316000Y-88140571D02*
X133387428Y-88212000D01*
X133316000Y-88283428D01*
X133244571Y-88212000D01*
X133316000Y-88140571D01*
X133316000Y-88283428D01*
X132601714Y-88640571D02*
X132601714Y-89640571D01*
X132601714Y-88783428D02*
X132530285Y-88712000D01*
X132387428Y-88640571D01*
X132173142Y-88640571D01*
X132030285Y-88712000D01*
X131958857Y-88854857D01*
X131958857Y-89640571D01*
X130101714Y-88854857D02*
X128958857Y-88854857D01*
X128958857Y-89283428D02*
X130101714Y-89283428D01*
X126316000Y-89640571D02*
X127173142Y-89640571D01*
X126744571Y-89640571D02*
X126744571Y-88140571D01*
X126887428Y-88354857D01*
X127030285Y-88497714D01*
X127173142Y-88569142D01*
X125744571Y-88283428D02*
X125673142Y-88212000D01*
X125530285Y-88140571D01*
X125173142Y-88140571D01*
X125030285Y-88212000D01*
X124958857Y-88283428D01*
X124887428Y-88426285D01*
X124887428Y-88569142D01*
X124958857Y-88783428D01*
X125816000Y-89640571D01*
X124887428Y-89640571D01*
X123101714Y-89069142D02*
X121958857Y-89069142D01*
X120173142Y-88283428D02*
X120101714Y-88212000D01*
X119958857Y-88140571D01*
X119601714Y-88140571D01*
X119458857Y-88212000D01*
X119387428Y-88283428D01*
X119316000Y-88426285D01*
X119316000Y-88569142D01*
X119387428Y-88783428D01*
X120244571Y-89640571D01*
X119316000Y-89640571D01*
X118458857Y-88783428D02*
X118601714Y-88712000D01*
X118673142Y-88640571D01*
X118744571Y-88497714D01*
X118744571Y-88426285D01*
X118673142Y-88283428D01*
X118601714Y-88212000D01*
X118458857Y-88140571D01*
X118173142Y-88140571D01*
X118030285Y-88212000D01*
X117958857Y-88283428D01*
X117887428Y-88426285D01*
X117887428Y-88497714D01*
X117958857Y-88640571D01*
X118030285Y-88712000D01*
X118173142Y-88783428D01*
X118458857Y-88783428D01*
X118601714Y-88854857D01*
X118673142Y-88926285D01*
X118744571Y-89069142D01*
X118744571Y-89354857D01*
X118673142Y-89497714D01*
X118601714Y-89569142D01*
X118458857Y-89640571D01*
X118173142Y-89640571D01*
X118030285Y-89569142D01*
X117958857Y-89497714D01*
X117887428Y-89354857D01*
X117887428Y-89069142D01*
X117958857Y-88926285D01*
X118030285Y-88854857D01*
X118173142Y-88783428D01*
X116316000Y-88140571D02*
X115816000Y-89640571D01*
X115316000Y-88140571D01*
X138173142Y-90690571D02*
X137673142Y-92190571D01*
X137173142Y-90690571D01*
X136458857Y-92190571D02*
X136601714Y-92119142D01*
X136673142Y-92047714D01*
X136744571Y-91904857D01*
X136744571Y-91476285D01*
X136673142Y-91333428D01*
X136601714Y-91262000D01*
X136458857Y-91190571D01*
X136244571Y-91190571D01*
X136101714Y-91262000D01*
X136030285Y-91333428D01*
X135958857Y-91476285D01*
X135958857Y-91904857D01*
X136030285Y-92047714D01*
X136101714Y-92119142D01*
X136244571Y-92190571D01*
X136458857Y-92190571D01*
X134673142Y-91190571D02*
X134673142Y-92190571D01*
X135316000Y-91190571D02*
X135316000Y-91976285D01*
X135244571Y-92119142D01*
X135101714Y-92190571D01*
X134887428Y-92190571D01*
X134744571Y-92119142D01*
X134673142Y-92047714D01*
X134173142Y-91190571D02*
X133601714Y-91190571D01*
X133958857Y-90690571D02*
X133958857Y-91976285D01*
X133887428Y-92119142D01*
X133744571Y-92190571D01*
X133601714Y-92190571D01*
X131958857Y-91404857D02*
X130816000Y-91404857D01*
X130816000Y-91833428D02*
X131958857Y-91833428D01*
X128244571Y-90690571D02*
X128958857Y-90690571D01*
X129030285Y-91404857D01*
X128958857Y-91333428D01*
X128816000Y-91262000D01*
X128458857Y-91262000D01*
X128316000Y-91333428D01*
X128244571Y-91404857D01*
X128173142Y-91547714D01*
X128173142Y-91904857D01*
X128244571Y-92047714D01*
X128316000Y-92119142D01*
X128458857Y-92190571D01*
X128816000Y-92190571D01*
X128958857Y-92119142D01*
X129030285Y-92047714D01*
X126601714Y-90690571D02*
X126101714Y-92190571D01*
X125601714Y-90690571D01*
X123316000Y-92190571D02*
X123316000Y-91404857D01*
X123387428Y-91262000D01*
X123530285Y-91190571D01*
X123816000Y-91190571D01*
X123958857Y-91262000D01*
X123316000Y-92119142D02*
X123458857Y-92190571D01*
X123816000Y-92190571D01*
X123958857Y-92119142D01*
X124030285Y-91976285D01*
X124030285Y-91833428D01*
X123958857Y-91690571D01*
X123816000Y-91619142D01*
X123458857Y-91619142D01*
X123316000Y-91547714D01*
X122816000Y-91190571D02*
X122244571Y-91190571D01*
X122601714Y-92190571D02*
X122601714Y-90904857D01*
X122530285Y-90762000D01*
X122387428Y-90690571D01*
X122244571Y-90690571D01*
X121958857Y-91190571D02*
X121387428Y-91190571D01*
X121744571Y-90690571D02*
X121744571Y-91976285D01*
X121673142Y-92119142D01*
X121530285Y-92190571D01*
X121387428Y-92190571D01*
X120316000Y-92119142D02*
X120458857Y-92190571D01*
X120744571Y-92190571D01*
X120887428Y-92119142D01*
X120958857Y-91976285D01*
X120958857Y-91404857D01*
X120887428Y-91262000D01*
X120744571Y-91190571D01*
X120458857Y-91190571D01*
X120316000Y-91262000D01*
X120244571Y-91404857D01*
X120244571Y-91547714D01*
X120958857Y-91690571D01*
X119601714Y-92190571D02*
X119601714Y-91190571D01*
X119601714Y-91476285D02*
X119530285Y-91333428D01*
X119458857Y-91262000D01*
X119316000Y-91190571D01*
X119173142Y-91190571D01*
X116887428Y-92190571D02*
X116887428Y-90690571D01*
X116887428Y-92119142D02*
X117030285Y-92190571D01*
X117316000Y-92190571D01*
X117458857Y-92119142D01*
X117530285Y-92047714D01*
X117601714Y-91904857D01*
X117601714Y-91476285D01*
X117530285Y-91333428D01*
X117458857Y-91262000D01*
X117316000Y-91190571D01*
X117030285Y-91190571D01*
X116887428Y-91262000D01*
X116173142Y-92190571D02*
X116173142Y-91190571D01*
X116173142Y-90690571D02*
X116244571Y-90762000D01*
X116173142Y-90833428D01*
X116101714Y-90762000D01*
X116173142Y-90690571D01*
X116173142Y-90833428D01*
X115244571Y-92190571D02*
X115387428Y-92119142D01*
X115458857Y-92047714D01*
X115530285Y-91904857D01*
X115530285Y-91476285D01*
X115458857Y-91333428D01*
X115387428Y-91262000D01*
X115244571Y-91190571D01*
X115030285Y-91190571D01*
X114887428Y-91262000D01*
X114816000Y-91333428D01*
X114744571Y-91476285D01*
X114744571Y-91904857D01*
X114816000Y-92047714D01*
X114887428Y-92119142D01*
X115030285Y-92190571D01*
X115244571Y-92190571D01*
X113458857Y-92190571D02*
X113458857Y-90690571D01*
X113458857Y-92119142D02*
X113601714Y-92190571D01*
X113887428Y-92190571D01*
X114030285Y-92119142D01*
X114101714Y-92047714D01*
X114173142Y-91904857D01*
X114173142Y-91476285D01*
X114101714Y-91333428D01*
X114030285Y-91262000D01*
X113887428Y-91190571D01*
X113601714Y-91190571D01*
X113458857Y-91262000D01*
X112173142Y-92119142D02*
X112316000Y-92190571D01*
X112601714Y-92190571D01*
X112744571Y-92119142D01*
X112816000Y-91976285D01*
X112816000Y-91404857D01*
X112744571Y-91262000D01*
X112601714Y-91190571D01*
X112316000Y-91190571D01*
X112173142Y-91262000D01*
X112101714Y-91404857D01*
X112101714Y-91547714D01*
X112816000Y-91690571D01*
X139137428Y-93740571D02*
X138780285Y-94740571D01*
X138423142Y-93740571D01*
X137566000Y-93240571D02*
X137423142Y-93240571D01*
X137280285Y-93312000D01*
X137208857Y-93383428D01*
X137137428Y-93526285D01*
X137066000Y-93812000D01*
X137066000Y-94169142D01*
X137137428Y-94454857D01*
X137208857Y-94597714D01*
X137280285Y-94669142D01*
X137423142Y-94740571D01*
X137566000Y-94740571D01*
X137708857Y-94669142D01*
X137780285Y-94597714D01*
X137851714Y-94454857D01*
X137923142Y-94169142D01*
X137923142Y-93812000D01*
X137851714Y-93526285D01*
X137780285Y-93383428D01*
X137708857Y-93312000D01*
X137566000Y-93240571D01*
X136423142Y-94597714D02*
X136351714Y-94669142D01*
X136423142Y-94740571D01*
X136494571Y-94669142D01*
X136423142Y-94597714D01*
X136423142Y-94740571D01*
X134923142Y-94740571D02*
X135780285Y-94740571D01*
X135351714Y-94740571D02*
X135351714Y-93240571D01*
X135494571Y-93454857D01*
X135637428Y-93597714D01*
X135780285Y-93669142D01*
X133137428Y-94169142D02*
X131994571Y-94169142D01*
X129280285Y-94597714D02*
X129351714Y-94669142D01*
X129566000Y-94740571D01*
X129708857Y-94740571D01*
X129923142Y-94669142D01*
X130066000Y-94526285D01*
X130137428Y-94383428D01*
X130208857Y-94097714D01*
X130208857Y-93883428D01*
X130137428Y-93597714D01*
X130066000Y-93454857D01*
X129923142Y-93312000D01*
X129708857Y-93240571D01*
X129566000Y-93240571D01*
X129351714Y-93312000D01*
X129280285Y-93383428D01*
X128637428Y-94740571D02*
X128637428Y-93240571D01*
X127994571Y-94740571D02*
X127994571Y-93954857D01*
X128066000Y-93812000D01*
X128208857Y-93740571D01*
X128423142Y-93740571D01*
X128566000Y-93812000D01*
X128637428Y-93883428D01*
X127280285Y-94740571D02*
X127280285Y-93740571D01*
X127280285Y-94026285D02*
X127208857Y-93883428D01*
X127137428Y-93812000D01*
X126994571Y-93740571D01*
X126851714Y-93740571D01*
X126351714Y-94740571D02*
X126351714Y-93740571D01*
X126351714Y-93240571D02*
X126423142Y-93312000D01*
X126351714Y-93383428D01*
X126280285Y-93312000D01*
X126351714Y-93240571D01*
X126351714Y-93383428D01*
X125708857Y-94669142D02*
X125566000Y-94740571D01*
X125280285Y-94740571D01*
X125137428Y-94669142D01*
X125066000Y-94526285D01*
X125066000Y-94454857D01*
X125137428Y-94312000D01*
X125280285Y-94240571D01*
X125494571Y-94240571D01*
X125637428Y-94169142D01*
X125708857Y-94026285D01*
X125708857Y-93954857D01*
X125637428Y-93812000D01*
X125494571Y-93740571D01*
X125280285Y-93740571D01*
X125137428Y-93812000D01*
X124423142Y-94740571D02*
X124423142Y-93740571D01*
X124423142Y-93883428D02*
X124351714Y-93812000D01*
X124208857Y-93740571D01*
X123994571Y-93740571D01*
X123851714Y-93812000D01*
X123780285Y-93954857D01*
X123780285Y-94740571D01*
X123780285Y-93954857D02*
X123708857Y-93812000D01*
X123566000Y-93740571D01*
X123351714Y-93740571D01*
X123208857Y-93812000D01*
X123137428Y-93954857D01*
X123137428Y-94740571D01*
X121851714Y-94669142D02*
X121994571Y-94740571D01*
X122280285Y-94740571D01*
X122423142Y-94669142D01*
X122494571Y-94526285D01*
X122494571Y-93954857D01*
X122423142Y-93812000D01*
X122280285Y-93740571D01*
X121994571Y-93740571D01*
X121851714Y-93812000D01*
X121780285Y-93954857D01*
X121780285Y-94097714D01*
X122494571Y-94240571D01*
X121351714Y-93740571D02*
X120780285Y-93740571D01*
X121137428Y-93240571D02*
X121137428Y-94526285D01*
X121066000Y-94669142D01*
X120923142Y-94740571D01*
X120780285Y-94740571D01*
X120494571Y-93740571D02*
X119923142Y-93740571D01*
X120280285Y-93240571D02*
X120280285Y-94526285D01*
X120208857Y-94669142D01*
X120066000Y-94740571D01*
X119923142Y-94740571D01*
X118780285Y-94740571D02*
X118780285Y-93954857D01*
X118851714Y-93812000D01*
X118994571Y-93740571D01*
X119280285Y-93740571D01*
X119423142Y-93812000D01*
X118780285Y-94669142D02*
X118923142Y-94740571D01*
X119280285Y-94740571D01*
X119423142Y-94669142D01*
X119494571Y-94526285D01*
X119494571Y-94383428D01*
X119423142Y-94240571D01*
X119280285Y-94169142D01*
X118923142Y-94169142D01*
X118780285Y-94097714D01*
X117851714Y-94740571D02*
X117994571Y-94669142D01*
X118066000Y-94526285D01*
X118066000Y-93240571D01*
X116208857Y-93383428D02*
X116137428Y-93312000D01*
X115994571Y-93240571D01*
X115637428Y-93240571D01*
X115494571Y-93312000D01*
X115423142Y-93383428D01*
X115351714Y-93526285D01*
X115351714Y-93669142D01*
X115423142Y-93883428D01*
X116280285Y-94740571D01*
X115351714Y-94740571D01*
X114423142Y-93240571D02*
X114280285Y-93240571D01*
X114137428Y-93312000D01*
X114066000Y-93383428D01*
X113994571Y-93526285D01*
X113923142Y-93812000D01*
X113923142Y-94169142D01*
X113994571Y-94454857D01*
X114066000Y-94597714D01*
X114137428Y-94669142D01*
X114280285Y-94740571D01*
X114423142Y-94740571D01*
X114566000Y-94669142D01*
X114637428Y-94597714D01*
X114708857Y-94454857D01*
X114780285Y-94169142D01*
X114780285Y-93812000D01*
X114708857Y-93526285D01*
X114637428Y-93383428D01*
X114566000Y-93312000D01*
X114423142Y-93240571D01*
X113351714Y-93383428D02*
X113280285Y-93312000D01*
X113137428Y-93240571D01*
X112780285Y-93240571D01*
X112637428Y-93312000D01*
X112566000Y-93383428D01*
X112494571Y-93526285D01*
X112494571Y-93669142D01*
X112566000Y-93883428D01*
X113423142Y-94740571D01*
X112494571Y-94740571D01*
X111566000Y-93240571D02*
X111423142Y-93240571D01*
X111280285Y-93312000D01*
X111208857Y-93383428D01*
X111137428Y-93526285D01*
X111066000Y-93812000D01*
X111066000Y-94169142D01*
X111137428Y-94454857D01*
X111208857Y-94597714D01*
X111280285Y-94669142D01*
X111423142Y-94740571D01*
X111566000Y-94740571D01*
X111708857Y-94669142D01*
X111780285Y-94597714D01*
X111851714Y-94454857D01*
X111923142Y-94169142D01*
X111923142Y-93812000D01*
X111851714Y-93526285D01*
X111780285Y-93383428D01*
X111708857Y-93312000D01*
X111566000Y-93240571D01*
%LPC*%
D11*
%TO.C,J1*%
X105000000Y-81220000D03*
%TD*%
%TO.C,J2*%
X145640000Y-99060000D03*
%TD*%
%TO.C,J3*%
X145640000Y-81220000D03*
%TD*%
%TO.C,J4*%
X105000000Y-99000000D03*
%TD*%
D12*
%TO.C,H1*%
X112000000Y-82610000D03*
%TD*%
%TO.C,H3*%
X138000000Y-97610000D03*
%TD*%
D13*
%TO.C,LO1*%
X121164600Y-81644800D03*
D14*
X128784600Y-81644800D03*
%TD*%
M02*
