%TF.GenerationSoftware,KiCad,Pcbnew,(5.1.9)-1*%
%TF.CreationDate,2021-01-18T19:47:50+01:00*%
%TF.ProjectId,DC-DC-only,44432d44-432d-46f6-9e6c-792e6b696361,rev?*%
%TF.SameCoordinates,Original*%
%TF.FileFunction,Copper,L2,Bot*%
%TF.FilePolarity,Positive*%
%FSLAX46Y46*%
G04 Gerber Fmt 4.6, Leading zero omitted, Abs format (unit mm)*
G04 Created by KiCad (PCBNEW (5.1.9)-1) date 2021-01-18 19:47:50*
%MOMM*%
%LPD*%
G01*
G04 APERTURE LIST*
%TA.AperFunction,ComponentPad*%
%ADD10R,1.700000X1.700000*%
%TD*%
%TA.AperFunction,ComponentPad*%
%ADD11C,1.600000*%
%TD*%
%TA.AperFunction,ComponentPad*%
%ADD12O,1.600000X1.600000*%
%TD*%
%TA.AperFunction,ViaPad*%
%ADD13C,0.800000*%
%TD*%
%TA.AperFunction,Conductor*%
%ADD14C,0.250000*%
%TD*%
%TA.AperFunction,Conductor*%
%ADD15C,0.254000*%
%TD*%
%TA.AperFunction,Conductor*%
%ADD16C,0.100000*%
%TD*%
G04 APERTURE END LIST*
D10*
%TO.P,J1,1*%
%TO.N,Net-(C1-Pad1)*%
X105000000Y-81220000D03*
%TD*%
%TO.P,J2,1*%
%TO.N,GND*%
X145640000Y-99060000D03*
%TD*%
%TO.P,J3,1*%
%TO.N,Net-(D2-Pad1)*%
X145640000Y-81220000D03*
%TD*%
%TO.P,J4,1*%
%TO.N,GND*%
X105000000Y-99000000D03*
%TD*%
D11*
%TO.P,LO1,2*%
%TO.N,N/C*%
X121164600Y-81644800D03*
D12*
%TO.P,LO1,1*%
X128784600Y-81644800D03*
%TD*%
D13*
%TO.N,Net-(C4-Pad2)*%
X118618000Y-91821000D03*
X127575812Y-91849302D03*
%TO.N,Net-(R5-Pad2)*%
X125066000Y-96079000D03*
X130527000Y-94047000D03*
%TD*%
D14*
%TO.N,Net-(C4-Pad2)*%
X127547510Y-91821000D02*
X127575812Y-91849302D01*
X118618000Y-91821000D02*
X127547510Y-91821000D01*
%TO.N,Net-(R5-Pad2)*%
X125066000Y-96079000D02*
X128876000Y-96079000D01*
X130527000Y-94047000D02*
X130527000Y-94936000D01*
X129384000Y-96079000D02*
X128876000Y-96079000D01*
X130527000Y-94936000D02*
X129384000Y-96079000D01*
%TD*%
D15*
%TO.N,GND*%
X110589862Y-79971817D02*
X110102273Y-80297613D01*
X109687613Y-80712273D01*
X109361817Y-81199862D01*
X109137405Y-81741641D01*
X109023000Y-82316791D01*
X109023000Y-82903209D01*
X109137405Y-83478359D01*
X109361817Y-84020138D01*
X109687613Y-84507727D01*
X110102273Y-84922387D01*
X110589862Y-85248183D01*
X111131641Y-85472595D01*
X111706791Y-85587000D01*
X112293209Y-85587000D01*
X112868359Y-85472595D01*
X113410138Y-85248183D01*
X113897727Y-84922387D01*
X114312387Y-84507727D01*
X114638183Y-84020138D01*
X114862595Y-83478359D01*
X114977000Y-82903209D01*
X114977000Y-82316791D01*
X114862595Y-81741641D01*
X114763940Y-81503465D01*
X119729600Y-81503465D01*
X119729600Y-81786135D01*
X119784747Y-82063374D01*
X119892920Y-82324527D01*
X120049963Y-82559559D01*
X120249841Y-82759437D01*
X120484873Y-82916480D01*
X120746026Y-83024653D01*
X121023265Y-83079800D01*
X121305935Y-83079800D01*
X121583174Y-83024653D01*
X121844327Y-82916480D01*
X122079359Y-82759437D01*
X122279237Y-82559559D01*
X122436280Y-82324527D01*
X122544453Y-82063374D01*
X122599600Y-81786135D01*
X122599600Y-81503465D01*
X127349600Y-81503465D01*
X127349600Y-81786135D01*
X127404747Y-82063374D01*
X127512920Y-82324527D01*
X127669963Y-82559559D01*
X127869841Y-82759437D01*
X128104873Y-82916480D01*
X128366026Y-83024653D01*
X128643265Y-83079800D01*
X128925935Y-83079800D01*
X129203174Y-83024653D01*
X129464327Y-82916480D01*
X129699359Y-82759437D01*
X129899237Y-82559559D01*
X130056280Y-82324527D01*
X130164453Y-82063374D01*
X130219600Y-81786135D01*
X130219600Y-81503465D01*
X130164453Y-81226226D01*
X130056280Y-80965073D01*
X129899237Y-80730041D01*
X129699359Y-80530163D01*
X129464327Y-80373120D01*
X129203174Y-80264947D01*
X128925935Y-80209800D01*
X128643265Y-80209800D01*
X128366026Y-80264947D01*
X128104873Y-80373120D01*
X127869841Y-80530163D01*
X127669963Y-80730041D01*
X127512920Y-80965073D01*
X127404747Y-81226226D01*
X127349600Y-81503465D01*
X122599600Y-81503465D01*
X122544453Y-81226226D01*
X122436280Y-80965073D01*
X122279237Y-80730041D01*
X122079359Y-80530163D01*
X121844327Y-80373120D01*
X121583174Y-80264947D01*
X121305935Y-80209800D01*
X121023265Y-80209800D01*
X120746026Y-80264947D01*
X120484873Y-80373120D01*
X120249841Y-80530163D01*
X120049963Y-80730041D01*
X119892920Y-80965073D01*
X119784747Y-81226226D01*
X119729600Y-81503465D01*
X114763940Y-81503465D01*
X114638183Y-81199862D01*
X114312387Y-80712273D01*
X113897727Y-80297613D01*
X113410138Y-79971817D01*
X113248827Y-79905000D01*
X144355649Y-79905000D01*
X144338815Y-79918815D01*
X144259463Y-80015506D01*
X144200498Y-80125820D01*
X144164188Y-80245518D01*
X144151928Y-80370000D01*
X144151928Y-82070000D01*
X144164188Y-82194482D01*
X144200498Y-82314180D01*
X144259463Y-82424494D01*
X144338815Y-82521185D01*
X144435506Y-82600537D01*
X144545820Y-82659502D01*
X144665518Y-82695812D01*
X144790000Y-82708072D01*
X146490000Y-82708072D01*
X146614482Y-82695812D01*
X146734180Y-82659502D01*
X146844494Y-82600537D01*
X146941185Y-82521185D01*
X146955000Y-82504351D01*
X146955001Y-97775650D01*
X146941185Y-97758815D01*
X146844494Y-97679463D01*
X146734180Y-97620498D01*
X146614482Y-97584188D01*
X146490000Y-97571928D01*
X145925750Y-97575000D01*
X145767000Y-97733750D01*
X145767000Y-98933000D01*
X145787000Y-98933000D01*
X145787000Y-99187000D01*
X145767000Y-99187000D01*
X145767000Y-99207000D01*
X145513000Y-99207000D01*
X145513000Y-99187000D01*
X144313750Y-99187000D01*
X144155000Y-99345750D01*
X144151928Y-99910000D01*
X144164188Y-100034482D01*
X144200498Y-100154180D01*
X144259463Y-100264494D01*
X144300912Y-100315000D01*
X139248827Y-100315000D01*
X139410138Y-100248183D01*
X139897727Y-99922387D01*
X140312387Y-99507727D01*
X140638183Y-99020138D01*
X140862595Y-98478359D01*
X140915975Y-98210000D01*
X144151928Y-98210000D01*
X144155000Y-98774250D01*
X144313750Y-98933000D01*
X145513000Y-98933000D01*
X145513000Y-97733750D01*
X145354250Y-97575000D01*
X144790000Y-97571928D01*
X144665518Y-97584188D01*
X144545820Y-97620498D01*
X144435506Y-97679463D01*
X144338815Y-97758815D01*
X144259463Y-97855506D01*
X144200498Y-97965820D01*
X144164188Y-98085518D01*
X144151928Y-98210000D01*
X140915975Y-98210000D01*
X140977000Y-97903209D01*
X140977000Y-97316791D01*
X140862595Y-96741641D01*
X140638183Y-96199862D01*
X140312387Y-95712273D01*
X139897727Y-95297613D01*
X139410138Y-94971817D01*
X138868359Y-94747405D01*
X138293209Y-94633000D01*
X137706791Y-94633000D01*
X137131641Y-94747405D01*
X136589862Y-94971817D01*
X136102273Y-95297613D01*
X135687613Y-95712273D01*
X135361817Y-96199862D01*
X135137405Y-96741641D01*
X135023000Y-97316791D01*
X135023000Y-97903209D01*
X135137405Y-98478359D01*
X135361817Y-99020138D01*
X135687613Y-99507727D01*
X136102273Y-99922387D01*
X136589862Y-100248183D01*
X136751173Y-100315000D01*
X106284351Y-100315000D01*
X106301185Y-100301185D01*
X106380537Y-100204494D01*
X106439502Y-100094180D01*
X106475812Y-99974482D01*
X106488072Y-99850000D01*
X106485000Y-99285750D01*
X106326250Y-99127000D01*
X105127000Y-99127000D01*
X105127000Y-99147000D01*
X104873000Y-99147000D01*
X104873000Y-99127000D01*
X104853000Y-99127000D01*
X104853000Y-98873000D01*
X104873000Y-98873000D01*
X104873000Y-97673750D01*
X105127000Y-97673750D01*
X105127000Y-98873000D01*
X106326250Y-98873000D01*
X106485000Y-98714250D01*
X106488072Y-98150000D01*
X106475812Y-98025518D01*
X106439502Y-97905820D01*
X106380537Y-97795506D01*
X106301185Y-97698815D01*
X106204494Y-97619463D01*
X106094180Y-97560498D01*
X105974482Y-97524188D01*
X105850000Y-97511928D01*
X105285750Y-97515000D01*
X105127000Y-97673750D01*
X104873000Y-97673750D01*
X104714250Y-97515000D01*
X104150000Y-97511928D01*
X104025518Y-97524188D01*
X103905820Y-97560498D01*
X103795506Y-97619463D01*
X103698815Y-97698815D01*
X103685000Y-97715649D01*
X103685000Y-95977061D01*
X124031000Y-95977061D01*
X124031000Y-96180939D01*
X124070774Y-96380898D01*
X124148795Y-96569256D01*
X124262063Y-96738774D01*
X124406226Y-96882937D01*
X124575744Y-96996205D01*
X124764102Y-97074226D01*
X124964061Y-97114000D01*
X125167939Y-97114000D01*
X125367898Y-97074226D01*
X125556256Y-96996205D01*
X125725774Y-96882937D01*
X125769711Y-96839000D01*
X129346678Y-96839000D01*
X129384000Y-96842676D01*
X129421322Y-96839000D01*
X129421333Y-96839000D01*
X129532986Y-96828003D01*
X129676247Y-96784546D01*
X129808276Y-96713974D01*
X129924001Y-96619001D01*
X129947804Y-96589998D01*
X131038003Y-95499799D01*
X131067001Y-95476001D01*
X131113595Y-95419226D01*
X131161974Y-95360277D01*
X131232546Y-95228247D01*
X131276003Y-95084986D01*
X131287000Y-94973333D01*
X131287000Y-94973324D01*
X131290676Y-94936001D01*
X131287000Y-94898678D01*
X131287000Y-94750711D01*
X131330937Y-94706774D01*
X131444205Y-94537256D01*
X131522226Y-94348898D01*
X131562000Y-94148939D01*
X131562000Y-93945061D01*
X131522226Y-93745102D01*
X131444205Y-93556744D01*
X131330937Y-93387226D01*
X131186774Y-93243063D01*
X131017256Y-93129795D01*
X130828898Y-93051774D01*
X130628939Y-93012000D01*
X130425061Y-93012000D01*
X130225102Y-93051774D01*
X130036744Y-93129795D01*
X129867226Y-93243063D01*
X129723063Y-93387226D01*
X129609795Y-93556744D01*
X129531774Y-93745102D01*
X129492000Y-93945061D01*
X129492000Y-94148939D01*
X129531774Y-94348898D01*
X129609795Y-94537256D01*
X129706385Y-94681813D01*
X129069199Y-95319000D01*
X125769711Y-95319000D01*
X125725774Y-95275063D01*
X125556256Y-95161795D01*
X125367898Y-95083774D01*
X125167939Y-95044000D01*
X124964061Y-95044000D01*
X124764102Y-95083774D01*
X124575744Y-95161795D01*
X124406226Y-95275063D01*
X124262063Y-95419226D01*
X124148795Y-95588744D01*
X124070774Y-95777102D01*
X124031000Y-95977061D01*
X103685000Y-95977061D01*
X103685000Y-91719061D01*
X117583000Y-91719061D01*
X117583000Y-91922939D01*
X117622774Y-92122898D01*
X117700795Y-92311256D01*
X117814063Y-92480774D01*
X117958226Y-92624937D01*
X118127744Y-92738205D01*
X118316102Y-92816226D01*
X118516061Y-92856000D01*
X118719939Y-92856000D01*
X118919898Y-92816226D01*
X119108256Y-92738205D01*
X119277774Y-92624937D01*
X119321711Y-92581000D01*
X126843799Y-92581000D01*
X126916038Y-92653239D01*
X127085556Y-92766507D01*
X127273914Y-92844528D01*
X127473873Y-92884302D01*
X127677751Y-92884302D01*
X127877710Y-92844528D01*
X128066068Y-92766507D01*
X128235586Y-92653239D01*
X128379749Y-92509076D01*
X128493017Y-92339558D01*
X128571038Y-92151200D01*
X128610812Y-91951241D01*
X128610812Y-91747363D01*
X128571038Y-91547404D01*
X128493017Y-91359046D01*
X128379749Y-91189528D01*
X128235586Y-91045365D01*
X128066068Y-90932097D01*
X127877710Y-90854076D01*
X127677751Y-90814302D01*
X127473873Y-90814302D01*
X127273914Y-90854076D01*
X127085556Y-90932097D01*
X126916038Y-91045365D01*
X126900403Y-91061000D01*
X119321711Y-91061000D01*
X119277774Y-91017063D01*
X119108256Y-90903795D01*
X118919898Y-90825774D01*
X118719939Y-90786000D01*
X118516061Y-90786000D01*
X118316102Y-90825774D01*
X118127744Y-90903795D01*
X117958226Y-91017063D01*
X117814063Y-91161226D01*
X117700795Y-91330744D01*
X117622774Y-91519102D01*
X117583000Y-91719061D01*
X103685000Y-91719061D01*
X103685000Y-82504351D01*
X103698815Y-82521185D01*
X103795506Y-82600537D01*
X103905820Y-82659502D01*
X104025518Y-82695812D01*
X104150000Y-82708072D01*
X105850000Y-82708072D01*
X105974482Y-82695812D01*
X106094180Y-82659502D01*
X106204494Y-82600537D01*
X106301185Y-82521185D01*
X106380537Y-82424494D01*
X106439502Y-82314180D01*
X106475812Y-82194482D01*
X106488072Y-82070000D01*
X106488072Y-80370000D01*
X106475812Y-80245518D01*
X106439502Y-80125820D01*
X106380537Y-80015506D01*
X106301185Y-79918815D01*
X106284351Y-79905000D01*
X110751173Y-79905000D01*
X110589862Y-79971817D01*
%TA.AperFunction,Conductor*%
D16*
G36*
X110589862Y-79971817D02*
G01*
X110102273Y-80297613D01*
X109687613Y-80712273D01*
X109361817Y-81199862D01*
X109137405Y-81741641D01*
X109023000Y-82316791D01*
X109023000Y-82903209D01*
X109137405Y-83478359D01*
X109361817Y-84020138D01*
X109687613Y-84507727D01*
X110102273Y-84922387D01*
X110589862Y-85248183D01*
X111131641Y-85472595D01*
X111706791Y-85587000D01*
X112293209Y-85587000D01*
X112868359Y-85472595D01*
X113410138Y-85248183D01*
X113897727Y-84922387D01*
X114312387Y-84507727D01*
X114638183Y-84020138D01*
X114862595Y-83478359D01*
X114977000Y-82903209D01*
X114977000Y-82316791D01*
X114862595Y-81741641D01*
X114763940Y-81503465D01*
X119729600Y-81503465D01*
X119729600Y-81786135D01*
X119784747Y-82063374D01*
X119892920Y-82324527D01*
X120049963Y-82559559D01*
X120249841Y-82759437D01*
X120484873Y-82916480D01*
X120746026Y-83024653D01*
X121023265Y-83079800D01*
X121305935Y-83079800D01*
X121583174Y-83024653D01*
X121844327Y-82916480D01*
X122079359Y-82759437D01*
X122279237Y-82559559D01*
X122436280Y-82324527D01*
X122544453Y-82063374D01*
X122599600Y-81786135D01*
X122599600Y-81503465D01*
X127349600Y-81503465D01*
X127349600Y-81786135D01*
X127404747Y-82063374D01*
X127512920Y-82324527D01*
X127669963Y-82559559D01*
X127869841Y-82759437D01*
X128104873Y-82916480D01*
X128366026Y-83024653D01*
X128643265Y-83079800D01*
X128925935Y-83079800D01*
X129203174Y-83024653D01*
X129464327Y-82916480D01*
X129699359Y-82759437D01*
X129899237Y-82559559D01*
X130056280Y-82324527D01*
X130164453Y-82063374D01*
X130219600Y-81786135D01*
X130219600Y-81503465D01*
X130164453Y-81226226D01*
X130056280Y-80965073D01*
X129899237Y-80730041D01*
X129699359Y-80530163D01*
X129464327Y-80373120D01*
X129203174Y-80264947D01*
X128925935Y-80209800D01*
X128643265Y-80209800D01*
X128366026Y-80264947D01*
X128104873Y-80373120D01*
X127869841Y-80530163D01*
X127669963Y-80730041D01*
X127512920Y-80965073D01*
X127404747Y-81226226D01*
X127349600Y-81503465D01*
X122599600Y-81503465D01*
X122544453Y-81226226D01*
X122436280Y-80965073D01*
X122279237Y-80730041D01*
X122079359Y-80530163D01*
X121844327Y-80373120D01*
X121583174Y-80264947D01*
X121305935Y-80209800D01*
X121023265Y-80209800D01*
X120746026Y-80264947D01*
X120484873Y-80373120D01*
X120249841Y-80530163D01*
X120049963Y-80730041D01*
X119892920Y-80965073D01*
X119784747Y-81226226D01*
X119729600Y-81503465D01*
X114763940Y-81503465D01*
X114638183Y-81199862D01*
X114312387Y-80712273D01*
X113897727Y-80297613D01*
X113410138Y-79971817D01*
X113248827Y-79905000D01*
X144355649Y-79905000D01*
X144338815Y-79918815D01*
X144259463Y-80015506D01*
X144200498Y-80125820D01*
X144164188Y-80245518D01*
X144151928Y-80370000D01*
X144151928Y-82070000D01*
X144164188Y-82194482D01*
X144200498Y-82314180D01*
X144259463Y-82424494D01*
X144338815Y-82521185D01*
X144435506Y-82600537D01*
X144545820Y-82659502D01*
X144665518Y-82695812D01*
X144790000Y-82708072D01*
X146490000Y-82708072D01*
X146614482Y-82695812D01*
X146734180Y-82659502D01*
X146844494Y-82600537D01*
X146941185Y-82521185D01*
X146955000Y-82504351D01*
X146955001Y-97775650D01*
X146941185Y-97758815D01*
X146844494Y-97679463D01*
X146734180Y-97620498D01*
X146614482Y-97584188D01*
X146490000Y-97571928D01*
X145925750Y-97575000D01*
X145767000Y-97733750D01*
X145767000Y-98933000D01*
X145787000Y-98933000D01*
X145787000Y-99187000D01*
X145767000Y-99187000D01*
X145767000Y-99207000D01*
X145513000Y-99207000D01*
X145513000Y-99187000D01*
X144313750Y-99187000D01*
X144155000Y-99345750D01*
X144151928Y-99910000D01*
X144164188Y-100034482D01*
X144200498Y-100154180D01*
X144259463Y-100264494D01*
X144300912Y-100315000D01*
X139248827Y-100315000D01*
X139410138Y-100248183D01*
X139897727Y-99922387D01*
X140312387Y-99507727D01*
X140638183Y-99020138D01*
X140862595Y-98478359D01*
X140915975Y-98210000D01*
X144151928Y-98210000D01*
X144155000Y-98774250D01*
X144313750Y-98933000D01*
X145513000Y-98933000D01*
X145513000Y-97733750D01*
X145354250Y-97575000D01*
X144790000Y-97571928D01*
X144665518Y-97584188D01*
X144545820Y-97620498D01*
X144435506Y-97679463D01*
X144338815Y-97758815D01*
X144259463Y-97855506D01*
X144200498Y-97965820D01*
X144164188Y-98085518D01*
X144151928Y-98210000D01*
X140915975Y-98210000D01*
X140977000Y-97903209D01*
X140977000Y-97316791D01*
X140862595Y-96741641D01*
X140638183Y-96199862D01*
X140312387Y-95712273D01*
X139897727Y-95297613D01*
X139410138Y-94971817D01*
X138868359Y-94747405D01*
X138293209Y-94633000D01*
X137706791Y-94633000D01*
X137131641Y-94747405D01*
X136589862Y-94971817D01*
X136102273Y-95297613D01*
X135687613Y-95712273D01*
X135361817Y-96199862D01*
X135137405Y-96741641D01*
X135023000Y-97316791D01*
X135023000Y-97903209D01*
X135137405Y-98478359D01*
X135361817Y-99020138D01*
X135687613Y-99507727D01*
X136102273Y-99922387D01*
X136589862Y-100248183D01*
X136751173Y-100315000D01*
X106284351Y-100315000D01*
X106301185Y-100301185D01*
X106380537Y-100204494D01*
X106439502Y-100094180D01*
X106475812Y-99974482D01*
X106488072Y-99850000D01*
X106485000Y-99285750D01*
X106326250Y-99127000D01*
X105127000Y-99127000D01*
X105127000Y-99147000D01*
X104873000Y-99147000D01*
X104873000Y-99127000D01*
X104853000Y-99127000D01*
X104853000Y-98873000D01*
X104873000Y-98873000D01*
X104873000Y-97673750D01*
X105127000Y-97673750D01*
X105127000Y-98873000D01*
X106326250Y-98873000D01*
X106485000Y-98714250D01*
X106488072Y-98150000D01*
X106475812Y-98025518D01*
X106439502Y-97905820D01*
X106380537Y-97795506D01*
X106301185Y-97698815D01*
X106204494Y-97619463D01*
X106094180Y-97560498D01*
X105974482Y-97524188D01*
X105850000Y-97511928D01*
X105285750Y-97515000D01*
X105127000Y-97673750D01*
X104873000Y-97673750D01*
X104714250Y-97515000D01*
X104150000Y-97511928D01*
X104025518Y-97524188D01*
X103905820Y-97560498D01*
X103795506Y-97619463D01*
X103698815Y-97698815D01*
X103685000Y-97715649D01*
X103685000Y-95977061D01*
X124031000Y-95977061D01*
X124031000Y-96180939D01*
X124070774Y-96380898D01*
X124148795Y-96569256D01*
X124262063Y-96738774D01*
X124406226Y-96882937D01*
X124575744Y-96996205D01*
X124764102Y-97074226D01*
X124964061Y-97114000D01*
X125167939Y-97114000D01*
X125367898Y-97074226D01*
X125556256Y-96996205D01*
X125725774Y-96882937D01*
X125769711Y-96839000D01*
X129346678Y-96839000D01*
X129384000Y-96842676D01*
X129421322Y-96839000D01*
X129421333Y-96839000D01*
X129532986Y-96828003D01*
X129676247Y-96784546D01*
X129808276Y-96713974D01*
X129924001Y-96619001D01*
X129947804Y-96589998D01*
X131038003Y-95499799D01*
X131067001Y-95476001D01*
X131113595Y-95419226D01*
X131161974Y-95360277D01*
X131232546Y-95228247D01*
X131276003Y-95084986D01*
X131287000Y-94973333D01*
X131287000Y-94973324D01*
X131290676Y-94936001D01*
X131287000Y-94898678D01*
X131287000Y-94750711D01*
X131330937Y-94706774D01*
X131444205Y-94537256D01*
X131522226Y-94348898D01*
X131562000Y-94148939D01*
X131562000Y-93945061D01*
X131522226Y-93745102D01*
X131444205Y-93556744D01*
X131330937Y-93387226D01*
X131186774Y-93243063D01*
X131017256Y-93129795D01*
X130828898Y-93051774D01*
X130628939Y-93012000D01*
X130425061Y-93012000D01*
X130225102Y-93051774D01*
X130036744Y-93129795D01*
X129867226Y-93243063D01*
X129723063Y-93387226D01*
X129609795Y-93556744D01*
X129531774Y-93745102D01*
X129492000Y-93945061D01*
X129492000Y-94148939D01*
X129531774Y-94348898D01*
X129609795Y-94537256D01*
X129706385Y-94681813D01*
X129069199Y-95319000D01*
X125769711Y-95319000D01*
X125725774Y-95275063D01*
X125556256Y-95161795D01*
X125367898Y-95083774D01*
X125167939Y-95044000D01*
X124964061Y-95044000D01*
X124764102Y-95083774D01*
X124575744Y-95161795D01*
X124406226Y-95275063D01*
X124262063Y-95419226D01*
X124148795Y-95588744D01*
X124070774Y-95777102D01*
X124031000Y-95977061D01*
X103685000Y-95977061D01*
X103685000Y-91719061D01*
X117583000Y-91719061D01*
X117583000Y-91922939D01*
X117622774Y-92122898D01*
X117700795Y-92311256D01*
X117814063Y-92480774D01*
X117958226Y-92624937D01*
X118127744Y-92738205D01*
X118316102Y-92816226D01*
X118516061Y-92856000D01*
X118719939Y-92856000D01*
X118919898Y-92816226D01*
X119108256Y-92738205D01*
X119277774Y-92624937D01*
X119321711Y-92581000D01*
X126843799Y-92581000D01*
X126916038Y-92653239D01*
X127085556Y-92766507D01*
X127273914Y-92844528D01*
X127473873Y-92884302D01*
X127677751Y-92884302D01*
X127877710Y-92844528D01*
X128066068Y-92766507D01*
X128235586Y-92653239D01*
X128379749Y-92509076D01*
X128493017Y-92339558D01*
X128571038Y-92151200D01*
X128610812Y-91951241D01*
X128610812Y-91747363D01*
X128571038Y-91547404D01*
X128493017Y-91359046D01*
X128379749Y-91189528D01*
X128235586Y-91045365D01*
X128066068Y-90932097D01*
X127877710Y-90854076D01*
X127677751Y-90814302D01*
X127473873Y-90814302D01*
X127273914Y-90854076D01*
X127085556Y-90932097D01*
X126916038Y-91045365D01*
X126900403Y-91061000D01*
X119321711Y-91061000D01*
X119277774Y-91017063D01*
X119108256Y-90903795D01*
X118919898Y-90825774D01*
X118719939Y-90786000D01*
X118516061Y-90786000D01*
X118316102Y-90825774D01*
X118127744Y-90903795D01*
X117958226Y-91017063D01*
X117814063Y-91161226D01*
X117700795Y-91330744D01*
X117622774Y-91519102D01*
X117583000Y-91719061D01*
X103685000Y-91719061D01*
X103685000Y-82504351D01*
X103698815Y-82521185D01*
X103795506Y-82600537D01*
X103905820Y-82659502D01*
X104025518Y-82695812D01*
X104150000Y-82708072D01*
X105850000Y-82708072D01*
X105974482Y-82695812D01*
X106094180Y-82659502D01*
X106204494Y-82600537D01*
X106301185Y-82521185D01*
X106380537Y-82424494D01*
X106439502Y-82314180D01*
X106475812Y-82194482D01*
X106488072Y-82070000D01*
X106488072Y-80370000D01*
X106475812Y-80245518D01*
X106439502Y-80125820D01*
X106380537Y-80015506D01*
X106301185Y-79918815D01*
X106284351Y-79905000D01*
X110751173Y-79905000D01*
X110589862Y-79971817D01*
G37*
%TD.AperFunction*%
%TD*%
M02*
