%TF.GenerationSoftware,KiCad,Pcbnew,(5.1.9)-1*%
%TF.CreationDate,2021-01-18T19:47:50+01:00*%
%TF.ProjectId,DC-DC-only,44432d44-432d-46f6-9e6c-792e6b696361,rev?*%
%TF.SameCoordinates,Original*%
%TF.FileFunction,Copper,L1,Top*%
%TF.FilePolarity,Positive*%
%FSLAX46Y46*%
G04 Gerber Fmt 4.6, Leading zero omitted, Abs format (unit mm)*
G04 Created by KiCad (PCBNEW (5.1.9)-1) date 2021-01-18 19:47:50*
%MOMM*%
%LPD*%
G01*
G04 APERTURE LIST*
%ADD10C,0.200000*%
%TA.AperFunction,EtchedComponent*%
%ADD11C,0.250000*%
%TD*%
%TA.AperFunction,SMDPad,CuDef*%
%ADD12R,2.500000X1.800000*%
%TD*%
%TA.AperFunction,ComponentPad*%
%ADD13R,1.700000X1.700000*%
%TD*%
%TA.AperFunction,SMDPad,CuDef*%
%ADD14R,1.950000X3.000000*%
%TD*%
%TA.AperFunction,ComponentPad*%
%ADD15C,1.600000*%
%TD*%
%TA.AperFunction,ComponentPad*%
%ADD16O,1.600000X1.600000*%
%TD*%
%TA.AperFunction,ViaPad*%
%ADD17C,0.800000*%
%TD*%
%TA.AperFunction,Conductor*%
%ADD18C,0.500000*%
%TD*%
%TA.AperFunction,Conductor*%
%ADD19C,0.250000*%
%TD*%
%TA.AperFunction,Conductor*%
%ADD20C,0.254000*%
%TD*%
%TA.AperFunction,Conductor*%
%ADD21C,0.100000*%
%TD*%
G04 APERTURE END LIST*
%TO.C,LO1*%
D10*
X119291742Y-83337085D02*
X119463171Y-83394228D01*
X119520314Y-83451371D01*
X119577457Y-83565657D01*
X119577457Y-83737085D01*
X119520314Y-83851371D01*
X119463171Y-83908514D01*
X119348885Y-83965657D01*
X118891742Y-83965657D01*
X118891742Y-82765657D01*
X119291742Y-82765657D01*
X119406028Y-82822800D01*
X119463171Y-82879942D01*
X119520314Y-82994228D01*
X119520314Y-83108514D01*
X119463171Y-83222800D01*
X119406028Y-83279942D01*
X119291742Y-83337085D01*
X118891742Y-83337085D01*
X120091742Y-83965657D02*
X120091742Y-83165657D01*
X120091742Y-82765657D02*
X120034600Y-82822800D01*
X120091742Y-82879942D01*
X120148885Y-82822800D01*
X120091742Y-82765657D01*
X120091742Y-82879942D01*
X120663171Y-83165657D02*
X120663171Y-83965657D01*
X120663171Y-83279942D02*
X120720314Y-83222800D01*
X120834600Y-83165657D01*
X121006028Y-83165657D01*
X121120314Y-83222800D01*
X121177457Y-83337085D01*
X121177457Y-83965657D01*
X122263171Y-83965657D02*
X122263171Y-83337085D01*
X122206028Y-83222800D01*
X122091742Y-83165657D01*
X121863171Y-83165657D01*
X121748885Y-83222800D01*
X122263171Y-83908514D02*
X122148885Y-83965657D01*
X121863171Y-83965657D01*
X121748885Y-83908514D01*
X121691742Y-83794228D01*
X121691742Y-83679942D01*
X121748885Y-83565657D01*
X121863171Y-83508514D01*
X122148885Y-83508514D01*
X122263171Y-83451371D01*
X122834600Y-83965657D02*
X122834600Y-83165657D01*
X122834600Y-83394228D02*
X122891742Y-83279942D01*
X122948885Y-83222800D01*
X123063171Y-83165657D01*
X123177457Y-83165657D01*
X123463171Y-83165657D02*
X123748885Y-83965657D01*
X124034600Y-83165657D02*
X123748885Y-83965657D01*
X123634600Y-84251371D01*
X123577457Y-84308514D01*
X123463171Y-84365657D01*
X124206028Y-84079942D02*
X125120314Y-84079942D01*
X125920314Y-82765657D02*
X125691742Y-82765657D01*
X125577457Y-82822800D01*
X125520314Y-82879942D01*
X125406028Y-83051371D01*
X125348885Y-83279942D01*
X125348885Y-83737085D01*
X125406028Y-83851371D01*
X125463171Y-83908514D01*
X125577457Y-83965657D01*
X125806028Y-83965657D01*
X125920314Y-83908514D01*
X125977457Y-83851371D01*
X126034600Y-83737085D01*
X126034600Y-83451371D01*
X125977457Y-83337085D01*
X125920314Y-83279942D01*
X125806028Y-83222800D01*
X125577457Y-83222800D01*
X125463171Y-83279942D01*
X125406028Y-83337085D01*
X125348885Y-83451371D01*
D11*
X128530600Y-84438800D02*
X116059200Y-84438800D01*
X131578600Y-81390800D02*
X128530600Y-84438800D01*
X133128000Y-81390800D02*
X131578600Y-81390800D01*
X119386600Y-81644800D02*
X116592600Y-84438800D01*
X121164600Y-81644800D02*
X119386600Y-81644800D01*
X131070600Y-80628800D02*
X133077200Y-80628800D01*
X130054600Y-81644800D02*
X131070600Y-80628800D01*
X128784600Y-81644800D02*
X130054600Y-81644800D01*
X126244600Y-81644800D02*
X128784600Y-81644800D01*
X121164600Y-81644800D02*
X123704600Y-81644800D01*
%TD*%
%TO.P,C1,2*%
%TO.N,GND*%
%TA.AperFunction,SMDPad,CuDef*%
G36*
G01*
X111236999Y-96355000D02*
X112537001Y-96355000D01*
G75*
G02*
X112787000Y-96604999I0J-249999D01*
G01*
X112787000Y-97255001D01*
G75*
G02*
X112537001Y-97505000I-249999J0D01*
G01*
X111236999Y-97505000D01*
G75*
G02*
X110987000Y-97255001I0J249999D01*
G01*
X110987000Y-96604999D01*
G75*
G02*
X111236999Y-96355000I249999J0D01*
G01*
G37*
%TD.AperFunction*%
%TO.P,C1,1*%
%TO.N,Net-(C1-Pad1)*%
%TA.AperFunction,SMDPad,CuDef*%
G36*
G01*
X111236999Y-93405000D02*
X112537001Y-93405000D01*
G75*
G02*
X112787000Y-93654999I0J-249999D01*
G01*
X112787000Y-94305001D01*
G75*
G02*
X112537001Y-94555000I-249999J0D01*
G01*
X111236999Y-94555000D01*
G75*
G02*
X110987000Y-94305001I0J249999D01*
G01*
X110987000Y-93654999D01*
G75*
G02*
X111236999Y-93405000I249999J0D01*
G01*
G37*
%TD.AperFunction*%
%TD*%
%TO.P,C2,2*%
%TO.N,GND*%
%TA.AperFunction,SMDPad,CuDef*%
G36*
G01*
X113776999Y-96355000D02*
X115077001Y-96355000D01*
G75*
G02*
X115327000Y-96604999I0J-249999D01*
G01*
X115327000Y-97255001D01*
G75*
G02*
X115077001Y-97505000I-249999J0D01*
G01*
X113776999Y-97505000D01*
G75*
G02*
X113527000Y-97255001I0J249999D01*
G01*
X113527000Y-96604999D01*
G75*
G02*
X113776999Y-96355000I249999J0D01*
G01*
G37*
%TD.AperFunction*%
%TO.P,C2,1*%
%TO.N,Net-(C1-Pad1)*%
%TA.AperFunction,SMDPad,CuDef*%
G36*
G01*
X113776999Y-93405000D02*
X115077001Y-93405000D01*
G75*
G02*
X115327000Y-93654999I0J-249999D01*
G01*
X115327000Y-94305001D01*
G75*
G02*
X115077001Y-94555000I-249999J0D01*
G01*
X113776999Y-94555000D01*
G75*
G02*
X113527000Y-94305001I0J249999D01*
G01*
X113527000Y-93654999D01*
G75*
G02*
X113776999Y-93405000I249999J0D01*
G01*
G37*
%TD.AperFunction*%
%TD*%
%TO.P,C3,2*%
%TO.N,GND*%
%TA.AperFunction,SMDPad,CuDef*%
G36*
G01*
X116709000Y-92753000D02*
X116209000Y-92753000D01*
G75*
G02*
X115984000Y-92528000I0J225000D01*
G01*
X115984000Y-92078000D01*
G75*
G02*
X116209000Y-91853000I225000J0D01*
G01*
X116709000Y-91853000D01*
G75*
G02*
X116934000Y-92078000I0J-225000D01*
G01*
X116934000Y-92528000D01*
G75*
G02*
X116709000Y-92753000I-225000J0D01*
G01*
G37*
%TD.AperFunction*%
%TO.P,C3,1*%
%TO.N,Net-(C1-Pad1)*%
%TA.AperFunction,SMDPad,CuDef*%
G36*
G01*
X116709000Y-94303000D02*
X116209000Y-94303000D01*
G75*
G02*
X115984000Y-94078000I0J225000D01*
G01*
X115984000Y-93628000D01*
G75*
G02*
X116209000Y-93403000I225000J0D01*
G01*
X116709000Y-93403000D01*
G75*
G02*
X116934000Y-93628000I0J-225000D01*
G01*
X116934000Y-94078000D01*
G75*
G02*
X116709000Y-94303000I-225000J0D01*
G01*
G37*
%TD.AperFunction*%
%TD*%
%TO.P,C4,2*%
%TO.N,Net-(C4-Pad2)*%
%TA.AperFunction,SMDPad,CuDef*%
G36*
G01*
X125861000Y-93302000D02*
X126361000Y-93302000D01*
G75*
G02*
X126586000Y-93527000I0J-225000D01*
G01*
X126586000Y-93977000D01*
G75*
G02*
X126361000Y-94202000I-225000J0D01*
G01*
X125861000Y-94202000D01*
G75*
G02*
X125636000Y-93977000I0J225000D01*
G01*
X125636000Y-93527000D01*
G75*
G02*
X125861000Y-93302000I225000J0D01*
G01*
G37*
%TD.AperFunction*%
%TO.P,C4,1*%
%TO.N,Net-(C4-Pad1)*%
%TA.AperFunction,SMDPad,CuDef*%
G36*
G01*
X125861000Y-91752000D02*
X126361000Y-91752000D01*
G75*
G02*
X126586000Y-91977000I0J-225000D01*
G01*
X126586000Y-92427000D01*
G75*
G02*
X126361000Y-92652000I-225000J0D01*
G01*
X125861000Y-92652000D01*
G75*
G02*
X125636000Y-92427000I0J225000D01*
G01*
X125636000Y-91977000D01*
G75*
G02*
X125861000Y-91752000I225000J0D01*
G01*
G37*
%TD.AperFunction*%
%TD*%
%TO.P,C5,2*%
%TO.N,GND*%
%TA.AperFunction,SMDPad,CuDef*%
G36*
G01*
X116209000Y-96578000D02*
X116709000Y-96578000D01*
G75*
G02*
X116934000Y-96803000I0J-225000D01*
G01*
X116934000Y-97253000D01*
G75*
G02*
X116709000Y-97478000I-225000J0D01*
G01*
X116209000Y-97478000D01*
G75*
G02*
X115984000Y-97253000I0J225000D01*
G01*
X115984000Y-96803000D01*
G75*
G02*
X116209000Y-96578000I225000J0D01*
G01*
G37*
%TD.AperFunction*%
%TO.P,C5,1*%
%TO.N,Net-(C5-Pad1)*%
%TA.AperFunction,SMDPad,CuDef*%
G36*
G01*
X116209000Y-95028000D02*
X116709000Y-95028000D01*
G75*
G02*
X116934000Y-95253000I0J-225000D01*
G01*
X116934000Y-95703000D01*
G75*
G02*
X116709000Y-95928000I-225000J0D01*
G01*
X116209000Y-95928000D01*
G75*
G02*
X115984000Y-95703000I0J225000D01*
G01*
X115984000Y-95253000D01*
G75*
G02*
X116209000Y-95028000I225000J0D01*
G01*
G37*
%TD.AperFunction*%
%TD*%
%TO.P,C6,2*%
%TO.N,Net-(C6-Pad2)*%
%TA.AperFunction,SMDPad,CuDef*%
G36*
G01*
X125861000Y-96337000D02*
X126361000Y-96337000D01*
G75*
G02*
X126586000Y-96562000I0J-225000D01*
G01*
X126586000Y-97012000D01*
G75*
G02*
X126361000Y-97237000I-225000J0D01*
G01*
X125861000Y-97237000D01*
G75*
G02*
X125636000Y-97012000I0J225000D01*
G01*
X125636000Y-96562000D01*
G75*
G02*
X125861000Y-96337000I225000J0D01*
G01*
G37*
%TD.AperFunction*%
%TO.P,C6,1*%
%TO.N,Net-(C6-Pad1)*%
%TA.AperFunction,SMDPad,CuDef*%
G36*
G01*
X125861000Y-94787000D02*
X126361000Y-94787000D01*
G75*
G02*
X126586000Y-95012000I0J-225000D01*
G01*
X126586000Y-95462000D01*
G75*
G02*
X126361000Y-95687000I-225000J0D01*
G01*
X125861000Y-95687000D01*
G75*
G02*
X125636000Y-95462000I0J225000D01*
G01*
X125636000Y-95012000D01*
G75*
G02*
X125861000Y-94787000I225000J0D01*
G01*
G37*
%TD.AperFunction*%
%TD*%
%TO.P,C7,2*%
%TO.N,GND*%
%TA.AperFunction,SMDPad,CuDef*%
G36*
G01*
X127512000Y-96337000D02*
X128012000Y-96337000D01*
G75*
G02*
X128237000Y-96562000I0J-225000D01*
G01*
X128237000Y-97012000D01*
G75*
G02*
X128012000Y-97237000I-225000J0D01*
G01*
X127512000Y-97237000D01*
G75*
G02*
X127287000Y-97012000I0J225000D01*
G01*
X127287000Y-96562000D01*
G75*
G02*
X127512000Y-96337000I225000J0D01*
G01*
G37*
%TD.AperFunction*%
%TO.P,C7,1*%
%TO.N,Net-(C6-Pad1)*%
%TA.AperFunction,SMDPad,CuDef*%
G36*
G01*
X127512000Y-94787000D02*
X128012000Y-94787000D01*
G75*
G02*
X128237000Y-95012000I0J-225000D01*
G01*
X128237000Y-95462000D01*
G75*
G02*
X128012000Y-95687000I-225000J0D01*
G01*
X127512000Y-95687000D01*
G75*
G02*
X127287000Y-95462000I0J225000D01*
G01*
X127287000Y-95012000D01*
G75*
G02*
X127512000Y-94787000I225000J0D01*
G01*
G37*
%TD.AperFunction*%
%TD*%
%TO.P,C8,2*%
%TO.N,GND*%
%TA.AperFunction,SMDPad,CuDef*%
G36*
G01*
X135493999Y-92037000D02*
X136794001Y-92037000D01*
G75*
G02*
X137044000Y-92286999I0J-249999D01*
G01*
X137044000Y-92937001D01*
G75*
G02*
X136794001Y-93187000I-249999J0D01*
G01*
X135493999Y-93187000D01*
G75*
G02*
X135244000Y-92937001I0J249999D01*
G01*
X135244000Y-92286999D01*
G75*
G02*
X135493999Y-92037000I249999J0D01*
G01*
G37*
%TD.AperFunction*%
%TO.P,C8,1*%
%TO.N,Net-(C8-Pad1)*%
%TA.AperFunction,SMDPad,CuDef*%
G36*
G01*
X135493999Y-89087000D02*
X136794001Y-89087000D01*
G75*
G02*
X137044000Y-89336999I0J-249999D01*
G01*
X137044000Y-89987001D01*
G75*
G02*
X136794001Y-90237000I-249999J0D01*
G01*
X135493999Y-90237000D01*
G75*
G02*
X135244000Y-89987001I0J249999D01*
G01*
X135244000Y-89336999D01*
G75*
G02*
X135493999Y-89087000I249999J0D01*
G01*
G37*
%TD.AperFunction*%
%TD*%
%TO.P,C9,2*%
%TO.N,GND*%
%TA.AperFunction,SMDPad,CuDef*%
G36*
G01*
X138033999Y-92037000D02*
X139334001Y-92037000D01*
G75*
G02*
X139584000Y-92286999I0J-249999D01*
G01*
X139584000Y-92937001D01*
G75*
G02*
X139334001Y-93187000I-249999J0D01*
G01*
X138033999Y-93187000D01*
G75*
G02*
X137784000Y-92937001I0J249999D01*
G01*
X137784000Y-92286999D01*
G75*
G02*
X138033999Y-92037000I249999J0D01*
G01*
G37*
%TD.AperFunction*%
%TO.P,C9,1*%
%TO.N,Net-(C8-Pad1)*%
%TA.AperFunction,SMDPad,CuDef*%
G36*
G01*
X138033999Y-89087000D02*
X139334001Y-89087000D01*
G75*
G02*
X139584000Y-89336999I0J-249999D01*
G01*
X139584000Y-89987001D01*
G75*
G02*
X139334001Y-90237000I-249999J0D01*
G01*
X138033999Y-90237000D01*
G75*
G02*
X137784000Y-89987001I0J249999D01*
G01*
X137784000Y-89336999D01*
G75*
G02*
X138033999Y-89087000I249999J0D01*
G01*
G37*
%TD.AperFunction*%
%TD*%
D12*
%TO.P,D1,2*%
%TO.N,GND*%
X121444000Y-89662000D03*
%TO.P,D1,1*%
%TO.N,Net-(C4-Pad1)*%
X125444000Y-89662000D03*
%TD*%
D13*
%TO.P,J1,1*%
%TO.N,Net-(C1-Pad1)*%
X105000000Y-81220000D03*
%TD*%
%TO.P,J2,1*%
%TO.N,GND*%
X145640000Y-99060000D03*
%TD*%
%TO.P,J3,1*%
%TO.N,Net-(D2-Pad1)*%
X145640000Y-81220000D03*
%TD*%
%TO.P,J4,1*%
%TO.N,GND*%
X105000000Y-99000000D03*
%TD*%
D14*
%TO.P,L1,2*%
%TO.N,Net-(C8-Pad1)*%
X133687000Y-89662000D03*
%TO.P,L1,1*%
%TO.N,Net-(C4-Pad1)*%
X128187000Y-89662000D03*
%TD*%
%TO.P,R3,2*%
%TO.N,GND*%
%TA.AperFunction,SMDPad,CuDef*%
G36*
G01*
X127348800Y-98573000D02*
X127348800Y-98023000D01*
G75*
G02*
X127548800Y-97823000I200000J0D01*
G01*
X127948800Y-97823000D01*
G75*
G02*
X128148800Y-98023000I0J-200000D01*
G01*
X128148800Y-98573000D01*
G75*
G02*
X127948800Y-98773000I-200000J0D01*
G01*
X127548800Y-98773000D01*
G75*
G02*
X127348800Y-98573000I0J200000D01*
G01*
G37*
%TD.AperFunction*%
%TO.P,R3,1*%
%TO.N,Net-(C6-Pad2)*%
%TA.AperFunction,SMDPad,CuDef*%
G36*
G01*
X125698800Y-98573000D02*
X125698800Y-98023000D01*
G75*
G02*
X125898800Y-97823000I200000J0D01*
G01*
X126298800Y-97823000D01*
G75*
G02*
X126498800Y-98023000I0J-200000D01*
G01*
X126498800Y-98573000D01*
G75*
G02*
X126298800Y-98773000I-200000J0D01*
G01*
X125898800Y-98773000D01*
G75*
G02*
X125698800Y-98573000I0J200000D01*
G01*
G37*
%TD.AperFunction*%
%TD*%
%TO.P,R5,2*%
%TO.N,Net-(R5-Pad2)*%
%TA.AperFunction,SMDPad,CuDef*%
G36*
G01*
X129138000Y-96437000D02*
X129688000Y-96437000D01*
G75*
G02*
X129888000Y-96637000I0J-200000D01*
G01*
X129888000Y-97037000D01*
G75*
G02*
X129688000Y-97237000I-200000J0D01*
G01*
X129138000Y-97237000D01*
G75*
G02*
X128938000Y-97037000I0J200000D01*
G01*
X128938000Y-96637000D01*
G75*
G02*
X129138000Y-96437000I200000J0D01*
G01*
G37*
%TD.AperFunction*%
%TO.P,R5,1*%
%TO.N,Net-(C8-Pad1)*%
%TA.AperFunction,SMDPad,CuDef*%
G36*
G01*
X129138000Y-94787000D02*
X129688000Y-94787000D01*
G75*
G02*
X129888000Y-94987000I0J-200000D01*
G01*
X129888000Y-95387000D01*
G75*
G02*
X129688000Y-95587000I-200000J0D01*
G01*
X129138000Y-95587000D01*
G75*
G02*
X128938000Y-95387000I0J200000D01*
G01*
X128938000Y-94987000D01*
G75*
G02*
X129138000Y-94787000I200000J0D01*
G01*
G37*
%TD.AperFunction*%
%TD*%
%TO.P,R6,2*%
%TO.N,Net-(R6-Pad2)*%
%TA.AperFunction,SMDPad,CuDef*%
G36*
G01*
X130789000Y-96437000D02*
X131339000Y-96437000D01*
G75*
G02*
X131539000Y-96637000I0J-200000D01*
G01*
X131539000Y-97037000D01*
G75*
G02*
X131339000Y-97237000I-200000J0D01*
G01*
X130789000Y-97237000D01*
G75*
G02*
X130589000Y-97037000I0J200000D01*
G01*
X130589000Y-96637000D01*
G75*
G02*
X130789000Y-96437000I200000J0D01*
G01*
G37*
%TD.AperFunction*%
%TO.P,R6,1*%
%TO.N,Net-(R5-Pad2)*%
%TA.AperFunction,SMDPad,CuDef*%
G36*
G01*
X130789000Y-94787000D02*
X131339000Y-94787000D01*
G75*
G02*
X131539000Y-94987000I0J-200000D01*
G01*
X131539000Y-95387000D01*
G75*
G02*
X131339000Y-95587000I-200000J0D01*
G01*
X130789000Y-95587000D01*
G75*
G02*
X130589000Y-95387000I0J200000D01*
G01*
X130589000Y-94987000D01*
G75*
G02*
X130789000Y-94787000I200000J0D01*
G01*
G37*
%TD.AperFunction*%
%TD*%
%TO.P,R7,2*%
%TO.N,GND*%
%TA.AperFunction,SMDPad,CuDef*%
G36*
G01*
X129800800Y-98023000D02*
X129800800Y-98573000D01*
G75*
G02*
X129600800Y-98773000I-200000J0D01*
G01*
X129200800Y-98773000D01*
G75*
G02*
X129000800Y-98573000I0J200000D01*
G01*
X129000800Y-98023000D01*
G75*
G02*
X129200800Y-97823000I200000J0D01*
G01*
X129600800Y-97823000D01*
G75*
G02*
X129800800Y-98023000I0J-200000D01*
G01*
G37*
%TD.AperFunction*%
%TO.P,R7,1*%
%TO.N,Net-(R6-Pad2)*%
%TA.AperFunction,SMDPad,CuDef*%
G36*
G01*
X131450800Y-98023000D02*
X131450800Y-98573000D01*
G75*
G02*
X131250800Y-98773000I-200000J0D01*
G01*
X130850800Y-98773000D01*
G75*
G02*
X130650800Y-98573000I0J200000D01*
G01*
X130650800Y-98023000D01*
G75*
G02*
X130850800Y-97823000I200000J0D01*
G01*
X131250800Y-97823000D01*
G75*
G02*
X131450800Y-98023000I0J-200000D01*
G01*
G37*
%TD.AperFunction*%
%TD*%
%TO.P,U1,8*%
%TO.N,Net-(C4-Pad1)*%
%TA.AperFunction,SMDPad,CuDef*%
G36*
G01*
X122531000Y-92733000D02*
X122531000Y-92433000D01*
G75*
G02*
X122681000Y-92283000I150000J0D01*
G01*
X124331000Y-92283000D01*
G75*
G02*
X124481000Y-92433000I0J-150000D01*
G01*
X124481000Y-92733000D01*
G75*
G02*
X124331000Y-92883000I-150000J0D01*
G01*
X122681000Y-92883000D01*
G75*
G02*
X122531000Y-92733000I0J150000D01*
G01*
G37*
%TD.AperFunction*%
%TO.P,U1,7*%
%TO.N,GND*%
%TA.AperFunction,SMDPad,CuDef*%
G36*
G01*
X122531000Y-94003000D02*
X122531000Y-93703000D01*
G75*
G02*
X122681000Y-93553000I150000J0D01*
G01*
X124331000Y-93553000D01*
G75*
G02*
X124481000Y-93703000I0J-150000D01*
G01*
X124481000Y-94003000D01*
G75*
G02*
X124331000Y-94153000I-150000J0D01*
G01*
X122681000Y-94153000D01*
G75*
G02*
X122531000Y-94003000I0J150000D01*
G01*
G37*
%TD.AperFunction*%
%TO.P,U1,6*%
%TO.N,Net-(C6-Pad1)*%
%TA.AperFunction,SMDPad,CuDef*%
G36*
G01*
X122531000Y-95273000D02*
X122531000Y-94973000D01*
G75*
G02*
X122681000Y-94823000I150000J0D01*
G01*
X124331000Y-94823000D01*
G75*
G02*
X124481000Y-94973000I0J-150000D01*
G01*
X124481000Y-95273000D01*
G75*
G02*
X124331000Y-95423000I-150000J0D01*
G01*
X122681000Y-95423000D01*
G75*
G02*
X122531000Y-95273000I0J150000D01*
G01*
G37*
%TD.AperFunction*%
%TO.P,U1,5*%
%TO.N,Net-(R5-Pad2)*%
%TA.AperFunction,SMDPad,CuDef*%
G36*
G01*
X122531000Y-96543000D02*
X122531000Y-96243000D01*
G75*
G02*
X122681000Y-96093000I150000J0D01*
G01*
X124331000Y-96093000D01*
G75*
G02*
X124481000Y-96243000I0J-150000D01*
G01*
X124481000Y-96543000D01*
G75*
G02*
X124331000Y-96693000I-150000J0D01*
G01*
X122681000Y-96693000D01*
G75*
G02*
X122531000Y-96543000I0J150000D01*
G01*
G37*
%TD.AperFunction*%
%TO.P,U1,4*%
%TO.N,Net-(C5-Pad1)*%
%TA.AperFunction,SMDPad,CuDef*%
G36*
G01*
X117581000Y-96543000D02*
X117581000Y-96243000D01*
G75*
G02*
X117731000Y-96093000I150000J0D01*
G01*
X119381000Y-96093000D01*
G75*
G02*
X119531000Y-96243000I0J-150000D01*
G01*
X119531000Y-96543000D01*
G75*
G02*
X119381000Y-96693000I-150000J0D01*
G01*
X117731000Y-96693000D01*
G75*
G02*
X117581000Y-96543000I0J150000D01*
G01*
G37*
%TD.AperFunction*%
%TO.P,U1,3*%
%TO.N,Net-(U1-Pad3)*%
%TA.AperFunction,SMDPad,CuDef*%
G36*
G01*
X117581000Y-95273000D02*
X117581000Y-94973000D01*
G75*
G02*
X117731000Y-94823000I150000J0D01*
G01*
X119381000Y-94823000D01*
G75*
G02*
X119531000Y-94973000I0J-150000D01*
G01*
X119531000Y-95273000D01*
G75*
G02*
X119381000Y-95423000I-150000J0D01*
G01*
X117731000Y-95423000D01*
G75*
G02*
X117581000Y-95273000I0J150000D01*
G01*
G37*
%TD.AperFunction*%
%TO.P,U1,2*%
%TO.N,Net-(C1-Pad1)*%
%TA.AperFunction,SMDPad,CuDef*%
G36*
G01*
X117581000Y-94003000D02*
X117581000Y-93703000D01*
G75*
G02*
X117731000Y-93553000I150000J0D01*
G01*
X119381000Y-93553000D01*
G75*
G02*
X119531000Y-93703000I0J-150000D01*
G01*
X119531000Y-94003000D01*
G75*
G02*
X119381000Y-94153000I-150000J0D01*
G01*
X117731000Y-94153000D01*
G75*
G02*
X117581000Y-94003000I0J150000D01*
G01*
G37*
%TD.AperFunction*%
%TO.P,U1,1*%
%TO.N,Net-(C4-Pad2)*%
%TA.AperFunction,SMDPad,CuDef*%
G36*
G01*
X117581000Y-92733000D02*
X117581000Y-92433000D01*
G75*
G02*
X117731000Y-92283000I150000J0D01*
G01*
X119381000Y-92283000D01*
G75*
G02*
X119531000Y-92433000I0J-150000D01*
G01*
X119531000Y-92733000D01*
G75*
G02*
X119381000Y-92883000I-150000J0D01*
G01*
X117731000Y-92883000D01*
G75*
G02*
X117581000Y-92733000I0J150000D01*
G01*
G37*
%TD.AperFunction*%
%TD*%
D15*
%TO.P,LO1,2*%
%TO.N,N/C*%
X121164600Y-81644800D03*
D16*
%TO.P,LO1,1*%
X128784600Y-81644800D03*
%TO.P,LO1,*%
%TO.N,*%
%TA.AperFunction,SMDPad,CuDef*%
G36*
G01*
X123654600Y-82319800D02*
X123654600Y-80969800D01*
G75*
G02*
X123879600Y-80744800I225000J0D01*
G01*
X124329600Y-80744800D01*
G75*
G02*
X124554600Y-80969800I0J-225000D01*
G01*
X124554600Y-82319800D01*
G75*
G02*
X124329600Y-82544800I-225000J0D01*
G01*
X123879600Y-82544800D01*
G75*
G02*
X123654600Y-82319800I0J225000D01*
G01*
G37*
%TD.AperFunction*%
%TA.AperFunction,SMDPad,CuDef*%
G36*
G01*
X125394600Y-82319800D02*
X125394600Y-80969800D01*
G75*
G02*
X125619600Y-80744800I225000J0D01*
G01*
X126069600Y-80744800D01*
G75*
G02*
X126294600Y-80969800I0J-225000D01*
G01*
X126294600Y-82319800D01*
G75*
G02*
X126069600Y-82544800I-225000J0D01*
G01*
X125619600Y-82544800D01*
G75*
G02*
X125394600Y-82319800I0J225000D01*
G01*
G37*
%TD.AperFunction*%
%TD*%
D12*
%TO.P,D2,1*%
%TO.N,Net-(D2-Pad1)*%
X140525000Y-86868000D03*
%TO.P,D2,2*%
%TO.N,Net-(C8-Pad1)*%
X136525000Y-86868000D03*
%TD*%
D17*
%TO.N,Net-(C4-Pad2)*%
X118618000Y-91821000D03*
X127575812Y-91849302D03*
%TO.N,Net-(R5-Pad2)*%
X125066000Y-96079000D03*
X130527000Y-94047000D03*
%TD*%
D18*
%TO.N,Net-(C1-Pad1)*%
X111887000Y-93980000D02*
X114427000Y-93980000D01*
X118556000Y-93853000D02*
X116459000Y-93853000D01*
X114554000Y-93853000D02*
X114427000Y-93980000D01*
X116459000Y-93853000D02*
X114554000Y-93853000D01*
X111887000Y-93980000D02*
X108130000Y-93980000D01*
X105000000Y-90850000D02*
X105000000Y-81220000D01*
X108130000Y-93980000D02*
X105000000Y-90850000D01*
%TO.N,GND*%
X111887000Y-96930000D02*
X114427000Y-96930000D01*
X114525000Y-97028000D02*
X114427000Y-96930000D01*
X116459000Y-97028000D02*
X114525000Y-97028000D01*
X127762000Y-98284800D02*
X127748800Y-98298000D01*
X127762000Y-96787000D02*
X127762000Y-98284800D01*
X129400800Y-98298000D02*
X127748800Y-98298000D01*
X116459000Y-92303000D02*
X116459000Y-91059000D01*
X117856000Y-89662000D02*
X121444000Y-89662000D01*
X116459000Y-91059000D02*
X117856000Y-89662000D01*
X121444000Y-92766000D02*
X121444000Y-89662000D01*
X122531000Y-93853000D02*
X121444000Y-92766000D01*
X123506000Y-93853000D02*
X122531000Y-93853000D01*
X121444000Y-92766000D02*
X121444000Y-97949000D01*
X121444000Y-97949000D02*
X123063000Y-99568000D01*
X123063000Y-99568000D02*
X127381000Y-99568000D01*
X127748800Y-99200200D02*
X127748800Y-98298000D01*
X127381000Y-99568000D02*
X127748800Y-99200200D01*
X131175054Y-99568000D02*
X132461000Y-98282054D01*
X127381000Y-99568000D02*
X131175054Y-99568000D01*
X132461000Y-98282054D02*
X132461000Y-93472000D01*
X133321000Y-92612000D02*
X136144000Y-92612000D01*
X132461000Y-93472000D02*
X133321000Y-92612000D01*
X136144000Y-92612000D02*
X138684000Y-92612000D01*
X145640000Y-91358000D02*
X145640000Y-99060000D01*
X144481000Y-90199000D02*
X145640000Y-91358000D01*
X105000000Y-97610000D02*
X105000000Y-99000000D01*
X105680000Y-96930000D02*
X105000000Y-97610000D01*
X111887000Y-96930000D02*
X105680000Y-96930000D01*
%TO.N,Net-(C4-Pad1)*%
X123506000Y-92583000D02*
X124587000Y-92583000D01*
X125444000Y-91726000D02*
X125444000Y-89662000D01*
X124587000Y-92583000D02*
X125444000Y-91726000D01*
X125444000Y-89662000D02*
X128187000Y-89662000D01*
X125920000Y-92202000D02*
X125444000Y-91726000D01*
X126111000Y-92202000D02*
X125920000Y-92202000D01*
D19*
%TO.N,Net-(C4-Pad2)*%
X118556000Y-91883000D02*
X118618000Y-91821000D01*
X118556000Y-92583000D02*
X118556000Y-91883000D01*
X127575812Y-91849302D02*
X127575812Y-93023188D01*
X126847000Y-93752000D02*
X126111000Y-93752000D01*
X127575812Y-93023188D02*
X126847000Y-93752000D01*
%TO.N,Net-(C5-Pad1)*%
X118556000Y-96393000D02*
X118110000Y-96393000D01*
X117195000Y-95478000D02*
X116459000Y-95478000D01*
X118110000Y-96393000D02*
X117195000Y-95478000D01*
%TO.N,Net-(C6-Pad2)*%
X126111000Y-98285800D02*
X126098800Y-98298000D01*
X126111000Y-96787000D02*
X126111000Y-98285800D01*
%TO.N,Net-(C6-Pad1)*%
X126111000Y-95224000D02*
X127762000Y-95224000D01*
X126111000Y-95224000D02*
X125196000Y-95224000D01*
X125095000Y-95123000D02*
X123506000Y-95123000D01*
X125196000Y-95224000D02*
X125095000Y-95123000D01*
D18*
%TO.N,Net-(C8-Pad1)*%
X133687000Y-89662000D02*
X136144000Y-89662000D01*
X136144000Y-89662000D02*
X138684000Y-89662000D01*
X136144000Y-89662000D02*
X136144000Y-88900000D01*
X136525000Y-88519000D02*
X136525000Y-86868000D01*
X136144000Y-88900000D02*
X136525000Y-88519000D01*
X129413000Y-95187000D02*
X129413000Y-92248000D01*
X131999000Y-89662000D02*
X133687000Y-89662000D01*
X129413000Y-92248000D02*
X131999000Y-89662000D01*
D19*
%TO.N,Net-(R5-Pad2)*%
X131064000Y-95187000D02*
X131064000Y-95732600D01*
X131064000Y-95732600D02*
X130784600Y-96012000D01*
X130784600Y-96012000D02*
X129616200Y-96012000D01*
X129413000Y-96215200D02*
X129413000Y-96837000D01*
X129616200Y-96012000D02*
X129413000Y-96215200D01*
X124752000Y-96393000D02*
X125066000Y-96079000D01*
X123506000Y-96393000D02*
X124752000Y-96393000D01*
X129543975Y-96084225D02*
X129616200Y-96012000D01*
X129529416Y-96098784D02*
X129616200Y-96012000D01*
X131064000Y-94584000D02*
X130527000Y-94047000D01*
X131064000Y-95187000D02*
X131064000Y-94584000D01*
%TO.N,Net-(R6-Pad2)*%
X131064000Y-98284800D02*
X131050800Y-98298000D01*
X131064000Y-96837000D02*
X131064000Y-98284800D01*
D18*
%TO.N,Net-(D2-Pad1)*%
X140525000Y-86868000D02*
X144191000Y-86868000D01*
X145640000Y-85419000D02*
X145640000Y-81220000D01*
X144191000Y-86868000D02*
X145640000Y-85419000D01*
%TD*%
D20*
%TO.N,GND*%
X110589862Y-79971817D02*
X110102273Y-80297613D01*
X109687613Y-80712273D01*
X109361817Y-81199862D01*
X109137405Y-81741641D01*
X109023000Y-82316791D01*
X109023000Y-82903209D01*
X109137405Y-83478359D01*
X109361817Y-84020138D01*
X109687613Y-84507727D01*
X110102273Y-84922387D01*
X110589862Y-85248183D01*
X111131641Y-85472595D01*
X111706791Y-85587000D01*
X112293209Y-85587000D01*
X112868359Y-85472595D01*
X113410138Y-85248183D01*
X113897727Y-84922387D01*
X114312387Y-84507727D01*
X114638183Y-84020138D01*
X114862595Y-83478359D01*
X114977000Y-82903209D01*
X114977000Y-82316791D01*
X114862595Y-81741641D01*
X114638183Y-81199862D01*
X114312387Y-80712273D01*
X113897727Y-80297613D01*
X113410138Y-79971817D01*
X113248827Y-79905000D01*
X115528681Y-79905000D01*
X115443557Y-83990969D01*
X115424226Y-84014524D01*
X115353654Y-84146553D01*
X115310197Y-84289814D01*
X115295523Y-84438800D01*
X115310197Y-84587786D01*
X115353654Y-84731047D01*
X115424226Y-84863076D01*
X115425359Y-84864457D01*
X115414028Y-85408355D01*
X115416440Y-85435776D01*
X115423667Y-85459601D01*
X115435403Y-85481557D01*
X115451197Y-85500803D01*
X115470443Y-85516597D01*
X115492399Y-85528333D01*
X115516224Y-85535560D01*
X115541000Y-85538000D01*
X133575000Y-85538000D01*
X133599776Y-85535560D01*
X133623601Y-85528333D01*
X133645557Y-85516597D01*
X133664803Y-85500803D01*
X133680597Y-85481557D01*
X133692333Y-85459601D01*
X133699560Y-85435776D01*
X133702000Y-85411000D01*
X133702000Y-81889373D01*
X133762974Y-81815076D01*
X133833546Y-81683047D01*
X133877003Y-81539786D01*
X133891677Y-81390800D01*
X133877003Y-81241814D01*
X133833546Y-81098553D01*
X133762974Y-80966524D01*
X133760227Y-80963177D01*
X133782746Y-80921047D01*
X133826203Y-80777786D01*
X133840877Y-80628800D01*
X133826203Y-80479814D01*
X133782746Y-80336553D01*
X133712174Y-80204524D01*
X133702000Y-80192127D01*
X133702000Y-79905000D01*
X144355649Y-79905000D01*
X144338815Y-79918815D01*
X144259463Y-80015506D01*
X144200498Y-80125820D01*
X144164188Y-80245518D01*
X144151928Y-80370000D01*
X144151928Y-82070000D01*
X144164188Y-82194482D01*
X144200498Y-82314180D01*
X144259463Y-82424494D01*
X144338815Y-82521185D01*
X144435506Y-82600537D01*
X144545820Y-82659502D01*
X144665518Y-82695812D01*
X144755001Y-82704625D01*
X144755000Y-85052421D01*
X143824422Y-85983000D01*
X142413072Y-85983000D01*
X142413072Y-85968000D01*
X142400812Y-85843518D01*
X142364502Y-85723820D01*
X142305537Y-85613506D01*
X142226185Y-85516815D01*
X142129494Y-85437463D01*
X142019180Y-85378498D01*
X141899482Y-85342188D01*
X141775000Y-85329928D01*
X139275000Y-85329928D01*
X139150518Y-85342188D01*
X139030820Y-85378498D01*
X138920506Y-85437463D01*
X138823815Y-85516815D01*
X138744463Y-85613506D01*
X138685498Y-85723820D01*
X138649188Y-85843518D01*
X138636928Y-85968000D01*
X138636928Y-87768000D01*
X138649188Y-87892482D01*
X138685498Y-88012180D01*
X138744463Y-88122494D01*
X138823815Y-88219185D01*
X138920506Y-88298537D01*
X139030820Y-88357502D01*
X139150518Y-88393812D01*
X139275000Y-88406072D01*
X141775000Y-88406072D01*
X141899482Y-88393812D01*
X142019180Y-88357502D01*
X142129494Y-88298537D01*
X142226185Y-88219185D01*
X142305537Y-88122494D01*
X142364502Y-88012180D01*
X142400812Y-87892482D01*
X142413072Y-87768000D01*
X142413072Y-87753000D01*
X144147531Y-87753000D01*
X144191000Y-87757281D01*
X144234469Y-87753000D01*
X144234477Y-87753000D01*
X144364490Y-87740195D01*
X144531313Y-87689589D01*
X144685059Y-87607411D01*
X144819817Y-87496817D01*
X144847534Y-87463044D01*
X146235050Y-86075529D01*
X146268817Y-86047817D01*
X146322012Y-85983000D01*
X146379410Y-85913060D01*
X146379411Y-85913059D01*
X146461589Y-85759313D01*
X146512195Y-85592490D01*
X146525000Y-85462477D01*
X146525000Y-85462467D01*
X146529281Y-85419001D01*
X146525000Y-85375535D01*
X146525000Y-82704625D01*
X146614482Y-82695812D01*
X146734180Y-82659502D01*
X146844494Y-82600537D01*
X146941185Y-82521185D01*
X146955000Y-82504351D01*
X146955001Y-99569393D01*
X146867913Y-99656481D01*
X146867000Y-99402250D01*
X146772750Y-99308000D01*
X145888000Y-99308000D01*
X145888000Y-100192750D01*
X145982250Y-100287000D01*
X146236481Y-100287913D01*
X146209394Y-100315000D01*
X139248827Y-100315000D01*
X139410138Y-100248183D01*
X139897727Y-99922387D01*
X139910114Y-99910000D01*
X144411176Y-99910000D01*
X144418455Y-99983905D01*
X144440012Y-100054970D01*
X144475019Y-100120463D01*
X144522131Y-100177869D01*
X144579537Y-100224981D01*
X144645030Y-100259988D01*
X144716095Y-100281545D01*
X144790000Y-100288824D01*
X145297750Y-100287000D01*
X145392000Y-100192750D01*
X145392000Y-99308000D01*
X144507250Y-99308000D01*
X144413000Y-99402250D01*
X144411176Y-99910000D01*
X139910114Y-99910000D01*
X140312387Y-99507727D01*
X140638183Y-99020138D01*
X140862595Y-98478359D01*
X140915975Y-98210000D01*
X144411176Y-98210000D01*
X144413000Y-98717750D01*
X144507250Y-98812000D01*
X145392000Y-98812000D01*
X145392000Y-97927250D01*
X145888000Y-97927250D01*
X145888000Y-98812000D01*
X146772750Y-98812000D01*
X146867000Y-98717750D01*
X146868824Y-98210000D01*
X146861545Y-98136095D01*
X146839988Y-98065030D01*
X146804981Y-97999537D01*
X146757869Y-97942131D01*
X146700463Y-97895019D01*
X146634970Y-97860012D01*
X146563905Y-97838455D01*
X146490000Y-97831176D01*
X145982250Y-97833000D01*
X145888000Y-97927250D01*
X145392000Y-97927250D01*
X145297750Y-97833000D01*
X144790000Y-97831176D01*
X144716095Y-97838455D01*
X144645030Y-97860012D01*
X144579537Y-97895019D01*
X144522131Y-97942131D01*
X144475019Y-97999537D01*
X144440012Y-98065030D01*
X144418455Y-98136095D01*
X144411176Y-98210000D01*
X140915975Y-98210000D01*
X140977000Y-97903209D01*
X140977000Y-97316791D01*
X140862595Y-96741641D01*
X140638183Y-96199862D01*
X140312387Y-95712273D01*
X139897727Y-95297613D01*
X139410138Y-94971817D01*
X138868359Y-94747405D01*
X138293209Y-94633000D01*
X137706791Y-94633000D01*
X137131641Y-94747405D01*
X136589862Y-94971817D01*
X136102273Y-95297613D01*
X135687613Y-95712273D01*
X135361817Y-96199862D01*
X135137405Y-96741641D01*
X135023000Y-97316791D01*
X135023000Y-97903209D01*
X135137405Y-98478359D01*
X135361817Y-99020138D01*
X135687613Y-99507727D01*
X136102273Y-99922387D01*
X136589862Y-100248183D01*
X136751173Y-100315000D01*
X104430606Y-100315000D01*
X104343734Y-100228128D01*
X104657750Y-100227000D01*
X104752000Y-100132750D01*
X104752000Y-99248000D01*
X105248000Y-99248000D01*
X105248000Y-100132750D01*
X105342250Y-100227000D01*
X105850000Y-100228824D01*
X105923905Y-100221545D01*
X105994970Y-100199988D01*
X106060463Y-100164981D01*
X106117869Y-100117869D01*
X106164981Y-100060463D01*
X106199988Y-99994970D01*
X106221545Y-99923905D01*
X106228824Y-99850000D01*
X106227000Y-99342250D01*
X106132750Y-99248000D01*
X105248000Y-99248000D01*
X104752000Y-99248000D01*
X103867250Y-99248000D01*
X103773000Y-99342250D01*
X103771872Y-99656266D01*
X103685000Y-99569394D01*
X103685000Y-98150000D01*
X103771176Y-98150000D01*
X103773000Y-98657750D01*
X103867250Y-98752000D01*
X104752000Y-98752000D01*
X104752000Y-97867250D01*
X105248000Y-97867250D01*
X105248000Y-98752000D01*
X106132750Y-98752000D01*
X106227000Y-98657750D01*
X106228824Y-98150000D01*
X106221545Y-98076095D01*
X106199988Y-98005030D01*
X106164981Y-97939537D01*
X106117869Y-97882131D01*
X106060463Y-97835019D01*
X105994970Y-97800012D01*
X105923905Y-97778455D01*
X105850000Y-97771176D01*
X105342250Y-97773000D01*
X105248000Y-97867250D01*
X104752000Y-97867250D01*
X104657750Y-97773000D01*
X104150000Y-97771176D01*
X104076095Y-97778455D01*
X104005030Y-97800012D01*
X103939537Y-97835019D01*
X103882131Y-97882131D01*
X103835019Y-97939537D01*
X103800012Y-98005030D01*
X103778455Y-98076095D01*
X103771176Y-98150000D01*
X103685000Y-98150000D01*
X103685000Y-97505000D01*
X110608176Y-97505000D01*
X110615455Y-97578905D01*
X110637012Y-97649970D01*
X110672019Y-97715463D01*
X110719131Y-97772869D01*
X110776537Y-97819981D01*
X110842030Y-97854988D01*
X110913095Y-97876545D01*
X110987000Y-97883824D01*
X111544750Y-97882000D01*
X111639000Y-97787750D01*
X111639000Y-97178000D01*
X112135000Y-97178000D01*
X112135000Y-97787750D01*
X112229250Y-97882000D01*
X112787000Y-97883824D01*
X112860905Y-97876545D01*
X112931970Y-97854988D01*
X112997463Y-97819981D01*
X113054869Y-97772869D01*
X113101981Y-97715463D01*
X113136988Y-97649970D01*
X113157000Y-97583998D01*
X113177012Y-97649970D01*
X113212019Y-97715463D01*
X113259131Y-97772869D01*
X113316537Y-97819981D01*
X113382030Y-97854988D01*
X113453095Y-97876545D01*
X113527000Y-97883824D01*
X114084750Y-97882000D01*
X114179000Y-97787750D01*
X114179000Y-97178000D01*
X114675000Y-97178000D01*
X114675000Y-97787750D01*
X114769250Y-97882000D01*
X115327000Y-97883824D01*
X115400905Y-97876545D01*
X115471970Y-97854988D01*
X115537463Y-97819981D01*
X115594869Y-97772869D01*
X115641981Y-97715463D01*
X115662716Y-97676671D01*
X115669019Y-97688463D01*
X115716131Y-97745869D01*
X115773537Y-97792981D01*
X115839030Y-97827988D01*
X115910095Y-97849545D01*
X115984000Y-97856824D01*
X116116750Y-97855000D01*
X116211000Y-97760750D01*
X116211000Y-97276000D01*
X115704029Y-97276000D01*
X115704000Y-97272250D01*
X115609750Y-97178000D01*
X114675000Y-97178000D01*
X114179000Y-97178000D01*
X113244250Y-97178000D01*
X113157000Y-97265250D01*
X113069750Y-97178000D01*
X112135000Y-97178000D01*
X111639000Y-97178000D01*
X110704250Y-97178000D01*
X110610000Y-97272250D01*
X110608176Y-97505000D01*
X103685000Y-97505000D01*
X103685000Y-96355000D01*
X110608176Y-96355000D01*
X110610000Y-96587750D01*
X110704250Y-96682000D01*
X111639000Y-96682000D01*
X111639000Y-96072250D01*
X112135000Y-96072250D01*
X112135000Y-96682000D01*
X113069750Y-96682000D01*
X113157000Y-96594750D01*
X113244250Y-96682000D01*
X114179000Y-96682000D01*
X114179000Y-96072250D01*
X114084750Y-95978000D01*
X113527000Y-95976176D01*
X113453095Y-95983455D01*
X113382030Y-96005012D01*
X113316537Y-96040019D01*
X113259131Y-96087131D01*
X113212019Y-96144537D01*
X113177012Y-96210030D01*
X113157000Y-96276002D01*
X113136988Y-96210030D01*
X113101981Y-96144537D01*
X113054869Y-96087131D01*
X112997463Y-96040019D01*
X112931970Y-96005012D01*
X112860905Y-95983455D01*
X112787000Y-95976176D01*
X112229250Y-95978000D01*
X112135000Y-96072250D01*
X111639000Y-96072250D01*
X111544750Y-95978000D01*
X110987000Y-95976176D01*
X110913095Y-95983455D01*
X110842030Y-96005012D01*
X110776537Y-96040019D01*
X110719131Y-96087131D01*
X110672019Y-96144537D01*
X110637012Y-96210030D01*
X110615455Y-96281095D01*
X110608176Y-96355000D01*
X103685000Y-96355000D01*
X103685000Y-82504351D01*
X103698815Y-82521185D01*
X103795506Y-82600537D01*
X103905820Y-82659502D01*
X104025518Y-82695812D01*
X104115001Y-82704625D01*
X104115000Y-90806531D01*
X104110719Y-90850000D01*
X104115000Y-90893469D01*
X104115000Y-90893476D01*
X104127805Y-91023489D01*
X104178411Y-91190312D01*
X104260589Y-91344058D01*
X104371183Y-91478817D01*
X104404956Y-91506534D01*
X107473470Y-94575049D01*
X107501183Y-94608817D01*
X107534951Y-94636530D01*
X107534953Y-94636532D01*
X107571206Y-94666284D01*
X107635941Y-94719411D01*
X107789687Y-94801589D01*
X107956510Y-94852195D01*
X108086523Y-94865000D01*
X108086533Y-94865000D01*
X108129999Y-94869281D01*
X108173465Y-94865000D01*
X110553263Y-94865000D01*
X110609038Y-94932962D01*
X110743613Y-95043405D01*
X110897149Y-95125472D01*
X111063745Y-95176008D01*
X111236999Y-95193072D01*
X112537001Y-95193072D01*
X112710255Y-95176008D01*
X112876851Y-95125472D01*
X113030387Y-95043405D01*
X113157000Y-94939496D01*
X113283613Y-95043405D01*
X113437149Y-95125472D01*
X113603745Y-95176008D01*
X113776999Y-95193072D01*
X115077001Y-95193072D01*
X115250255Y-95176008D01*
X115356691Y-95143721D01*
X115345928Y-95253000D01*
X115345928Y-95703000D01*
X115362512Y-95871377D01*
X115396375Y-95983009D01*
X115327000Y-95976176D01*
X114769250Y-95978000D01*
X114675000Y-96072250D01*
X114675000Y-96682000D01*
X115606937Y-96682000D01*
X115607000Y-96685750D01*
X115701250Y-96780000D01*
X116211000Y-96780000D01*
X116211000Y-96760000D01*
X116707000Y-96760000D01*
X116707000Y-96780000D01*
X116727000Y-96780000D01*
X116727000Y-97276000D01*
X116707000Y-97276000D01*
X116707000Y-97760750D01*
X116801250Y-97855000D01*
X116934000Y-97856824D01*
X117007905Y-97849545D01*
X117078970Y-97827988D01*
X117144463Y-97792981D01*
X117201869Y-97745869D01*
X117248981Y-97688463D01*
X117283988Y-97622970D01*
X117305545Y-97551905D01*
X117312824Y-97478000D01*
X117311000Y-97370250D01*
X117216752Y-97276002D01*
X117311000Y-97276002D01*
X117311000Y-97207788D01*
X117429418Y-97271084D01*
X117577255Y-97315929D01*
X117731000Y-97331072D01*
X119381000Y-97331072D01*
X119534745Y-97315929D01*
X119682582Y-97271084D01*
X119818829Y-97198258D01*
X119938251Y-97100251D01*
X120036258Y-96980829D01*
X120109084Y-96844582D01*
X120153929Y-96696745D01*
X120169072Y-96543000D01*
X120169072Y-96243000D01*
X120153929Y-96089255D01*
X120109084Y-95941418D01*
X120036258Y-95805171D01*
X119997546Y-95758000D01*
X120036258Y-95710829D01*
X120109084Y-95574582D01*
X120153929Y-95426745D01*
X120169072Y-95273000D01*
X120169072Y-94973000D01*
X120153929Y-94819255D01*
X120109084Y-94671418D01*
X120036258Y-94535171D01*
X119997546Y-94488000D01*
X120036258Y-94440829D01*
X120109084Y-94304582D01*
X120153929Y-94156745D01*
X120169072Y-94003000D01*
X120169072Y-93703000D01*
X120153929Y-93549255D01*
X120109084Y-93401418D01*
X120036258Y-93265171D01*
X119997546Y-93218000D01*
X120036258Y-93170829D01*
X120109084Y-93034582D01*
X120153929Y-92886745D01*
X120169072Y-92733000D01*
X120169072Y-92433000D01*
X121892928Y-92433000D01*
X121892928Y-92733000D01*
X121908071Y-92886745D01*
X121952916Y-93034582D01*
X122025742Y-93170829D01*
X122123749Y-93290251D01*
X122207311Y-93358828D01*
X122181012Y-93408030D01*
X122159455Y-93479095D01*
X122152176Y-93553000D01*
X122154000Y-93585750D01*
X122248250Y-93680000D01*
X123258000Y-93680000D01*
X123258000Y-93585000D01*
X123754000Y-93585000D01*
X123754000Y-93680000D01*
X124763750Y-93680000D01*
X124858000Y-93585750D01*
X124859824Y-93553000D01*
X124852545Y-93479095D01*
X124838149Y-93431637D01*
X124927313Y-93404589D01*
X125014745Y-93357856D01*
X125014512Y-93358623D01*
X124997928Y-93527000D01*
X124997928Y-93977000D01*
X125014512Y-94145377D01*
X125063625Y-94307283D01*
X125091620Y-94359657D01*
X125057678Y-94363000D01*
X124823976Y-94363000D01*
X124804689Y-94347172D01*
X124830988Y-94297970D01*
X124852545Y-94226905D01*
X124859824Y-94153000D01*
X124858000Y-94120250D01*
X124763750Y-94026000D01*
X123754000Y-94026000D01*
X123754000Y-94121000D01*
X123258000Y-94121000D01*
X123258000Y-94026000D01*
X122248250Y-94026000D01*
X122154000Y-94120250D01*
X122152176Y-94153000D01*
X122159455Y-94226905D01*
X122181012Y-94297970D01*
X122207311Y-94347172D01*
X122123749Y-94415749D01*
X122025742Y-94535171D01*
X121952916Y-94671418D01*
X121908071Y-94819255D01*
X121892928Y-94973000D01*
X121892928Y-95273000D01*
X121908071Y-95426745D01*
X121952916Y-95574582D01*
X122025742Y-95710829D01*
X122064454Y-95758000D01*
X122025742Y-95805171D01*
X121952916Y-95941418D01*
X121908071Y-96089255D01*
X121892928Y-96243000D01*
X121892928Y-96543000D01*
X121908071Y-96696745D01*
X121952916Y-96844582D01*
X122025742Y-96980829D01*
X122123749Y-97100251D01*
X122243171Y-97198258D01*
X122379418Y-97271084D01*
X122527255Y-97315929D01*
X122681000Y-97331072D01*
X124331000Y-97331072D01*
X124484745Y-97315929D01*
X124632582Y-97271084D01*
X124768829Y-97198258D01*
X124828701Y-97149123D01*
X124900986Y-97142003D01*
X124993301Y-97114000D01*
X125007974Y-97114000D01*
X125014512Y-97180377D01*
X125063625Y-97342283D01*
X125143382Y-97491497D01*
X125200191Y-97560719D01*
X125124522Y-97702284D01*
X125076831Y-97859500D01*
X125060728Y-98023000D01*
X125060728Y-98573000D01*
X125076831Y-98736500D01*
X125124522Y-98893716D01*
X125201969Y-99038608D01*
X125306194Y-99165606D01*
X125433192Y-99269831D01*
X125578084Y-99347278D01*
X125735300Y-99394969D01*
X125898800Y-99411072D01*
X126298800Y-99411072D01*
X126462300Y-99394969D01*
X126619516Y-99347278D01*
X126764408Y-99269831D01*
X126891406Y-99165606D01*
X126995631Y-99038608D01*
X127029463Y-98975313D01*
X127033819Y-98983463D01*
X127080931Y-99040869D01*
X127138337Y-99087981D01*
X127203830Y-99122988D01*
X127274895Y-99144545D01*
X127348800Y-99151824D01*
X127406550Y-99150000D01*
X127500800Y-99055750D01*
X127500800Y-98546000D01*
X127996800Y-98546000D01*
X127996800Y-99055750D01*
X128091050Y-99150000D01*
X128148800Y-99151824D01*
X128222705Y-99144545D01*
X128293770Y-99122988D01*
X128359263Y-99087981D01*
X128416669Y-99040869D01*
X128463781Y-98983463D01*
X128498788Y-98917970D01*
X128520345Y-98846905D01*
X128527624Y-98773000D01*
X128621976Y-98773000D01*
X128629255Y-98846905D01*
X128650812Y-98917970D01*
X128685819Y-98983463D01*
X128732931Y-99040869D01*
X128790337Y-99087981D01*
X128855830Y-99122988D01*
X128926895Y-99144545D01*
X129000800Y-99151824D01*
X129058550Y-99150000D01*
X129152800Y-99055750D01*
X129152800Y-98546000D01*
X128718050Y-98546000D01*
X128623800Y-98640250D01*
X128621976Y-98773000D01*
X128527624Y-98773000D01*
X128525800Y-98640250D01*
X128431550Y-98546000D01*
X127996800Y-98546000D01*
X127500800Y-98546000D01*
X127480800Y-98546000D01*
X127480800Y-98050000D01*
X127500800Y-98050000D01*
X127500800Y-97540250D01*
X127497150Y-97536600D01*
X127514000Y-97519750D01*
X127514000Y-97035000D01*
X127494000Y-97035000D01*
X127494000Y-96539000D01*
X127514000Y-96539000D01*
X127514000Y-96519000D01*
X128010000Y-96519000D01*
X128010000Y-96539000D01*
X128030000Y-96539000D01*
X128030000Y-97035000D01*
X128010000Y-97035000D01*
X128010000Y-97519750D01*
X128013650Y-97523400D01*
X127996800Y-97540250D01*
X127996800Y-98050000D01*
X128431550Y-98050000D01*
X128525800Y-97955750D01*
X128527624Y-97823000D01*
X128520345Y-97749095D01*
X128498788Y-97678030D01*
X128463781Y-97612537D01*
X128424262Y-97564383D01*
X128447463Y-97551981D01*
X128467914Y-97535197D01*
X128545394Y-97629606D01*
X128641561Y-97708528D01*
X128629255Y-97749095D01*
X128621976Y-97823000D01*
X128623800Y-97955750D01*
X128718050Y-98050000D01*
X129152800Y-98050000D01*
X129152800Y-98030000D01*
X129648800Y-98030000D01*
X129648800Y-98050000D01*
X129668800Y-98050000D01*
X129668800Y-98546000D01*
X129648800Y-98546000D01*
X129648800Y-99055750D01*
X129743050Y-99150000D01*
X129800800Y-99151824D01*
X129874705Y-99144545D01*
X129945770Y-99122988D01*
X130011263Y-99087981D01*
X130068669Y-99040869D01*
X130115781Y-98983463D01*
X130120137Y-98975313D01*
X130153969Y-99038608D01*
X130258194Y-99165606D01*
X130385192Y-99269831D01*
X130530084Y-99347278D01*
X130687300Y-99394969D01*
X130850800Y-99411072D01*
X131250800Y-99411072D01*
X131414300Y-99394969D01*
X131571516Y-99347278D01*
X131716408Y-99269831D01*
X131843406Y-99165606D01*
X131947631Y-99038608D01*
X132025078Y-98893716D01*
X132072769Y-98736500D01*
X132088872Y-98573000D01*
X132088872Y-98023000D01*
X132072769Y-97859500D01*
X132025078Y-97702284D01*
X131964686Y-97589299D01*
X132035831Y-97502608D01*
X132113278Y-97357716D01*
X132160969Y-97200500D01*
X132177072Y-97037000D01*
X132177072Y-96637000D01*
X132160969Y-96473500D01*
X132113278Y-96316284D01*
X132035831Y-96171392D01*
X131931606Y-96044394D01*
X131892134Y-96012000D01*
X131931606Y-95979606D01*
X132035831Y-95852608D01*
X132113278Y-95707716D01*
X132160969Y-95550500D01*
X132177072Y-95387000D01*
X132177072Y-94987000D01*
X132160969Y-94823500D01*
X132113278Y-94666284D01*
X132035831Y-94521392D01*
X131931606Y-94394394D01*
X131804608Y-94290169D01*
X131754336Y-94263298D01*
X131698974Y-94159724D01*
X131604001Y-94043999D01*
X131575002Y-94020200D01*
X131562000Y-94007198D01*
X131562000Y-93945061D01*
X131522226Y-93745102D01*
X131444205Y-93556744D01*
X131330937Y-93387226D01*
X131186774Y-93243063D01*
X131102870Y-93187000D01*
X134865176Y-93187000D01*
X134872455Y-93260905D01*
X134894012Y-93331970D01*
X134929019Y-93397463D01*
X134976131Y-93454869D01*
X135033537Y-93501981D01*
X135099030Y-93536988D01*
X135170095Y-93558545D01*
X135244000Y-93565824D01*
X135801750Y-93564000D01*
X135896000Y-93469750D01*
X135896000Y-92860000D01*
X136392000Y-92860000D01*
X136392000Y-93469750D01*
X136486250Y-93564000D01*
X137044000Y-93565824D01*
X137117905Y-93558545D01*
X137188970Y-93536988D01*
X137254463Y-93501981D01*
X137311869Y-93454869D01*
X137358981Y-93397463D01*
X137393988Y-93331970D01*
X137414000Y-93265998D01*
X137434012Y-93331970D01*
X137469019Y-93397463D01*
X137516131Y-93454869D01*
X137573537Y-93501981D01*
X137639030Y-93536988D01*
X137710095Y-93558545D01*
X137784000Y-93565824D01*
X138341750Y-93564000D01*
X138436000Y-93469750D01*
X138436000Y-92860000D01*
X138932000Y-92860000D01*
X138932000Y-93469750D01*
X139026250Y-93564000D01*
X139584000Y-93565824D01*
X139657905Y-93558545D01*
X139728970Y-93536988D01*
X139794463Y-93501981D01*
X139851869Y-93454869D01*
X139898981Y-93397463D01*
X139933988Y-93331970D01*
X139955545Y-93260905D01*
X139962824Y-93187000D01*
X139961000Y-92954250D01*
X139866750Y-92860000D01*
X138932000Y-92860000D01*
X138436000Y-92860000D01*
X137501250Y-92860000D01*
X137414000Y-92947250D01*
X137326750Y-92860000D01*
X136392000Y-92860000D01*
X135896000Y-92860000D01*
X134961250Y-92860000D01*
X134867000Y-92954250D01*
X134865176Y-93187000D01*
X131102870Y-93187000D01*
X131017256Y-93129795D01*
X130828898Y-93051774D01*
X130628939Y-93012000D01*
X130425061Y-93012000D01*
X130298000Y-93037274D01*
X130298000Y-92614578D01*
X130875578Y-92037000D01*
X134865176Y-92037000D01*
X134867000Y-92269750D01*
X134961250Y-92364000D01*
X135896000Y-92364000D01*
X135896000Y-91754250D01*
X136392000Y-91754250D01*
X136392000Y-92364000D01*
X137326750Y-92364000D01*
X137414000Y-92276750D01*
X137501250Y-92364000D01*
X138436000Y-92364000D01*
X138436000Y-91754250D01*
X138932000Y-91754250D01*
X138932000Y-92364000D01*
X139866750Y-92364000D01*
X139961000Y-92269750D01*
X139962824Y-92037000D01*
X139955545Y-91963095D01*
X139933988Y-91892030D01*
X139898981Y-91826537D01*
X139851869Y-91769131D01*
X139794463Y-91722019D01*
X139728970Y-91687012D01*
X139657905Y-91665455D01*
X139584000Y-91658176D01*
X139026250Y-91660000D01*
X138932000Y-91754250D01*
X138436000Y-91754250D01*
X138341750Y-91660000D01*
X137784000Y-91658176D01*
X137710095Y-91665455D01*
X137639030Y-91687012D01*
X137573537Y-91722019D01*
X137516131Y-91769131D01*
X137469019Y-91826537D01*
X137434012Y-91892030D01*
X137414000Y-91958002D01*
X137393988Y-91892030D01*
X137358981Y-91826537D01*
X137311869Y-91769131D01*
X137254463Y-91722019D01*
X137188970Y-91687012D01*
X137117905Y-91665455D01*
X137044000Y-91658176D01*
X136486250Y-91660000D01*
X136392000Y-91754250D01*
X135896000Y-91754250D01*
X135801750Y-91660000D01*
X135244000Y-91658176D01*
X135170095Y-91665455D01*
X135099030Y-91687012D01*
X135033537Y-91722019D01*
X134976131Y-91769131D01*
X134929019Y-91826537D01*
X134894012Y-91892030D01*
X134872455Y-91963095D01*
X134865176Y-92037000D01*
X130875578Y-92037000D01*
X132073928Y-90838651D01*
X132073928Y-91162000D01*
X132086188Y-91286482D01*
X132122498Y-91406180D01*
X132181463Y-91516494D01*
X132260815Y-91613185D01*
X132357506Y-91692537D01*
X132467820Y-91751502D01*
X132587518Y-91787812D01*
X132712000Y-91800072D01*
X134662000Y-91800072D01*
X134786482Y-91787812D01*
X134906180Y-91751502D01*
X135016494Y-91692537D01*
X135113185Y-91613185D01*
X135192537Y-91516494D01*
X135251502Y-91406180D01*
X135287812Y-91286482D01*
X135300072Y-91162000D01*
X135300072Y-90851737D01*
X135320745Y-90858008D01*
X135493999Y-90875072D01*
X136794001Y-90875072D01*
X136967255Y-90858008D01*
X137133851Y-90807472D01*
X137287387Y-90725405D01*
X137414000Y-90621496D01*
X137540613Y-90725405D01*
X137694149Y-90807472D01*
X137860745Y-90858008D01*
X138033999Y-90875072D01*
X139334001Y-90875072D01*
X139507255Y-90858008D01*
X139673851Y-90807472D01*
X139827387Y-90725405D01*
X139961962Y-90614962D01*
X140072405Y-90480387D01*
X140154472Y-90326851D01*
X140205008Y-90160255D01*
X140222072Y-89987001D01*
X140222072Y-89336999D01*
X140205008Y-89163745D01*
X140154472Y-88997149D01*
X140072405Y-88843613D01*
X139961962Y-88709038D01*
X139827387Y-88598595D01*
X139673851Y-88516528D01*
X139507255Y-88465992D01*
X139334001Y-88448928D01*
X138033999Y-88448928D01*
X137860745Y-88465992D01*
X137694149Y-88516528D01*
X137540613Y-88598595D01*
X137414000Y-88702504D01*
X137397539Y-88688995D01*
X137410000Y-88562477D01*
X137410000Y-88562467D01*
X137414281Y-88519001D01*
X137410000Y-88475535D01*
X137410000Y-88406072D01*
X137775000Y-88406072D01*
X137899482Y-88393812D01*
X138019180Y-88357502D01*
X138129494Y-88298537D01*
X138226185Y-88219185D01*
X138305537Y-88122494D01*
X138364502Y-88012180D01*
X138400812Y-87892482D01*
X138413072Y-87768000D01*
X138413072Y-85968000D01*
X138400812Y-85843518D01*
X138364502Y-85723820D01*
X138305537Y-85613506D01*
X138226185Y-85516815D01*
X138129494Y-85437463D01*
X138019180Y-85378498D01*
X137899482Y-85342188D01*
X137775000Y-85329928D01*
X135275000Y-85329928D01*
X135150518Y-85342188D01*
X135030820Y-85378498D01*
X134920506Y-85437463D01*
X134823815Y-85516815D01*
X134744463Y-85613506D01*
X134685498Y-85723820D01*
X134649188Y-85843518D01*
X134636928Y-85968000D01*
X134636928Y-87523928D01*
X132712000Y-87523928D01*
X132587518Y-87536188D01*
X132467820Y-87572498D01*
X132357506Y-87631463D01*
X132260815Y-87710815D01*
X132181463Y-87807506D01*
X132122498Y-87917820D01*
X132086188Y-88037518D01*
X132073928Y-88162000D01*
X132073928Y-88777000D01*
X132042465Y-88777000D01*
X131998999Y-88772719D01*
X131955533Y-88777000D01*
X131955523Y-88777000D01*
X131825510Y-88789805D01*
X131658687Y-88840411D01*
X131504941Y-88922589D01*
X131504939Y-88922590D01*
X131504940Y-88922590D01*
X131403953Y-89005468D01*
X131403951Y-89005470D01*
X131370183Y-89033183D01*
X131342470Y-89066951D01*
X129800072Y-90609350D01*
X129800072Y-88162000D01*
X129787812Y-88037518D01*
X129751502Y-87917820D01*
X129692537Y-87807506D01*
X129613185Y-87710815D01*
X129516494Y-87631463D01*
X129406180Y-87572498D01*
X129286482Y-87536188D01*
X129162000Y-87523928D01*
X127212000Y-87523928D01*
X127087518Y-87536188D01*
X126967820Y-87572498D01*
X126857506Y-87631463D01*
X126760815Y-87710815D01*
X126681463Y-87807506D01*
X126622498Y-87917820D01*
X126586188Y-88037518D01*
X126577678Y-88123928D01*
X124194000Y-88123928D01*
X124069518Y-88136188D01*
X123949820Y-88172498D01*
X123839506Y-88231463D01*
X123742815Y-88310815D01*
X123663463Y-88407506D01*
X123604498Y-88517820D01*
X123568188Y-88637518D01*
X123555928Y-88762000D01*
X123555928Y-90562000D01*
X123568188Y-90686482D01*
X123604498Y-90806180D01*
X123663463Y-90916494D01*
X123742815Y-91013185D01*
X123839506Y-91092537D01*
X123949820Y-91151502D01*
X124069518Y-91187812D01*
X124194000Y-91200072D01*
X124559000Y-91200072D01*
X124559000Y-91359421D01*
X124273494Y-91644928D01*
X122681000Y-91644928D01*
X122527255Y-91660071D01*
X122379418Y-91704916D01*
X122243171Y-91777742D01*
X122123749Y-91875749D01*
X122025742Y-91995171D01*
X121952916Y-92131418D01*
X121908071Y-92279255D01*
X121892928Y-92433000D01*
X120169072Y-92433000D01*
X120153929Y-92279255D01*
X120109084Y-92131418D01*
X120036258Y-91995171D01*
X119938251Y-91875749D01*
X119818829Y-91777742D01*
X119682582Y-91704916D01*
X119648106Y-91694458D01*
X119613226Y-91519102D01*
X119535205Y-91330744D01*
X119421937Y-91161226D01*
X119277774Y-91017063D01*
X119108256Y-90903795D01*
X118919898Y-90825774D01*
X118719939Y-90786000D01*
X118516061Y-90786000D01*
X118316102Y-90825774D01*
X118127744Y-90903795D01*
X117958226Y-91017063D01*
X117814063Y-91161226D01*
X117700795Y-91330744D01*
X117622774Y-91519102D01*
X117595083Y-91658315D01*
X117577255Y-91660071D01*
X117429418Y-91704916D01*
X117303465Y-91772239D01*
X117283988Y-91708030D01*
X117248981Y-91642537D01*
X117201869Y-91585131D01*
X117144463Y-91538019D01*
X117078970Y-91503012D01*
X117007905Y-91481455D01*
X116934000Y-91474176D01*
X116801250Y-91476000D01*
X116707000Y-91570250D01*
X116707000Y-92055000D01*
X116727000Y-92055000D01*
X116727000Y-92551000D01*
X116707000Y-92551000D01*
X116707000Y-92571000D01*
X116211000Y-92571000D01*
X116211000Y-92551000D01*
X115701250Y-92551000D01*
X115607000Y-92645250D01*
X115605176Y-92753000D01*
X115612455Y-92826905D01*
X115634012Y-92897970D01*
X115667740Y-92961070D01*
X115659295Y-92968000D01*
X115633024Y-92968000D01*
X115570387Y-92916595D01*
X115416851Y-92834528D01*
X115250255Y-92783992D01*
X115077001Y-92766928D01*
X113776999Y-92766928D01*
X113603745Y-92783992D01*
X113437149Y-92834528D01*
X113283613Y-92916595D01*
X113157000Y-93020504D01*
X113030387Y-92916595D01*
X112876851Y-92834528D01*
X112710255Y-92783992D01*
X112537001Y-92766928D01*
X111236999Y-92766928D01*
X111063745Y-92783992D01*
X110897149Y-92834528D01*
X110743613Y-92916595D01*
X110609038Y-93027038D01*
X110553263Y-93095000D01*
X108496579Y-93095000D01*
X107254579Y-91853000D01*
X115605176Y-91853000D01*
X115607000Y-91960750D01*
X115701250Y-92055000D01*
X116211000Y-92055000D01*
X116211000Y-91570250D01*
X116116750Y-91476000D01*
X115984000Y-91474176D01*
X115910095Y-91481455D01*
X115839030Y-91503012D01*
X115773537Y-91538019D01*
X115716131Y-91585131D01*
X115669019Y-91642537D01*
X115634012Y-91708030D01*
X115612455Y-91779095D01*
X115605176Y-91853000D01*
X107254579Y-91853000D01*
X105963579Y-90562000D01*
X119815176Y-90562000D01*
X119822455Y-90635905D01*
X119844012Y-90706970D01*
X119879019Y-90772463D01*
X119926131Y-90829869D01*
X119983537Y-90876981D01*
X120049030Y-90911988D01*
X120120095Y-90933545D01*
X120194000Y-90940824D01*
X121101750Y-90939000D01*
X121196000Y-90844750D01*
X121196000Y-89910000D01*
X121692000Y-89910000D01*
X121692000Y-90844750D01*
X121786250Y-90939000D01*
X122694000Y-90940824D01*
X122767905Y-90933545D01*
X122838970Y-90911988D01*
X122904463Y-90876981D01*
X122961869Y-90829869D01*
X123008981Y-90772463D01*
X123043988Y-90706970D01*
X123065545Y-90635905D01*
X123072824Y-90562000D01*
X123071000Y-90004250D01*
X122976750Y-89910000D01*
X121692000Y-89910000D01*
X121196000Y-89910000D01*
X119911250Y-89910000D01*
X119817000Y-90004250D01*
X119815176Y-90562000D01*
X105963579Y-90562000D01*
X105885000Y-90483422D01*
X105885000Y-88762000D01*
X119815176Y-88762000D01*
X119817000Y-89319750D01*
X119911250Y-89414000D01*
X121196000Y-89414000D01*
X121196000Y-88479250D01*
X121692000Y-88479250D01*
X121692000Y-89414000D01*
X122976750Y-89414000D01*
X123071000Y-89319750D01*
X123072824Y-88762000D01*
X123065545Y-88688095D01*
X123043988Y-88617030D01*
X123008981Y-88551537D01*
X122961869Y-88494131D01*
X122904463Y-88447019D01*
X122838970Y-88412012D01*
X122767905Y-88390455D01*
X122694000Y-88383176D01*
X121786250Y-88385000D01*
X121692000Y-88479250D01*
X121196000Y-88479250D01*
X121101750Y-88385000D01*
X120194000Y-88383176D01*
X120120095Y-88390455D01*
X120049030Y-88412012D01*
X119983537Y-88447019D01*
X119926131Y-88494131D01*
X119879019Y-88551537D01*
X119844012Y-88617030D01*
X119822455Y-88688095D01*
X119815176Y-88762000D01*
X105885000Y-88762000D01*
X105885000Y-82704625D01*
X105974482Y-82695812D01*
X106094180Y-82659502D01*
X106204494Y-82600537D01*
X106301185Y-82521185D01*
X106380537Y-82424494D01*
X106439502Y-82314180D01*
X106475812Y-82194482D01*
X106488072Y-82070000D01*
X106488072Y-80370000D01*
X106475812Y-80245518D01*
X106439502Y-80125820D01*
X106380537Y-80015506D01*
X106301185Y-79918815D01*
X106284351Y-79905000D01*
X110751173Y-79905000D01*
X110589862Y-79971817D01*
%TA.AperFunction,Conductor*%
D21*
G36*
X110589862Y-79971817D02*
G01*
X110102273Y-80297613D01*
X109687613Y-80712273D01*
X109361817Y-81199862D01*
X109137405Y-81741641D01*
X109023000Y-82316791D01*
X109023000Y-82903209D01*
X109137405Y-83478359D01*
X109361817Y-84020138D01*
X109687613Y-84507727D01*
X110102273Y-84922387D01*
X110589862Y-85248183D01*
X111131641Y-85472595D01*
X111706791Y-85587000D01*
X112293209Y-85587000D01*
X112868359Y-85472595D01*
X113410138Y-85248183D01*
X113897727Y-84922387D01*
X114312387Y-84507727D01*
X114638183Y-84020138D01*
X114862595Y-83478359D01*
X114977000Y-82903209D01*
X114977000Y-82316791D01*
X114862595Y-81741641D01*
X114638183Y-81199862D01*
X114312387Y-80712273D01*
X113897727Y-80297613D01*
X113410138Y-79971817D01*
X113248827Y-79905000D01*
X115528681Y-79905000D01*
X115443557Y-83990969D01*
X115424226Y-84014524D01*
X115353654Y-84146553D01*
X115310197Y-84289814D01*
X115295523Y-84438800D01*
X115310197Y-84587786D01*
X115353654Y-84731047D01*
X115424226Y-84863076D01*
X115425359Y-84864457D01*
X115414028Y-85408355D01*
X115416440Y-85435776D01*
X115423667Y-85459601D01*
X115435403Y-85481557D01*
X115451197Y-85500803D01*
X115470443Y-85516597D01*
X115492399Y-85528333D01*
X115516224Y-85535560D01*
X115541000Y-85538000D01*
X133575000Y-85538000D01*
X133599776Y-85535560D01*
X133623601Y-85528333D01*
X133645557Y-85516597D01*
X133664803Y-85500803D01*
X133680597Y-85481557D01*
X133692333Y-85459601D01*
X133699560Y-85435776D01*
X133702000Y-85411000D01*
X133702000Y-81889373D01*
X133762974Y-81815076D01*
X133833546Y-81683047D01*
X133877003Y-81539786D01*
X133891677Y-81390800D01*
X133877003Y-81241814D01*
X133833546Y-81098553D01*
X133762974Y-80966524D01*
X133760227Y-80963177D01*
X133782746Y-80921047D01*
X133826203Y-80777786D01*
X133840877Y-80628800D01*
X133826203Y-80479814D01*
X133782746Y-80336553D01*
X133712174Y-80204524D01*
X133702000Y-80192127D01*
X133702000Y-79905000D01*
X144355649Y-79905000D01*
X144338815Y-79918815D01*
X144259463Y-80015506D01*
X144200498Y-80125820D01*
X144164188Y-80245518D01*
X144151928Y-80370000D01*
X144151928Y-82070000D01*
X144164188Y-82194482D01*
X144200498Y-82314180D01*
X144259463Y-82424494D01*
X144338815Y-82521185D01*
X144435506Y-82600537D01*
X144545820Y-82659502D01*
X144665518Y-82695812D01*
X144755001Y-82704625D01*
X144755000Y-85052421D01*
X143824422Y-85983000D01*
X142413072Y-85983000D01*
X142413072Y-85968000D01*
X142400812Y-85843518D01*
X142364502Y-85723820D01*
X142305537Y-85613506D01*
X142226185Y-85516815D01*
X142129494Y-85437463D01*
X142019180Y-85378498D01*
X141899482Y-85342188D01*
X141775000Y-85329928D01*
X139275000Y-85329928D01*
X139150518Y-85342188D01*
X139030820Y-85378498D01*
X138920506Y-85437463D01*
X138823815Y-85516815D01*
X138744463Y-85613506D01*
X138685498Y-85723820D01*
X138649188Y-85843518D01*
X138636928Y-85968000D01*
X138636928Y-87768000D01*
X138649188Y-87892482D01*
X138685498Y-88012180D01*
X138744463Y-88122494D01*
X138823815Y-88219185D01*
X138920506Y-88298537D01*
X139030820Y-88357502D01*
X139150518Y-88393812D01*
X139275000Y-88406072D01*
X141775000Y-88406072D01*
X141899482Y-88393812D01*
X142019180Y-88357502D01*
X142129494Y-88298537D01*
X142226185Y-88219185D01*
X142305537Y-88122494D01*
X142364502Y-88012180D01*
X142400812Y-87892482D01*
X142413072Y-87768000D01*
X142413072Y-87753000D01*
X144147531Y-87753000D01*
X144191000Y-87757281D01*
X144234469Y-87753000D01*
X144234477Y-87753000D01*
X144364490Y-87740195D01*
X144531313Y-87689589D01*
X144685059Y-87607411D01*
X144819817Y-87496817D01*
X144847534Y-87463044D01*
X146235050Y-86075529D01*
X146268817Y-86047817D01*
X146322012Y-85983000D01*
X146379410Y-85913060D01*
X146379411Y-85913059D01*
X146461589Y-85759313D01*
X146512195Y-85592490D01*
X146525000Y-85462477D01*
X146525000Y-85462467D01*
X146529281Y-85419001D01*
X146525000Y-85375535D01*
X146525000Y-82704625D01*
X146614482Y-82695812D01*
X146734180Y-82659502D01*
X146844494Y-82600537D01*
X146941185Y-82521185D01*
X146955000Y-82504351D01*
X146955001Y-99569393D01*
X146867913Y-99656481D01*
X146867000Y-99402250D01*
X146772750Y-99308000D01*
X145888000Y-99308000D01*
X145888000Y-100192750D01*
X145982250Y-100287000D01*
X146236481Y-100287913D01*
X146209394Y-100315000D01*
X139248827Y-100315000D01*
X139410138Y-100248183D01*
X139897727Y-99922387D01*
X139910114Y-99910000D01*
X144411176Y-99910000D01*
X144418455Y-99983905D01*
X144440012Y-100054970D01*
X144475019Y-100120463D01*
X144522131Y-100177869D01*
X144579537Y-100224981D01*
X144645030Y-100259988D01*
X144716095Y-100281545D01*
X144790000Y-100288824D01*
X145297750Y-100287000D01*
X145392000Y-100192750D01*
X145392000Y-99308000D01*
X144507250Y-99308000D01*
X144413000Y-99402250D01*
X144411176Y-99910000D01*
X139910114Y-99910000D01*
X140312387Y-99507727D01*
X140638183Y-99020138D01*
X140862595Y-98478359D01*
X140915975Y-98210000D01*
X144411176Y-98210000D01*
X144413000Y-98717750D01*
X144507250Y-98812000D01*
X145392000Y-98812000D01*
X145392000Y-97927250D01*
X145888000Y-97927250D01*
X145888000Y-98812000D01*
X146772750Y-98812000D01*
X146867000Y-98717750D01*
X146868824Y-98210000D01*
X146861545Y-98136095D01*
X146839988Y-98065030D01*
X146804981Y-97999537D01*
X146757869Y-97942131D01*
X146700463Y-97895019D01*
X146634970Y-97860012D01*
X146563905Y-97838455D01*
X146490000Y-97831176D01*
X145982250Y-97833000D01*
X145888000Y-97927250D01*
X145392000Y-97927250D01*
X145297750Y-97833000D01*
X144790000Y-97831176D01*
X144716095Y-97838455D01*
X144645030Y-97860012D01*
X144579537Y-97895019D01*
X144522131Y-97942131D01*
X144475019Y-97999537D01*
X144440012Y-98065030D01*
X144418455Y-98136095D01*
X144411176Y-98210000D01*
X140915975Y-98210000D01*
X140977000Y-97903209D01*
X140977000Y-97316791D01*
X140862595Y-96741641D01*
X140638183Y-96199862D01*
X140312387Y-95712273D01*
X139897727Y-95297613D01*
X139410138Y-94971817D01*
X138868359Y-94747405D01*
X138293209Y-94633000D01*
X137706791Y-94633000D01*
X137131641Y-94747405D01*
X136589862Y-94971817D01*
X136102273Y-95297613D01*
X135687613Y-95712273D01*
X135361817Y-96199862D01*
X135137405Y-96741641D01*
X135023000Y-97316791D01*
X135023000Y-97903209D01*
X135137405Y-98478359D01*
X135361817Y-99020138D01*
X135687613Y-99507727D01*
X136102273Y-99922387D01*
X136589862Y-100248183D01*
X136751173Y-100315000D01*
X104430606Y-100315000D01*
X104343734Y-100228128D01*
X104657750Y-100227000D01*
X104752000Y-100132750D01*
X104752000Y-99248000D01*
X105248000Y-99248000D01*
X105248000Y-100132750D01*
X105342250Y-100227000D01*
X105850000Y-100228824D01*
X105923905Y-100221545D01*
X105994970Y-100199988D01*
X106060463Y-100164981D01*
X106117869Y-100117869D01*
X106164981Y-100060463D01*
X106199988Y-99994970D01*
X106221545Y-99923905D01*
X106228824Y-99850000D01*
X106227000Y-99342250D01*
X106132750Y-99248000D01*
X105248000Y-99248000D01*
X104752000Y-99248000D01*
X103867250Y-99248000D01*
X103773000Y-99342250D01*
X103771872Y-99656266D01*
X103685000Y-99569394D01*
X103685000Y-98150000D01*
X103771176Y-98150000D01*
X103773000Y-98657750D01*
X103867250Y-98752000D01*
X104752000Y-98752000D01*
X104752000Y-97867250D01*
X105248000Y-97867250D01*
X105248000Y-98752000D01*
X106132750Y-98752000D01*
X106227000Y-98657750D01*
X106228824Y-98150000D01*
X106221545Y-98076095D01*
X106199988Y-98005030D01*
X106164981Y-97939537D01*
X106117869Y-97882131D01*
X106060463Y-97835019D01*
X105994970Y-97800012D01*
X105923905Y-97778455D01*
X105850000Y-97771176D01*
X105342250Y-97773000D01*
X105248000Y-97867250D01*
X104752000Y-97867250D01*
X104657750Y-97773000D01*
X104150000Y-97771176D01*
X104076095Y-97778455D01*
X104005030Y-97800012D01*
X103939537Y-97835019D01*
X103882131Y-97882131D01*
X103835019Y-97939537D01*
X103800012Y-98005030D01*
X103778455Y-98076095D01*
X103771176Y-98150000D01*
X103685000Y-98150000D01*
X103685000Y-97505000D01*
X110608176Y-97505000D01*
X110615455Y-97578905D01*
X110637012Y-97649970D01*
X110672019Y-97715463D01*
X110719131Y-97772869D01*
X110776537Y-97819981D01*
X110842030Y-97854988D01*
X110913095Y-97876545D01*
X110987000Y-97883824D01*
X111544750Y-97882000D01*
X111639000Y-97787750D01*
X111639000Y-97178000D01*
X112135000Y-97178000D01*
X112135000Y-97787750D01*
X112229250Y-97882000D01*
X112787000Y-97883824D01*
X112860905Y-97876545D01*
X112931970Y-97854988D01*
X112997463Y-97819981D01*
X113054869Y-97772869D01*
X113101981Y-97715463D01*
X113136988Y-97649970D01*
X113157000Y-97583998D01*
X113177012Y-97649970D01*
X113212019Y-97715463D01*
X113259131Y-97772869D01*
X113316537Y-97819981D01*
X113382030Y-97854988D01*
X113453095Y-97876545D01*
X113527000Y-97883824D01*
X114084750Y-97882000D01*
X114179000Y-97787750D01*
X114179000Y-97178000D01*
X114675000Y-97178000D01*
X114675000Y-97787750D01*
X114769250Y-97882000D01*
X115327000Y-97883824D01*
X115400905Y-97876545D01*
X115471970Y-97854988D01*
X115537463Y-97819981D01*
X115594869Y-97772869D01*
X115641981Y-97715463D01*
X115662716Y-97676671D01*
X115669019Y-97688463D01*
X115716131Y-97745869D01*
X115773537Y-97792981D01*
X115839030Y-97827988D01*
X115910095Y-97849545D01*
X115984000Y-97856824D01*
X116116750Y-97855000D01*
X116211000Y-97760750D01*
X116211000Y-97276000D01*
X115704029Y-97276000D01*
X115704000Y-97272250D01*
X115609750Y-97178000D01*
X114675000Y-97178000D01*
X114179000Y-97178000D01*
X113244250Y-97178000D01*
X113157000Y-97265250D01*
X113069750Y-97178000D01*
X112135000Y-97178000D01*
X111639000Y-97178000D01*
X110704250Y-97178000D01*
X110610000Y-97272250D01*
X110608176Y-97505000D01*
X103685000Y-97505000D01*
X103685000Y-96355000D01*
X110608176Y-96355000D01*
X110610000Y-96587750D01*
X110704250Y-96682000D01*
X111639000Y-96682000D01*
X111639000Y-96072250D01*
X112135000Y-96072250D01*
X112135000Y-96682000D01*
X113069750Y-96682000D01*
X113157000Y-96594750D01*
X113244250Y-96682000D01*
X114179000Y-96682000D01*
X114179000Y-96072250D01*
X114084750Y-95978000D01*
X113527000Y-95976176D01*
X113453095Y-95983455D01*
X113382030Y-96005012D01*
X113316537Y-96040019D01*
X113259131Y-96087131D01*
X113212019Y-96144537D01*
X113177012Y-96210030D01*
X113157000Y-96276002D01*
X113136988Y-96210030D01*
X113101981Y-96144537D01*
X113054869Y-96087131D01*
X112997463Y-96040019D01*
X112931970Y-96005012D01*
X112860905Y-95983455D01*
X112787000Y-95976176D01*
X112229250Y-95978000D01*
X112135000Y-96072250D01*
X111639000Y-96072250D01*
X111544750Y-95978000D01*
X110987000Y-95976176D01*
X110913095Y-95983455D01*
X110842030Y-96005012D01*
X110776537Y-96040019D01*
X110719131Y-96087131D01*
X110672019Y-96144537D01*
X110637012Y-96210030D01*
X110615455Y-96281095D01*
X110608176Y-96355000D01*
X103685000Y-96355000D01*
X103685000Y-82504351D01*
X103698815Y-82521185D01*
X103795506Y-82600537D01*
X103905820Y-82659502D01*
X104025518Y-82695812D01*
X104115001Y-82704625D01*
X104115000Y-90806531D01*
X104110719Y-90850000D01*
X104115000Y-90893469D01*
X104115000Y-90893476D01*
X104127805Y-91023489D01*
X104178411Y-91190312D01*
X104260589Y-91344058D01*
X104371183Y-91478817D01*
X104404956Y-91506534D01*
X107473470Y-94575049D01*
X107501183Y-94608817D01*
X107534951Y-94636530D01*
X107534953Y-94636532D01*
X107571206Y-94666284D01*
X107635941Y-94719411D01*
X107789687Y-94801589D01*
X107956510Y-94852195D01*
X108086523Y-94865000D01*
X108086533Y-94865000D01*
X108129999Y-94869281D01*
X108173465Y-94865000D01*
X110553263Y-94865000D01*
X110609038Y-94932962D01*
X110743613Y-95043405D01*
X110897149Y-95125472D01*
X111063745Y-95176008D01*
X111236999Y-95193072D01*
X112537001Y-95193072D01*
X112710255Y-95176008D01*
X112876851Y-95125472D01*
X113030387Y-95043405D01*
X113157000Y-94939496D01*
X113283613Y-95043405D01*
X113437149Y-95125472D01*
X113603745Y-95176008D01*
X113776999Y-95193072D01*
X115077001Y-95193072D01*
X115250255Y-95176008D01*
X115356691Y-95143721D01*
X115345928Y-95253000D01*
X115345928Y-95703000D01*
X115362512Y-95871377D01*
X115396375Y-95983009D01*
X115327000Y-95976176D01*
X114769250Y-95978000D01*
X114675000Y-96072250D01*
X114675000Y-96682000D01*
X115606937Y-96682000D01*
X115607000Y-96685750D01*
X115701250Y-96780000D01*
X116211000Y-96780000D01*
X116211000Y-96760000D01*
X116707000Y-96760000D01*
X116707000Y-96780000D01*
X116727000Y-96780000D01*
X116727000Y-97276000D01*
X116707000Y-97276000D01*
X116707000Y-97760750D01*
X116801250Y-97855000D01*
X116934000Y-97856824D01*
X117007905Y-97849545D01*
X117078970Y-97827988D01*
X117144463Y-97792981D01*
X117201869Y-97745869D01*
X117248981Y-97688463D01*
X117283988Y-97622970D01*
X117305545Y-97551905D01*
X117312824Y-97478000D01*
X117311000Y-97370250D01*
X117216752Y-97276002D01*
X117311000Y-97276002D01*
X117311000Y-97207788D01*
X117429418Y-97271084D01*
X117577255Y-97315929D01*
X117731000Y-97331072D01*
X119381000Y-97331072D01*
X119534745Y-97315929D01*
X119682582Y-97271084D01*
X119818829Y-97198258D01*
X119938251Y-97100251D01*
X120036258Y-96980829D01*
X120109084Y-96844582D01*
X120153929Y-96696745D01*
X120169072Y-96543000D01*
X120169072Y-96243000D01*
X120153929Y-96089255D01*
X120109084Y-95941418D01*
X120036258Y-95805171D01*
X119997546Y-95758000D01*
X120036258Y-95710829D01*
X120109084Y-95574582D01*
X120153929Y-95426745D01*
X120169072Y-95273000D01*
X120169072Y-94973000D01*
X120153929Y-94819255D01*
X120109084Y-94671418D01*
X120036258Y-94535171D01*
X119997546Y-94488000D01*
X120036258Y-94440829D01*
X120109084Y-94304582D01*
X120153929Y-94156745D01*
X120169072Y-94003000D01*
X120169072Y-93703000D01*
X120153929Y-93549255D01*
X120109084Y-93401418D01*
X120036258Y-93265171D01*
X119997546Y-93218000D01*
X120036258Y-93170829D01*
X120109084Y-93034582D01*
X120153929Y-92886745D01*
X120169072Y-92733000D01*
X120169072Y-92433000D01*
X121892928Y-92433000D01*
X121892928Y-92733000D01*
X121908071Y-92886745D01*
X121952916Y-93034582D01*
X122025742Y-93170829D01*
X122123749Y-93290251D01*
X122207311Y-93358828D01*
X122181012Y-93408030D01*
X122159455Y-93479095D01*
X122152176Y-93553000D01*
X122154000Y-93585750D01*
X122248250Y-93680000D01*
X123258000Y-93680000D01*
X123258000Y-93585000D01*
X123754000Y-93585000D01*
X123754000Y-93680000D01*
X124763750Y-93680000D01*
X124858000Y-93585750D01*
X124859824Y-93553000D01*
X124852545Y-93479095D01*
X124838149Y-93431637D01*
X124927313Y-93404589D01*
X125014745Y-93357856D01*
X125014512Y-93358623D01*
X124997928Y-93527000D01*
X124997928Y-93977000D01*
X125014512Y-94145377D01*
X125063625Y-94307283D01*
X125091620Y-94359657D01*
X125057678Y-94363000D01*
X124823976Y-94363000D01*
X124804689Y-94347172D01*
X124830988Y-94297970D01*
X124852545Y-94226905D01*
X124859824Y-94153000D01*
X124858000Y-94120250D01*
X124763750Y-94026000D01*
X123754000Y-94026000D01*
X123754000Y-94121000D01*
X123258000Y-94121000D01*
X123258000Y-94026000D01*
X122248250Y-94026000D01*
X122154000Y-94120250D01*
X122152176Y-94153000D01*
X122159455Y-94226905D01*
X122181012Y-94297970D01*
X122207311Y-94347172D01*
X122123749Y-94415749D01*
X122025742Y-94535171D01*
X121952916Y-94671418D01*
X121908071Y-94819255D01*
X121892928Y-94973000D01*
X121892928Y-95273000D01*
X121908071Y-95426745D01*
X121952916Y-95574582D01*
X122025742Y-95710829D01*
X122064454Y-95758000D01*
X122025742Y-95805171D01*
X121952916Y-95941418D01*
X121908071Y-96089255D01*
X121892928Y-96243000D01*
X121892928Y-96543000D01*
X121908071Y-96696745D01*
X121952916Y-96844582D01*
X122025742Y-96980829D01*
X122123749Y-97100251D01*
X122243171Y-97198258D01*
X122379418Y-97271084D01*
X122527255Y-97315929D01*
X122681000Y-97331072D01*
X124331000Y-97331072D01*
X124484745Y-97315929D01*
X124632582Y-97271084D01*
X124768829Y-97198258D01*
X124828701Y-97149123D01*
X124900986Y-97142003D01*
X124993301Y-97114000D01*
X125007974Y-97114000D01*
X125014512Y-97180377D01*
X125063625Y-97342283D01*
X125143382Y-97491497D01*
X125200191Y-97560719D01*
X125124522Y-97702284D01*
X125076831Y-97859500D01*
X125060728Y-98023000D01*
X125060728Y-98573000D01*
X125076831Y-98736500D01*
X125124522Y-98893716D01*
X125201969Y-99038608D01*
X125306194Y-99165606D01*
X125433192Y-99269831D01*
X125578084Y-99347278D01*
X125735300Y-99394969D01*
X125898800Y-99411072D01*
X126298800Y-99411072D01*
X126462300Y-99394969D01*
X126619516Y-99347278D01*
X126764408Y-99269831D01*
X126891406Y-99165606D01*
X126995631Y-99038608D01*
X127029463Y-98975313D01*
X127033819Y-98983463D01*
X127080931Y-99040869D01*
X127138337Y-99087981D01*
X127203830Y-99122988D01*
X127274895Y-99144545D01*
X127348800Y-99151824D01*
X127406550Y-99150000D01*
X127500800Y-99055750D01*
X127500800Y-98546000D01*
X127996800Y-98546000D01*
X127996800Y-99055750D01*
X128091050Y-99150000D01*
X128148800Y-99151824D01*
X128222705Y-99144545D01*
X128293770Y-99122988D01*
X128359263Y-99087981D01*
X128416669Y-99040869D01*
X128463781Y-98983463D01*
X128498788Y-98917970D01*
X128520345Y-98846905D01*
X128527624Y-98773000D01*
X128621976Y-98773000D01*
X128629255Y-98846905D01*
X128650812Y-98917970D01*
X128685819Y-98983463D01*
X128732931Y-99040869D01*
X128790337Y-99087981D01*
X128855830Y-99122988D01*
X128926895Y-99144545D01*
X129000800Y-99151824D01*
X129058550Y-99150000D01*
X129152800Y-99055750D01*
X129152800Y-98546000D01*
X128718050Y-98546000D01*
X128623800Y-98640250D01*
X128621976Y-98773000D01*
X128527624Y-98773000D01*
X128525800Y-98640250D01*
X128431550Y-98546000D01*
X127996800Y-98546000D01*
X127500800Y-98546000D01*
X127480800Y-98546000D01*
X127480800Y-98050000D01*
X127500800Y-98050000D01*
X127500800Y-97540250D01*
X127497150Y-97536600D01*
X127514000Y-97519750D01*
X127514000Y-97035000D01*
X127494000Y-97035000D01*
X127494000Y-96539000D01*
X127514000Y-96539000D01*
X127514000Y-96519000D01*
X128010000Y-96519000D01*
X128010000Y-96539000D01*
X128030000Y-96539000D01*
X128030000Y-97035000D01*
X128010000Y-97035000D01*
X128010000Y-97519750D01*
X128013650Y-97523400D01*
X127996800Y-97540250D01*
X127996800Y-98050000D01*
X128431550Y-98050000D01*
X128525800Y-97955750D01*
X128527624Y-97823000D01*
X128520345Y-97749095D01*
X128498788Y-97678030D01*
X128463781Y-97612537D01*
X128424262Y-97564383D01*
X128447463Y-97551981D01*
X128467914Y-97535197D01*
X128545394Y-97629606D01*
X128641561Y-97708528D01*
X128629255Y-97749095D01*
X128621976Y-97823000D01*
X128623800Y-97955750D01*
X128718050Y-98050000D01*
X129152800Y-98050000D01*
X129152800Y-98030000D01*
X129648800Y-98030000D01*
X129648800Y-98050000D01*
X129668800Y-98050000D01*
X129668800Y-98546000D01*
X129648800Y-98546000D01*
X129648800Y-99055750D01*
X129743050Y-99150000D01*
X129800800Y-99151824D01*
X129874705Y-99144545D01*
X129945770Y-99122988D01*
X130011263Y-99087981D01*
X130068669Y-99040869D01*
X130115781Y-98983463D01*
X130120137Y-98975313D01*
X130153969Y-99038608D01*
X130258194Y-99165606D01*
X130385192Y-99269831D01*
X130530084Y-99347278D01*
X130687300Y-99394969D01*
X130850800Y-99411072D01*
X131250800Y-99411072D01*
X131414300Y-99394969D01*
X131571516Y-99347278D01*
X131716408Y-99269831D01*
X131843406Y-99165606D01*
X131947631Y-99038608D01*
X132025078Y-98893716D01*
X132072769Y-98736500D01*
X132088872Y-98573000D01*
X132088872Y-98023000D01*
X132072769Y-97859500D01*
X132025078Y-97702284D01*
X131964686Y-97589299D01*
X132035831Y-97502608D01*
X132113278Y-97357716D01*
X132160969Y-97200500D01*
X132177072Y-97037000D01*
X132177072Y-96637000D01*
X132160969Y-96473500D01*
X132113278Y-96316284D01*
X132035831Y-96171392D01*
X131931606Y-96044394D01*
X131892134Y-96012000D01*
X131931606Y-95979606D01*
X132035831Y-95852608D01*
X132113278Y-95707716D01*
X132160969Y-95550500D01*
X132177072Y-95387000D01*
X132177072Y-94987000D01*
X132160969Y-94823500D01*
X132113278Y-94666284D01*
X132035831Y-94521392D01*
X131931606Y-94394394D01*
X131804608Y-94290169D01*
X131754336Y-94263298D01*
X131698974Y-94159724D01*
X131604001Y-94043999D01*
X131575002Y-94020200D01*
X131562000Y-94007198D01*
X131562000Y-93945061D01*
X131522226Y-93745102D01*
X131444205Y-93556744D01*
X131330937Y-93387226D01*
X131186774Y-93243063D01*
X131102870Y-93187000D01*
X134865176Y-93187000D01*
X134872455Y-93260905D01*
X134894012Y-93331970D01*
X134929019Y-93397463D01*
X134976131Y-93454869D01*
X135033537Y-93501981D01*
X135099030Y-93536988D01*
X135170095Y-93558545D01*
X135244000Y-93565824D01*
X135801750Y-93564000D01*
X135896000Y-93469750D01*
X135896000Y-92860000D01*
X136392000Y-92860000D01*
X136392000Y-93469750D01*
X136486250Y-93564000D01*
X137044000Y-93565824D01*
X137117905Y-93558545D01*
X137188970Y-93536988D01*
X137254463Y-93501981D01*
X137311869Y-93454869D01*
X137358981Y-93397463D01*
X137393988Y-93331970D01*
X137414000Y-93265998D01*
X137434012Y-93331970D01*
X137469019Y-93397463D01*
X137516131Y-93454869D01*
X137573537Y-93501981D01*
X137639030Y-93536988D01*
X137710095Y-93558545D01*
X137784000Y-93565824D01*
X138341750Y-93564000D01*
X138436000Y-93469750D01*
X138436000Y-92860000D01*
X138932000Y-92860000D01*
X138932000Y-93469750D01*
X139026250Y-93564000D01*
X139584000Y-93565824D01*
X139657905Y-93558545D01*
X139728970Y-93536988D01*
X139794463Y-93501981D01*
X139851869Y-93454869D01*
X139898981Y-93397463D01*
X139933988Y-93331970D01*
X139955545Y-93260905D01*
X139962824Y-93187000D01*
X139961000Y-92954250D01*
X139866750Y-92860000D01*
X138932000Y-92860000D01*
X138436000Y-92860000D01*
X137501250Y-92860000D01*
X137414000Y-92947250D01*
X137326750Y-92860000D01*
X136392000Y-92860000D01*
X135896000Y-92860000D01*
X134961250Y-92860000D01*
X134867000Y-92954250D01*
X134865176Y-93187000D01*
X131102870Y-93187000D01*
X131017256Y-93129795D01*
X130828898Y-93051774D01*
X130628939Y-93012000D01*
X130425061Y-93012000D01*
X130298000Y-93037274D01*
X130298000Y-92614578D01*
X130875578Y-92037000D01*
X134865176Y-92037000D01*
X134867000Y-92269750D01*
X134961250Y-92364000D01*
X135896000Y-92364000D01*
X135896000Y-91754250D01*
X136392000Y-91754250D01*
X136392000Y-92364000D01*
X137326750Y-92364000D01*
X137414000Y-92276750D01*
X137501250Y-92364000D01*
X138436000Y-92364000D01*
X138436000Y-91754250D01*
X138932000Y-91754250D01*
X138932000Y-92364000D01*
X139866750Y-92364000D01*
X139961000Y-92269750D01*
X139962824Y-92037000D01*
X139955545Y-91963095D01*
X139933988Y-91892030D01*
X139898981Y-91826537D01*
X139851869Y-91769131D01*
X139794463Y-91722019D01*
X139728970Y-91687012D01*
X139657905Y-91665455D01*
X139584000Y-91658176D01*
X139026250Y-91660000D01*
X138932000Y-91754250D01*
X138436000Y-91754250D01*
X138341750Y-91660000D01*
X137784000Y-91658176D01*
X137710095Y-91665455D01*
X137639030Y-91687012D01*
X137573537Y-91722019D01*
X137516131Y-91769131D01*
X137469019Y-91826537D01*
X137434012Y-91892030D01*
X137414000Y-91958002D01*
X137393988Y-91892030D01*
X137358981Y-91826537D01*
X137311869Y-91769131D01*
X137254463Y-91722019D01*
X137188970Y-91687012D01*
X137117905Y-91665455D01*
X137044000Y-91658176D01*
X136486250Y-91660000D01*
X136392000Y-91754250D01*
X135896000Y-91754250D01*
X135801750Y-91660000D01*
X135244000Y-91658176D01*
X135170095Y-91665455D01*
X135099030Y-91687012D01*
X135033537Y-91722019D01*
X134976131Y-91769131D01*
X134929019Y-91826537D01*
X134894012Y-91892030D01*
X134872455Y-91963095D01*
X134865176Y-92037000D01*
X130875578Y-92037000D01*
X132073928Y-90838651D01*
X132073928Y-91162000D01*
X132086188Y-91286482D01*
X132122498Y-91406180D01*
X132181463Y-91516494D01*
X132260815Y-91613185D01*
X132357506Y-91692537D01*
X132467820Y-91751502D01*
X132587518Y-91787812D01*
X132712000Y-91800072D01*
X134662000Y-91800072D01*
X134786482Y-91787812D01*
X134906180Y-91751502D01*
X135016494Y-91692537D01*
X135113185Y-91613185D01*
X135192537Y-91516494D01*
X135251502Y-91406180D01*
X135287812Y-91286482D01*
X135300072Y-91162000D01*
X135300072Y-90851737D01*
X135320745Y-90858008D01*
X135493999Y-90875072D01*
X136794001Y-90875072D01*
X136967255Y-90858008D01*
X137133851Y-90807472D01*
X137287387Y-90725405D01*
X137414000Y-90621496D01*
X137540613Y-90725405D01*
X137694149Y-90807472D01*
X137860745Y-90858008D01*
X138033999Y-90875072D01*
X139334001Y-90875072D01*
X139507255Y-90858008D01*
X139673851Y-90807472D01*
X139827387Y-90725405D01*
X139961962Y-90614962D01*
X140072405Y-90480387D01*
X140154472Y-90326851D01*
X140205008Y-90160255D01*
X140222072Y-89987001D01*
X140222072Y-89336999D01*
X140205008Y-89163745D01*
X140154472Y-88997149D01*
X140072405Y-88843613D01*
X139961962Y-88709038D01*
X139827387Y-88598595D01*
X139673851Y-88516528D01*
X139507255Y-88465992D01*
X139334001Y-88448928D01*
X138033999Y-88448928D01*
X137860745Y-88465992D01*
X137694149Y-88516528D01*
X137540613Y-88598595D01*
X137414000Y-88702504D01*
X137397539Y-88688995D01*
X137410000Y-88562477D01*
X137410000Y-88562467D01*
X137414281Y-88519001D01*
X137410000Y-88475535D01*
X137410000Y-88406072D01*
X137775000Y-88406072D01*
X137899482Y-88393812D01*
X138019180Y-88357502D01*
X138129494Y-88298537D01*
X138226185Y-88219185D01*
X138305537Y-88122494D01*
X138364502Y-88012180D01*
X138400812Y-87892482D01*
X138413072Y-87768000D01*
X138413072Y-85968000D01*
X138400812Y-85843518D01*
X138364502Y-85723820D01*
X138305537Y-85613506D01*
X138226185Y-85516815D01*
X138129494Y-85437463D01*
X138019180Y-85378498D01*
X137899482Y-85342188D01*
X137775000Y-85329928D01*
X135275000Y-85329928D01*
X135150518Y-85342188D01*
X135030820Y-85378498D01*
X134920506Y-85437463D01*
X134823815Y-85516815D01*
X134744463Y-85613506D01*
X134685498Y-85723820D01*
X134649188Y-85843518D01*
X134636928Y-85968000D01*
X134636928Y-87523928D01*
X132712000Y-87523928D01*
X132587518Y-87536188D01*
X132467820Y-87572498D01*
X132357506Y-87631463D01*
X132260815Y-87710815D01*
X132181463Y-87807506D01*
X132122498Y-87917820D01*
X132086188Y-88037518D01*
X132073928Y-88162000D01*
X132073928Y-88777000D01*
X132042465Y-88777000D01*
X131998999Y-88772719D01*
X131955533Y-88777000D01*
X131955523Y-88777000D01*
X131825510Y-88789805D01*
X131658687Y-88840411D01*
X131504941Y-88922589D01*
X131504939Y-88922590D01*
X131504940Y-88922590D01*
X131403953Y-89005468D01*
X131403951Y-89005470D01*
X131370183Y-89033183D01*
X131342470Y-89066951D01*
X129800072Y-90609350D01*
X129800072Y-88162000D01*
X129787812Y-88037518D01*
X129751502Y-87917820D01*
X129692537Y-87807506D01*
X129613185Y-87710815D01*
X129516494Y-87631463D01*
X129406180Y-87572498D01*
X129286482Y-87536188D01*
X129162000Y-87523928D01*
X127212000Y-87523928D01*
X127087518Y-87536188D01*
X126967820Y-87572498D01*
X126857506Y-87631463D01*
X126760815Y-87710815D01*
X126681463Y-87807506D01*
X126622498Y-87917820D01*
X126586188Y-88037518D01*
X126577678Y-88123928D01*
X124194000Y-88123928D01*
X124069518Y-88136188D01*
X123949820Y-88172498D01*
X123839506Y-88231463D01*
X123742815Y-88310815D01*
X123663463Y-88407506D01*
X123604498Y-88517820D01*
X123568188Y-88637518D01*
X123555928Y-88762000D01*
X123555928Y-90562000D01*
X123568188Y-90686482D01*
X123604498Y-90806180D01*
X123663463Y-90916494D01*
X123742815Y-91013185D01*
X123839506Y-91092537D01*
X123949820Y-91151502D01*
X124069518Y-91187812D01*
X124194000Y-91200072D01*
X124559000Y-91200072D01*
X124559000Y-91359421D01*
X124273494Y-91644928D01*
X122681000Y-91644928D01*
X122527255Y-91660071D01*
X122379418Y-91704916D01*
X122243171Y-91777742D01*
X122123749Y-91875749D01*
X122025742Y-91995171D01*
X121952916Y-92131418D01*
X121908071Y-92279255D01*
X121892928Y-92433000D01*
X120169072Y-92433000D01*
X120153929Y-92279255D01*
X120109084Y-92131418D01*
X120036258Y-91995171D01*
X119938251Y-91875749D01*
X119818829Y-91777742D01*
X119682582Y-91704916D01*
X119648106Y-91694458D01*
X119613226Y-91519102D01*
X119535205Y-91330744D01*
X119421937Y-91161226D01*
X119277774Y-91017063D01*
X119108256Y-90903795D01*
X118919898Y-90825774D01*
X118719939Y-90786000D01*
X118516061Y-90786000D01*
X118316102Y-90825774D01*
X118127744Y-90903795D01*
X117958226Y-91017063D01*
X117814063Y-91161226D01*
X117700795Y-91330744D01*
X117622774Y-91519102D01*
X117595083Y-91658315D01*
X117577255Y-91660071D01*
X117429418Y-91704916D01*
X117303465Y-91772239D01*
X117283988Y-91708030D01*
X117248981Y-91642537D01*
X117201869Y-91585131D01*
X117144463Y-91538019D01*
X117078970Y-91503012D01*
X117007905Y-91481455D01*
X116934000Y-91474176D01*
X116801250Y-91476000D01*
X116707000Y-91570250D01*
X116707000Y-92055000D01*
X116727000Y-92055000D01*
X116727000Y-92551000D01*
X116707000Y-92551000D01*
X116707000Y-92571000D01*
X116211000Y-92571000D01*
X116211000Y-92551000D01*
X115701250Y-92551000D01*
X115607000Y-92645250D01*
X115605176Y-92753000D01*
X115612455Y-92826905D01*
X115634012Y-92897970D01*
X115667740Y-92961070D01*
X115659295Y-92968000D01*
X115633024Y-92968000D01*
X115570387Y-92916595D01*
X115416851Y-92834528D01*
X115250255Y-92783992D01*
X115077001Y-92766928D01*
X113776999Y-92766928D01*
X113603745Y-92783992D01*
X113437149Y-92834528D01*
X113283613Y-92916595D01*
X113157000Y-93020504D01*
X113030387Y-92916595D01*
X112876851Y-92834528D01*
X112710255Y-92783992D01*
X112537001Y-92766928D01*
X111236999Y-92766928D01*
X111063745Y-92783992D01*
X110897149Y-92834528D01*
X110743613Y-92916595D01*
X110609038Y-93027038D01*
X110553263Y-93095000D01*
X108496579Y-93095000D01*
X107254579Y-91853000D01*
X115605176Y-91853000D01*
X115607000Y-91960750D01*
X115701250Y-92055000D01*
X116211000Y-92055000D01*
X116211000Y-91570250D01*
X116116750Y-91476000D01*
X115984000Y-91474176D01*
X115910095Y-91481455D01*
X115839030Y-91503012D01*
X115773537Y-91538019D01*
X115716131Y-91585131D01*
X115669019Y-91642537D01*
X115634012Y-91708030D01*
X115612455Y-91779095D01*
X115605176Y-91853000D01*
X107254579Y-91853000D01*
X105963579Y-90562000D01*
X119815176Y-90562000D01*
X119822455Y-90635905D01*
X119844012Y-90706970D01*
X119879019Y-90772463D01*
X119926131Y-90829869D01*
X119983537Y-90876981D01*
X120049030Y-90911988D01*
X120120095Y-90933545D01*
X120194000Y-90940824D01*
X121101750Y-90939000D01*
X121196000Y-90844750D01*
X121196000Y-89910000D01*
X121692000Y-89910000D01*
X121692000Y-90844750D01*
X121786250Y-90939000D01*
X122694000Y-90940824D01*
X122767905Y-90933545D01*
X122838970Y-90911988D01*
X122904463Y-90876981D01*
X122961869Y-90829869D01*
X123008981Y-90772463D01*
X123043988Y-90706970D01*
X123065545Y-90635905D01*
X123072824Y-90562000D01*
X123071000Y-90004250D01*
X122976750Y-89910000D01*
X121692000Y-89910000D01*
X121196000Y-89910000D01*
X119911250Y-89910000D01*
X119817000Y-90004250D01*
X119815176Y-90562000D01*
X105963579Y-90562000D01*
X105885000Y-90483422D01*
X105885000Y-88762000D01*
X119815176Y-88762000D01*
X119817000Y-89319750D01*
X119911250Y-89414000D01*
X121196000Y-89414000D01*
X121196000Y-88479250D01*
X121692000Y-88479250D01*
X121692000Y-89414000D01*
X122976750Y-89414000D01*
X123071000Y-89319750D01*
X123072824Y-88762000D01*
X123065545Y-88688095D01*
X123043988Y-88617030D01*
X123008981Y-88551537D01*
X122961869Y-88494131D01*
X122904463Y-88447019D01*
X122838970Y-88412012D01*
X122767905Y-88390455D01*
X122694000Y-88383176D01*
X121786250Y-88385000D01*
X121692000Y-88479250D01*
X121196000Y-88479250D01*
X121101750Y-88385000D01*
X120194000Y-88383176D01*
X120120095Y-88390455D01*
X120049030Y-88412012D01*
X119983537Y-88447019D01*
X119926131Y-88494131D01*
X119879019Y-88551537D01*
X119844012Y-88617030D01*
X119822455Y-88688095D01*
X119815176Y-88762000D01*
X105885000Y-88762000D01*
X105885000Y-82704625D01*
X105974482Y-82695812D01*
X106094180Y-82659502D01*
X106204494Y-82600537D01*
X106301185Y-82521185D01*
X106380537Y-82424494D01*
X106439502Y-82314180D01*
X106475812Y-82194482D01*
X106488072Y-82070000D01*
X106488072Y-80370000D01*
X106475812Y-80245518D01*
X106439502Y-80125820D01*
X106380537Y-80015506D01*
X106301185Y-79918815D01*
X106284351Y-79905000D01*
X110751173Y-79905000D01*
X110589862Y-79971817D01*
G37*
%TD.AperFunction*%
%TD*%
M02*
