%TF.GenerationSoftware,KiCad,Pcbnew,(5.1.9)-1*%
%TF.CreationDate,2021-01-18T19:47:50+01:00*%
%TF.ProjectId,DC-DC-only,44432d44-432d-46f6-9e6c-792e6b696361,rev?*%
%TF.SameCoordinates,Original*%
%TF.FileFunction,Legend,Top*%
%TF.FilePolarity,Positive*%
%FSLAX46Y46*%
G04 Gerber Fmt 4.6, Leading zero omitted, Abs format (unit mm)*
G04 Created by KiCad (PCBNEW (5.1.9)-1) date 2021-01-18 19:47:50*
%MOMM*%
%LPD*%
G01*
G04 APERTURE LIST*
%ADD10C,0.120000*%
%ADD11C,1.000000*%
%ADD12C,0.150000*%
%ADD13C,0.100000*%
%ADD14R,2.500000X1.800000*%
%ADD15R,1.700000X1.700000*%
%ADD16R,1.950000X3.000000*%
%ADD17C,5.700000*%
%ADD18C,1.600000*%
%ADD19O,1.600000X1.600000*%
G04 APERTURE END LIST*
D10*
%TO.C,C1*%
X112797000Y-94743748D02*
X112797000Y-96166252D01*
X110977000Y-94743748D02*
X110977000Y-96166252D01*
%TO.C,C2*%
X115337000Y-94743748D02*
X115337000Y-96166252D01*
X113517000Y-94743748D02*
X113517000Y-96166252D01*
%TO.C,C3*%
X115949000Y-93218580D02*
X115949000Y-92937420D01*
X116969000Y-93218580D02*
X116969000Y-92937420D01*
%TO.C,C4*%
X126621000Y-92836420D02*
X126621000Y-93117580D01*
X125601000Y-92836420D02*
X125601000Y-93117580D01*
%TO.C,C5*%
X116969000Y-96112420D02*
X116969000Y-96393580D01*
X115949000Y-96112420D02*
X115949000Y-96393580D01*
%TO.C,C6*%
X126621000Y-95871420D02*
X126621000Y-96152580D01*
X125601000Y-95871420D02*
X125601000Y-96152580D01*
%TO.C,C7*%
X128272000Y-95871420D02*
X128272000Y-96152580D01*
X127252000Y-95871420D02*
X127252000Y-96152580D01*
%TO.C,C8*%
X137054000Y-90425748D02*
X137054000Y-91848252D01*
X135234000Y-90425748D02*
X135234000Y-91848252D01*
%TO.C,C9*%
X139594000Y-90425748D02*
X139594000Y-91848252D01*
X137774000Y-90425748D02*
X137774000Y-91848252D01*
%TO.C,D1*%
X126844000Y-91312000D02*
X126844000Y-88012000D01*
X126844000Y-88012000D02*
X121444000Y-88012000D01*
X126844000Y-91312000D02*
X121444000Y-91312000D01*
%TO.C,J1*%
X106330000Y-82550000D02*
X106330000Y-79890000D01*
X106270000Y-82550000D02*
X106330000Y-82550000D01*
X106270000Y-79890000D02*
X106330000Y-79890000D01*
X106270000Y-82550000D02*
X106270000Y-79890000D01*
X105000000Y-82550000D02*
X103670000Y-82550000D01*
X103670000Y-82550000D02*
X103670000Y-81220000D01*
%TO.C,J2*%
X144310000Y-97730000D02*
X144310000Y-100390000D01*
X144370000Y-97730000D02*
X144310000Y-97730000D01*
X144370000Y-100390000D02*
X144310000Y-100390000D01*
X144370000Y-97730000D02*
X144370000Y-100390000D01*
X145640000Y-97730000D02*
X146970000Y-97730000D01*
X146970000Y-97730000D02*
X146970000Y-99060000D01*
%TO.C,J3*%
X144310000Y-79890000D02*
X144310000Y-82550000D01*
X144370000Y-79890000D02*
X144310000Y-79890000D01*
X144370000Y-82550000D02*
X144310000Y-82550000D01*
X144370000Y-79890000D02*
X144370000Y-82550000D01*
X145640000Y-79890000D02*
X146970000Y-79890000D01*
X146970000Y-79890000D02*
X146970000Y-81220000D01*
%TO.C,J4*%
X106330000Y-100330000D02*
X106330000Y-97670000D01*
X106270000Y-100330000D02*
X106330000Y-100330000D01*
X106270000Y-97670000D02*
X106330000Y-97670000D01*
X106270000Y-100330000D02*
X106270000Y-97670000D01*
X105000000Y-100330000D02*
X103670000Y-100330000D01*
X103670000Y-100330000D02*
X103670000Y-99000000D01*
%TO.C,L1*%
X134237000Y-91062000D02*
X134237000Y-92462000D01*
X134237000Y-92462000D02*
X127637000Y-92462000D01*
X127637000Y-92462000D02*
X127637000Y-91062000D01*
X127637000Y-88062000D02*
X127637000Y-86662000D01*
X127637000Y-86662000D02*
X134237000Y-86662000D01*
X134237000Y-86662000D02*
X134237000Y-88062000D01*
%TO.C,R3*%
X126686542Y-97775500D02*
X127161058Y-97775500D01*
X126686542Y-98820500D02*
X127161058Y-98820500D01*
%TO.C,R5*%
X129935500Y-95774742D02*
X129935500Y-96249258D01*
X128890500Y-95774742D02*
X128890500Y-96249258D01*
%TO.C,R6*%
X131586500Y-95774742D02*
X131586500Y-96249258D01*
X130541500Y-95774742D02*
X130541500Y-96249258D01*
%TO.C,R7*%
X130463058Y-98820500D02*
X129988542Y-98820500D01*
X130463058Y-97775500D02*
X129988542Y-97775500D01*
%TO.C,U1*%
X121031000Y-97048000D02*
X122981000Y-97048000D01*
X121031000Y-97048000D02*
X119081000Y-97048000D01*
X121031000Y-91928000D02*
X122981000Y-91928000D01*
X121031000Y-91928000D02*
X117581000Y-91928000D01*
D11*
%TO.C,LO1*%
X133356600Y-85200800D02*
X115830600Y-85200800D01*
X133356600Y-79866800D02*
X133356600Y-85200800D01*
X115830600Y-79866800D02*
X133356600Y-79866800D01*
X115830600Y-85200800D02*
X115830600Y-79866800D01*
D10*
%TO.C,D2*%
X141925000Y-88518000D02*
X136525000Y-88518000D01*
X141925000Y-85218000D02*
X136525000Y-85218000D01*
X141925000Y-88518000D02*
X141925000Y-85218000D01*
%TO.C,C1*%
D12*
X111720333Y-92940142D02*
X111672714Y-92987761D01*
X111529857Y-93035380D01*
X111434619Y-93035380D01*
X111291761Y-92987761D01*
X111196523Y-92892523D01*
X111148904Y-92797285D01*
X111101285Y-92606809D01*
X111101285Y-92463952D01*
X111148904Y-92273476D01*
X111196523Y-92178238D01*
X111291761Y-92083000D01*
X111434619Y-92035380D01*
X111529857Y-92035380D01*
X111672714Y-92083000D01*
X111720333Y-92130619D01*
X112672714Y-93035380D02*
X112101285Y-93035380D01*
X112387000Y-93035380D02*
X112387000Y-92035380D01*
X112291761Y-92178238D01*
X112196523Y-92273476D01*
X112101285Y-92321095D01*
%TO.C,C2*%
X114260333Y-92940142D02*
X114212714Y-92987761D01*
X114069857Y-93035380D01*
X113974619Y-93035380D01*
X113831761Y-92987761D01*
X113736523Y-92892523D01*
X113688904Y-92797285D01*
X113641285Y-92606809D01*
X113641285Y-92463952D01*
X113688904Y-92273476D01*
X113736523Y-92178238D01*
X113831761Y-92083000D01*
X113974619Y-92035380D01*
X114069857Y-92035380D01*
X114212714Y-92083000D01*
X114260333Y-92130619D01*
X114641285Y-92130619D02*
X114688904Y-92083000D01*
X114784142Y-92035380D01*
X115022238Y-92035380D01*
X115117476Y-92083000D01*
X115165095Y-92130619D01*
X115212714Y-92225857D01*
X115212714Y-92321095D01*
X115165095Y-92463952D01*
X114593666Y-93035380D01*
X115212714Y-93035380D01*
%TO.C,C3*%
X116263333Y-91102142D02*
X116215714Y-91149761D01*
X116072857Y-91197380D01*
X115977619Y-91197380D01*
X115834761Y-91149761D01*
X115739523Y-91054523D01*
X115691904Y-90959285D01*
X115644285Y-90768809D01*
X115644285Y-90625952D01*
X115691904Y-90435476D01*
X115739523Y-90340238D01*
X115834761Y-90245000D01*
X115977619Y-90197380D01*
X116072857Y-90197380D01*
X116215714Y-90245000D01*
X116263333Y-90292619D01*
X116596666Y-90197380D02*
X117215714Y-90197380D01*
X116882380Y-90578333D01*
X117025238Y-90578333D01*
X117120476Y-90625952D01*
X117168095Y-90673571D01*
X117215714Y-90768809D01*
X117215714Y-91006904D01*
X117168095Y-91102142D01*
X117120476Y-91149761D01*
X117025238Y-91197380D01*
X116739523Y-91197380D01*
X116644285Y-91149761D01*
X116596666Y-91102142D01*
%TO.C,C4*%
D13*
X127460714Y-93776000D02*
X127492142Y-93807428D01*
X127523571Y-93901714D01*
X127523571Y-93964571D01*
X127492142Y-94058857D01*
X127429285Y-94121714D01*
X127366428Y-94153142D01*
X127240714Y-94184571D01*
X127146428Y-94184571D01*
X127020714Y-94153142D01*
X126957857Y-94121714D01*
X126895000Y-94058857D01*
X126863571Y-93964571D01*
X126863571Y-93901714D01*
X126895000Y-93807428D01*
X126926428Y-93776000D01*
X127083571Y-93210285D02*
X127523571Y-93210285D01*
X126832142Y-93367428D02*
X127303571Y-93524571D01*
X127303571Y-93116000D01*
%TO.C,C5*%
D12*
X116292333Y-98722142D02*
X116244714Y-98769761D01*
X116101857Y-98817380D01*
X116006619Y-98817380D01*
X115863761Y-98769761D01*
X115768523Y-98674523D01*
X115720904Y-98579285D01*
X115673285Y-98388809D01*
X115673285Y-98245952D01*
X115720904Y-98055476D01*
X115768523Y-97960238D01*
X115863761Y-97865000D01*
X116006619Y-97817380D01*
X116101857Y-97817380D01*
X116244714Y-97865000D01*
X116292333Y-97912619D01*
X117197095Y-97817380D02*
X116720904Y-97817380D01*
X116673285Y-98293571D01*
X116720904Y-98245952D01*
X116816142Y-98198333D01*
X117054238Y-98198333D01*
X117149476Y-98245952D01*
X117197095Y-98293571D01*
X117244714Y-98388809D01*
X117244714Y-98626904D01*
X117197095Y-98722142D01*
X117149476Y-98769761D01*
X117054238Y-98817380D01*
X116816142Y-98817380D01*
X116720904Y-98769761D01*
X116673285Y-98722142D01*
%TO.C,C6*%
D13*
X125174714Y-97967000D02*
X125206142Y-97998428D01*
X125237571Y-98092714D01*
X125237571Y-98155571D01*
X125206142Y-98249857D01*
X125143285Y-98312714D01*
X125080428Y-98344142D01*
X124954714Y-98375571D01*
X124860428Y-98375571D01*
X124734714Y-98344142D01*
X124671857Y-98312714D01*
X124609000Y-98249857D01*
X124577571Y-98155571D01*
X124577571Y-98092714D01*
X124609000Y-97998428D01*
X124640428Y-97967000D01*
X124577571Y-97401285D02*
X124577571Y-97527000D01*
X124609000Y-97589857D01*
X124640428Y-97621285D01*
X124734714Y-97684142D01*
X124860428Y-97715571D01*
X125111857Y-97715571D01*
X125174714Y-97684142D01*
X125206142Y-97652714D01*
X125237571Y-97589857D01*
X125237571Y-97464142D01*
X125206142Y-97401285D01*
X125174714Y-97369857D01*
X125111857Y-97338428D01*
X124954714Y-97338428D01*
X124891857Y-97369857D01*
X124860428Y-97401285D01*
X124829000Y-97464142D01*
X124829000Y-97589857D01*
X124860428Y-97652714D01*
X124891857Y-97684142D01*
X124954714Y-97715571D01*
%TO.C,C7*%
X128131000Y-94409714D02*
X128099571Y-94441142D01*
X128005285Y-94472571D01*
X127942428Y-94472571D01*
X127848142Y-94441142D01*
X127785285Y-94378285D01*
X127753857Y-94315428D01*
X127722428Y-94189714D01*
X127722428Y-94095428D01*
X127753857Y-93969714D01*
X127785285Y-93906857D01*
X127848142Y-93844000D01*
X127942428Y-93812571D01*
X128005285Y-93812571D01*
X128099571Y-93844000D01*
X128131000Y-93875428D01*
X128351000Y-93812571D02*
X128791000Y-93812571D01*
X128508142Y-94472571D01*
%TO.C,C8*%
D12*
X135948333Y-94531142D02*
X135900714Y-94578761D01*
X135757857Y-94626380D01*
X135662619Y-94626380D01*
X135519761Y-94578761D01*
X135424523Y-94483523D01*
X135376904Y-94388285D01*
X135329285Y-94197809D01*
X135329285Y-94054952D01*
X135376904Y-93864476D01*
X135424523Y-93769238D01*
X135519761Y-93674000D01*
X135662619Y-93626380D01*
X135757857Y-93626380D01*
X135900714Y-93674000D01*
X135948333Y-93721619D01*
X136519761Y-94054952D02*
X136424523Y-94007333D01*
X136376904Y-93959714D01*
X136329285Y-93864476D01*
X136329285Y-93816857D01*
X136376904Y-93721619D01*
X136424523Y-93674000D01*
X136519761Y-93626380D01*
X136710238Y-93626380D01*
X136805476Y-93674000D01*
X136853095Y-93721619D01*
X136900714Y-93816857D01*
X136900714Y-93864476D01*
X136853095Y-93959714D01*
X136805476Y-94007333D01*
X136710238Y-94054952D01*
X136519761Y-94054952D01*
X136424523Y-94102571D01*
X136376904Y-94150190D01*
X136329285Y-94245428D01*
X136329285Y-94435904D01*
X136376904Y-94531142D01*
X136424523Y-94578761D01*
X136519761Y-94626380D01*
X136710238Y-94626380D01*
X136805476Y-94578761D01*
X136853095Y-94531142D01*
X136900714Y-94435904D01*
X136900714Y-94245428D01*
X136853095Y-94150190D01*
X136805476Y-94102571D01*
X136710238Y-94054952D01*
%TO.C,C9*%
X139504333Y-94531142D02*
X139456714Y-94578761D01*
X139313857Y-94626380D01*
X139218619Y-94626380D01*
X139075761Y-94578761D01*
X138980523Y-94483523D01*
X138932904Y-94388285D01*
X138885285Y-94197809D01*
X138885285Y-94054952D01*
X138932904Y-93864476D01*
X138980523Y-93769238D01*
X139075761Y-93674000D01*
X139218619Y-93626380D01*
X139313857Y-93626380D01*
X139456714Y-93674000D01*
X139504333Y-93721619D01*
X139980523Y-94626380D02*
X140171000Y-94626380D01*
X140266238Y-94578761D01*
X140313857Y-94531142D01*
X140409095Y-94388285D01*
X140456714Y-94197809D01*
X140456714Y-93816857D01*
X140409095Y-93721619D01*
X140361476Y-93674000D01*
X140266238Y-93626380D01*
X140075761Y-93626380D01*
X139980523Y-93674000D01*
X139932904Y-93721619D01*
X139885285Y-93816857D01*
X139885285Y-94054952D01*
X139932904Y-94150190D01*
X139980523Y-94197809D01*
X140075761Y-94245428D01*
X140266238Y-94245428D01*
X140361476Y-94197809D01*
X140409095Y-94150190D01*
X140456714Y-94054952D01*
%TO.C,D1*%
X122705904Y-87641380D02*
X122705904Y-86641380D01*
X122944000Y-86641380D01*
X123086857Y-86689000D01*
X123182095Y-86784238D01*
X123229714Y-86879476D01*
X123277333Y-87069952D01*
X123277333Y-87212809D01*
X123229714Y-87403285D01*
X123182095Y-87498523D01*
X123086857Y-87593761D01*
X122944000Y-87641380D01*
X122705904Y-87641380D01*
X124229714Y-87641380D02*
X123658285Y-87641380D01*
X123944000Y-87641380D02*
X123944000Y-86641380D01*
X123848761Y-86784238D01*
X123753523Y-86879476D01*
X123658285Y-86927095D01*
%TO.C,J1*%
X103610238Y-83205380D02*
X103943571Y-84205380D01*
X104276904Y-83205380D01*
X104372142Y-84300619D02*
X105134047Y-84300619D01*
X105372142Y-84205380D02*
X105372142Y-83205380D01*
X105848333Y-83538714D02*
X105848333Y-84205380D01*
X105848333Y-83633952D02*
X105895952Y-83586333D01*
X105991190Y-83538714D01*
X106134047Y-83538714D01*
X106229285Y-83586333D01*
X106276904Y-83681571D01*
X106276904Y-84205380D01*
%TO.C,J2*%
X144893095Y-96207000D02*
X144797857Y-96159380D01*
X144655000Y-96159380D01*
X144512142Y-96207000D01*
X144416904Y-96302238D01*
X144369285Y-96397476D01*
X144321666Y-96587952D01*
X144321666Y-96730809D01*
X144369285Y-96921285D01*
X144416904Y-97016523D01*
X144512142Y-97111761D01*
X144655000Y-97159380D01*
X144750238Y-97159380D01*
X144893095Y-97111761D01*
X144940714Y-97064142D01*
X144940714Y-96730809D01*
X144750238Y-96730809D01*
X145369285Y-97159380D02*
X145369285Y-96159380D01*
X145940714Y-97159380D01*
X145940714Y-96159380D01*
X146416904Y-97159380D02*
X146416904Y-96159380D01*
X146655000Y-96159380D01*
X146797857Y-96207000D01*
X146893095Y-96302238D01*
X146940714Y-96397476D01*
X146988333Y-96587952D01*
X146988333Y-96730809D01*
X146940714Y-96921285D01*
X146893095Y-97016523D01*
X146797857Y-97111761D01*
X146655000Y-97159380D01*
X146416904Y-97159380D01*
%TO.C,J3*%
X143297809Y-83205380D02*
X143631142Y-84205380D01*
X143964476Y-83205380D01*
X144059714Y-84300619D02*
X144821619Y-84300619D01*
X145250190Y-83205380D02*
X145440666Y-83205380D01*
X145535904Y-83253000D01*
X145631142Y-83348238D01*
X145678761Y-83538714D01*
X145678761Y-83872047D01*
X145631142Y-84062523D01*
X145535904Y-84157761D01*
X145440666Y-84205380D01*
X145250190Y-84205380D01*
X145154952Y-84157761D01*
X145059714Y-84062523D01*
X145012095Y-83872047D01*
X145012095Y-83538714D01*
X145059714Y-83348238D01*
X145154952Y-83253000D01*
X145250190Y-83205380D01*
X146535904Y-83538714D02*
X146535904Y-84205380D01*
X146107333Y-83538714D02*
X146107333Y-84062523D01*
X146154952Y-84157761D01*
X146250190Y-84205380D01*
X146393047Y-84205380D01*
X146488285Y-84157761D01*
X146535904Y-84110142D01*
X146869238Y-83538714D02*
X147250190Y-83538714D01*
X147012095Y-83205380D02*
X147012095Y-84062523D01*
X147059714Y-84157761D01*
X147154952Y-84205380D01*
X147250190Y-84205380D01*
%TO.C,J4*%
X104253095Y-96080000D02*
X104157857Y-96032380D01*
X104015000Y-96032380D01*
X103872142Y-96080000D01*
X103776904Y-96175238D01*
X103729285Y-96270476D01*
X103681666Y-96460952D01*
X103681666Y-96603809D01*
X103729285Y-96794285D01*
X103776904Y-96889523D01*
X103872142Y-96984761D01*
X104015000Y-97032380D01*
X104110238Y-97032380D01*
X104253095Y-96984761D01*
X104300714Y-96937142D01*
X104300714Y-96603809D01*
X104110238Y-96603809D01*
X104729285Y-97032380D02*
X104729285Y-96032380D01*
X105300714Y-97032380D01*
X105300714Y-96032380D01*
X105776904Y-97032380D02*
X105776904Y-96032380D01*
X106015000Y-96032380D01*
X106157857Y-96080000D01*
X106253095Y-96175238D01*
X106300714Y-96270476D01*
X106348333Y-96460952D01*
X106348333Y-96603809D01*
X106300714Y-96794285D01*
X106253095Y-96889523D01*
X106157857Y-96984761D01*
X106015000Y-97032380D01*
X105776904Y-97032380D01*
%TO.C,L1*%
X130770333Y-85664380D02*
X130294142Y-85664380D01*
X130294142Y-84664380D01*
X131627476Y-85664380D02*
X131056047Y-85664380D01*
X131341761Y-85664380D02*
X131341761Y-84664380D01*
X131246523Y-84807238D01*
X131151285Y-84902476D01*
X131056047Y-84950095D01*
%TO.C,R3*%
X126706333Y-100147380D02*
X126373000Y-99671190D01*
X126134904Y-100147380D02*
X126134904Y-99147380D01*
X126515857Y-99147380D01*
X126611095Y-99195000D01*
X126658714Y-99242619D01*
X126706333Y-99337857D01*
X126706333Y-99480714D01*
X126658714Y-99575952D01*
X126611095Y-99623571D01*
X126515857Y-99671190D01*
X126134904Y-99671190D01*
X127039666Y-99147380D02*
X127658714Y-99147380D01*
X127325380Y-99528333D01*
X127468238Y-99528333D01*
X127563476Y-99575952D01*
X127611095Y-99623571D01*
X127658714Y-99718809D01*
X127658714Y-99956904D01*
X127611095Y-100052142D01*
X127563476Y-100099761D01*
X127468238Y-100147380D01*
X127182523Y-100147380D01*
X127087285Y-100099761D01*
X127039666Y-100052142D01*
%TO.C,R5*%
D13*
X129528000Y-94472571D02*
X129308000Y-94158285D01*
X129150857Y-94472571D02*
X129150857Y-93812571D01*
X129402285Y-93812571D01*
X129465142Y-93844000D01*
X129496571Y-93875428D01*
X129528000Y-93938285D01*
X129528000Y-94032571D01*
X129496571Y-94095428D01*
X129465142Y-94126857D01*
X129402285Y-94158285D01*
X129150857Y-94158285D01*
X130125142Y-93812571D02*
X129810857Y-93812571D01*
X129779428Y-94126857D01*
X129810857Y-94095428D01*
X129873714Y-94064000D01*
X130030857Y-94064000D01*
X130093714Y-94095428D01*
X130125142Y-94126857D01*
X130156571Y-94189714D01*
X130156571Y-94346857D01*
X130125142Y-94409714D01*
X130093714Y-94441142D01*
X130030857Y-94472571D01*
X129873714Y-94472571D01*
X129810857Y-94441142D01*
X129779428Y-94409714D01*
%TO.C,R6*%
X131306000Y-94472571D02*
X131086000Y-94158285D01*
X130928857Y-94472571D02*
X130928857Y-93812571D01*
X131180285Y-93812571D01*
X131243142Y-93844000D01*
X131274571Y-93875428D01*
X131306000Y-93938285D01*
X131306000Y-94032571D01*
X131274571Y-94095428D01*
X131243142Y-94126857D01*
X131180285Y-94158285D01*
X130928857Y-94158285D01*
X131871714Y-93812571D02*
X131746000Y-93812571D01*
X131683142Y-93844000D01*
X131651714Y-93875428D01*
X131588857Y-93969714D01*
X131557428Y-94095428D01*
X131557428Y-94346857D01*
X131588857Y-94409714D01*
X131620285Y-94441142D01*
X131683142Y-94472571D01*
X131808857Y-94472571D01*
X131871714Y-94441142D01*
X131903142Y-94409714D01*
X131934571Y-94346857D01*
X131934571Y-94189714D01*
X131903142Y-94126857D01*
X131871714Y-94095428D01*
X131808857Y-94064000D01*
X131683142Y-94064000D01*
X131620285Y-94095428D01*
X131588857Y-94126857D01*
X131557428Y-94189714D01*
%TO.C,R7*%
D12*
X130059133Y-100180380D02*
X129725800Y-99704190D01*
X129487704Y-100180380D02*
X129487704Y-99180380D01*
X129868657Y-99180380D01*
X129963895Y-99228000D01*
X130011514Y-99275619D01*
X130059133Y-99370857D01*
X130059133Y-99513714D01*
X130011514Y-99608952D01*
X129963895Y-99656571D01*
X129868657Y-99704190D01*
X129487704Y-99704190D01*
X130392466Y-99180380D02*
X131059133Y-99180380D01*
X130630561Y-100180380D01*
%TO.C,U1*%
X120240095Y-97436380D02*
X120240095Y-98245904D01*
X120287714Y-98341142D01*
X120335333Y-98388761D01*
X120430571Y-98436380D01*
X120621047Y-98436380D01*
X120716285Y-98388761D01*
X120763904Y-98341142D01*
X120811523Y-98245904D01*
X120811523Y-97436380D01*
X121811523Y-98436380D02*
X121240095Y-98436380D01*
X121525809Y-98436380D02*
X121525809Y-97436380D01*
X121430571Y-97579238D01*
X121335333Y-97674476D01*
X121240095Y-97722095D01*
%TO.C,D2*%
X137789904Y-85101380D02*
X137789904Y-84101380D01*
X138028000Y-84101380D01*
X138170857Y-84149000D01*
X138266095Y-84244238D01*
X138313714Y-84339476D01*
X138361333Y-84529952D01*
X138361333Y-84672809D01*
X138313714Y-84863285D01*
X138266095Y-84958523D01*
X138170857Y-85053761D01*
X138028000Y-85101380D01*
X137789904Y-85101380D01*
X138742285Y-84196619D02*
X138789904Y-84149000D01*
X138885142Y-84101380D01*
X139123238Y-84101380D01*
X139218476Y-84149000D01*
X139266095Y-84196619D01*
X139313714Y-84291857D01*
X139313714Y-84387095D01*
X139266095Y-84529952D01*
X138694666Y-85101380D01*
X139313714Y-85101380D01*
%TD*%
%LPC*%
%TO.C,LO1*%
G36*
X133077200Y-80171600D02*
G01*
X116110000Y-80171600D01*
X116110000Y-84896000D01*
X133077200Y-84896000D01*
X133077200Y-80171600D01*
G37*
X133077200Y-80171600D02*
X116110000Y-80171600D01*
X116110000Y-84896000D01*
X133077200Y-84896000D01*
X133077200Y-80171600D01*
%TD*%
%TO.C,C1*%
G36*
G01*
X111236999Y-96355000D02*
X112537001Y-96355000D01*
G75*
G02*
X112787000Y-96604999I0J-249999D01*
G01*
X112787000Y-97255001D01*
G75*
G02*
X112537001Y-97505000I-249999J0D01*
G01*
X111236999Y-97505000D01*
G75*
G02*
X110987000Y-97255001I0J249999D01*
G01*
X110987000Y-96604999D01*
G75*
G02*
X111236999Y-96355000I249999J0D01*
G01*
G37*
G36*
G01*
X111236999Y-93405000D02*
X112537001Y-93405000D01*
G75*
G02*
X112787000Y-93654999I0J-249999D01*
G01*
X112787000Y-94305001D01*
G75*
G02*
X112537001Y-94555000I-249999J0D01*
G01*
X111236999Y-94555000D01*
G75*
G02*
X110987000Y-94305001I0J249999D01*
G01*
X110987000Y-93654999D01*
G75*
G02*
X111236999Y-93405000I249999J0D01*
G01*
G37*
%TD*%
%TO.C,C2*%
G36*
G01*
X113776999Y-96355000D02*
X115077001Y-96355000D01*
G75*
G02*
X115327000Y-96604999I0J-249999D01*
G01*
X115327000Y-97255001D01*
G75*
G02*
X115077001Y-97505000I-249999J0D01*
G01*
X113776999Y-97505000D01*
G75*
G02*
X113527000Y-97255001I0J249999D01*
G01*
X113527000Y-96604999D01*
G75*
G02*
X113776999Y-96355000I249999J0D01*
G01*
G37*
G36*
G01*
X113776999Y-93405000D02*
X115077001Y-93405000D01*
G75*
G02*
X115327000Y-93654999I0J-249999D01*
G01*
X115327000Y-94305001D01*
G75*
G02*
X115077001Y-94555000I-249999J0D01*
G01*
X113776999Y-94555000D01*
G75*
G02*
X113527000Y-94305001I0J249999D01*
G01*
X113527000Y-93654999D01*
G75*
G02*
X113776999Y-93405000I249999J0D01*
G01*
G37*
%TD*%
%TO.C,C3*%
G36*
G01*
X116709000Y-92753000D02*
X116209000Y-92753000D01*
G75*
G02*
X115984000Y-92528000I0J225000D01*
G01*
X115984000Y-92078000D01*
G75*
G02*
X116209000Y-91853000I225000J0D01*
G01*
X116709000Y-91853000D01*
G75*
G02*
X116934000Y-92078000I0J-225000D01*
G01*
X116934000Y-92528000D01*
G75*
G02*
X116709000Y-92753000I-225000J0D01*
G01*
G37*
G36*
G01*
X116709000Y-94303000D02*
X116209000Y-94303000D01*
G75*
G02*
X115984000Y-94078000I0J225000D01*
G01*
X115984000Y-93628000D01*
G75*
G02*
X116209000Y-93403000I225000J0D01*
G01*
X116709000Y-93403000D01*
G75*
G02*
X116934000Y-93628000I0J-225000D01*
G01*
X116934000Y-94078000D01*
G75*
G02*
X116709000Y-94303000I-225000J0D01*
G01*
G37*
%TD*%
%TO.C,C4*%
G36*
G01*
X125861000Y-93302000D02*
X126361000Y-93302000D01*
G75*
G02*
X126586000Y-93527000I0J-225000D01*
G01*
X126586000Y-93977000D01*
G75*
G02*
X126361000Y-94202000I-225000J0D01*
G01*
X125861000Y-94202000D01*
G75*
G02*
X125636000Y-93977000I0J225000D01*
G01*
X125636000Y-93527000D01*
G75*
G02*
X125861000Y-93302000I225000J0D01*
G01*
G37*
G36*
G01*
X125861000Y-91752000D02*
X126361000Y-91752000D01*
G75*
G02*
X126586000Y-91977000I0J-225000D01*
G01*
X126586000Y-92427000D01*
G75*
G02*
X126361000Y-92652000I-225000J0D01*
G01*
X125861000Y-92652000D01*
G75*
G02*
X125636000Y-92427000I0J225000D01*
G01*
X125636000Y-91977000D01*
G75*
G02*
X125861000Y-91752000I225000J0D01*
G01*
G37*
%TD*%
%TO.C,C5*%
G36*
G01*
X116209000Y-96578000D02*
X116709000Y-96578000D01*
G75*
G02*
X116934000Y-96803000I0J-225000D01*
G01*
X116934000Y-97253000D01*
G75*
G02*
X116709000Y-97478000I-225000J0D01*
G01*
X116209000Y-97478000D01*
G75*
G02*
X115984000Y-97253000I0J225000D01*
G01*
X115984000Y-96803000D01*
G75*
G02*
X116209000Y-96578000I225000J0D01*
G01*
G37*
G36*
G01*
X116209000Y-95028000D02*
X116709000Y-95028000D01*
G75*
G02*
X116934000Y-95253000I0J-225000D01*
G01*
X116934000Y-95703000D01*
G75*
G02*
X116709000Y-95928000I-225000J0D01*
G01*
X116209000Y-95928000D01*
G75*
G02*
X115984000Y-95703000I0J225000D01*
G01*
X115984000Y-95253000D01*
G75*
G02*
X116209000Y-95028000I225000J0D01*
G01*
G37*
%TD*%
%TO.C,C6*%
G36*
G01*
X125861000Y-96337000D02*
X126361000Y-96337000D01*
G75*
G02*
X126586000Y-96562000I0J-225000D01*
G01*
X126586000Y-97012000D01*
G75*
G02*
X126361000Y-97237000I-225000J0D01*
G01*
X125861000Y-97237000D01*
G75*
G02*
X125636000Y-97012000I0J225000D01*
G01*
X125636000Y-96562000D01*
G75*
G02*
X125861000Y-96337000I225000J0D01*
G01*
G37*
G36*
G01*
X125861000Y-94787000D02*
X126361000Y-94787000D01*
G75*
G02*
X126586000Y-95012000I0J-225000D01*
G01*
X126586000Y-95462000D01*
G75*
G02*
X126361000Y-95687000I-225000J0D01*
G01*
X125861000Y-95687000D01*
G75*
G02*
X125636000Y-95462000I0J225000D01*
G01*
X125636000Y-95012000D01*
G75*
G02*
X125861000Y-94787000I225000J0D01*
G01*
G37*
%TD*%
%TO.C,C7*%
G36*
G01*
X127512000Y-96337000D02*
X128012000Y-96337000D01*
G75*
G02*
X128237000Y-96562000I0J-225000D01*
G01*
X128237000Y-97012000D01*
G75*
G02*
X128012000Y-97237000I-225000J0D01*
G01*
X127512000Y-97237000D01*
G75*
G02*
X127287000Y-97012000I0J225000D01*
G01*
X127287000Y-96562000D01*
G75*
G02*
X127512000Y-96337000I225000J0D01*
G01*
G37*
G36*
G01*
X127512000Y-94787000D02*
X128012000Y-94787000D01*
G75*
G02*
X128237000Y-95012000I0J-225000D01*
G01*
X128237000Y-95462000D01*
G75*
G02*
X128012000Y-95687000I-225000J0D01*
G01*
X127512000Y-95687000D01*
G75*
G02*
X127287000Y-95462000I0J225000D01*
G01*
X127287000Y-95012000D01*
G75*
G02*
X127512000Y-94787000I225000J0D01*
G01*
G37*
%TD*%
%TO.C,C8*%
G36*
G01*
X135493999Y-92037000D02*
X136794001Y-92037000D01*
G75*
G02*
X137044000Y-92286999I0J-249999D01*
G01*
X137044000Y-92937001D01*
G75*
G02*
X136794001Y-93187000I-249999J0D01*
G01*
X135493999Y-93187000D01*
G75*
G02*
X135244000Y-92937001I0J249999D01*
G01*
X135244000Y-92286999D01*
G75*
G02*
X135493999Y-92037000I249999J0D01*
G01*
G37*
G36*
G01*
X135493999Y-89087000D02*
X136794001Y-89087000D01*
G75*
G02*
X137044000Y-89336999I0J-249999D01*
G01*
X137044000Y-89987001D01*
G75*
G02*
X136794001Y-90237000I-249999J0D01*
G01*
X135493999Y-90237000D01*
G75*
G02*
X135244000Y-89987001I0J249999D01*
G01*
X135244000Y-89336999D01*
G75*
G02*
X135493999Y-89087000I249999J0D01*
G01*
G37*
%TD*%
%TO.C,C9*%
G36*
G01*
X138033999Y-92037000D02*
X139334001Y-92037000D01*
G75*
G02*
X139584000Y-92286999I0J-249999D01*
G01*
X139584000Y-92937001D01*
G75*
G02*
X139334001Y-93187000I-249999J0D01*
G01*
X138033999Y-93187000D01*
G75*
G02*
X137784000Y-92937001I0J249999D01*
G01*
X137784000Y-92286999D01*
G75*
G02*
X138033999Y-92037000I249999J0D01*
G01*
G37*
G36*
G01*
X138033999Y-89087000D02*
X139334001Y-89087000D01*
G75*
G02*
X139584000Y-89336999I0J-249999D01*
G01*
X139584000Y-89987001D01*
G75*
G02*
X139334001Y-90237000I-249999J0D01*
G01*
X138033999Y-90237000D01*
G75*
G02*
X137784000Y-89987001I0J249999D01*
G01*
X137784000Y-89336999D01*
G75*
G02*
X138033999Y-89087000I249999J0D01*
G01*
G37*
%TD*%
D14*
%TO.C,D1*%
X121444000Y-89662000D03*
X125444000Y-89662000D03*
%TD*%
D15*
%TO.C,J1*%
X105000000Y-81220000D03*
%TD*%
%TO.C,J2*%
X145640000Y-99060000D03*
%TD*%
%TO.C,J3*%
X145640000Y-81220000D03*
%TD*%
%TO.C,J4*%
X105000000Y-99000000D03*
%TD*%
D16*
%TO.C,L1*%
X133687000Y-89662000D03*
X128187000Y-89662000D03*
%TD*%
%TO.C,R3*%
G36*
G01*
X127348800Y-98573000D02*
X127348800Y-98023000D01*
G75*
G02*
X127548800Y-97823000I200000J0D01*
G01*
X127948800Y-97823000D01*
G75*
G02*
X128148800Y-98023000I0J-200000D01*
G01*
X128148800Y-98573000D01*
G75*
G02*
X127948800Y-98773000I-200000J0D01*
G01*
X127548800Y-98773000D01*
G75*
G02*
X127348800Y-98573000I0J200000D01*
G01*
G37*
G36*
G01*
X125698800Y-98573000D02*
X125698800Y-98023000D01*
G75*
G02*
X125898800Y-97823000I200000J0D01*
G01*
X126298800Y-97823000D01*
G75*
G02*
X126498800Y-98023000I0J-200000D01*
G01*
X126498800Y-98573000D01*
G75*
G02*
X126298800Y-98773000I-200000J0D01*
G01*
X125898800Y-98773000D01*
G75*
G02*
X125698800Y-98573000I0J200000D01*
G01*
G37*
%TD*%
%TO.C,R5*%
G36*
G01*
X129138000Y-96437000D02*
X129688000Y-96437000D01*
G75*
G02*
X129888000Y-96637000I0J-200000D01*
G01*
X129888000Y-97037000D01*
G75*
G02*
X129688000Y-97237000I-200000J0D01*
G01*
X129138000Y-97237000D01*
G75*
G02*
X128938000Y-97037000I0J200000D01*
G01*
X128938000Y-96637000D01*
G75*
G02*
X129138000Y-96437000I200000J0D01*
G01*
G37*
G36*
G01*
X129138000Y-94787000D02*
X129688000Y-94787000D01*
G75*
G02*
X129888000Y-94987000I0J-200000D01*
G01*
X129888000Y-95387000D01*
G75*
G02*
X129688000Y-95587000I-200000J0D01*
G01*
X129138000Y-95587000D01*
G75*
G02*
X128938000Y-95387000I0J200000D01*
G01*
X128938000Y-94987000D01*
G75*
G02*
X129138000Y-94787000I200000J0D01*
G01*
G37*
%TD*%
%TO.C,R6*%
G36*
G01*
X130789000Y-96437000D02*
X131339000Y-96437000D01*
G75*
G02*
X131539000Y-96637000I0J-200000D01*
G01*
X131539000Y-97037000D01*
G75*
G02*
X131339000Y-97237000I-200000J0D01*
G01*
X130789000Y-97237000D01*
G75*
G02*
X130589000Y-97037000I0J200000D01*
G01*
X130589000Y-96637000D01*
G75*
G02*
X130789000Y-96437000I200000J0D01*
G01*
G37*
G36*
G01*
X130789000Y-94787000D02*
X131339000Y-94787000D01*
G75*
G02*
X131539000Y-94987000I0J-200000D01*
G01*
X131539000Y-95387000D01*
G75*
G02*
X131339000Y-95587000I-200000J0D01*
G01*
X130789000Y-95587000D01*
G75*
G02*
X130589000Y-95387000I0J200000D01*
G01*
X130589000Y-94987000D01*
G75*
G02*
X130789000Y-94787000I200000J0D01*
G01*
G37*
%TD*%
%TO.C,R7*%
G36*
G01*
X129800800Y-98023000D02*
X129800800Y-98573000D01*
G75*
G02*
X129600800Y-98773000I-200000J0D01*
G01*
X129200800Y-98773000D01*
G75*
G02*
X129000800Y-98573000I0J200000D01*
G01*
X129000800Y-98023000D01*
G75*
G02*
X129200800Y-97823000I200000J0D01*
G01*
X129600800Y-97823000D01*
G75*
G02*
X129800800Y-98023000I0J-200000D01*
G01*
G37*
G36*
G01*
X131450800Y-98023000D02*
X131450800Y-98573000D01*
G75*
G02*
X131250800Y-98773000I-200000J0D01*
G01*
X130850800Y-98773000D01*
G75*
G02*
X130650800Y-98573000I0J200000D01*
G01*
X130650800Y-98023000D01*
G75*
G02*
X130850800Y-97823000I200000J0D01*
G01*
X131250800Y-97823000D01*
G75*
G02*
X131450800Y-98023000I0J-200000D01*
G01*
G37*
%TD*%
%TO.C,U1*%
G36*
G01*
X122531000Y-92733000D02*
X122531000Y-92433000D01*
G75*
G02*
X122681000Y-92283000I150000J0D01*
G01*
X124331000Y-92283000D01*
G75*
G02*
X124481000Y-92433000I0J-150000D01*
G01*
X124481000Y-92733000D01*
G75*
G02*
X124331000Y-92883000I-150000J0D01*
G01*
X122681000Y-92883000D01*
G75*
G02*
X122531000Y-92733000I0J150000D01*
G01*
G37*
G36*
G01*
X122531000Y-94003000D02*
X122531000Y-93703000D01*
G75*
G02*
X122681000Y-93553000I150000J0D01*
G01*
X124331000Y-93553000D01*
G75*
G02*
X124481000Y-93703000I0J-150000D01*
G01*
X124481000Y-94003000D01*
G75*
G02*
X124331000Y-94153000I-150000J0D01*
G01*
X122681000Y-94153000D01*
G75*
G02*
X122531000Y-94003000I0J150000D01*
G01*
G37*
G36*
G01*
X122531000Y-95273000D02*
X122531000Y-94973000D01*
G75*
G02*
X122681000Y-94823000I150000J0D01*
G01*
X124331000Y-94823000D01*
G75*
G02*
X124481000Y-94973000I0J-150000D01*
G01*
X124481000Y-95273000D01*
G75*
G02*
X124331000Y-95423000I-150000J0D01*
G01*
X122681000Y-95423000D01*
G75*
G02*
X122531000Y-95273000I0J150000D01*
G01*
G37*
G36*
G01*
X122531000Y-96543000D02*
X122531000Y-96243000D01*
G75*
G02*
X122681000Y-96093000I150000J0D01*
G01*
X124331000Y-96093000D01*
G75*
G02*
X124481000Y-96243000I0J-150000D01*
G01*
X124481000Y-96543000D01*
G75*
G02*
X124331000Y-96693000I-150000J0D01*
G01*
X122681000Y-96693000D01*
G75*
G02*
X122531000Y-96543000I0J150000D01*
G01*
G37*
G36*
G01*
X117581000Y-96543000D02*
X117581000Y-96243000D01*
G75*
G02*
X117731000Y-96093000I150000J0D01*
G01*
X119381000Y-96093000D01*
G75*
G02*
X119531000Y-96243000I0J-150000D01*
G01*
X119531000Y-96543000D01*
G75*
G02*
X119381000Y-96693000I-150000J0D01*
G01*
X117731000Y-96693000D01*
G75*
G02*
X117581000Y-96543000I0J150000D01*
G01*
G37*
G36*
G01*
X117581000Y-95273000D02*
X117581000Y-94973000D01*
G75*
G02*
X117731000Y-94823000I150000J0D01*
G01*
X119381000Y-94823000D01*
G75*
G02*
X119531000Y-94973000I0J-150000D01*
G01*
X119531000Y-95273000D01*
G75*
G02*
X119381000Y-95423000I-150000J0D01*
G01*
X117731000Y-95423000D01*
G75*
G02*
X117581000Y-95273000I0J150000D01*
G01*
G37*
G36*
G01*
X117581000Y-94003000D02*
X117581000Y-93703000D01*
G75*
G02*
X117731000Y-93553000I150000J0D01*
G01*
X119381000Y-93553000D01*
G75*
G02*
X119531000Y-93703000I0J-150000D01*
G01*
X119531000Y-94003000D01*
G75*
G02*
X119381000Y-94153000I-150000J0D01*
G01*
X117731000Y-94153000D01*
G75*
G02*
X117581000Y-94003000I0J150000D01*
G01*
G37*
G36*
G01*
X117581000Y-92733000D02*
X117581000Y-92433000D01*
G75*
G02*
X117731000Y-92283000I150000J0D01*
G01*
X119381000Y-92283000D01*
G75*
G02*
X119531000Y-92433000I0J-150000D01*
G01*
X119531000Y-92733000D01*
G75*
G02*
X119381000Y-92883000I-150000J0D01*
G01*
X117731000Y-92883000D01*
G75*
G02*
X117581000Y-92733000I0J150000D01*
G01*
G37*
%TD*%
D17*
%TO.C,H1*%
X112000000Y-82610000D03*
%TD*%
%TO.C,H3*%
X138000000Y-97610000D03*
%TD*%
D18*
%TO.C,LO1*%
X121164600Y-81644800D03*
D19*
X128784600Y-81644800D03*
G36*
G01*
X123654600Y-82319800D02*
X123654600Y-80969800D01*
G75*
G02*
X123879600Y-80744800I225000J0D01*
G01*
X124329600Y-80744800D01*
G75*
G02*
X124554600Y-80969800I0J-225000D01*
G01*
X124554600Y-82319800D01*
G75*
G02*
X124329600Y-82544800I-225000J0D01*
G01*
X123879600Y-82544800D01*
G75*
G02*
X123654600Y-82319800I0J225000D01*
G01*
G37*
G36*
G01*
X125394600Y-82319800D02*
X125394600Y-80969800D01*
G75*
G02*
X125619600Y-80744800I225000J0D01*
G01*
X126069600Y-80744800D01*
G75*
G02*
X126294600Y-80969800I0J-225000D01*
G01*
X126294600Y-82319800D01*
G75*
G02*
X126069600Y-82544800I-225000J0D01*
G01*
X125619600Y-82544800D01*
G75*
G02*
X125394600Y-82319800I0J225000D01*
G01*
G37*
%TD*%
D14*
%TO.C,D2*%
X140525000Y-86868000D03*
X136525000Y-86868000D03*
%TD*%
M02*
