%TF.GenerationSoftware,KiCad,Pcbnew,(5.99.0-8805-ge26c912b86)*%
%TF.CreationDate,2021-02-03T20:46:21+01:00*%
%TF.ProjectId,USB-CP2102-only,5553422d-4350-4323-9130-322d6f6e6c79,rev?*%
%TF.SameCoordinates,Original*%
%TF.FileFunction,Copper,L2,Bot*%
%TF.FilePolarity,Positive*%
%FSLAX46Y46*%
G04 Gerber Fmt 4.6, Leading zero omitted, Abs format (unit mm)*
G04 Created by KiCad (PCBNEW (5.99.0-8805-ge26c912b86)) date 2021-02-03 20:46:21*
%MOMM*%
%LPD*%
G01*
G04 APERTURE LIST*
G04 Aperture macros list*
%AMFreePoly0*
4,1,6,1.000000,0.000000,0.500000,-0.750000,-0.500000,-0.750000,-0.500000,0.750000,0.500000,0.750000,1.000000,0.000000,1.000000,0.000000,$1*%
%AMFreePoly1*
4,1,6,0.500000,-0.750000,-0.650000,-0.750000,-0.150000,0.000000,-0.650000,0.750000,0.500000,0.750000,0.500000,-0.750000,0.500000,-0.750000,$1*%
G04 Aperture macros list end*
%TA.AperFunction,ComponentPad*%
%ADD10R,1.700000X1.700000*%
%TD*%
%TA.AperFunction,SMDPad,CuDef*%
%ADD11FreePoly0,0.000000*%
%TD*%
%TA.AperFunction,SMDPad,CuDef*%
%ADD12FreePoly1,0.000000*%
%TD*%
%TA.AperFunction,ViaPad*%
%ADD13C,0.800000*%
%TD*%
%TA.AperFunction,Conductor*%
%ADD14C,0.350000*%
%TD*%
%TA.AperFunction,Conductor*%
%ADD15C,0.250000*%
%TD*%
G04 APERTURE END LIST*
D10*
%TO.P,J1,1,Pin_1*%
%TO.N,+5V*%
X173520400Y-130109200D03*
%TD*%
%TO.P,J2,1,Pin_1*%
%TO.N,VBUS*%
X170980400Y-130109200D03*
%TD*%
%TO.P,J4,1,Pin_1*%
%TO.N,GND*%
X165900400Y-130109200D03*
%TD*%
%TO.P,J5,1,Pin_1*%
%TO.N,GND*%
X168440400Y-130109200D03*
%TD*%
%TO.P,J8,1,Pin_1*%
%TO.N,DTR*%
X176060400Y-130109200D03*
%TD*%
%TO.P,J3,1,Pin_1*%
%TO.N,+3V3*%
X181140400Y-115744000D03*
%TD*%
%TO.P,J11,1,Pin_1*%
%TO.N,RST*%
X181140400Y-125904000D03*
%TD*%
%TO.P,J9,1,Pin_1*%
%TO.N,GPIO1*%
X181140400Y-123364000D03*
%TD*%
%TO.P,J6,1,Pin_1*%
%TO.N,GND*%
X181140400Y-128444000D03*
%TD*%
%TO.P,J10,1,Pin_1*%
%TO.N,GPIO3*%
X181140400Y-118284000D03*
%TD*%
%TO.P,J12,1,Pin_1*%
%TO.N,GPIO0*%
X181140400Y-120824000D03*
%TD*%
D11*
%TO.P,JP3,1,A*%
%TO.N,DTR*%
X171627000Y-122286000D03*
D12*
%TO.P,JP3,2,B*%
%TO.N,Net-(JP3-Pad2)*%
X173077000Y-122286000D03*
%TD*%
D11*
%TO.P,JP1,1,A*%
%TO.N,Net-(JP1-Pad1)*%
X171590000Y-117460000D03*
D12*
%TO.P,JP1,2,B*%
%TO.N,Net-(JP1-Pad2)*%
X173040000Y-117460000D03*
%TD*%
D11*
%TO.P,JP2,1,A*%
%TO.N,VBUS*%
X161467000Y-117460000D03*
D12*
%TO.P,JP2,2,B*%
%TO.N,+5V*%
X162917000Y-117460000D03*
%TD*%
D13*
%TO.N,GND*%
X163000000Y-111000000D03*
X177000000Y-113000000D03*
%TO.N,+5V*%
X162954000Y-113523000D03*
X164192000Y-117460000D03*
%TO.N,VBUS*%
X160192000Y-117460000D03*
X160795000Y-124559000D03*
X158178010Y-122339921D03*
%TO.N,Net-(J7-PadA6)*%
X162704653Y-121519347D03*
X160663347Y-121528653D03*
%TO.N,DTR*%
X165748000Y-118984000D03*
%TO.N,GPIO1*%
X175654000Y-121270000D03*
X167780000Y-117206000D03*
%TO.N,Net-(JP1-Pad1)*%
X168796000Y-118222000D03*
%TO.N,Net-(JP1-Pad2)*%
X174130000Y-116190000D03*
%TO.N,Net-(JP3-Pad2)*%
X174418035Y-121501711D03*
%TD*%
D14*
%TO.N,GND*%
X181140400Y-129815600D02*
X181140400Y-128444000D01*
X168440400Y-130109200D02*
X169665411Y-131334211D01*
X169665411Y-131334211D02*
X179621789Y-131334211D01*
X179621789Y-131334211D02*
X181140400Y-129815600D01*
%TO.N,+5V*%
X173520400Y-129042400D02*
X173520400Y-130109200D01*
X173114000Y-128636000D02*
X173520400Y-129042400D01*
X164192000Y-114761000D02*
X162954000Y-113523000D01*
X162917000Y-117460000D02*
X164192000Y-117460000D01*
X164192000Y-117460000D02*
X164192000Y-124794000D01*
X168034000Y-128636000D02*
X173114000Y-128636000D01*
X164192000Y-117460000D02*
X164192000Y-114761000D01*
X164192000Y-124794000D02*
X168034000Y-128636000D01*
%TO.N,VBUS*%
X160192000Y-117460000D02*
X161467000Y-117460000D01*
X160397089Y-124559000D02*
X160795000Y-124559000D01*
X158178010Y-118679990D02*
X159398000Y-117460000D01*
X158178010Y-122339921D02*
X158178010Y-118679990D01*
X159398000Y-117460000D02*
X160192000Y-117460000D01*
X158178010Y-122339921D02*
X160397089Y-124559000D01*
D15*
%TO.N,Net-(J7-PadA6)*%
X160663347Y-121528653D02*
X162695347Y-121528653D01*
X162695347Y-121528653D02*
X162704653Y-121519347D01*
%TO.N,DTR*%
X171627000Y-126387000D02*
X173876000Y-128636000D01*
X171627000Y-122286000D02*
X169050000Y-122286000D01*
X173876000Y-128636000D02*
X175654000Y-128636000D01*
X175654000Y-128636000D02*
X176060400Y-129042400D01*
X171627000Y-122286000D02*
X171627000Y-126387000D01*
X176060400Y-129042400D02*
X176060400Y-130109200D01*
X169050000Y-122286000D02*
X165748000Y-118984000D01*
%TO.N,GPIO1*%
X167308999Y-117677001D02*
X167780000Y-117206000D01*
X167685999Y-119201001D02*
X167308999Y-118824001D01*
X175654000Y-121270000D02*
X173585001Y-119201001D01*
X173585001Y-119201001D02*
X167685999Y-119201001D01*
X167308999Y-118824001D02*
X167308999Y-117677001D01*
%TO.N,Net-(JP1-Pad1)*%
X171590000Y-117460000D02*
X169558000Y-117460000D01*
X168796000Y-118222000D02*
X169558000Y-117460000D01*
%TO.N,Net-(JP1-Pad2)*%
X174130000Y-117206000D02*
X173876000Y-117460000D01*
X173876000Y-117460000D02*
X173040000Y-117460000D01*
X174130000Y-116190000D02*
X174130000Y-117206000D01*
%TO.N,Net-(JP3-Pad2)*%
X173876000Y-122286000D02*
X173077000Y-122286000D01*
X174418035Y-121743965D02*
X173876000Y-122286000D01*
X174418035Y-121501711D02*
X174418035Y-121743965D01*
%TD*%
%TA.AperFunction,Conductor*%
%TO.N,GND*%
G36*
X178254391Y-108528002D02*
G01*
X178300884Y-108581658D01*
X178310988Y-108651932D01*
X178281494Y-108716512D01*
X178268351Y-108729596D01*
X178019207Y-108943517D01*
X178019203Y-108943521D01*
X178016403Y-108945925D01*
X177790299Y-109191381D01*
X177594377Y-109461540D01*
X177592582Y-109464746D01*
X177592579Y-109464750D01*
X177503629Y-109623582D01*
X177431313Y-109752712D01*
X177429905Y-109756102D01*
X177429901Y-109756111D01*
X177308855Y-110047623D01*
X177303333Y-110060921D01*
X177302331Y-110064450D01*
X177302329Y-110064456D01*
X177213401Y-110377682D01*
X177212187Y-110381957D01*
X177211604Y-110385576D01*
X177211603Y-110385581D01*
X177206551Y-110416947D01*
X177159118Y-110711434D01*
X177144852Y-111044852D01*
X177169584Y-111377658D01*
X177232976Y-111705306D01*
X177234089Y-111708804D01*
X177234091Y-111708812D01*
X177333045Y-112019814D01*
X177334161Y-112023320D01*
X177471759Y-112327356D01*
X177643888Y-112613263D01*
X177646134Y-112616164D01*
X177646139Y-112616171D01*
X177845943Y-112874221D01*
X177845950Y-112874228D01*
X177848200Y-112877135D01*
X178081902Y-113115368D01*
X178341803Y-113324707D01*
X178344918Y-113326665D01*
X178344921Y-113326667D01*
X178562863Y-113463647D01*
X178624352Y-113502294D01*
X178925692Y-113645703D01*
X179241705Y-113752974D01*
X179568075Y-113822644D01*
X179681554Y-113833271D01*
X179896678Y-113853418D01*
X179896683Y-113853418D01*
X179900344Y-113853761D01*
X180105754Y-113848920D01*
X180230290Y-113845985D01*
X180230293Y-113845985D01*
X180233975Y-113845898D01*
X180564411Y-113799164D01*
X180567967Y-113798228D01*
X180567971Y-113798227D01*
X180883574Y-113715136D01*
X180883573Y-113715136D01*
X180887137Y-113714198D01*
X181010884Y-113665577D01*
X181194318Y-113593506D01*
X181194325Y-113593503D01*
X181197745Y-113592159D01*
X181491995Y-113434714D01*
X181765865Y-113244014D01*
X181768615Y-113241577D01*
X181768621Y-113241572D01*
X182012864Y-113025103D01*
X182015616Y-113022664D01*
X182237837Y-112773687D01*
X182262850Y-112738031D01*
X182318346Y-112693751D01*
X182388972Y-112686504D01*
X182452304Y-112718590D01*
X182488235Y-112779823D01*
X182492000Y-112810392D01*
X182492000Y-114380195D01*
X182471998Y-114448316D01*
X182418342Y-114494809D01*
X182348068Y-114504913D01*
X182283488Y-114475420D01*
X182274830Y-114467918D01*
X182268019Y-114462016D01*
X182200614Y-114431233D01*
X182143264Y-114405042D01*
X182143263Y-114405042D01*
X182135070Y-114401300D01*
X182126155Y-114400018D01*
X182126154Y-114400018D01*
X181994848Y-114381139D01*
X181994841Y-114381138D01*
X181990400Y-114380500D01*
X180290400Y-114380500D01*
X180217321Y-114385727D01*
X180164284Y-114401300D01*
X180085730Y-114424365D01*
X180085728Y-114424366D01*
X180077084Y-114426904D01*
X180053562Y-114442021D01*
X179961709Y-114501051D01*
X179961706Y-114501053D01*
X179954129Y-114505923D01*
X179948228Y-114512733D01*
X179864318Y-114609569D01*
X179864316Y-114609572D01*
X179858416Y-114616381D01*
X179797700Y-114749330D01*
X179796418Y-114758245D01*
X179796418Y-114758246D01*
X179777539Y-114889552D01*
X179777538Y-114889559D01*
X179776900Y-114894000D01*
X179776900Y-116594000D01*
X179782127Y-116667079D01*
X179794580Y-116709489D01*
X179814256Y-116776500D01*
X179823304Y-116807316D01*
X179828175Y-116814895D01*
X179897451Y-116922691D01*
X179897453Y-116922694D01*
X179902323Y-116930271D01*
X179907998Y-116935188D01*
X179937176Y-116999077D01*
X179927074Y-117069351D01*
X179907683Y-117099524D01*
X179864318Y-117149569D01*
X179864316Y-117149572D01*
X179858416Y-117156381D01*
X179854672Y-117164579D01*
X179810895Y-117260438D01*
X179797700Y-117289330D01*
X179796418Y-117298245D01*
X179796418Y-117298246D01*
X179777539Y-117429552D01*
X179777538Y-117429559D01*
X179776900Y-117434000D01*
X179776900Y-119134000D01*
X179782127Y-119207079D01*
X179823304Y-119347316D01*
X179847826Y-119385472D01*
X179897451Y-119462691D01*
X179897453Y-119462694D01*
X179902323Y-119470271D01*
X179907998Y-119475188D01*
X179937176Y-119539077D01*
X179927074Y-119609351D01*
X179907683Y-119639524D01*
X179864318Y-119689569D01*
X179864316Y-119689572D01*
X179858416Y-119696381D01*
X179854672Y-119704579D01*
X179812962Y-119795912D01*
X179797700Y-119829330D01*
X179796418Y-119838245D01*
X179796418Y-119838246D01*
X179777539Y-119969552D01*
X179777538Y-119969559D01*
X179776900Y-119974000D01*
X179776900Y-121674000D01*
X179782127Y-121747079D01*
X179823304Y-121887316D01*
X179828175Y-121894895D01*
X179897451Y-122002691D01*
X179897453Y-122002694D01*
X179902323Y-122010271D01*
X179907998Y-122015188D01*
X179937176Y-122079077D01*
X179927074Y-122149351D01*
X179907683Y-122179524D01*
X179864318Y-122229569D01*
X179864316Y-122229572D01*
X179858416Y-122236381D01*
X179854672Y-122244579D01*
X179808133Y-122346486D01*
X179797700Y-122369330D01*
X179796418Y-122378245D01*
X179796418Y-122378246D01*
X179777539Y-122509552D01*
X179777538Y-122509559D01*
X179776900Y-122514000D01*
X179776900Y-124214000D01*
X179782127Y-124287079D01*
X179823304Y-124427316D01*
X179828175Y-124434895D01*
X179897451Y-124542691D01*
X179897453Y-124542694D01*
X179902323Y-124550271D01*
X179907998Y-124555188D01*
X179937176Y-124619077D01*
X179927074Y-124689351D01*
X179907683Y-124719524D01*
X179864318Y-124769569D01*
X179864316Y-124769572D01*
X179858416Y-124776381D01*
X179854672Y-124784579D01*
X179804759Y-124893874D01*
X179797700Y-124909330D01*
X179796418Y-124918245D01*
X179796418Y-124918246D01*
X179777539Y-125049552D01*
X179777538Y-125049559D01*
X179776900Y-125054000D01*
X179776900Y-126754000D01*
X179782127Y-126827079D01*
X179784031Y-126833562D01*
X179816319Y-126943526D01*
X179823304Y-126967316D01*
X179902323Y-127090271D01*
X179908253Y-127095410D01*
X179937503Y-127159457D01*
X179927400Y-127229731D01*
X179908011Y-127259901D01*
X179864738Y-127309840D01*
X179855093Y-127324848D01*
X179801923Y-127441275D01*
X179796898Y-127458388D01*
X179778039Y-127589554D01*
X179777400Y-127598495D01*
X179777400Y-128171885D01*
X179781875Y-128187124D01*
X179783265Y-128188329D01*
X179790948Y-128190000D01*
X181268400Y-128190000D01*
X181336521Y-128210002D01*
X181383014Y-128263658D01*
X181394400Y-128316000D01*
X181394400Y-129788885D01*
X181398875Y-129804124D01*
X181400265Y-129805329D01*
X181407948Y-129807000D01*
X181988143Y-129807000D01*
X181992650Y-129806839D01*
X182056669Y-129802260D01*
X182069891Y-129799874D01*
X182148499Y-129776793D01*
X182219495Y-129776793D01*
X182279221Y-129815177D01*
X182308714Y-129879757D01*
X182300404Y-129945911D01*
X182289682Y-129971794D01*
X182286797Y-129978241D01*
X182190609Y-130177979D01*
X182187370Y-130184250D01*
X182166478Y-130222050D01*
X182162917Y-130228089D01*
X182075209Y-130367675D01*
X182044945Y-130415839D01*
X182041018Y-130421715D01*
X182016044Y-130456912D01*
X182011795Y-130462558D01*
X181873568Y-130635890D01*
X181869009Y-130641290D01*
X181840232Y-130673492D01*
X181835375Y-130678628D01*
X181678628Y-130835375D01*
X181673494Y-130840230D01*
X181641278Y-130869020D01*
X181635905Y-130873557D01*
X181462564Y-131011791D01*
X181456918Y-131016040D01*
X181421718Y-131041016D01*
X181415841Y-131044943D01*
X181228121Y-131162896D01*
X181222034Y-131166487D01*
X181184251Y-131187369D01*
X181177971Y-131190613D01*
X180978238Y-131286798D01*
X180971787Y-131289685D01*
X180931894Y-131306209D01*
X180925291Y-131308729D01*
X180716044Y-131381948D01*
X180709313Y-131384094D01*
X180689299Y-131389860D01*
X180667814Y-131396050D01*
X180660992Y-131397810D01*
X180499307Y-131434714D01*
X180444853Y-131447143D01*
X180437922Y-131448521D01*
X180395349Y-131455755D01*
X180388367Y-131456741D01*
X180263886Y-131470766D01*
X180168052Y-131481563D01*
X180161011Y-131482157D01*
X180101523Y-131485498D01*
X180096123Y-131485685D01*
X180035007Y-131486493D01*
X179958314Y-131487506D01*
X179953903Y-131488197D01*
X179953895Y-131488198D01*
X179939330Y-131490481D01*
X179919822Y-131492000D01*
X177397170Y-131492000D01*
X177329049Y-131471998D01*
X177282556Y-131418342D01*
X177272452Y-131348068D01*
X177301946Y-131283488D01*
X177336479Y-131243635D01*
X177336482Y-131243630D01*
X177342384Y-131236819D01*
X177403100Y-131103870D01*
X177409794Y-131057314D01*
X177423261Y-130963648D01*
X177423262Y-130963641D01*
X177423900Y-130959200D01*
X177423900Y-129259200D01*
X177418673Y-129186121D01*
X177377496Y-129045884D01*
X177319111Y-128955036D01*
X177303349Y-128930509D01*
X177303347Y-128930506D01*
X177298477Y-128922929D01*
X177246987Y-128878312D01*
X177194831Y-128833118D01*
X177194828Y-128833116D01*
X177188019Y-128827216D01*
X177055070Y-128766500D01*
X177046155Y-128765218D01*
X177046154Y-128765218D01*
X176914848Y-128746339D01*
X176914841Y-128746338D01*
X176910400Y-128745700D01*
X176692753Y-128745700D01*
X176624632Y-128725698D01*
X176610998Y-128711548D01*
X179777400Y-128711548D01*
X179777400Y-129291743D01*
X179777561Y-129296250D01*
X179782140Y-129360269D01*
X179784526Y-129373491D01*
X179821219Y-129498458D01*
X179828633Y-129514692D01*
X179897826Y-129622360D01*
X179909512Y-129635847D01*
X180006240Y-129719662D01*
X180021248Y-129729307D01*
X180137675Y-129782477D01*
X180154788Y-129787502D01*
X180285954Y-129806361D01*
X180294895Y-129807000D01*
X180868285Y-129807000D01*
X180883524Y-129802525D01*
X180884729Y-129801135D01*
X180886400Y-129793452D01*
X180886400Y-128716115D01*
X180881925Y-128700876D01*
X180880535Y-128699671D01*
X180872852Y-128698000D01*
X179795515Y-128698000D01*
X179780276Y-128702475D01*
X179779071Y-128703865D01*
X179777400Y-128711548D01*
X176610998Y-128711548D01*
X176584300Y-128683840D01*
X176584023Y-128683372D01*
X176564913Y-128651059D01*
X176564545Y-128650641D01*
X176550462Y-128636558D01*
X176537628Y-128621533D01*
X176525846Y-128605317D01*
X176492064Y-128577370D01*
X176483285Y-128569381D01*
X176157391Y-128243487D01*
X176150031Y-128235399D01*
X176145973Y-128229005D01*
X176097121Y-128183130D01*
X176094280Y-128180376D01*
X176073966Y-128160062D01*
X176070555Y-128157417D01*
X176061533Y-128149711D01*
X176035077Y-128124867D01*
X176029301Y-128119443D01*
X176022357Y-128115626D01*
X176022355Y-128115624D01*
X176011547Y-128109682D01*
X175995023Y-128098828D01*
X175985286Y-128091275D01*
X175985285Y-128091275D01*
X175979023Y-128086417D01*
X175938447Y-128068858D01*
X175927790Y-128063637D01*
X175889048Y-128042338D01*
X175881365Y-128040366D01*
X175881364Y-128040365D01*
X175869432Y-128037301D01*
X175850728Y-128030897D01*
X175839415Y-128026001D01*
X175839408Y-128025999D01*
X175832136Y-128022852D01*
X175824312Y-128021613D01*
X175824309Y-128021612D01*
X175788465Y-128015935D01*
X175776844Y-128013528D01*
X175739782Y-128004013D01*
X175739781Y-128004013D01*
X175734025Y-128002535D01*
X175733469Y-128002500D01*
X175713548Y-128002500D01*
X175693838Y-128000949D01*
X175681886Y-127999056D01*
X175681885Y-127999056D01*
X175674056Y-127997816D01*
X175666164Y-127998562D01*
X175630418Y-128001941D01*
X175618560Y-128002500D01*
X174190594Y-128002500D01*
X174122473Y-127982498D01*
X174101499Y-127965595D01*
X172297405Y-126161501D01*
X172263379Y-126099189D01*
X172260500Y-126072406D01*
X172260500Y-123670973D01*
X172280502Y-123602852D01*
X172334158Y-123556359D01*
X172404432Y-123546256D01*
X172422541Y-123548860D01*
X172422556Y-123548861D01*
X172427000Y-123549500D01*
X173577000Y-123549500D01*
X173650079Y-123544273D01*
X173728165Y-123521345D01*
X173781670Y-123505635D01*
X173781672Y-123505634D01*
X173790316Y-123503096D01*
X173859640Y-123458544D01*
X173905691Y-123428949D01*
X173905694Y-123428947D01*
X173913271Y-123424077D01*
X173928470Y-123406537D01*
X174003082Y-123320431D01*
X174003084Y-123320428D01*
X174008984Y-123313619D01*
X174042346Y-123240566D01*
X174065958Y-123188864D01*
X174065958Y-123188863D01*
X174069700Y-123180670D01*
X174073438Y-123154672D01*
X174089861Y-123040448D01*
X174089862Y-123040441D01*
X174090500Y-123036000D01*
X174090500Y-122968012D01*
X174110502Y-122899891D01*
X174170118Y-122850860D01*
X174183600Y-122845522D01*
X174219368Y-122819535D01*
X174229291Y-122813016D01*
X174245624Y-122803357D01*
X174267341Y-122790514D01*
X174267759Y-122790145D01*
X174281842Y-122776062D01*
X174296867Y-122763228D01*
X174313083Y-122751446D01*
X174341030Y-122717664D01*
X174349019Y-122708885D01*
X174660869Y-122397035D01*
X174701147Y-122372355D01*
X174700322Y-122370501D01*
X174868755Y-122295510D01*
X174868757Y-122295509D01*
X174874785Y-122292825D01*
X174880127Y-122288944D01*
X175023942Y-122184457D01*
X175023944Y-122184455D01*
X175029286Y-122180574D01*
X175092880Y-122109946D01*
X175153324Y-122072708D01*
X175224308Y-122074060D01*
X175237755Y-122079148D01*
X175371713Y-122138790D01*
X175455304Y-122156558D01*
X175552056Y-122177124D01*
X175552061Y-122177124D01*
X175558513Y-122178496D01*
X175749487Y-122178496D01*
X175755939Y-122177124D01*
X175755944Y-122177124D01*
X175852696Y-122156558D01*
X175936287Y-122138790D01*
X175992941Y-122113566D01*
X176104720Y-122063799D01*
X176104722Y-122063798D01*
X176110750Y-122061114D01*
X176120649Y-122053922D01*
X176259907Y-121952746D01*
X176259909Y-121952744D01*
X176265251Y-121948863D01*
X176393037Y-121806942D01*
X176488524Y-121641554D01*
X176513043Y-121566093D01*
X176545498Y-121466206D01*
X176545498Y-121466205D01*
X176547538Y-121459927D01*
X176567500Y-121270000D01*
X176547538Y-121080073D01*
X176535166Y-121041994D01*
X176490566Y-120904731D01*
X176488524Y-120898446D01*
X176393037Y-120733058D01*
X176321171Y-120653242D01*
X176269673Y-120596048D01*
X176269672Y-120596047D01*
X176265251Y-120591137D01*
X176259909Y-120587256D01*
X176259907Y-120587254D01*
X176116092Y-120482767D01*
X176116091Y-120482766D01*
X176110750Y-120478886D01*
X176104722Y-120476202D01*
X176104720Y-120476201D01*
X175942318Y-120403895D01*
X175942317Y-120403895D01*
X175936287Y-120401210D01*
X175842887Y-120381357D01*
X175755944Y-120362876D01*
X175755939Y-120362876D01*
X175749487Y-120361504D01*
X175693598Y-120361504D01*
X175625477Y-120341502D01*
X175604503Y-120324599D01*
X174088392Y-118808488D01*
X174081032Y-118800400D01*
X174076974Y-118794006D01*
X174028122Y-118748131D01*
X174025281Y-118745377D01*
X174004967Y-118725063D01*
X174001556Y-118722418D01*
X173992534Y-118714712D01*
X173960958Y-118685060D01*
X173924992Y-118623847D01*
X173927831Y-118552907D01*
X173951986Y-118510698D01*
X173966082Y-118494430D01*
X173971984Y-118487619D01*
X174001350Y-118423316D01*
X174028958Y-118362864D01*
X174028958Y-118362863D01*
X174032700Y-118354670D01*
X174036224Y-118330162D01*
X174052861Y-118214448D01*
X174052862Y-118214441D01*
X174053500Y-118210000D01*
X174053500Y-118160592D01*
X174073502Y-118092471D01*
X174127550Y-118046575D01*
X174129578Y-118045986D01*
X174136403Y-118041950D01*
X174136407Y-118041948D01*
X174147011Y-118035677D01*
X174164762Y-118026981D01*
X174176226Y-118022442D01*
X174176229Y-118022440D01*
X174183600Y-118019522D01*
X174219368Y-117993535D01*
X174229291Y-117987016D01*
X174267341Y-117964514D01*
X174267759Y-117964145D01*
X174281842Y-117950062D01*
X174296867Y-117937228D01*
X174313083Y-117925446D01*
X174341030Y-117891664D01*
X174349019Y-117882885D01*
X174522513Y-117709391D01*
X174530601Y-117702031D01*
X174536995Y-117697973D01*
X174582876Y-117649115D01*
X174585624Y-117646280D01*
X174605938Y-117625966D01*
X174608583Y-117622555D01*
X174616289Y-117613533D01*
X174641133Y-117587077D01*
X174646557Y-117581301D01*
X174650376Y-117574355D01*
X174656318Y-117563547D01*
X174667172Y-117547023D01*
X174674725Y-117537286D01*
X174674725Y-117537285D01*
X174679583Y-117531023D01*
X174697142Y-117490447D01*
X174702363Y-117479790D01*
X174723662Y-117441048D01*
X174726614Y-117429552D01*
X174728699Y-117421432D01*
X174735103Y-117402728D01*
X174739999Y-117391415D01*
X174740001Y-117391408D01*
X174743148Y-117384136D01*
X174748242Y-117351978D01*
X174750065Y-117340465D01*
X174752472Y-117328844D01*
X174761987Y-117291782D01*
X174761987Y-117291781D01*
X174763465Y-117286025D01*
X174763500Y-117285469D01*
X174763500Y-117265548D01*
X174765051Y-117245838D01*
X174766944Y-117233886D01*
X174766944Y-117233885D01*
X174768184Y-117226056D01*
X174764059Y-117182417D01*
X174763500Y-117170560D01*
X174763500Y-116892519D01*
X174783502Y-116824398D01*
X174795864Y-116808209D01*
X174864618Y-116731850D01*
X174864619Y-116731849D01*
X174869037Y-116726942D01*
X174964524Y-116561554D01*
X175023538Y-116379927D01*
X175030147Y-116317051D01*
X175042810Y-116196565D01*
X175043500Y-116190000D01*
X175023538Y-116000073D01*
X174964524Y-115818446D01*
X174869037Y-115653058D01*
X174741251Y-115511137D01*
X174735909Y-115507256D01*
X174735907Y-115507254D01*
X174592092Y-115402767D01*
X174592091Y-115402766D01*
X174586750Y-115398886D01*
X174580722Y-115396202D01*
X174580720Y-115396201D01*
X174418318Y-115323895D01*
X174418317Y-115323895D01*
X174412287Y-115321210D01*
X174318887Y-115301357D01*
X174231944Y-115282876D01*
X174231939Y-115282876D01*
X174225487Y-115281504D01*
X174034513Y-115281504D01*
X174028061Y-115282876D01*
X174028056Y-115282876D01*
X173941113Y-115301357D01*
X173847713Y-115321210D01*
X173841683Y-115323895D01*
X173841682Y-115323895D01*
X173679280Y-115396201D01*
X173679278Y-115396202D01*
X173673250Y-115398886D01*
X173667909Y-115402766D01*
X173667908Y-115402767D01*
X173524093Y-115507254D01*
X173524091Y-115507256D01*
X173518749Y-115511137D01*
X173390963Y-115653058D01*
X173295476Y-115818446D01*
X173236462Y-116000073D01*
X173235772Y-116006637D01*
X173235772Y-116006638D01*
X173227676Y-116083670D01*
X173200663Y-116149327D01*
X173142442Y-116189957D01*
X173102366Y-116196500D01*
X172390000Y-116196500D01*
X172387487Y-116196701D01*
X172387486Y-116196701D01*
X172315391Y-116202466D01*
X172315389Y-116202466D01*
X172308391Y-116203026D01*
X172281042Y-116211558D01*
X172225587Y-116215994D01*
X172094448Y-116197139D01*
X172094441Y-116197138D01*
X172090000Y-116196500D01*
X171090000Y-116196500D01*
X171016921Y-116201727D01*
X170968332Y-116215994D01*
X170885330Y-116240365D01*
X170885328Y-116240366D01*
X170876684Y-116242904D01*
X170869105Y-116247775D01*
X170761309Y-116317051D01*
X170761306Y-116317053D01*
X170753729Y-116321923D01*
X170747828Y-116328733D01*
X170663918Y-116425569D01*
X170663916Y-116425572D01*
X170658016Y-116432381D01*
X170654272Y-116440579D01*
X170602988Y-116552876D01*
X170597300Y-116565330D01*
X170576500Y-116710000D01*
X170576500Y-116710449D01*
X170552047Y-116776009D01*
X170495211Y-116818556D01*
X170451179Y-116826500D01*
X169636396Y-116826500D01*
X169625482Y-116825986D01*
X169618089Y-116824333D01*
X169610164Y-116824582D01*
X169610163Y-116824582D01*
X169551116Y-116826438D01*
X169547158Y-116826500D01*
X169518422Y-116826500D01*
X169514151Y-116827039D01*
X169502322Y-116827971D01*
X169458117Y-116829361D01*
X169450501Y-116831574D01*
X169450499Y-116831574D01*
X169438661Y-116835013D01*
X169419302Y-116839022D01*
X169407079Y-116840566D01*
X169407078Y-116840566D01*
X169399212Y-116841560D01*
X169391836Y-116844480D01*
X169391837Y-116844480D01*
X169358111Y-116857832D01*
X169346882Y-116861677D01*
X169312035Y-116871801D01*
X169312034Y-116871802D01*
X169304422Y-116874013D01*
X169297599Y-116878048D01*
X169286983Y-116884326D01*
X169269231Y-116893022D01*
X169250400Y-116900478D01*
X169239056Y-116908720D01*
X169214629Y-116926467D01*
X169204711Y-116932982D01*
X169166659Y-116955486D01*
X169166241Y-116955855D01*
X169152158Y-116969938D01*
X169137133Y-116982772D01*
X169120917Y-116994554D01*
X169097685Y-117022637D01*
X169092971Y-117028335D01*
X169084981Y-117037115D01*
X168901463Y-117220633D01*
X168839151Y-117254659D01*
X168768336Y-117249594D01*
X168711500Y-117207047D01*
X168687058Y-117144708D01*
X168674228Y-117022638D01*
X168674228Y-117022637D01*
X168673538Y-117016073D01*
X168648576Y-116939246D01*
X168626602Y-116871619D01*
X168614524Y-116834446D01*
X168610191Y-116826940D01*
X168567176Y-116752437D01*
X168519037Y-116669058D01*
X168455136Y-116598088D01*
X168395673Y-116532048D01*
X168395672Y-116532047D01*
X168391251Y-116527137D01*
X168385909Y-116523256D01*
X168385907Y-116523254D01*
X168242092Y-116418767D01*
X168242091Y-116418766D01*
X168236750Y-116414886D01*
X168230722Y-116412202D01*
X168230720Y-116412201D01*
X168068318Y-116339895D01*
X168068317Y-116339895D01*
X168062287Y-116337210D01*
X167967447Y-116317051D01*
X167881944Y-116298876D01*
X167881939Y-116298876D01*
X167875487Y-116297504D01*
X167684513Y-116297504D01*
X167678061Y-116298876D01*
X167678056Y-116298876D01*
X167592553Y-116317051D01*
X167497713Y-116337210D01*
X167491683Y-116339895D01*
X167491682Y-116339895D01*
X167329280Y-116412201D01*
X167329278Y-116412202D01*
X167323250Y-116414886D01*
X167317909Y-116418766D01*
X167317908Y-116418767D01*
X167174093Y-116523254D01*
X167174091Y-116523256D01*
X167168749Y-116527137D01*
X167164328Y-116532047D01*
X167164327Y-116532048D01*
X167104865Y-116598088D01*
X167040963Y-116669058D01*
X166992824Y-116752437D01*
X166949810Y-116826940D01*
X166945476Y-116834446D01*
X166933398Y-116871619D01*
X166911425Y-116939246D01*
X166886462Y-117016073D01*
X166885772Y-117022636D01*
X166885772Y-117022637D01*
X166869094Y-117181317D01*
X166838299Y-117251470D01*
X166835864Y-117254232D01*
X166833061Y-117257035D01*
X166830416Y-117260446D01*
X166822710Y-117269468D01*
X166798013Y-117295768D01*
X166792442Y-117301700D01*
X166788625Y-117308644D01*
X166788623Y-117308646D01*
X166782681Y-117319454D01*
X166771827Y-117335978D01*
X166759416Y-117351978D01*
X166756269Y-117359249D01*
X166756269Y-117359250D01*
X166741858Y-117392552D01*
X166736637Y-117403208D01*
X166715337Y-117441953D01*
X166713365Y-117449636D01*
X166713364Y-117449637D01*
X166710300Y-117461569D01*
X166703896Y-117480273D01*
X166699000Y-117491586D01*
X166698998Y-117491593D01*
X166695851Y-117498865D01*
X166694612Y-117506689D01*
X166694611Y-117506692D01*
X166688934Y-117542536D01*
X166686527Y-117554157D01*
X166677012Y-117591219D01*
X166675534Y-117596976D01*
X166675499Y-117597532D01*
X166675499Y-117617453D01*
X166673948Y-117637163D01*
X166670815Y-117656945D01*
X166671561Y-117664837D01*
X166674940Y-117700583D01*
X166675499Y-117712441D01*
X166675499Y-118328126D01*
X166655497Y-118396247D01*
X166601841Y-118442740D01*
X166531567Y-118452844D01*
X166466987Y-118423350D01*
X166455863Y-118412436D01*
X166455427Y-118411951D01*
X166359251Y-118305137D01*
X166353909Y-118301256D01*
X166353907Y-118301254D01*
X166210092Y-118196767D01*
X166210091Y-118196766D01*
X166204750Y-118192886D01*
X166198722Y-118190202D01*
X166198720Y-118190201D01*
X166036318Y-118117895D01*
X166036317Y-118117895D01*
X166030287Y-118115210D01*
X165923310Y-118092471D01*
X165849944Y-118076876D01*
X165849939Y-118076876D01*
X165843487Y-118075504D01*
X165652513Y-118075504D01*
X165646061Y-118076876D01*
X165646056Y-118076876D01*
X165572690Y-118092471D01*
X165465713Y-118115210D01*
X165459683Y-118117895D01*
X165459682Y-118117895D01*
X165297280Y-118190201D01*
X165297278Y-118190202D01*
X165291250Y-118192886D01*
X165285909Y-118196766D01*
X165285908Y-118196767D01*
X165142093Y-118301254D01*
X165142091Y-118301256D01*
X165136749Y-118305137D01*
X165132328Y-118310047D01*
X165132327Y-118310048D01*
X165095136Y-118351353D01*
X165034690Y-118388593D01*
X164963707Y-118387241D01*
X164904722Y-118347728D01*
X164876464Y-118282597D01*
X164875500Y-118267043D01*
X164875500Y-118106989D01*
X164895502Y-118038868D01*
X164907864Y-118022678D01*
X164908077Y-118022442D01*
X164931037Y-117996942D01*
X164965517Y-117937221D01*
X165023220Y-117837277D01*
X165023221Y-117837276D01*
X165026524Y-117831554D01*
X165076240Y-117678544D01*
X165083498Y-117656206D01*
X165083498Y-117656205D01*
X165085538Y-117649927D01*
X165105500Y-117460000D01*
X165098411Y-117392552D01*
X165086228Y-117276637D01*
X165086228Y-117276636D01*
X165085538Y-117270073D01*
X165082408Y-117260438D01*
X165028566Y-117094731D01*
X165026524Y-117088446D01*
X165015500Y-117069351D01*
X164934340Y-116928779D01*
X164931037Y-116923058D01*
X164907864Y-116897322D01*
X164877147Y-116833314D01*
X164875500Y-116813011D01*
X164875500Y-114788747D01*
X164875792Y-114780177D01*
X164877895Y-114749330D01*
X164879556Y-114724966D01*
X164868980Y-114664365D01*
X164868017Y-114657841D01*
X164861539Y-114604316D01*
X164860626Y-114596770D01*
X164857940Y-114589661D01*
X164856730Y-114584736D01*
X164853880Y-114574321D01*
X164852420Y-114569484D01*
X164851114Y-114562001D01*
X164848063Y-114555051D01*
X164848061Y-114555044D01*
X164826385Y-114505664D01*
X164823893Y-114499559D01*
X164804836Y-114449126D01*
X164804835Y-114449124D01*
X164802151Y-114442021D01*
X164797848Y-114435761D01*
X164795481Y-114431233D01*
X164790246Y-114421828D01*
X164787673Y-114417477D01*
X164784621Y-114410524D01*
X164779999Y-114404501D01*
X164779997Y-114404497D01*
X164747156Y-114361697D01*
X164743280Y-114356363D01*
X164708451Y-114305687D01*
X164663931Y-114266021D01*
X164658656Y-114261041D01*
X163892813Y-113495198D01*
X163858787Y-113432886D01*
X163856598Y-113419273D01*
X163848228Y-113339638D01*
X163848228Y-113339637D01*
X163847538Y-113333073D01*
X163788524Y-113151446D01*
X163693037Y-112986058D01*
X163594963Y-112877135D01*
X163569673Y-112849048D01*
X163569672Y-112849047D01*
X163565251Y-112844137D01*
X163559909Y-112840256D01*
X163559907Y-112840254D01*
X163416092Y-112735767D01*
X163416091Y-112735766D01*
X163410750Y-112731886D01*
X163404722Y-112729202D01*
X163404720Y-112729201D01*
X163242318Y-112656895D01*
X163242317Y-112656895D01*
X163236287Y-112654210D01*
X163142887Y-112634357D01*
X163055944Y-112615876D01*
X163055939Y-112615876D01*
X163049487Y-112614504D01*
X162858513Y-112614504D01*
X162852061Y-112615876D01*
X162852056Y-112615876D01*
X162765113Y-112634357D01*
X162671713Y-112654210D01*
X162665683Y-112656895D01*
X162665682Y-112656895D01*
X162503280Y-112729201D01*
X162503278Y-112729202D01*
X162497250Y-112731886D01*
X162491909Y-112735766D01*
X162491908Y-112735767D01*
X162348093Y-112840254D01*
X162348091Y-112840256D01*
X162342749Y-112844137D01*
X162338328Y-112849047D01*
X162338327Y-112849048D01*
X162313038Y-112877135D01*
X162214963Y-112986058D01*
X162119476Y-113151446D01*
X162060462Y-113333073D01*
X162040500Y-113523000D01*
X162041190Y-113529565D01*
X162053397Y-113645703D01*
X162060462Y-113712927D01*
X162119476Y-113894554D01*
X162214963Y-114059942D01*
X162342749Y-114201863D01*
X162348091Y-114205744D01*
X162348093Y-114205746D01*
X162478691Y-114300630D01*
X162497250Y-114314114D01*
X162503278Y-114316798D01*
X162503280Y-114316799D01*
X162665682Y-114389105D01*
X162671713Y-114391790D01*
X162858513Y-114431496D01*
X162858445Y-114431815D01*
X162920772Y-114457454D01*
X162931045Y-114466660D01*
X163471595Y-115007210D01*
X163505621Y-115069522D01*
X163508500Y-115096305D01*
X163508500Y-116070500D01*
X163488498Y-116138621D01*
X163434842Y-116185114D01*
X163382500Y-116196500D01*
X162267000Y-116196500D01*
X162264487Y-116196701D01*
X162264486Y-116196701D01*
X162192391Y-116202466D01*
X162192389Y-116202466D01*
X162185391Y-116203026D01*
X162158042Y-116211558D01*
X162102587Y-116215994D01*
X161971448Y-116197139D01*
X161971441Y-116197138D01*
X161967000Y-116196500D01*
X160967000Y-116196500D01*
X160893921Y-116201727D01*
X160845332Y-116215994D01*
X160762330Y-116240365D01*
X160762328Y-116240366D01*
X160753684Y-116242904D01*
X160746105Y-116247775D01*
X160638309Y-116317051D01*
X160638306Y-116317053D01*
X160630729Y-116321923D01*
X160624828Y-116328733D01*
X160540918Y-116425569D01*
X160540916Y-116425572D01*
X160535016Y-116432381D01*
X160531272Y-116440578D01*
X160531270Y-116440582D01*
X160505500Y-116497010D01*
X160459007Y-116550665D01*
X160390886Y-116570667D01*
X160364690Y-116567914D01*
X160293944Y-116552876D01*
X160293939Y-116552876D01*
X160287487Y-116551504D01*
X160096513Y-116551504D01*
X160090061Y-116552876D01*
X160090056Y-116552876D01*
X160006359Y-116570667D01*
X159909713Y-116591210D01*
X159903683Y-116593895D01*
X159903682Y-116593895D01*
X159741280Y-116666201D01*
X159741278Y-116666202D01*
X159735250Y-116668886D01*
X159655342Y-116726942D01*
X159620251Y-116752437D01*
X159546191Y-116776500D01*
X159425747Y-116776500D01*
X159417177Y-116776208D01*
X159414258Y-116776009D01*
X159361966Y-116772444D01*
X159354489Y-116773749D01*
X159354486Y-116773749D01*
X159301365Y-116783020D01*
X159294841Y-116783983D01*
X159270015Y-116786988D01*
X159233770Y-116791374D01*
X159226661Y-116794060D01*
X159221736Y-116795270D01*
X159211321Y-116798120D01*
X159206484Y-116799580D01*
X159199001Y-116800886D01*
X159192051Y-116803937D01*
X159192044Y-116803939D01*
X159142664Y-116825615D01*
X159136559Y-116828107D01*
X159086126Y-116847164D01*
X159086124Y-116847165D01*
X159079021Y-116849849D01*
X159072761Y-116854152D01*
X159068233Y-116856519D01*
X159058828Y-116861754D01*
X159054477Y-116864327D01*
X159047524Y-116867379D01*
X159041501Y-116872001D01*
X159041497Y-116872003D01*
X158998697Y-116904844D01*
X158993372Y-116908713D01*
X158942687Y-116943549D01*
X158937630Y-116949225D01*
X158903022Y-116988068D01*
X158898041Y-116993344D01*
X157714331Y-118177054D01*
X157708065Y-118182908D01*
X157666355Y-118219294D01*
X157642104Y-118253799D01*
X157630983Y-118269623D01*
X157627050Y-118274918D01*
X157589092Y-118323328D01*
X157585968Y-118330247D01*
X157583378Y-118334523D01*
X157577967Y-118344010D01*
X157575599Y-118348427D01*
X157571233Y-118354639D01*
X157558522Y-118387241D01*
X157548888Y-118411951D01*
X157546332Y-118418032D01*
X157521016Y-118474100D01*
X157519632Y-118481568D01*
X157518114Y-118486412D01*
X157515155Y-118496798D01*
X157513898Y-118501694D01*
X157511140Y-118508767D01*
X157510149Y-118516297D01*
X157510148Y-118516300D01*
X157503110Y-118569765D01*
X157502078Y-118576282D01*
X157495375Y-118612446D01*
X157490869Y-118636759D01*
X157491306Y-118644339D01*
X157491306Y-118644340D01*
X157494301Y-118696279D01*
X157494510Y-118703532D01*
X157494510Y-121692932D01*
X157474508Y-121761053D01*
X157462147Y-121777242D01*
X157438973Y-121802979D01*
X157435670Y-121808700D01*
X157354747Y-121948863D01*
X157343486Y-121968367D01*
X157329871Y-122010271D01*
X157287667Y-122140162D01*
X157284472Y-122149994D01*
X157283782Y-122156557D01*
X157283782Y-122156558D01*
X157281557Y-122177729D01*
X157264510Y-122339921D01*
X157284472Y-122529848D01*
X157286512Y-122536126D01*
X157286512Y-122536127D01*
X157289317Y-122544759D01*
X157343486Y-122711475D01*
X157346789Y-122717197D01*
X157346790Y-122717198D01*
X157376250Y-122768224D01*
X157438973Y-122876863D01*
X157443391Y-122881770D01*
X157443392Y-122881771D01*
X157466103Y-122906994D01*
X157566759Y-123018784D01*
X157572101Y-123022665D01*
X157572103Y-123022667D01*
X157691040Y-123109079D01*
X157721260Y-123131035D01*
X157727288Y-123133719D01*
X157727290Y-123133720D01*
X157851146Y-123188864D01*
X157895723Y-123208711D01*
X158082523Y-123248417D01*
X158082455Y-123248736D01*
X158144782Y-123274375D01*
X158155055Y-123283581D01*
X159894153Y-125022679D01*
X159900007Y-125028945D01*
X159936393Y-125070655D01*
X159942607Y-125075022D01*
X159986722Y-125106027D01*
X159992017Y-125109960D01*
X160040427Y-125147918D01*
X160047346Y-125151042D01*
X160051622Y-125153632D01*
X160061109Y-125159043D01*
X160065526Y-125161411D01*
X160071738Y-125165777D01*
X160114970Y-125182633D01*
X160116466Y-125183216D01*
X160164333Y-125216299D01*
X160183749Y-125237863D01*
X160189091Y-125241744D01*
X160189093Y-125241746D01*
X160260959Y-125293959D01*
X160338250Y-125350114D01*
X160344278Y-125352798D01*
X160344280Y-125352799D01*
X160506682Y-125425105D01*
X160512713Y-125427790D01*
X160606113Y-125447643D01*
X160693056Y-125466124D01*
X160693061Y-125466124D01*
X160699513Y-125467496D01*
X160890487Y-125467496D01*
X160896939Y-125466124D01*
X160896944Y-125466124D01*
X160983887Y-125447643D01*
X161077287Y-125427790D01*
X161083318Y-125425105D01*
X161245720Y-125352799D01*
X161245722Y-125352798D01*
X161251750Y-125350114D01*
X161329041Y-125293959D01*
X161400907Y-125241746D01*
X161400909Y-125241744D01*
X161406251Y-125237863D01*
X161425667Y-125216299D01*
X161529618Y-125100850D01*
X161529619Y-125100849D01*
X161534037Y-125095942D01*
X161613545Y-124958230D01*
X161626220Y-124936277D01*
X161626221Y-124936276D01*
X161629524Y-124930554D01*
X161680126Y-124774817D01*
X161686498Y-124755206D01*
X161686498Y-124755205D01*
X161688538Y-124748927D01*
X161708500Y-124559000D01*
X161688538Y-124369073D01*
X161629524Y-124187446D01*
X161534037Y-124022058D01*
X161406251Y-123880137D01*
X161400909Y-123876256D01*
X161400907Y-123876254D01*
X161257092Y-123771767D01*
X161257091Y-123771766D01*
X161251750Y-123767886D01*
X161245722Y-123765202D01*
X161245720Y-123765201D01*
X161083318Y-123692895D01*
X161083317Y-123692895D01*
X161077287Y-123690210D01*
X160970183Y-123667444D01*
X160896944Y-123651876D01*
X160896939Y-123651876D01*
X160890487Y-123650504D01*
X160699513Y-123650504D01*
X160693061Y-123651876D01*
X160693056Y-123651876D01*
X160564950Y-123679106D01*
X160494159Y-123673704D01*
X160449658Y-123644954D01*
X159116823Y-122312119D01*
X159082797Y-122249807D01*
X159080608Y-122236194D01*
X159074400Y-122177124D01*
X159071548Y-122149994D01*
X159068354Y-122140162D01*
X159026149Y-122010271D01*
X159012534Y-121968367D01*
X159001274Y-121948863D01*
X158920350Y-121808700D01*
X158917047Y-121802979D01*
X158893874Y-121777243D01*
X158863157Y-121713235D01*
X158861510Y-121692932D01*
X158861510Y-119015295D01*
X158881512Y-118947174D01*
X158898415Y-118926200D01*
X159565471Y-118259144D01*
X159627783Y-118225118D01*
X159698598Y-118230183D01*
X159728618Y-118246296D01*
X159729906Y-118247232D01*
X159729910Y-118247234D01*
X159735250Y-118251114D01*
X159741278Y-118253798D01*
X159741280Y-118253799D01*
X159884025Y-118317353D01*
X159909713Y-118328790D01*
X159998808Y-118347728D01*
X160090056Y-118367124D01*
X160090061Y-118367124D01*
X160096513Y-118368496D01*
X160287487Y-118368496D01*
X160293939Y-118367124D01*
X160293944Y-118367124D01*
X160360738Y-118352926D01*
X160431529Y-118358328D01*
X160488161Y-118401145D01*
X160498576Y-118418794D01*
X160499904Y-118423316D01*
X160504774Y-118430893D01*
X160504774Y-118430894D01*
X160574051Y-118538691D01*
X160574053Y-118538694D01*
X160578923Y-118546271D01*
X160585733Y-118552172D01*
X160682569Y-118636082D01*
X160682572Y-118636084D01*
X160689381Y-118641984D01*
X160697579Y-118645728D01*
X160710039Y-118651418D01*
X160822330Y-118702700D01*
X160831245Y-118703982D01*
X160831246Y-118703982D01*
X160962552Y-118722861D01*
X160962559Y-118722862D01*
X160967000Y-118723500D01*
X161967000Y-118723500D01*
X161968962Y-118723376D01*
X161968970Y-118723376D01*
X161987252Y-118722223D01*
X162031528Y-118719430D01*
X162077214Y-118706845D01*
X162128605Y-118703602D01*
X162226708Y-118717707D01*
X162262555Y-118722861D01*
X162262556Y-118722861D01*
X162267000Y-118723500D01*
X163382500Y-118723500D01*
X163450621Y-118743502D01*
X163497114Y-118797158D01*
X163508500Y-118849500D01*
X163508500Y-120733124D01*
X163488498Y-120801245D01*
X163434842Y-120847738D01*
X163364568Y-120857842D01*
X163308439Y-120835060D01*
X163166745Y-120732114D01*
X163166744Y-120732113D01*
X163161403Y-120728233D01*
X163155375Y-120725549D01*
X163155373Y-120725548D01*
X162992971Y-120653242D01*
X162992970Y-120653242D01*
X162986940Y-120650557D01*
X162893540Y-120630704D01*
X162806597Y-120612223D01*
X162806592Y-120612223D01*
X162800140Y-120610851D01*
X162609166Y-120610851D01*
X162602714Y-120612223D01*
X162602709Y-120612223D01*
X162515766Y-120630704D01*
X162422366Y-120650557D01*
X162416336Y-120653242D01*
X162416335Y-120653242D01*
X162253933Y-120725548D01*
X162253931Y-120725549D01*
X162247903Y-120728233D01*
X162242562Y-120732113D01*
X162242561Y-120732114D01*
X162098746Y-120836601D01*
X162098744Y-120836603D01*
X162093402Y-120840484D01*
X162086871Y-120847738D01*
X162081717Y-120853462D01*
X162021272Y-120890703D01*
X161988080Y-120895153D01*
X161371541Y-120895153D01*
X161303420Y-120875151D01*
X161284196Y-120858811D01*
X161283922Y-120859115D01*
X161279019Y-120854700D01*
X161274598Y-120849790D01*
X161269256Y-120845909D01*
X161269254Y-120845907D01*
X161125439Y-120741420D01*
X161125438Y-120741419D01*
X161120097Y-120737539D01*
X161114069Y-120734855D01*
X161114067Y-120734854D01*
X160951665Y-120662548D01*
X160951664Y-120662548D01*
X160945634Y-120659863D01*
X160840233Y-120637459D01*
X160765291Y-120621529D01*
X160765286Y-120621529D01*
X160758834Y-120620157D01*
X160567860Y-120620157D01*
X160561408Y-120621529D01*
X160561403Y-120621529D01*
X160486461Y-120637459D01*
X160381060Y-120659863D01*
X160375030Y-120662548D01*
X160375029Y-120662548D01*
X160212627Y-120734854D01*
X160212625Y-120734855D01*
X160206597Y-120737539D01*
X160201256Y-120741419D01*
X160201255Y-120741420D01*
X160057440Y-120845907D01*
X160057438Y-120845909D01*
X160052096Y-120849790D01*
X160047675Y-120854700D01*
X160047674Y-120854701D01*
X159948569Y-120964769D01*
X159924310Y-120991711D01*
X159901271Y-121031616D01*
X159836934Y-121143051D01*
X159828823Y-121157099D01*
X159769809Y-121338726D01*
X159749847Y-121528653D01*
X159769809Y-121718580D01*
X159828823Y-121900207D01*
X159924310Y-122065595D01*
X159928728Y-122070502D01*
X159928729Y-122070503D01*
X160040390Y-122194515D01*
X160052096Y-122207516D01*
X160057438Y-122211397D01*
X160057440Y-122211399D01*
X160189505Y-122307349D01*
X160206597Y-122319767D01*
X160212625Y-122322451D01*
X160212627Y-122322452D01*
X160360158Y-122388137D01*
X160381060Y-122397443D01*
X160474460Y-122417296D01*
X160561403Y-122435777D01*
X160561408Y-122435777D01*
X160567860Y-122437149D01*
X160758834Y-122437149D01*
X160765286Y-122435777D01*
X160765291Y-122435777D01*
X160852234Y-122417296D01*
X160945634Y-122397443D01*
X160966536Y-122388137D01*
X161114067Y-122322452D01*
X161114069Y-122322451D01*
X161120097Y-122319767D01*
X161137189Y-122307349D01*
X161269254Y-122211399D01*
X161269256Y-122211397D01*
X161274598Y-122207516D01*
X161279020Y-122202605D01*
X161283922Y-122198191D01*
X161285048Y-122199442D01*
X161338347Y-122166604D01*
X161371541Y-122162153D01*
X162006021Y-122162153D01*
X162074142Y-122182155D01*
X162089514Y-122193892D01*
X162093402Y-122198210D01*
X162098744Y-122202091D01*
X162098746Y-122202093D01*
X162234446Y-122300684D01*
X162247903Y-122310461D01*
X162253931Y-122313145D01*
X162253933Y-122313146D01*
X162400150Y-122378246D01*
X162422366Y-122388137D01*
X162515766Y-122407990D01*
X162602709Y-122426471D01*
X162602714Y-122426471D01*
X162609166Y-122427843D01*
X162800140Y-122427843D01*
X162806592Y-122426471D01*
X162806597Y-122426471D01*
X162893540Y-122407990D01*
X162986940Y-122388137D01*
X163009156Y-122378246D01*
X163155373Y-122313146D01*
X163155375Y-122313145D01*
X163161403Y-122310461D01*
X163174860Y-122300684D01*
X163308439Y-122203634D01*
X163375307Y-122179775D01*
X163444459Y-122195856D01*
X163493939Y-122246770D01*
X163508500Y-122305570D01*
X163508500Y-124766248D01*
X163508208Y-124774817D01*
X163507543Y-124784579D01*
X163504444Y-124830033D01*
X163505749Y-124837510D01*
X163505749Y-124837512D01*
X163515021Y-124890636D01*
X163515983Y-124897158D01*
X163523374Y-124958230D01*
X163526058Y-124965334D01*
X163527260Y-124970227D01*
X163530124Y-124980694D01*
X163531581Y-124985519D01*
X163532886Y-124992998D01*
X163535938Y-124999951D01*
X163535939Y-124999954D01*
X163557612Y-125049330D01*
X163560103Y-125055433D01*
X163579162Y-125105869D01*
X163581849Y-125112979D01*
X163586155Y-125119244D01*
X163588504Y-125123737D01*
X163593754Y-125133170D01*
X163596324Y-125137516D01*
X163599379Y-125144475D01*
X163604006Y-125150505D01*
X163636831Y-125193285D01*
X163640707Y-125198620D01*
X163671242Y-125243048D01*
X163671247Y-125243054D01*
X163675549Y-125249313D01*
X163681223Y-125254368D01*
X163720068Y-125288978D01*
X163725344Y-125293959D01*
X166981630Y-128550245D01*
X167015656Y-128612557D01*
X167010591Y-128683372D01*
X166968044Y-128740208D01*
X166901524Y-128765019D01*
X166874603Y-128764057D01*
X166754859Y-128746840D01*
X166745905Y-128746200D01*
X166172515Y-128746200D01*
X166157276Y-128750675D01*
X166156071Y-128752065D01*
X166154400Y-128759748D01*
X166154400Y-129837085D01*
X166158875Y-129852324D01*
X166160265Y-129853529D01*
X166167948Y-129855200D01*
X168568400Y-129855200D01*
X168636521Y-129875202D01*
X168683014Y-129928858D01*
X168694400Y-129981200D01*
X168694400Y-130237200D01*
X168674398Y-130305321D01*
X168620742Y-130351814D01*
X168568400Y-130363200D01*
X164555515Y-130363200D01*
X164540276Y-130367675D01*
X164539071Y-130369065D01*
X164537400Y-130376748D01*
X164537400Y-130956943D01*
X164537561Y-130961450D01*
X164542140Y-131025469D01*
X164544526Y-131038691D01*
X164581219Y-131163658D01*
X164588633Y-131179892D01*
X164662700Y-131295144D01*
X164660318Y-131296675D01*
X164683790Y-131348062D01*
X164673689Y-131418336D01*
X164627199Y-131471994D01*
X164559073Y-131492000D01*
X154811176Y-131492000D01*
X154743055Y-131471998D01*
X154696562Y-131418342D01*
X154686458Y-131348068D01*
X154715952Y-131283488D01*
X154739176Y-131262598D01*
X154762842Y-131246119D01*
X154765865Y-131244014D01*
X154768615Y-131241577D01*
X154768621Y-131241572D01*
X155012864Y-131025103D01*
X155015616Y-131022664D01*
X155237837Y-130773687D01*
X155429491Y-130500484D01*
X155453002Y-130456912D01*
X155586213Y-130210027D01*
X155587962Y-130206786D01*
X155596908Y-130184250D01*
X155709723Y-129900034D01*
X155709723Y-129900033D01*
X155711084Y-129896605D01*
X155766528Y-129688961D01*
X155796224Y-129577748D01*
X155796225Y-129577744D01*
X155797177Y-129574178D01*
X155842195Y-129263695D01*
X164537400Y-129263695D01*
X164537400Y-129837085D01*
X164541875Y-129852324D01*
X164543265Y-129853529D01*
X164550948Y-129855200D01*
X165628285Y-129855200D01*
X165643524Y-129850725D01*
X165644729Y-129849335D01*
X165646400Y-129841652D01*
X165646400Y-128764315D01*
X165641925Y-128749076D01*
X165640535Y-128747871D01*
X165632852Y-128746200D01*
X165052657Y-128746200D01*
X165048150Y-128746361D01*
X164984131Y-128750940D01*
X164970909Y-128753326D01*
X164845942Y-128790019D01*
X164829708Y-128797433D01*
X164722040Y-128866626D01*
X164708553Y-128878312D01*
X164624738Y-128975040D01*
X164615093Y-128990048D01*
X164561923Y-129106475D01*
X164556898Y-129123588D01*
X164538039Y-129254754D01*
X164537400Y-129263695D01*
X155842195Y-129263695D01*
X155843173Y-129256950D01*
X155844606Y-129247068D01*
X155844606Y-129247065D01*
X155845064Y-129243908D01*
X155855500Y-129000000D01*
X155835999Y-128666847D01*
X155827967Y-128621525D01*
X155778404Y-128341865D01*
X155778403Y-128341861D01*
X155777762Y-128338244D01*
X155688704Y-128042338D01*
X155682645Y-128022205D01*
X155682644Y-128022204D01*
X155681584Y-128018680D01*
X155548779Y-127712519D01*
X155381161Y-127423944D01*
X155300107Y-127315793D01*
X155209105Y-127194370D01*
X155181020Y-127156896D01*
X154951088Y-126915022D01*
X154948256Y-126912666D01*
X154948251Y-126912662D01*
X154697344Y-126703985D01*
X154694508Y-126701626D01*
X154654757Y-126675762D01*
X154417867Y-126521630D01*
X154417864Y-126521628D01*
X154414782Y-126519623D01*
X154411484Y-126517990D01*
X154411478Y-126517986D01*
X154119039Y-126373135D01*
X154119032Y-126373132D01*
X154115733Y-126371498D01*
X154112261Y-126370258D01*
X154112258Y-126370257D01*
X153804922Y-126260518D01*
X153801444Y-126259276D01*
X153734287Y-126243833D01*
X153479798Y-126185313D01*
X153479789Y-126185312D01*
X153476208Y-126184488D01*
X153472551Y-126184087D01*
X153472548Y-126184087D01*
X153148139Y-126148559D01*
X153148138Y-126148559D01*
X153144468Y-126148157D01*
X153140775Y-126148186D01*
X152814442Y-126150749D01*
X152814441Y-126150749D01*
X152810755Y-126150778D01*
X152807096Y-126151237D01*
X152483283Y-126191857D01*
X152483279Y-126191858D01*
X152479626Y-126192316D01*
X152476055Y-126193196D01*
X152476052Y-126193197D01*
X152159181Y-126271321D01*
X152159172Y-126271324D01*
X152155606Y-126272203D01*
X152152155Y-126273497D01*
X152152154Y-126273497D01*
X151886367Y-126373135D01*
X151843118Y-126389348D01*
X151839842Y-126391035D01*
X151839838Y-126391037D01*
X151762550Y-126430843D01*
X151546432Y-126542151D01*
X151269600Y-126728525D01*
X151016403Y-126945925D01*
X150790299Y-127191381D01*
X150762487Y-127229731D01*
X150736001Y-127266253D01*
X150679816Y-127309656D01*
X150609085Y-127315793D01*
X150546265Y-127282716D01*
X150511299Y-127220927D01*
X150508000Y-127192281D01*
X150508000Y-122977647D01*
X154766093Y-122977647D01*
X154767536Y-122984319D01*
X154767536Y-122984323D01*
X154799837Y-123133720D01*
X154804367Y-123154672D01*
X154879762Y-123319348D01*
X154988760Y-123463993D01*
X154993939Y-123468432D01*
X154993940Y-123468433D01*
X155088335Y-123549339D01*
X155126275Y-123581858D01*
X155132290Y-123585083D01*
X155132294Y-123585086D01*
X155279877Y-123664219D01*
X155285892Y-123667444D01*
X155373028Y-123692101D01*
X155453596Y-123714900D01*
X155453601Y-123714901D01*
X155460164Y-123716758D01*
X155466973Y-123717163D01*
X155466976Y-123717163D01*
X155603982Y-123725302D01*
X155640961Y-123727499D01*
X155720507Y-123714900D01*
X155813112Y-123700233D01*
X155813116Y-123700232D01*
X155819846Y-123699166D01*
X155826192Y-123696679D01*
X155826196Y-123696678D01*
X155982119Y-123635573D01*
X155982123Y-123635571D01*
X155988474Y-123633082D01*
X156138977Y-123532328D01*
X156167010Y-123503096D01*
X156259608Y-123406537D01*
X156259611Y-123406533D01*
X156264335Y-123401607D01*
X156358697Y-123247016D01*
X156384612Y-123171754D01*
X156415440Y-123082225D01*
X156415441Y-123082222D01*
X156417663Y-123075768D01*
X156438480Y-122895854D01*
X156438500Y-122890000D01*
X156418940Y-122709944D01*
X156410414Y-122684609D01*
X156363349Y-122544759D01*
X156363347Y-122544754D01*
X156361171Y-122538289D01*
X156267890Y-122383044D01*
X156143449Y-122251450D01*
X156121001Y-122236194D01*
X156039158Y-122180574D01*
X155993652Y-122149648D01*
X155825489Y-122082388D01*
X155818762Y-122081274D01*
X155818757Y-122081273D01*
X155653544Y-122053922D01*
X155653540Y-122053922D01*
X155646806Y-122052807D01*
X155639989Y-122053164D01*
X155639985Y-122053164D01*
X155491905Y-122060925D01*
X155465940Y-122062286D01*
X155459367Y-122064097D01*
X155459364Y-122064097D01*
X155357301Y-122092210D01*
X155291328Y-122110382D01*
X155131117Y-122194852D01*
X154992782Y-122311754D01*
X154988639Y-122317173D01*
X154988637Y-122317175D01*
X154911401Y-122418195D01*
X154882777Y-122455634D01*
X154879894Y-122461817D01*
X154879892Y-122461820D01*
X154809115Y-122613603D01*
X154806235Y-122619780D01*
X154804749Y-122626428D01*
X154804748Y-122626431D01*
X154784564Y-122716729D01*
X154766726Y-122796533D01*
X154766702Y-122803356D01*
X154766702Y-122803357D01*
X154766571Y-122840861D01*
X154766093Y-122977647D01*
X150508000Y-122977647D01*
X150508000Y-117197647D01*
X154766093Y-117197647D01*
X154767536Y-117204319D01*
X154767536Y-117204323D01*
X154787307Y-117295768D01*
X154804367Y-117374672D01*
X154879762Y-117539348D01*
X154988760Y-117683993D01*
X154993939Y-117688432D01*
X154993940Y-117688433D01*
X155072918Y-117756125D01*
X155126275Y-117801858D01*
X155132290Y-117805083D01*
X155132294Y-117805086D01*
X155279877Y-117884219D01*
X155285892Y-117887444D01*
X155373028Y-117912101D01*
X155453596Y-117934900D01*
X155453601Y-117934901D01*
X155460164Y-117936758D01*
X155466973Y-117937163D01*
X155466976Y-117937163D01*
X155603982Y-117945302D01*
X155640961Y-117947499D01*
X155720507Y-117934900D01*
X155813112Y-117920233D01*
X155813116Y-117920232D01*
X155819846Y-117919166D01*
X155826192Y-117916679D01*
X155826196Y-117916678D01*
X155982119Y-117855573D01*
X155982123Y-117855571D01*
X155988474Y-117853082D01*
X156138977Y-117752328D01*
X156177228Y-117712441D01*
X156259608Y-117626537D01*
X156259611Y-117626533D01*
X156264335Y-117621607D01*
X156334479Y-117506692D01*
X156355144Y-117472837D01*
X156355144Y-117472836D01*
X156358697Y-117467016D01*
X156369719Y-117435006D01*
X156415440Y-117302225D01*
X156415441Y-117302222D01*
X156417663Y-117295768D01*
X156438480Y-117115854D01*
X156438500Y-117110000D01*
X156418940Y-116929944D01*
X156414971Y-116918150D01*
X156363349Y-116764759D01*
X156363347Y-116764754D01*
X156361171Y-116758289D01*
X156267890Y-116603044D01*
X156143449Y-116471450D01*
X155993652Y-116369648D01*
X155825489Y-116302388D01*
X155818762Y-116301274D01*
X155818757Y-116301273D01*
X155653544Y-116273922D01*
X155653540Y-116273922D01*
X155646806Y-116272807D01*
X155639989Y-116273164D01*
X155639985Y-116273164D01*
X155491905Y-116280925D01*
X155465940Y-116282286D01*
X155459367Y-116284097D01*
X155459364Y-116284097D01*
X155339726Y-116317051D01*
X155291328Y-116330382D01*
X155131117Y-116414852D01*
X154992782Y-116531754D01*
X154988639Y-116537173D01*
X154988637Y-116537175D01*
X154894470Y-116660340D01*
X154882777Y-116675634D01*
X154879894Y-116681817D01*
X154879892Y-116681820D01*
X154811093Y-116829361D01*
X154806235Y-116839780D01*
X154804749Y-116846428D01*
X154804748Y-116846431D01*
X154801407Y-116861378D01*
X154766726Y-117016533D01*
X154766093Y-117197647D01*
X150508000Y-117197647D01*
X150508000Y-111081849D01*
X150509767Y-111060821D01*
X150511639Y-111049762D01*
X150511639Y-111049761D01*
X150512451Y-111044964D01*
X150514314Y-110903891D01*
X150514501Y-110898492D01*
X150517843Y-110838982D01*
X150518437Y-110831940D01*
X150520666Y-110812162D01*
X150543257Y-110611651D01*
X150544245Y-110604651D01*
X150551477Y-110562089D01*
X150552856Y-110555158D01*
X150602190Y-110339011D01*
X150603956Y-110332167D01*
X150615909Y-110290678D01*
X150618055Y-110283945D01*
X150691267Y-110074716D01*
X150693787Y-110068113D01*
X150710314Y-110028213D01*
X150713201Y-110021762D01*
X150726422Y-109994308D01*
X150809404Y-109821995D01*
X150812620Y-109815768D01*
X150833522Y-109777950D01*
X150837099Y-109771886D01*
X150847012Y-109756111D01*
X150955060Y-109584154D01*
X150958983Y-109578283D01*
X150983959Y-109543083D01*
X150988194Y-109537454D01*
X151126430Y-109364112D01*
X151130985Y-109358717D01*
X151159769Y-109326507D01*
X151164626Y-109321371D01*
X151321378Y-109164619D01*
X151326515Y-109159762D01*
X151358713Y-109130989D01*
X151364111Y-109126430D01*
X151537443Y-108988202D01*
X151543067Y-108983971D01*
X151578291Y-108958978D01*
X151584168Y-108955051D01*
X151771888Y-108837099D01*
X151777975Y-108833508D01*
X151815743Y-108812634D01*
X151822023Y-108809390D01*
X152021772Y-108713196D01*
X152028204Y-108710318D01*
X152036388Y-108706928D01*
X152068106Y-108693791D01*
X152074705Y-108691272D01*
X152167654Y-108658747D01*
X152283971Y-108618045D01*
X152290671Y-108615910D01*
X152311436Y-108609928D01*
X152332187Y-108603950D01*
X152339029Y-108602185D01*
X152555142Y-108552859D01*
X152562072Y-108551480D01*
X152604658Y-108544244D01*
X152611658Y-108543256D01*
X152831947Y-108518437D01*
X152838989Y-108517843D01*
X152898477Y-108514502D01*
X152903877Y-108514315D01*
X152963954Y-108513521D01*
X153041687Y-108512494D01*
X153046098Y-108511803D01*
X153046106Y-108511802D01*
X153060671Y-108509519D01*
X153080179Y-108508000D01*
X178186270Y-108508000D01*
X178254391Y-108528002D01*
G37*
%TD.AperFunction*%
%TD*%
M02*
