G04 #@! TF.GenerationSoftware,KiCad,Pcbnew,(5.99.0-9568-gb9d26a55f2)*
G04 #@! TF.CreationDate,2021-03-08T10:56:08+01:00*
G04 #@! TF.ProjectId,ESP-Hiro,4553502d-4869-4726-9f2e-6b696361645f,rev?*
G04 #@! TF.SameCoordinates,PX5f5e100PY7bfa480*
G04 #@! TF.FileFunction,Soldermask,Top*
G04 #@! TF.FilePolarity,Negative*
%FSLAX46Y46*%
G04 Gerber Fmt 4.6, Leading zero omitted, Abs format (unit mm)*
G04 Created by KiCad (PCBNEW (5.99.0-9568-gb9d26a55f2)) date 2021-03-08 10:56:08*
%MOMM*%
%LPD*%
G01*
G04 APERTURE LIST*
G04 Aperture macros list*
%AMRoundRect*
0 Rectangle with rounded corners*
0 $1 Rounding radius*
0 $2 $3 $4 $5 $6 $7 $8 $9 X,Y pos of 4 corners*
0 Add a 4 corners polygon primitive as box body*
4,1,4,$2,$3,$4,$5,$6,$7,$8,$9,$2,$3,0*
0 Add four circle primitives for the rounded corners*
1,1,$1+$1,$2,$3*
1,1,$1+$1,$4,$5*
1,1,$1+$1,$6,$7*
1,1,$1+$1,$8,$9*
0 Add four rect primitives between the rounded corners*
20,1,$1+$1,$2,$3,$4,$5,0*
20,1,$1+$1,$4,$5,$6,$7,0*
20,1,$1+$1,$6,$7,$8,$9,0*
20,1,$1+$1,$8,$9,$2,$3,0*%
G04 Aperture macros list end*
%ADD10C,0.800000*%
%ADD11C,0.150000*%
%ADD12RoundRect,0.250000X0.650000X-0.325000X0.650000X0.325000X-0.650000X0.325000X-0.650000X-0.325000X0*%
%ADD13RoundRect,0.225000X-0.250000X0.225000X-0.250000X-0.225000X0.250000X-0.225000X0.250000X0.225000X0*%
%ADD14RoundRect,0.225000X0.250000X-0.225000X0.250000X0.225000X-0.250000X0.225000X-0.250000X-0.225000X0*%
%ADD15RoundRect,0.225000X-0.225000X-0.250000X0.225000X-0.250000X0.225000X0.250000X-0.225000X0.250000X0*%
%ADD16R,2.500000X1.800000*%
%ADD17RoundRect,0.225000X-0.225000X-0.675000X0.225000X-0.675000X0.225000X0.675000X-0.225000X0.675000X0*%
%ADD18O,1.600000X1.600000*%
%ADD19C,1.600000*%
%ADD20RoundRect,0.150000X0.587500X0.150000X-0.587500X0.150000X-0.587500X-0.150000X0.587500X-0.150000X0*%
%ADD21RoundRect,0.200000X0.200000X0.275000X-0.200000X0.275000X-0.200000X-0.275000X0.200000X-0.275000X0*%
%ADD22RoundRect,0.200000X0.275000X-0.200000X0.275000X0.200000X-0.275000X0.200000X-0.275000X-0.200000X0*%
%ADD23RoundRect,0.200000X-0.200000X-0.275000X0.200000X-0.275000X0.200000X0.275000X-0.200000X0.275000X0*%
%ADD24RoundRect,0.200000X-0.275000X0.200000X-0.275000X-0.200000X0.275000X-0.200000X0.275000X0.200000X0*%
%ADD25RoundRect,0.150000X0.825000X0.150000X-0.825000X0.150000X-0.825000X-0.150000X0.825000X-0.150000X0*%
%ADD26R,1.700000X1.700000*%
%ADD27O,1.700000X1.700000*%
%ADD28R,2.500000X1.100000*%
%ADD29R,1.100000X2.500000*%
%ADD30RoundRect,0.150000X0.512500X0.150000X-0.512500X0.150000X-0.512500X-0.150000X0.512500X-0.150000X0*%
%ADD31RoundRect,0.250000X0.325000X0.650000X-0.325000X0.650000X-0.325000X-0.650000X0.325000X-0.650000X0*%
%ADD32RoundRect,0.225000X0.225000X0.250000X-0.225000X0.250000X-0.225000X-0.250000X0.225000X-0.250000X0*%
%ADD33R,1.800000X2.500000*%
%ADD34RoundRect,0.062500X0.337500X0.062500X-0.337500X0.062500X-0.337500X-0.062500X0.337500X-0.062500X0*%
%ADD35RoundRect,0.062500X0.062500X0.337500X-0.062500X0.337500X-0.062500X-0.337500X0.062500X-0.337500X0*%
%ADD36R,3.350000X3.350000*%
%ADD37C,0.650000*%
%ADD38R,1.450000X0.600000*%
%ADD39R,1.450000X0.300000*%
%ADD40RoundRect,0.120000X0.480000X-0.780000X0.480000X0.780000X-0.480000X0.780000X-0.480000X-0.780000X0*%
%ADD41RoundRect,0.145000X0.580000X-0.755000X0.580000X0.755000X-0.580000X0.755000X-0.580000X-0.755000X0*%
%ADD42RoundRect,0.249999X-1.550001X0.790001X-1.550001X-0.790001X1.550001X-0.790001X1.550001X0.790001X0*%
%ADD43O,3.600000X2.080000*%
%ADD44R,1.950000X3.000000*%
%ADD45C,5.700000*%
%ADD46RoundRect,0.249999X1.550001X-0.790001X1.550001X0.790001X-1.550001X0.790001X-1.550001X-0.790001X0*%
%ADD47RoundRect,0.100000X-0.637500X-0.100000X0.637500X-0.100000X0.637500X0.100000X-0.637500X0.100000X0*%
%ADD48R,3.500000X3.500000*%
%ADD49RoundRect,0.750000X0.750000X1.000000X-0.750000X1.000000X-0.750000X-1.000000X0.750000X-1.000000X0*%
%ADD50RoundRect,0.875000X0.875000X0.875000X-0.875000X0.875000X-0.875000X-0.875000X0.875000X-0.875000X0*%
%ADD51RoundRect,0.250000X1.500000X0.550000X-1.500000X0.550000X-1.500000X-0.550000X1.500000X-0.550000X0*%
G04 APERTURE END LIST*
D10*
X20833333Y25900000D02*
X28690476Y25900000D01*
X24500000Y27423810D02*
X24500000Y25900000D01*
X24500000Y24757143D02*
X22928571Y19042858D01*
X20833333Y25900000D02*
X20833333Y21709524D01*
X20309523Y18661905D01*
X21880952Y18661905D02*
X28166666Y19423810D01*
X27642857Y20947620D02*
X28690476Y18661905D01*
D11*
X34301200Y48676400D02*
X17334000Y48676400D01*
X17334000Y48676400D02*
X17334000Y43952000D01*
X17334000Y43952000D02*
X34301200Y43952000D01*
X34301200Y43952000D02*
X34301200Y48676400D01*
G36*
X34301200Y43952000D02*
G01*
X17334000Y43952000D01*
X17334000Y48676400D01*
X34301200Y48676400D01*
X34301200Y43952000D01*
G37*
X34301200Y43952000D02*
X17334000Y43952000D01*
X17334000Y48676400D01*
X34301200Y48676400D01*
X34301200Y43952000D01*
D12*
X90959000Y16315000D03*
X90959000Y19265000D03*
X88419000Y16315000D03*
X88419000Y19265000D03*
D13*
X86387000Y16266000D03*
X86387000Y14716000D03*
D14*
X77243000Y14923998D03*
X77243000Y16473998D03*
X86387000Y17777000D03*
X86387000Y19327000D03*
X77243000Y17984998D03*
X77243000Y19534998D03*
X75719000Y17984998D03*
X75719000Y19534998D03*
D12*
X68099000Y18113998D03*
X68099000Y21063998D03*
X70639000Y18113998D03*
X70639000Y21063998D03*
D15*
X31418000Y41158000D03*
X32968000Y41158000D03*
X31418000Y27061000D03*
X32968000Y27061000D03*
D14*
X60260000Y10919000D03*
X60260000Y12469000D03*
X53783000Y10919000D03*
X53783000Y12469000D03*
D16*
X77564000Y12396998D03*
X81564000Y12396998D03*
D17*
X25328600Y47203200D03*
D18*
X30008600Y47203200D03*
D19*
X22388600Y47203200D03*
D17*
X27068600Y47203200D03*
D20*
X11843000Y40970000D03*
X11843000Y42870000D03*
X9968000Y41920000D03*
D21*
X77306000Y21045998D03*
X75656000Y21045998D03*
D22*
X72671000Y17909998D03*
X72671000Y19559998D03*
X74195000Y17909998D03*
X74195000Y19559998D03*
D23*
X72608000Y21045998D03*
X74258000Y21045998D03*
D22*
X61657000Y33157000D03*
X61657000Y34807000D03*
X63181000Y33157000D03*
X63181000Y34807000D03*
D21*
X57656000Y33157000D03*
X56006000Y33157000D03*
X57656000Y31125000D03*
X56006000Y31125000D03*
D23*
X31368000Y37094000D03*
X33018000Y37094000D03*
X31368000Y39126000D03*
X33018000Y39126000D03*
D21*
X57656000Y29093000D03*
X56006000Y29093000D03*
D24*
X19747000Y10741000D03*
X19747000Y9091000D03*
X19747000Y14043000D03*
X19747000Y12393000D03*
D23*
X13816600Y41005600D03*
X15466600Y41005600D03*
X13842000Y36840000D03*
X15492000Y36840000D03*
X13867400Y26730800D03*
X15517400Y26730800D03*
X13867400Y16520000D03*
X15517400Y16520000D03*
X13816600Y10830400D03*
X15466600Y10830400D03*
D21*
X15415800Y42885200D03*
X13765800Y42885200D03*
X15492000Y38618000D03*
X13842000Y38618000D03*
X15517400Y28458000D03*
X13867400Y28458000D03*
X15529600Y18247200D03*
X13879600Y18247200D03*
X15454400Y12506800D03*
X13804400Y12506800D03*
D25*
X84325000Y15221000D03*
X84325000Y16491000D03*
X84325000Y17761000D03*
X84325000Y19031000D03*
X79375000Y19031000D03*
X79375000Y17761000D03*
X79375000Y16491000D03*
X79375000Y15221000D03*
D26*
X77618000Y45600000D03*
D27*
X75078000Y45600000D03*
X72538000Y45600000D03*
X69998000Y45600000D03*
D28*
X37258000Y41100000D03*
X37258000Y39100000D03*
X37258000Y37100000D03*
X37258000Y35100000D03*
X37258000Y33100000D03*
X37258000Y31100000D03*
X37258000Y29100000D03*
X37258000Y27100000D03*
X52658000Y27100000D03*
X52658000Y29100000D03*
X52658000Y31100000D03*
X52658000Y33100000D03*
X52658000Y35100000D03*
X52658000Y37100000D03*
X52658000Y39100000D03*
X52658000Y41100000D03*
D29*
X39948000Y25400000D03*
X41948000Y25400000D03*
X43948000Y25400000D03*
X45948000Y25400000D03*
X47948000Y25400000D03*
X49948000Y25400000D03*
D30*
X58127500Y10744000D03*
X58127500Y11694000D03*
X58127500Y12644000D03*
X55852500Y12644000D03*
X55852500Y10744000D03*
D13*
X90994000Y40663000D03*
X90994000Y39113000D03*
D31*
X81475000Y29601000D03*
X78525000Y29601000D03*
D32*
X90372000Y33919000D03*
X88822000Y33919000D03*
D33*
X84390000Y23650200D03*
X84390000Y27650200D03*
D20*
X75865500Y31191500D03*
X75865500Y33091500D03*
X73990500Y32141500D03*
X75865500Y36334000D03*
X75865500Y38234000D03*
X73990500Y37284000D03*
D22*
X93026000Y44905000D03*
X93026000Y46555000D03*
D21*
X96200000Y30490000D03*
X94550000Y30490000D03*
D24*
X78675000Y36585000D03*
X78675000Y34935000D03*
D21*
X75499000Y29601500D03*
X73849000Y29601500D03*
X75499000Y34744000D03*
X73849000Y34744000D03*
D34*
X86713000Y35750000D03*
X86713000Y36250000D03*
X86713000Y36750000D03*
X86713000Y37250000D03*
X86713000Y37750000D03*
X86713000Y38250000D03*
X86713000Y38750000D03*
D35*
X85763000Y39700000D03*
X85263000Y39700000D03*
X84763000Y39700000D03*
X84263000Y39700000D03*
X83763000Y39700000D03*
X83263000Y39700000D03*
X82763000Y39700000D03*
D34*
X81813000Y38750000D03*
X81813000Y38250000D03*
X81813000Y37750000D03*
X81813000Y37250000D03*
X81813000Y36750000D03*
X81813000Y36250000D03*
X81813000Y35750000D03*
D35*
X82763000Y34800000D03*
X83263000Y34800000D03*
X83763000Y34800000D03*
X84263000Y34800000D03*
X84763000Y34800000D03*
X85263000Y34800000D03*
X85763000Y34800000D03*
D36*
X84263000Y37250000D03*
D37*
X95150000Y34610000D03*
X95150000Y40390000D03*
D38*
X93705000Y34250000D03*
X93705000Y35050000D03*
D39*
X93705000Y36250000D03*
X93705000Y37250000D03*
X93705000Y37750000D03*
X93705000Y38750000D03*
D38*
X93705000Y39950000D03*
X93705000Y40750000D03*
X93705000Y40750000D03*
X93705000Y39950000D03*
D39*
X93705000Y39250000D03*
X93705000Y38250000D03*
X93705000Y36750000D03*
X93705000Y35750000D03*
D38*
X93705000Y35050000D03*
X93705000Y34250000D03*
D40*
X98800000Y32430000D03*
X98800000Y42570000D03*
D41*
X94620000Y32430000D03*
X94620000Y42570000D03*
D42*
X4410000Y7230000D03*
D43*
X4410000Y2150000D03*
D42*
X4410000Y37710000D03*
D43*
X4410000Y32630000D03*
D42*
X4410000Y47870000D03*
D43*
X4410000Y42790000D03*
D42*
X4410000Y27550000D03*
D43*
X4410000Y22470000D03*
D42*
X4410000Y17390000D03*
D43*
X4410000Y12310000D03*
D44*
X73424000Y13218000D03*
X67924000Y13218000D03*
D20*
X11794500Y36779000D03*
X11794500Y38679000D03*
X9919500Y37729000D03*
D26*
X42504000Y4437000D03*
D27*
X45044000Y4437000D03*
X47584000Y4437000D03*
X50124000Y4437000D03*
D15*
X7923000Y14640400D03*
X9473000Y14640400D03*
D45*
X12000000Y47000000D03*
D23*
X25844000Y9662000D03*
X27494000Y9662000D03*
D45*
X97000000Y47000000D03*
D20*
X11870700Y10744000D03*
X11870700Y12644000D03*
X9995700Y11694000D03*
D45*
X12000000Y3000000D03*
D15*
X7923000Y22514400D03*
X9473000Y22514400D03*
D14*
X74484000Y4061000D03*
X74484000Y5611000D03*
D21*
X24446000Y9662000D03*
X22796000Y9662000D03*
D26*
X30312000Y4400000D03*
D27*
X32852000Y4400000D03*
X35392000Y4400000D03*
X37932000Y4400000D03*
D26*
X65426000Y45600000D03*
D27*
X62886000Y45600000D03*
X60346000Y45600000D03*
X57806000Y45600000D03*
D20*
X11794500Y26619000D03*
X11794500Y28519000D03*
X9919500Y27569000D03*
D15*
X9751800Y9001600D03*
X11301800Y9001600D03*
D46*
X95590000Y9950000D03*
D43*
X95590000Y15030000D03*
D15*
X7923000Y32649000D03*
X9473000Y32649000D03*
X88174000Y14547002D03*
X89724000Y14547002D03*
D26*
X18120000Y4400000D03*
D27*
X20660000Y4400000D03*
X23200000Y4400000D03*
X25740000Y4400000D03*
D45*
X97000000Y3000000D03*
D13*
X7885200Y41577400D03*
X7885200Y40027400D03*
D47*
X66033500Y9031000D03*
X66033500Y8381000D03*
X66033500Y7731000D03*
X66033500Y7081000D03*
X66033500Y6431000D03*
X66033500Y5781000D03*
X66033500Y5131000D03*
X66033500Y4481000D03*
X66033500Y3831000D03*
X66033500Y3181000D03*
X71758500Y3181000D03*
X71758500Y3831000D03*
X71758500Y4481000D03*
X71758500Y5131000D03*
X71758500Y5781000D03*
X71758500Y6431000D03*
X71758500Y7081000D03*
X71758500Y7731000D03*
X71758500Y8381000D03*
X71758500Y9031000D03*
D48*
X88700000Y25000000D03*
D49*
X94700000Y25000000D03*
D50*
X91700000Y29700000D03*
D26*
X54690000Y4437000D03*
D27*
X57230000Y4437000D03*
X59770000Y4437000D03*
X62310000Y4437000D03*
D26*
X89810000Y45590000D03*
D27*
X87270000Y45590000D03*
X84730000Y45590000D03*
X82190000Y45590000D03*
D51*
X90900000Y10170000D03*
X85500000Y10170000D03*
D20*
X11794500Y16459000D03*
X11794500Y18359000D03*
X9919500Y17409000D03*
M02*
