M48
; DRILL file {KiCad (5.99.0-9568-gb9d26a55f2)} date 03/07/21 17:31:21
; FORMAT={-:-/ absolute / inch / decimal}
; #@! TF.CreationDate,2021-03-07T17:31:21+01:00
; #@! TF.GenerationSoftware,Kicad,Pcbnew,(5.99.0-9568-gb9d26a55f2)
FMAT,2
INCH
T1C0.0157
T2C0.0236
T3C0.0394
T4C0.0551
T5C0.0256
T6C0.1063
%
G90
G05
T1
X4.3144Y-3.5827
X4.3144Y-3.9777
X4.6244Y-4.8027
X4.6694Y-4.5077
X4.7994Y-3.9727
X4.8081Y-4.8277
X4.8148Y-3.9281
X4.8494Y-3.8777
X4.9044Y-3.8463
X4.9294Y-3.9727
X4.9394Y-3.8177
X5.0544Y-4.8227
X5.0694Y-4.8677
X5.0844Y-3.7677
X5.0844Y-4.0227
X5.1194Y-3.8227
X5.1244Y-3.5277
X5.1494Y-3.4377
X5.1497Y-3.8479
X5.1594Y-4.7877
X5.2194Y-4.7377
X5.2544Y-3.4477
X5.2994Y-3.6177
X5.4944Y-4.0077
X5.5294Y-3.4741
X5.5294Y-3.5377
X5.6144Y-4.2327
X5.6694Y-3.8577
X5.7094Y-3.6477
X5.7494Y-3.8577
X5.9044Y-3.6377
X5.9344Y-3.8127
X5.9594Y-4.6777
X6.0494Y-4.8827
X6.0544Y-4.4777
X6.1344Y-4.0727
X6.1354Y-3.6273
X6.1494Y-3.4877
X6.1744Y-3.7377
X6.1794Y-3.5177
X6.2044Y-3.6577
X6.2644Y-3.7327
X6.2994Y-3.6877
X6.3094Y-4.4777
X6.3694Y-4.6327
X6.4394Y-4.7677
X6.5581Y-4.5877
X6.5829Y-4.752
X6.5992Y-4.9471
X6.5994Y-4.7877
X6.5994Y-4.9077
X6.6381Y-4.9322
X6.6834Y-4.9711
X6.7444Y-4.3477
X6.7794Y-4.2377
X6.8144Y-3.6027
X6.8194Y-4.9177
X6.8271Y-4.9657
X6.9394Y-4.4977
X6.9694Y-3.8527
X6.9744Y-3.7727
X6.9844Y-4.9777
X6.9894Y-3.5727
X7.0044Y-3.6415
X7.0594Y-4.3277
X7.0794Y-3.7777
X7.1994Y-4.5077
X7.2344Y-3.6277
X7.2594Y-4.0377
X7.2594Y-4.1927
X7.3394Y-4.6577
X7.4044Y-3.8327
X7.4144Y-3.6033
X7.4594Y-3.8327
X7.4644Y-3.5427
X7.5444Y-3.2177
X7.5694Y-3.7277
X7.574Y-3.6177
X7.5744Y-3.5577
X7.5745Y-3.6802
X7.5894Y-3.4327
X7.7594Y-3.5677
X7.7594Y-3.7077
T2
X4.3114Y-4.3797
X4.3114Y-4.6057
X4.3274Y-3.3857
X4.5494Y-4.3077
T3
X4.6504Y-4.9449
X4.7504Y-4.9449
X4.8184Y-3.2597
X4.8504Y-4.9449
X4.9504Y-4.9449
X5.1184Y-3.2597
X5.1304Y-4.9449
X5.2304Y-4.9449
X5.3304Y-4.9449
X5.4304Y-4.9449
X5.6104Y-4.9434
X5.7104Y-4.9434
X5.8104Y-4.9434
X5.9104Y-4.9434
X6.0902Y-4.9434
X6.1902Y-4.9434
X6.2128Y-3.3228
X6.2902Y-4.9434
X6.3128Y-3.3228
X6.3902Y-4.9434
X6.4128Y-3.3228
X6.5128Y-3.3228
X6.6928Y-3.3228
X6.7928Y-3.3228
X6.8928Y-3.3228
X6.9928Y-3.3228
X7.1728Y-3.3232
X7.2728Y-3.3232
X7.3728Y-3.3232
X7.4728Y-3.3232
T4
X4.1106Y-3.2335
X4.1106Y-3.4335
X4.1106Y-3.6335
X4.1106Y-3.8335
X4.1106Y-4.0335
X4.1106Y-4.2335
X4.1106Y-4.4335
X4.1106Y-4.6335
X4.1106Y-4.8335
X4.1106Y-5.0335
X7.7004Y-4.5264
X7.7004Y-4.7264
T5
X7.6831Y-3.528
X7.6831Y-3.7555
T6
X4.4094Y-3.2677
X4.4094Y-5.0
X7.7559Y-3.2677
X7.7559Y-5.0
T3
G00X7.4291Y-4.1732
M15
G01X7.4291Y-4.0945
M16
G05
G00X7.5866Y-3.9488
M15
G01X7.5079Y-3.9488
M16
G05
G00X7.6654Y-4.1732
M15
G01X7.6654Y-4.0945
M16
G05
T0
M30
