%TF.GenerationSoftware,KiCad,Pcbnew,(5.99.0-9568-gb9d26a55f2)*%
%TF.CreationDate,2021-03-07T17:32:06+01:00*%
%TF.ProjectId,ESP-Hiro,4553502d-4869-4726-9f2e-6b696361645f,rev?*%
%TF.SameCoordinates,Original*%
%TF.FileFunction,Legend,Bot*%
%TF.FilePolarity,Positive*%
%FSLAX46Y46*%
G04 Gerber Fmt 4.6, Leading zero omitted, Abs format (unit mm)*
G04 Created by KiCad (PCBNEW (5.99.0-9568-gb9d26a55f2)) date 2021-03-07 17:32:06*
%MOMM*%
%LPD*%
G01*
G04 APERTURE LIST*
G04 Aperture macros list*
%AMRoundRect*
0 Rectangle with rounded corners*
0 $1 Rounding radius*
0 $2 $3 $4 $5 $6 $7 $8 $9 X,Y pos of 4 corners*
0 Add a 4 corners polygon primitive as box body*
4,1,4,$2,$3,$4,$5,$6,$7,$8,$9,$2,$3,0*
0 Add four circle primitives for the rounded corners*
1,1,$1+$1,$2,$3*
1,1,$1+$1,$4,$5*
1,1,$1+$1,$6,$7*
1,1,$1+$1,$8,$9*
0 Add four rect primitives between the rounded corners*
20,1,$1+$1,$2,$3,$4,$5,0*
20,1,$1+$1,$4,$5,$6,$7,0*
20,1,$1+$1,$6,$7,$8,$9,0*
20,1,$1+$1,$8,$9,$2,$3,0*%
%AMFreePoly0*
4,1,6,1.000000,0.000000,0.500000,-0.750000,-0.500000,-0.750000,-0.500000,0.750000,0.500000,0.750000,1.000000,0.000000,1.000000,0.000000,$1*%
%AMFreePoly1*
4,1,6,0.500000,-0.750000,-0.650000,-0.750000,-0.150000,0.000000,-0.650000,0.750000,0.500000,0.750000,0.500000,-0.750000,0.500000,-0.750000,$1*%
G04 Aperture macros list end*
%ADD10C,0.400000*%
%ADD11C,0.200000*%
%ADD12C,0.150000*%
%ADD13C,0.120000*%
%ADD14C,0.010000*%
%ADD15O,1.600000X1.600000*%
%ADD16C,1.600000*%
%ADD17O,1.700000X1.700000*%
%ADD18R,1.700000X1.700000*%
%ADD19O,3.600000X2.080000*%
%ADD20RoundRect,0.249999X-1.550001X0.790001X-1.550001X-0.790001X1.550001X-0.790001X1.550001X0.790001X0*%
%ADD21RoundRect,0.249999X1.550001X-0.790001X1.550001X0.790001X-1.550001X0.790001X-1.550001X-0.790001X0*%
%ADD22C,0.650000*%
%ADD23C,5.700000*%
%ADD24R,3.500000X3.500000*%
%ADD25RoundRect,0.750000X0.750000X1.000000X-0.750000X1.000000X-0.750000X-1.000000X0.750000X-1.000000X0*%
%ADD26RoundRect,0.875000X0.875000X0.875000X-0.875000X0.875000X-0.875000X-0.875000X0.875000X-0.875000X0*%
%ADD27FreePoly0,180.000000*%
%ADD28FreePoly1,180.000000*%
%ADD29FreePoly0,270.000000*%
%ADD30FreePoly1,270.000000*%
%ADD31R,1.500000X1.500000*%
%ADD32FreePoly0,0.000000*%
%ADD33C,2.000000*%
%ADD34FreePoly1,0.000000*%
G04 APERTURE END LIST*
D10*
X144666666Y-100417142D02*
X144000000Y-100417142D01*
X143714285Y-101464761D02*
X144666666Y-101464761D01*
X144666666Y-99464761D01*
X143714285Y-99464761D01*
X142952380Y-101369523D02*
X142666666Y-101464761D01*
X142190476Y-101464761D01*
X142000000Y-101369523D01*
X141904761Y-101274285D01*
X141809523Y-101083809D01*
X141809523Y-100893333D01*
X141904761Y-100702857D01*
X142000000Y-100607619D01*
X142190476Y-100512380D01*
X142571428Y-100417142D01*
X142761904Y-100321904D01*
X142857142Y-100226666D01*
X142952380Y-100036190D01*
X142952380Y-99845714D01*
X142857142Y-99655238D01*
X142761904Y-99560000D01*
X142571428Y-99464761D01*
X142095238Y-99464761D01*
X141809523Y-99560000D01*
X140952380Y-101464761D02*
X140952380Y-99464761D01*
X140190476Y-99464761D01*
X140000000Y-99560000D01*
X139904761Y-99655238D01*
X139809523Y-99845714D01*
X139809523Y-100131428D01*
X139904761Y-100321904D01*
X140000000Y-100417142D01*
X140190476Y-100512380D01*
X140952380Y-100512380D01*
X138952380Y-100702857D02*
X137428571Y-100702857D01*
X136476190Y-101464761D02*
X136476190Y-99464761D01*
X136476190Y-100417142D02*
X135333333Y-100417142D01*
X135333333Y-101464761D02*
X135333333Y-99464761D01*
X134380952Y-101464761D02*
X134380952Y-100131428D01*
X134380952Y-99464761D02*
X134476190Y-99560000D01*
X134380952Y-99655238D01*
X134285714Y-99560000D01*
X134380952Y-99464761D01*
X134380952Y-99655238D01*
X133428571Y-101464761D02*
X133428571Y-100131428D01*
X133428571Y-100512380D02*
X133333333Y-100321904D01*
X133238095Y-100226666D01*
X133047619Y-100131428D01*
X132857142Y-100131428D01*
X131904761Y-101464761D02*
X132095238Y-101369523D01*
X132190476Y-101274285D01*
X132285714Y-101083809D01*
X132285714Y-100512380D01*
X132190476Y-100321904D01*
X132095238Y-100226666D01*
X131904761Y-100131428D01*
X131619047Y-100131428D01*
X131428571Y-100226666D01*
X131333333Y-100321904D01*
X131238095Y-100512380D01*
X131238095Y-101083809D01*
X131333333Y-101274285D01*
X131428571Y-101369523D01*
X131619047Y-101464761D01*
X131904761Y-101464761D01*
X153000000Y-102684761D02*
X151857142Y-102684761D01*
X152428571Y-104684761D02*
X152428571Y-102684761D01*
X150333333Y-104684761D02*
X150333333Y-103637142D01*
X150428571Y-103446666D01*
X150619047Y-103351428D01*
X151000000Y-103351428D01*
X151190476Y-103446666D01*
X150333333Y-104589523D02*
X150523809Y-104684761D01*
X151000000Y-104684761D01*
X151190476Y-104589523D01*
X151285714Y-104399047D01*
X151285714Y-104208571D01*
X151190476Y-104018095D01*
X151000000Y-103922857D01*
X150523809Y-103922857D01*
X150333333Y-103827619D01*
X149476190Y-104589523D02*
X149285714Y-104684761D01*
X148904761Y-104684761D01*
X148714285Y-104589523D01*
X148619047Y-104399047D01*
X148619047Y-104303809D01*
X148714285Y-104113333D01*
X148904761Y-104018095D01*
X149190476Y-104018095D01*
X149380952Y-103922857D01*
X149476190Y-103732380D01*
X149476190Y-103637142D01*
X149380952Y-103446666D01*
X149190476Y-103351428D01*
X148904761Y-103351428D01*
X148714285Y-103446666D01*
X147761904Y-104684761D02*
X147761904Y-103351428D01*
X147761904Y-103541904D02*
X147666666Y-103446666D01*
X147476190Y-103351428D01*
X147190476Y-103351428D01*
X147000000Y-103446666D01*
X146904761Y-103637142D01*
X146904761Y-104684761D01*
X146904761Y-103637142D02*
X146809523Y-103446666D01*
X146619047Y-103351428D01*
X146333333Y-103351428D01*
X146142857Y-103446666D01*
X146047619Y-103637142D01*
X146047619Y-104684761D01*
X144809523Y-104684761D02*
X145000000Y-104589523D01*
X145095238Y-104494285D01*
X145190476Y-104303809D01*
X145190476Y-103732380D01*
X145095238Y-103541904D01*
X145000000Y-103446666D01*
X144809523Y-103351428D01*
X144523809Y-103351428D01*
X144333333Y-103446666D01*
X144238095Y-103541904D01*
X144142857Y-103732380D01*
X144142857Y-104303809D01*
X144238095Y-104494285D01*
X144333333Y-104589523D01*
X144523809Y-104684761D01*
X144809523Y-104684761D01*
X143571428Y-103351428D02*
X142809523Y-103351428D01*
X143285714Y-102684761D02*
X143285714Y-104399047D01*
X143190476Y-104589523D01*
X143000000Y-104684761D01*
X142809523Y-104684761D01*
X141285714Y-104684761D02*
X141285714Y-103637142D01*
X141380952Y-103446666D01*
X141571428Y-103351428D01*
X141952380Y-103351428D01*
X142142857Y-103446666D01*
X141285714Y-104589523D02*
X141476190Y-104684761D01*
X141952380Y-104684761D01*
X142142857Y-104589523D01*
X142238095Y-104399047D01*
X142238095Y-104208571D01*
X142142857Y-104018095D01*
X141952380Y-103922857D01*
X141476190Y-103922857D01*
X141285714Y-103827619D01*
X137952380Y-104589523D02*
X138142857Y-104684761D01*
X138523809Y-104684761D01*
X138714285Y-104589523D01*
X138809523Y-104494285D01*
X138904761Y-104303809D01*
X138904761Y-103732380D01*
X138809523Y-103541904D01*
X138714285Y-103446666D01*
X138523809Y-103351428D01*
X138142857Y-103351428D01*
X137952380Y-103446666D01*
X136809523Y-104684761D02*
X137000000Y-104589523D01*
X137095238Y-104494285D01*
X137190476Y-104303809D01*
X137190476Y-103732380D01*
X137095238Y-103541904D01*
X137000000Y-103446666D01*
X136809523Y-103351428D01*
X136523809Y-103351428D01*
X136333333Y-103446666D01*
X136238095Y-103541904D01*
X136142857Y-103732380D01*
X136142857Y-104303809D01*
X136238095Y-104494285D01*
X136333333Y-104589523D01*
X136523809Y-104684761D01*
X136809523Y-104684761D01*
X135285714Y-104684761D02*
X135285714Y-103351428D01*
X135285714Y-103541904D02*
X135190476Y-103446666D01*
X135000000Y-103351428D01*
X134714285Y-103351428D01*
X134523809Y-103446666D01*
X134428571Y-103637142D01*
X134428571Y-104684761D01*
X134428571Y-103637142D02*
X134333333Y-103446666D01*
X134142857Y-103351428D01*
X133857142Y-103351428D01*
X133666666Y-103446666D01*
X133571428Y-103637142D01*
X133571428Y-104684761D01*
X132619047Y-103351428D02*
X132619047Y-105351428D01*
X132619047Y-103446666D02*
X132428571Y-103351428D01*
X132047619Y-103351428D01*
X131857142Y-103446666D01*
X131761904Y-103541904D01*
X131666666Y-103732380D01*
X131666666Y-104303809D01*
X131761904Y-104494285D01*
X131857142Y-104589523D01*
X132047619Y-104684761D01*
X132428571Y-104684761D01*
X132619047Y-104589523D01*
X129952380Y-104684761D02*
X129952380Y-103637142D01*
X130047619Y-103446666D01*
X130238095Y-103351428D01*
X130619047Y-103351428D01*
X130809523Y-103446666D01*
X129952380Y-104589523D02*
X130142857Y-104684761D01*
X130619047Y-104684761D01*
X130809523Y-104589523D01*
X130904761Y-104399047D01*
X130904761Y-104208571D01*
X130809523Y-104018095D01*
X130619047Y-103922857D01*
X130142857Y-103922857D01*
X129952380Y-103827619D01*
X129285714Y-103351428D02*
X128523809Y-103351428D01*
X129000000Y-102684761D02*
X129000000Y-104399047D01*
X128904761Y-104589523D01*
X128714285Y-104684761D01*
X128523809Y-104684761D01*
X127857142Y-104684761D02*
X127857142Y-103351428D01*
X127857142Y-102684761D02*
X127952380Y-102780000D01*
X127857142Y-102875238D01*
X127761904Y-102780000D01*
X127857142Y-102684761D01*
X127857142Y-102875238D01*
X126904761Y-104684761D02*
X126904761Y-102684761D01*
X126904761Y-103446666D02*
X126714285Y-103351428D01*
X126333333Y-103351428D01*
X126142857Y-103446666D01*
X126047619Y-103541904D01*
X125952380Y-103732380D01*
X125952380Y-104303809D01*
X126047619Y-104494285D01*
X126142857Y-104589523D01*
X126333333Y-104684761D01*
X126714285Y-104684761D01*
X126904761Y-104589523D01*
X124809523Y-104684761D02*
X125000000Y-104589523D01*
X125095238Y-104399047D01*
X125095238Y-102684761D01*
X123285714Y-104589523D02*
X123476190Y-104684761D01*
X123857142Y-104684761D01*
X124047619Y-104589523D01*
X124142857Y-104399047D01*
X124142857Y-103637142D01*
X124047619Y-103446666D01*
X123857142Y-103351428D01*
X123476190Y-103351428D01*
X123285714Y-103446666D01*
X123190476Y-103637142D01*
X123190476Y-103827619D01*
X124142857Y-104018095D01*
X153761904Y-107809523D02*
X153571428Y-107904761D01*
X153190476Y-107904761D01*
X153000000Y-107809523D01*
X152904761Y-107619047D01*
X152904761Y-107523809D01*
X153000000Y-107333333D01*
X153190476Y-107238095D01*
X153476190Y-107238095D01*
X153666666Y-107142857D01*
X153761904Y-106952380D01*
X153761904Y-106857142D01*
X153666666Y-106666666D01*
X153476190Y-106571428D01*
X153190476Y-106571428D01*
X153000000Y-106666666D01*
X152047619Y-107904761D02*
X152047619Y-106571428D01*
X152047619Y-106761904D02*
X151952380Y-106666666D01*
X151761904Y-106571428D01*
X151476190Y-106571428D01*
X151285714Y-106666666D01*
X151190476Y-106857142D01*
X151190476Y-107904761D01*
X151190476Y-106857142D02*
X151095238Y-106666666D01*
X150904761Y-106571428D01*
X150619047Y-106571428D01*
X150428571Y-106666666D01*
X150333333Y-106857142D01*
X150333333Y-107904761D01*
X148523809Y-107904761D02*
X148523809Y-106857142D01*
X148619047Y-106666666D01*
X148809523Y-106571428D01*
X149190476Y-106571428D01*
X149380952Y-106666666D01*
X148523809Y-107809523D02*
X148714285Y-107904761D01*
X149190476Y-107904761D01*
X149380952Y-107809523D01*
X149476190Y-107619047D01*
X149476190Y-107428571D01*
X149380952Y-107238095D01*
X149190476Y-107142857D01*
X148714285Y-107142857D01*
X148523809Y-107047619D01*
X147571428Y-107904761D02*
X147571428Y-106571428D01*
X147571428Y-106952380D02*
X147476190Y-106761904D01*
X147380952Y-106666666D01*
X147190476Y-106571428D01*
X147000000Y-106571428D01*
X146619047Y-106571428D02*
X145857142Y-106571428D01*
X146333333Y-105904761D02*
X146333333Y-107619047D01*
X146238095Y-107809523D01*
X146047619Y-107904761D01*
X145857142Y-107904761D01*
X143666666Y-107904761D02*
X143666666Y-105904761D01*
X142809523Y-107904761D02*
X142809523Y-106857142D01*
X142904761Y-106666666D01*
X143095238Y-106571428D01*
X143380952Y-106571428D01*
X143571428Y-106666666D01*
X143666666Y-106761904D01*
X141571428Y-107904761D02*
X141761904Y-107809523D01*
X141857142Y-107714285D01*
X141952380Y-107523809D01*
X141952380Y-106952380D01*
X141857142Y-106761904D01*
X141761904Y-106666666D01*
X141571428Y-106571428D01*
X141285714Y-106571428D01*
X141095238Y-106666666D01*
X141000000Y-106761904D01*
X140904761Y-106952380D01*
X140904761Y-107523809D01*
X141000000Y-107714285D01*
X141095238Y-107809523D01*
X141285714Y-107904761D01*
X141571428Y-107904761D01*
X140047619Y-107904761D02*
X140047619Y-106571428D01*
X140047619Y-106761904D02*
X139952380Y-106666666D01*
X139761904Y-106571428D01*
X139476190Y-106571428D01*
X139285714Y-106666666D01*
X139190476Y-106857142D01*
X139190476Y-107904761D01*
X139190476Y-106857142D02*
X139095238Y-106666666D01*
X138904761Y-106571428D01*
X138619047Y-106571428D01*
X138428571Y-106666666D01*
X138333333Y-106857142D01*
X138333333Y-107904761D01*
X136619047Y-107809523D02*
X136809523Y-107904761D01*
X137190476Y-107904761D01*
X137380952Y-107809523D01*
X137476190Y-107619047D01*
X137476190Y-106857142D01*
X137380952Y-106666666D01*
X137190476Y-106571428D01*
X136809523Y-106571428D01*
X136619047Y-106666666D01*
X136523809Y-106857142D01*
X136523809Y-107047619D01*
X137476190Y-107238095D01*
X133380952Y-107809523D02*
X133571428Y-107904761D01*
X133952380Y-107904761D01*
X134142857Y-107809523D01*
X134238095Y-107619047D01*
X134238095Y-106857142D01*
X134142857Y-106666666D01*
X133952380Y-106571428D01*
X133571428Y-106571428D01*
X133380952Y-106666666D01*
X133285714Y-106857142D01*
X133285714Y-107047619D01*
X134238095Y-107238095D01*
X132619047Y-107904761D02*
X131571428Y-106571428D01*
X132619047Y-106571428D02*
X131571428Y-107904761D01*
X131095238Y-106571428D02*
X130333333Y-106571428D01*
X130809523Y-105904761D02*
X130809523Y-107619047D01*
X130714285Y-107809523D01*
X130523809Y-107904761D01*
X130333333Y-107904761D01*
X128904761Y-107809523D02*
X129095238Y-107904761D01*
X129476190Y-107904761D01*
X129666666Y-107809523D01*
X129761904Y-107619047D01*
X129761904Y-106857142D01*
X129666666Y-106666666D01*
X129476190Y-106571428D01*
X129095238Y-106571428D01*
X128904761Y-106666666D01*
X128809523Y-106857142D01*
X128809523Y-107047619D01*
X129761904Y-107238095D01*
X127952380Y-106571428D02*
X127952380Y-107904761D01*
X127952380Y-106761904D02*
X127857142Y-106666666D01*
X127666666Y-106571428D01*
X127380952Y-106571428D01*
X127190476Y-106666666D01*
X127095238Y-106857142D01*
X127095238Y-107904761D01*
X125285714Y-107904761D02*
X125285714Y-105904761D01*
X125285714Y-107809523D02*
X125476190Y-107904761D01*
X125857142Y-107904761D01*
X126047619Y-107809523D01*
X126142857Y-107714285D01*
X126238095Y-107523809D01*
X126238095Y-106952380D01*
X126142857Y-106761904D01*
X126047619Y-106666666D01*
X125857142Y-106571428D01*
X125476190Y-106571428D01*
X125285714Y-106666666D01*
X123571428Y-107809523D02*
X123761904Y-107904761D01*
X124142857Y-107904761D01*
X124333333Y-107809523D01*
X124428571Y-107619047D01*
X124428571Y-106857142D01*
X124333333Y-106666666D01*
X124142857Y-106571428D01*
X123761904Y-106571428D01*
X123571428Y-106666666D01*
X123476190Y-106857142D01*
X123476190Y-107047619D01*
X124428571Y-107238095D01*
X122619047Y-107904761D02*
X122619047Y-106571428D01*
X122619047Y-106952380D02*
X122523809Y-106761904D01*
X122428571Y-106666666D01*
X122238095Y-106571428D01*
X122047619Y-106571428D01*
X152190476Y-110934285D02*
X152285714Y-111029523D01*
X152571428Y-111124761D01*
X152761904Y-111124761D01*
X153047619Y-111029523D01*
X153238095Y-110839047D01*
X153333333Y-110648571D01*
X153428571Y-110267619D01*
X153428571Y-109981904D01*
X153333333Y-109600952D01*
X153238095Y-109410476D01*
X153047619Y-109220000D01*
X152761904Y-109124761D01*
X152571428Y-109124761D01*
X152285714Y-109220000D01*
X152190476Y-109315238D01*
X151333333Y-111124761D02*
X151333333Y-109124761D01*
X150476190Y-111124761D02*
X150476190Y-110077142D01*
X150571428Y-109886666D01*
X150761904Y-109791428D01*
X151047619Y-109791428D01*
X151238095Y-109886666D01*
X151333333Y-109981904D01*
X149523809Y-111124761D02*
X149523809Y-109791428D01*
X149523809Y-110172380D02*
X149428571Y-109981904D01*
X149333333Y-109886666D01*
X149142857Y-109791428D01*
X148952380Y-109791428D01*
X148285714Y-111124761D02*
X148285714Y-109791428D01*
X148285714Y-109124761D02*
X148380952Y-109220000D01*
X148285714Y-109315238D01*
X148190476Y-109220000D01*
X148285714Y-109124761D01*
X148285714Y-109315238D01*
X147428571Y-111029523D02*
X147238095Y-111124761D01*
X146857142Y-111124761D01*
X146666666Y-111029523D01*
X146571428Y-110839047D01*
X146571428Y-110743809D01*
X146666666Y-110553333D01*
X146857142Y-110458095D01*
X147142857Y-110458095D01*
X147333333Y-110362857D01*
X147428571Y-110172380D01*
X147428571Y-110077142D01*
X147333333Y-109886666D01*
X147142857Y-109791428D01*
X146857142Y-109791428D01*
X146666666Y-109886666D01*
X145714285Y-111124761D02*
X145714285Y-109791428D01*
X145714285Y-109981904D02*
X145619047Y-109886666D01*
X145428571Y-109791428D01*
X145142857Y-109791428D01*
X144952380Y-109886666D01*
X144857142Y-110077142D01*
X144857142Y-111124761D01*
X144857142Y-110077142D02*
X144761904Y-109886666D01*
X144571428Y-109791428D01*
X144285714Y-109791428D01*
X144095238Y-109886666D01*
X144000000Y-110077142D01*
X144000000Y-111124761D01*
X142285714Y-111029523D02*
X142476190Y-111124761D01*
X142857142Y-111124761D01*
X143047619Y-111029523D01*
X143142857Y-110839047D01*
X143142857Y-110077142D01*
X143047619Y-109886666D01*
X142857142Y-109791428D01*
X142476190Y-109791428D01*
X142285714Y-109886666D01*
X142190476Y-110077142D01*
X142190476Y-110267619D01*
X143142857Y-110458095D01*
X141619047Y-109791428D02*
X140857142Y-109791428D01*
X141333333Y-109124761D02*
X141333333Y-110839047D01*
X141238095Y-111029523D01*
X141047619Y-111124761D01*
X140857142Y-111124761D01*
X140476190Y-109791428D02*
X139714285Y-109791428D01*
X140190476Y-109124761D02*
X140190476Y-110839047D01*
X140095238Y-111029523D01*
X139904761Y-111124761D01*
X139714285Y-111124761D01*
X138190476Y-111124761D02*
X138190476Y-110077142D01*
X138285714Y-109886666D01*
X138476190Y-109791428D01*
X138857142Y-109791428D01*
X139047619Y-109886666D01*
X138190476Y-111029523D02*
X138380952Y-111124761D01*
X138857142Y-111124761D01*
X139047619Y-111029523D01*
X139142857Y-110839047D01*
X139142857Y-110648571D01*
X139047619Y-110458095D01*
X138857142Y-110362857D01*
X138380952Y-110362857D01*
X138190476Y-110267619D01*
X136952380Y-111124761D02*
X137142857Y-111029523D01*
X137238095Y-110839047D01*
X137238095Y-109124761D01*
X134761904Y-109315238D02*
X134666666Y-109220000D01*
X134476190Y-109124761D01*
X134000000Y-109124761D01*
X133809523Y-109220000D01*
X133714285Y-109315238D01*
X133619047Y-109505714D01*
X133619047Y-109696190D01*
X133714285Y-109981904D01*
X134857142Y-111124761D01*
X133619047Y-111124761D01*
X132380952Y-109124761D02*
X132190476Y-109124761D01*
X132000000Y-109220000D01*
X131904761Y-109315238D01*
X131809523Y-109505714D01*
X131714285Y-109886666D01*
X131714285Y-110362857D01*
X131809523Y-110743809D01*
X131904761Y-110934285D01*
X132000000Y-111029523D01*
X132190476Y-111124761D01*
X132380952Y-111124761D01*
X132571428Y-111029523D01*
X132666666Y-110934285D01*
X132761904Y-110743809D01*
X132857142Y-110362857D01*
X132857142Y-109886666D01*
X132761904Y-109505714D01*
X132666666Y-109315238D01*
X132571428Y-109220000D01*
X132380952Y-109124761D01*
X130952380Y-109315238D02*
X130857142Y-109220000D01*
X130666666Y-109124761D01*
X130190476Y-109124761D01*
X130000000Y-109220000D01*
X129904761Y-109315238D01*
X129809523Y-109505714D01*
X129809523Y-109696190D01*
X129904761Y-109981904D01*
X131047619Y-111124761D01*
X129809523Y-111124761D01*
X127904761Y-111124761D02*
X129047619Y-111124761D01*
X128476190Y-111124761D02*
X128476190Y-109124761D01*
X128666666Y-109410476D01*
X128857142Y-109600952D01*
X129047619Y-109696190D01*
X127523809Y-111315238D02*
X126000000Y-111315238D01*
X125142857Y-109124761D02*
X124952380Y-109124761D01*
X124761904Y-109220000D01*
X124666666Y-109315238D01*
X124571428Y-109505714D01*
X124476190Y-109886666D01*
X124476190Y-110362857D01*
X124571428Y-110743809D01*
X124666666Y-110934285D01*
X124761904Y-111029523D01*
X124952380Y-111124761D01*
X125142857Y-111124761D01*
X125333333Y-111029523D01*
X125428571Y-110934285D01*
X125523809Y-110743809D01*
X125619047Y-110362857D01*
X125619047Y-109886666D01*
X125523809Y-109505714D01*
X125428571Y-109315238D01*
X125333333Y-109220000D01*
X125142857Y-109124761D01*
X123809523Y-109124761D02*
X122571428Y-109124761D01*
X123238095Y-109886666D01*
X122952380Y-109886666D01*
X122761904Y-109981904D01*
X122666666Y-110077142D01*
X122571428Y-110267619D01*
X122571428Y-110743809D01*
X122666666Y-110934285D01*
X122761904Y-111029523D01*
X122952380Y-111124761D01*
X123523809Y-111124761D01*
X123714285Y-111029523D01*
X123809523Y-110934285D01*
X162714285Y-113011428D02*
X162714285Y-114630476D01*
X162809523Y-114820952D01*
X162904761Y-114916190D01*
X163095238Y-115011428D01*
X163380952Y-115011428D01*
X163571428Y-114916190D01*
X162714285Y-114249523D02*
X162904761Y-114344761D01*
X163285714Y-114344761D01*
X163476190Y-114249523D01*
X163571428Y-114154285D01*
X163666666Y-113963809D01*
X163666666Y-113392380D01*
X163571428Y-113201904D01*
X163476190Y-113106666D01*
X163285714Y-113011428D01*
X162904761Y-113011428D01*
X162714285Y-113106666D01*
X161761904Y-114344761D02*
X161761904Y-113011428D01*
X161761904Y-112344761D02*
X161857142Y-112440000D01*
X161761904Y-112535238D01*
X161666666Y-112440000D01*
X161761904Y-112344761D01*
X161761904Y-112535238D01*
X161095238Y-113011428D02*
X160333333Y-113011428D01*
X160809523Y-112344761D02*
X160809523Y-114059047D01*
X160714285Y-114249523D01*
X160523809Y-114344761D01*
X160333333Y-114344761D01*
X159666666Y-114344761D02*
X159666666Y-112344761D01*
X158809523Y-114344761D02*
X158809523Y-113297142D01*
X158904761Y-113106666D01*
X159095238Y-113011428D01*
X159380952Y-113011428D01*
X159571428Y-113106666D01*
X159666666Y-113201904D01*
X157000000Y-113011428D02*
X157000000Y-114344761D01*
X157857142Y-113011428D02*
X157857142Y-114059047D01*
X157761904Y-114249523D01*
X157571428Y-114344761D01*
X157285714Y-114344761D01*
X157095238Y-114249523D01*
X157000000Y-114154285D01*
X156047619Y-114344761D02*
X156047619Y-112344761D01*
X156047619Y-113106666D02*
X155857142Y-113011428D01*
X155476190Y-113011428D01*
X155285714Y-113106666D01*
X155190476Y-113201904D01*
X155095238Y-113392380D01*
X155095238Y-113963809D01*
X155190476Y-114154285D01*
X155285714Y-114249523D01*
X155476190Y-114344761D01*
X155857142Y-114344761D01*
X156047619Y-114249523D01*
X154238095Y-114154285D02*
X154142857Y-114249523D01*
X154238095Y-114344761D01*
X154333333Y-114249523D01*
X154238095Y-114154285D01*
X154238095Y-114344761D01*
X152428571Y-114249523D02*
X152619047Y-114344761D01*
X153000000Y-114344761D01*
X153190476Y-114249523D01*
X153285714Y-114154285D01*
X153380952Y-113963809D01*
X153380952Y-113392380D01*
X153285714Y-113201904D01*
X153190476Y-113106666D01*
X153000000Y-113011428D01*
X152619047Y-113011428D01*
X152428571Y-113106666D01*
X151285714Y-114344761D02*
X151476190Y-114249523D01*
X151571428Y-114154285D01*
X151666666Y-113963809D01*
X151666666Y-113392380D01*
X151571428Y-113201904D01*
X151476190Y-113106666D01*
X151285714Y-113011428D01*
X151000000Y-113011428D01*
X150809523Y-113106666D01*
X150714285Y-113201904D01*
X150619047Y-113392380D01*
X150619047Y-113963809D01*
X150714285Y-114154285D01*
X150809523Y-114249523D01*
X151000000Y-114344761D01*
X151285714Y-114344761D01*
X149761904Y-114344761D02*
X149761904Y-113011428D01*
X149761904Y-113201904D02*
X149666666Y-113106666D01*
X149476190Y-113011428D01*
X149190476Y-113011428D01*
X149000000Y-113106666D01*
X148904761Y-113297142D01*
X148904761Y-114344761D01*
X148904761Y-113297142D02*
X148809523Y-113106666D01*
X148619047Y-113011428D01*
X148333333Y-113011428D01*
X148142857Y-113106666D01*
X148047619Y-113297142D01*
X148047619Y-114344761D01*
X145666666Y-112249523D02*
X147380952Y-114820952D01*
X143857142Y-114154285D02*
X143952380Y-114249523D01*
X144238095Y-114344761D01*
X144428571Y-114344761D01*
X144714285Y-114249523D01*
X144904761Y-114059047D01*
X145000000Y-113868571D01*
X145095238Y-113487619D01*
X145095238Y-113201904D01*
X145000000Y-112820952D01*
X144904761Y-112630476D01*
X144714285Y-112440000D01*
X144428571Y-112344761D01*
X144238095Y-112344761D01*
X143952380Y-112440000D01*
X143857142Y-112535238D01*
X143000000Y-114344761D02*
X143000000Y-112344761D01*
X142142857Y-114344761D02*
X142142857Y-113297142D01*
X142238095Y-113106666D01*
X142428571Y-113011428D01*
X142714285Y-113011428D01*
X142904761Y-113106666D01*
X143000000Y-113201904D01*
X141190476Y-114344761D02*
X141190476Y-113011428D01*
X141190476Y-113392380D02*
X141095238Y-113201904D01*
X141000000Y-113106666D01*
X140809523Y-113011428D01*
X140619047Y-113011428D01*
X139952380Y-114344761D02*
X139952380Y-113011428D01*
X139952380Y-112344761D02*
X140047619Y-112440000D01*
X139952380Y-112535238D01*
X139857142Y-112440000D01*
X139952380Y-112344761D01*
X139952380Y-112535238D01*
X139095238Y-114249523D02*
X138904761Y-114344761D01*
X138523809Y-114344761D01*
X138333333Y-114249523D01*
X138238095Y-114059047D01*
X138238095Y-113963809D01*
X138333333Y-113773333D01*
X138523809Y-113678095D01*
X138809523Y-113678095D01*
X139000000Y-113582857D01*
X139095238Y-113392380D01*
X139095238Y-113297142D01*
X139000000Y-113106666D01*
X138809523Y-113011428D01*
X138523809Y-113011428D01*
X138333333Y-113106666D01*
X137380952Y-114344761D02*
X137380952Y-113011428D01*
X137380952Y-113201904D02*
X137285714Y-113106666D01*
X137095238Y-113011428D01*
X136809523Y-113011428D01*
X136619047Y-113106666D01*
X136523809Y-113297142D01*
X136523809Y-114344761D01*
X136523809Y-113297142D02*
X136428571Y-113106666D01*
X136238095Y-113011428D01*
X135952380Y-113011428D01*
X135761904Y-113106666D01*
X135666666Y-113297142D01*
X135666666Y-114344761D01*
X133952380Y-114249523D02*
X134142857Y-114344761D01*
X134523809Y-114344761D01*
X134714285Y-114249523D01*
X134809523Y-114059047D01*
X134809523Y-113297142D01*
X134714285Y-113106666D01*
X134523809Y-113011428D01*
X134142857Y-113011428D01*
X133952380Y-113106666D01*
X133857142Y-113297142D01*
X133857142Y-113487619D01*
X134809523Y-113678095D01*
X133285714Y-113011428D02*
X132523809Y-113011428D01*
X133000000Y-112344761D02*
X133000000Y-114059047D01*
X132904761Y-114249523D01*
X132714285Y-114344761D01*
X132523809Y-114344761D01*
X132142857Y-113011428D02*
X131380952Y-113011428D01*
X131857142Y-112344761D02*
X131857142Y-114059047D01*
X131761904Y-114249523D01*
X131571428Y-114344761D01*
X131380952Y-114344761D01*
X129857142Y-114344761D02*
X129857142Y-113297142D01*
X129952380Y-113106666D01*
X130142857Y-113011428D01*
X130523809Y-113011428D01*
X130714285Y-113106666D01*
X129857142Y-114249523D02*
X130047619Y-114344761D01*
X130523809Y-114344761D01*
X130714285Y-114249523D01*
X130809523Y-114059047D01*
X130809523Y-113868571D01*
X130714285Y-113678095D01*
X130523809Y-113582857D01*
X130047619Y-113582857D01*
X129857142Y-113487619D01*
X128619047Y-114344761D02*
X128809523Y-114249523D01*
X128904761Y-114059047D01*
X128904761Y-112344761D01*
X126428571Y-112249523D02*
X128142857Y-114820952D01*
X125761904Y-113297142D02*
X125095238Y-113297142D01*
X124809523Y-114344761D02*
X125761904Y-114344761D01*
X125761904Y-112344761D01*
X124809523Y-112344761D01*
X124047619Y-114249523D02*
X123761904Y-114344761D01*
X123285714Y-114344761D01*
X123095238Y-114249523D01*
X123000000Y-114154285D01*
X122904761Y-113963809D01*
X122904761Y-113773333D01*
X123000000Y-113582857D01*
X123095238Y-113487619D01*
X123285714Y-113392380D01*
X123666666Y-113297142D01*
X123857142Y-113201904D01*
X123952380Y-113106666D01*
X124047619Y-112916190D01*
X124047619Y-112725714D01*
X123952380Y-112535238D01*
X123857142Y-112440000D01*
X123666666Y-112344761D01*
X123190476Y-112344761D01*
X122904761Y-112440000D01*
X122047619Y-114344761D02*
X122047619Y-112344761D01*
X121285714Y-112344761D01*
X121095238Y-112440000D01*
X121000000Y-112535238D01*
X120904761Y-112725714D01*
X120904761Y-113011428D01*
X121000000Y-113201904D01*
X121095238Y-113297142D01*
X121285714Y-113392380D01*
X122047619Y-113392380D01*
X120047619Y-113582857D02*
X118523809Y-113582857D01*
X117571428Y-114344761D02*
X117571428Y-112344761D01*
X117571428Y-113297142D02*
X116428571Y-113297142D01*
X116428571Y-114344761D02*
X116428571Y-112344761D01*
X115476190Y-114344761D02*
X115476190Y-113011428D01*
X115476190Y-112344761D02*
X115571428Y-112440000D01*
X115476190Y-112535238D01*
X115380952Y-112440000D01*
X115476190Y-112344761D01*
X115476190Y-112535238D01*
X114523809Y-114344761D02*
X114523809Y-113011428D01*
X114523809Y-113392380D02*
X114428571Y-113201904D01*
X114333333Y-113106666D01*
X114142857Y-113011428D01*
X113952380Y-113011428D01*
X113000000Y-114344761D02*
X113190476Y-114249523D01*
X113285714Y-114154285D01*
X113380952Y-113963809D01*
X113380952Y-113392380D01*
X113285714Y-113201904D01*
X113190476Y-113106666D01*
X113000000Y-113011428D01*
X112714285Y-113011428D01*
X112523809Y-113106666D01*
X112428571Y-113201904D01*
X112333333Y-113392380D01*
X112333333Y-113963809D01*
X112428571Y-114154285D01*
X112523809Y-114249523D01*
X112714285Y-114344761D01*
X113000000Y-114344761D01*
D11*
X128500000Y-127952380D02*
X128500000Y-128666666D01*
X128547619Y-128809523D01*
X128642857Y-128904761D01*
X128785714Y-128952380D01*
X128880952Y-128952380D01*
X127547619Y-128952380D02*
X128023809Y-128952380D01*
X128023809Y-127952380D01*
X126642857Y-128857142D02*
X126690476Y-128904761D01*
X126833333Y-128952380D01*
X126928571Y-128952380D01*
X127071428Y-128904761D01*
X127166666Y-128809523D01*
X127214285Y-128714285D01*
X127261904Y-128523809D01*
X127261904Y-128380952D01*
X127214285Y-128190476D01*
X127166666Y-128095238D01*
X127071428Y-128000000D01*
X126928571Y-127952380D01*
X126833333Y-127952380D01*
X126690476Y-128000000D01*
X126642857Y-128047619D01*
X125928571Y-127952380D02*
X125928571Y-128666666D01*
X125976190Y-128809523D01*
X126071428Y-128904761D01*
X126214285Y-128952380D01*
X126309523Y-128952380D01*
X124976190Y-128952380D02*
X125452380Y-128952380D01*
X125452380Y-127952380D01*
X124071428Y-128857142D02*
X124119047Y-128904761D01*
X124261904Y-128952380D01*
X124357142Y-128952380D01*
X124500000Y-128904761D01*
X124595238Y-128809523D01*
X124642857Y-128714285D01*
X124690476Y-128523809D01*
X124690476Y-128380952D01*
X124642857Y-128190476D01*
X124595238Y-128095238D01*
X124500000Y-128000000D01*
X124357142Y-127952380D01*
X124261904Y-127952380D01*
X124119047Y-128000000D01*
X124071428Y-128047619D01*
X123357142Y-127952380D02*
X123357142Y-128666666D01*
X123404761Y-128809523D01*
X123500000Y-128904761D01*
X123642857Y-128952380D01*
X123738095Y-128952380D01*
X122404761Y-128952380D02*
X122880952Y-128952380D01*
X122880952Y-127952380D01*
X121500000Y-128857142D02*
X121547619Y-128904761D01*
X121690476Y-128952380D01*
X121785714Y-128952380D01*
X121928571Y-128904761D01*
X122023809Y-128809523D01*
X122071428Y-128714285D01*
X122119047Y-128523809D01*
X122119047Y-128380952D01*
X122071428Y-128190476D01*
X122023809Y-128095238D01*
X121928571Y-128000000D01*
X121785714Y-127952380D01*
X121690476Y-127952380D01*
X121547619Y-128000000D01*
X121500000Y-128047619D01*
X120785714Y-127952380D02*
X120785714Y-128666666D01*
X120833333Y-128809523D01*
X120928571Y-128904761D01*
X121071428Y-128952380D01*
X121166666Y-128952380D01*
X119833333Y-128952380D02*
X120309523Y-128952380D01*
X120309523Y-127952380D01*
X118928571Y-128857142D02*
X118976190Y-128904761D01*
X119119047Y-128952380D01*
X119214285Y-128952380D01*
X119357142Y-128904761D01*
X119452380Y-128809523D01*
X119500000Y-128714285D01*
X119547619Y-128523809D01*
X119547619Y-128380952D01*
X119500000Y-128190476D01*
X119452380Y-128095238D01*
X119357142Y-128000000D01*
X119214285Y-127952380D01*
X119119047Y-127952380D01*
X118976190Y-128000000D01*
X118928571Y-128047619D01*
X192300000Y-111100000D02*
X193570778Y-111100000D01*
X196800000Y-111100000D02*
X194600000Y-111100000D01*
X195100000Y-111100000D02*
G75*
G03*
X195100000Y-111100000I-500000J0D01*
G01*
X194600000Y-111100000D02*
G75*
G03*
X194600000Y-111100000I0J0D01*
G01*
X194900000Y-111100000D02*
G75*
G03*
X194900000Y-111100000I-300000J0D01*
G01*
X194700000Y-111100000D02*
G75*
G03*
X194700000Y-111100000I-100000J0D01*
G01*
X195145667Y-110226932D02*
G75*
G03*
X195100000Y-112000000I-545667J-873068D01*
G01*
X197800000Y-111100000D02*
X197800000Y-111600000D01*
X197800000Y-110600000D02*
X197800000Y-111100000D01*
X197800000Y-111100000D02*
X197800000Y-110600000D01*
X197300000Y-111100000D02*
X197800000Y-111100000D01*
X198800000Y-111100000D02*
G75*
G03*
X198800000Y-111100000I-1000000J0D01*
G01*
X197800000Y-111100000D02*
X198300000Y-111100000D01*
X197800000Y-111100000D02*
X197300000Y-111100000D01*
X191300000Y-111100000D02*
X191800000Y-111100000D01*
X190800000Y-111100000D02*
X191300000Y-111100000D01*
X191300000Y-111100000D02*
X190800000Y-111100000D01*
X192300000Y-111100000D02*
G75*
G03*
X192300000Y-111100000I-1000000J0D01*
G01*
D12*
X131216619Y-85484380D02*
X131549952Y-85008190D01*
X131788047Y-85484380D02*
X131788047Y-84484380D01*
X131407095Y-84484380D01*
X131311857Y-84532000D01*
X131264238Y-84579619D01*
X131216619Y-84674857D01*
X131216619Y-84817714D01*
X131264238Y-84912952D01*
X131311857Y-84960571D01*
X131407095Y-85008190D01*
X131788047Y-85008190D01*
X130835666Y-85436761D02*
X130692809Y-85484380D01*
X130454714Y-85484380D01*
X130359476Y-85436761D01*
X130311857Y-85389142D01*
X130264238Y-85293904D01*
X130264238Y-85198666D01*
X130311857Y-85103428D01*
X130359476Y-85055809D01*
X130454714Y-85008190D01*
X130645190Y-84960571D01*
X130740428Y-84912952D01*
X130788047Y-84865333D01*
X130835666Y-84770095D01*
X130835666Y-84674857D01*
X130788047Y-84579619D01*
X130740428Y-84532000D01*
X130645190Y-84484380D01*
X130407095Y-84484380D01*
X130264238Y-84532000D01*
X129978523Y-84484380D02*
X129407095Y-84484380D01*
X129692809Y-85484380D02*
X129692809Y-84484380D01*
D11*
X129145000Y-84016000D02*
X132193000Y-84016000D01*
X132193000Y-84016000D02*
X132193000Y-85921000D01*
X132193000Y-85921000D02*
X129145000Y-85921000D01*
X129145000Y-85921000D02*
X129145000Y-84016000D01*
X152386000Y-115512000D02*
X149211000Y-115512000D01*
X149211000Y-115512000D02*
X149211000Y-117163000D01*
X149211000Y-117163000D02*
X152386000Y-117163000D01*
X152386000Y-117163000D02*
X152386000Y-115512000D01*
X173976000Y-121608000D02*
X176008000Y-121608000D01*
X176008000Y-121608000D02*
X176008000Y-123132000D01*
X176008000Y-123132000D02*
X173976000Y-123132000D01*
X173976000Y-123132000D02*
X173976000Y-121608000D01*
X173976000Y-118814000D02*
X176135000Y-118814000D01*
X176135000Y-118814000D02*
X176135000Y-120338000D01*
X176135000Y-120338000D02*
X173976000Y-120338000D01*
X173976000Y-120338000D02*
X173976000Y-118814000D01*
X173976000Y-117544000D02*
X176135000Y-117544000D01*
X176135000Y-117544000D02*
X176135000Y-116020000D01*
X176135000Y-116020000D02*
X173976000Y-116020000D01*
X173976000Y-116020000D02*
X173976000Y-117544000D01*
X185850500Y-88842000D02*
X183691500Y-88842000D01*
X183691500Y-88842000D02*
X183691500Y-90493000D01*
X183691500Y-90493000D02*
X185850500Y-90493000D01*
X185850500Y-90493000D02*
X185850500Y-88842000D01*
X196201000Y-107257000D02*
X192899000Y-107257000D01*
X192899000Y-107257000D02*
X192899000Y-108908000D01*
X192899000Y-108908000D02*
X196201000Y-108908000D01*
X196201000Y-108908000D02*
X196201000Y-107257000D01*
X193788000Y-95382500D02*
X188327000Y-95382500D01*
X188327000Y-95382500D02*
X188327000Y-97033500D01*
X188327000Y-97033500D02*
X193788000Y-97033500D01*
X193788000Y-97033500D02*
X193788000Y-95382500D01*
X195693000Y-92779000D02*
X193407000Y-92779000D01*
X193407000Y-92779000D02*
X193407000Y-94176000D01*
X193407000Y-94176000D02*
X195693000Y-94176000D01*
X195693000Y-94176000D02*
X195693000Y-92779000D01*
X195693000Y-90620000D02*
X193407000Y-90620000D01*
X193407000Y-90620000D02*
X193407000Y-92144000D01*
X193407000Y-92144000D02*
X195693000Y-92144000D01*
X195693000Y-92144000D02*
X195693000Y-90620000D01*
X176833500Y-107130000D02*
X176833500Y-108273000D01*
X176833500Y-100589500D02*
X176833500Y-101796000D01*
X178929000Y-101796000D02*
X170166000Y-101796000D01*
X170166000Y-101796000D02*
X170166000Y-107130000D01*
X170166000Y-107130000D02*
X178929000Y-107130000D01*
X178929000Y-107130000D02*
X178929000Y-101796000D01*
D12*
X178357000Y-102473857D02*
X178242714Y-102511952D01*
X178204619Y-102550047D01*
X178166523Y-102626238D01*
X178166523Y-102740523D01*
X178204619Y-102816714D01*
X178242714Y-102854809D01*
X178318904Y-102892904D01*
X178623666Y-102892904D01*
X178623666Y-102092904D01*
X178357000Y-102092904D01*
X178280809Y-102131000D01*
X178242714Y-102169095D01*
X178204619Y-102245285D01*
X178204619Y-102321476D01*
X178242714Y-102397666D01*
X178280809Y-102435761D01*
X178357000Y-102473857D01*
X178623666Y-102473857D01*
X177823666Y-102892904D02*
X177823666Y-102359571D01*
X177823666Y-102511952D02*
X177785571Y-102435761D01*
X177747476Y-102397666D01*
X177671285Y-102359571D01*
X177595095Y-102359571D01*
X177328428Y-102892904D02*
X177328428Y-102359571D01*
X177328428Y-102092904D02*
X177366523Y-102131000D01*
X177328428Y-102169095D01*
X177290333Y-102131000D01*
X177328428Y-102092904D01*
X177328428Y-102169095D01*
X176604619Y-102892904D02*
X176604619Y-102092904D01*
X176604619Y-102854809D02*
X176680809Y-102892904D01*
X176833190Y-102892904D01*
X176909380Y-102854809D01*
X176947476Y-102816714D01*
X176985571Y-102740523D01*
X176985571Y-102511952D01*
X176947476Y-102435761D01*
X176909380Y-102397666D01*
X176833190Y-102359571D01*
X176680809Y-102359571D01*
X176604619Y-102397666D01*
X175880809Y-102359571D02*
X175880809Y-103007190D01*
X175918904Y-103083380D01*
X175957000Y-103121476D01*
X176033190Y-103159571D01*
X176147476Y-103159571D01*
X176223666Y-103121476D01*
X175880809Y-102854809D02*
X175957000Y-102892904D01*
X176109380Y-102892904D01*
X176185571Y-102854809D01*
X176223666Y-102816714D01*
X176261761Y-102740523D01*
X176261761Y-102511952D01*
X176223666Y-102435761D01*
X176185571Y-102397666D01*
X176109380Y-102359571D01*
X175957000Y-102359571D01*
X175880809Y-102397666D01*
X175195095Y-102854809D02*
X175271285Y-102892904D01*
X175423666Y-102892904D01*
X175499857Y-102854809D01*
X175537952Y-102778619D01*
X175537952Y-102473857D01*
X175499857Y-102397666D01*
X175423666Y-102359571D01*
X175271285Y-102359571D01*
X175195095Y-102397666D01*
X175157000Y-102473857D01*
X175157000Y-102550047D01*
X175537952Y-102626238D01*
X174852238Y-102854809D02*
X174776047Y-102892904D01*
X174623666Y-102892904D01*
X174547476Y-102854809D01*
X174509380Y-102778619D01*
X174509380Y-102740523D01*
X174547476Y-102664333D01*
X174623666Y-102626238D01*
X174737952Y-102626238D01*
X174814142Y-102588142D01*
X174852238Y-102511952D01*
X174852238Y-102473857D01*
X174814142Y-102397666D01*
X174737952Y-102359571D01*
X174623666Y-102359571D01*
X174547476Y-102397666D01*
X173214142Y-102892904D02*
X173214142Y-102092904D01*
X173214142Y-102854809D02*
X173290333Y-102892904D01*
X173442714Y-102892904D01*
X173518904Y-102854809D01*
X173557000Y-102816714D01*
X173595095Y-102740523D01*
X173595095Y-102511952D01*
X173557000Y-102435761D01*
X173518904Y-102397666D01*
X173442714Y-102359571D01*
X173290333Y-102359571D01*
X173214142Y-102397666D01*
X172833190Y-102892904D02*
X172833190Y-102359571D01*
X172833190Y-102092904D02*
X172871285Y-102131000D01*
X172833190Y-102169095D01*
X172795095Y-102131000D01*
X172833190Y-102092904D01*
X172833190Y-102169095D01*
X172337952Y-102892904D02*
X172414142Y-102854809D01*
X172452238Y-102816714D01*
X172490333Y-102740523D01*
X172490333Y-102511952D01*
X172452238Y-102435761D01*
X172414142Y-102397666D01*
X172337952Y-102359571D01*
X172223666Y-102359571D01*
X172147476Y-102397666D01*
X172109380Y-102435761D01*
X172071285Y-102511952D01*
X172071285Y-102740523D01*
X172109380Y-102816714D01*
X172147476Y-102854809D01*
X172223666Y-102892904D01*
X172337952Y-102892904D01*
X171385571Y-102892904D02*
X171385571Y-102092904D01*
X171385571Y-102854809D02*
X171461761Y-102892904D01*
X171614142Y-102892904D01*
X171690333Y-102854809D01*
X171728428Y-102816714D01*
X171766523Y-102740523D01*
X171766523Y-102511952D01*
X171728428Y-102435761D01*
X171690333Y-102397666D01*
X171614142Y-102359571D01*
X171461761Y-102359571D01*
X171385571Y-102397666D01*
X170699857Y-102854809D02*
X170776047Y-102892904D01*
X170928428Y-102892904D01*
X171004619Y-102854809D01*
X171042714Y-102778619D01*
X171042714Y-102473857D01*
X171004619Y-102397666D01*
X170928428Y-102359571D01*
X170776047Y-102359571D01*
X170699857Y-102397666D01*
X170661761Y-102473857D01*
X170661761Y-102550047D01*
X171042714Y-102626238D01*
X177423666Y-104180904D02*
X177423666Y-103647571D01*
X177423666Y-103380904D02*
X177461761Y-103419000D01*
X177423666Y-103457095D01*
X177385571Y-103419000D01*
X177423666Y-103380904D01*
X177423666Y-103457095D01*
X177042714Y-103647571D02*
X177042714Y-104180904D01*
X177042714Y-103723761D02*
X177004619Y-103685666D01*
X176928428Y-103647571D01*
X176814142Y-103647571D01*
X176737952Y-103685666D01*
X176699857Y-103761857D01*
X176699857Y-104180904D01*
X175366523Y-104142809D02*
X175442714Y-104180904D01*
X175595095Y-104180904D01*
X175671285Y-104142809D01*
X175709380Y-104104714D01*
X175747476Y-104028523D01*
X175747476Y-103799952D01*
X175709380Y-103723761D01*
X175671285Y-103685666D01*
X175595095Y-103647571D01*
X175442714Y-103647571D01*
X175366523Y-103685666D01*
X174680809Y-104180904D02*
X174680809Y-103761857D01*
X174718904Y-103685666D01*
X174795095Y-103647571D01*
X174947476Y-103647571D01*
X175023666Y-103685666D01*
X174680809Y-104142809D02*
X174757000Y-104180904D01*
X174947476Y-104180904D01*
X175023666Y-104142809D01*
X175061761Y-104066619D01*
X175061761Y-103990428D01*
X175023666Y-103914238D01*
X174947476Y-103876142D01*
X174757000Y-103876142D01*
X174680809Y-103838047D01*
X174337952Y-104142809D02*
X174261761Y-104180904D01*
X174109380Y-104180904D01*
X174033190Y-104142809D01*
X173995095Y-104066619D01*
X173995095Y-104028523D01*
X174033190Y-103952333D01*
X174109380Y-103914238D01*
X174223666Y-103914238D01*
X174299857Y-103876142D01*
X174337952Y-103799952D01*
X174337952Y-103761857D01*
X174299857Y-103685666D01*
X174223666Y-103647571D01*
X174109380Y-103647571D01*
X174033190Y-103685666D01*
X173347476Y-104142809D02*
X173423666Y-104180904D01*
X173576047Y-104180904D01*
X173652238Y-104142809D01*
X173690333Y-104066619D01*
X173690333Y-103761857D01*
X173652238Y-103685666D01*
X173576047Y-103647571D01*
X173423666Y-103647571D01*
X173347476Y-103685666D01*
X173309380Y-103761857D01*
X173309380Y-103838047D01*
X173690333Y-103914238D01*
X172357000Y-103647571D02*
X172357000Y-104180904D01*
X172357000Y-103723761D02*
X172318904Y-103685666D01*
X172242714Y-103647571D01*
X172128428Y-103647571D01*
X172052238Y-103685666D01*
X172014142Y-103761857D01*
X172014142Y-104180904D01*
X171518904Y-104180904D02*
X171595095Y-104142809D01*
X171633190Y-104104714D01*
X171671285Y-104028523D01*
X171671285Y-103799952D01*
X171633190Y-103723761D01*
X171595095Y-103685666D01*
X171518904Y-103647571D01*
X171404619Y-103647571D01*
X171328428Y-103685666D01*
X171290333Y-103723761D01*
X171252238Y-103799952D01*
X171252238Y-104028523D01*
X171290333Y-104104714D01*
X171328428Y-104142809D01*
X171404619Y-104180904D01*
X171518904Y-104180904D01*
X177195095Y-105468904D02*
X177195095Y-104668904D01*
X177004619Y-104668904D01*
X176890333Y-104707000D01*
X176814142Y-104783190D01*
X176776047Y-104859380D01*
X176737952Y-105011761D01*
X176737952Y-105126047D01*
X176776047Y-105278428D01*
X176814142Y-105354619D01*
X176890333Y-105430809D01*
X177004619Y-105468904D01*
X177195095Y-105468904D01*
X175937952Y-105392714D02*
X175976047Y-105430809D01*
X176090333Y-105468904D01*
X176166523Y-105468904D01*
X176280809Y-105430809D01*
X176357000Y-105354619D01*
X176395095Y-105278428D01*
X176433190Y-105126047D01*
X176433190Y-105011761D01*
X176395095Y-104859380D01*
X176357000Y-104783190D01*
X176280809Y-104707000D01*
X176166523Y-104668904D01*
X176090333Y-104668904D01*
X175976047Y-104707000D01*
X175937952Y-104745095D01*
X175023666Y-105430809D02*
X174947476Y-105468904D01*
X174795095Y-105468904D01*
X174718904Y-105430809D01*
X174680809Y-105354619D01*
X174680809Y-105316523D01*
X174718904Y-105240333D01*
X174795095Y-105202238D01*
X174909380Y-105202238D01*
X174985571Y-105164142D01*
X175023666Y-105087952D01*
X175023666Y-105049857D01*
X174985571Y-104973666D01*
X174909380Y-104935571D01*
X174795095Y-104935571D01*
X174718904Y-104973666D01*
X173995095Y-104935571D02*
X173995095Y-105468904D01*
X174337952Y-104935571D02*
X174337952Y-105354619D01*
X174299857Y-105430809D01*
X174223666Y-105468904D01*
X174109380Y-105468904D01*
X174033190Y-105430809D01*
X173995095Y-105392714D01*
X173614142Y-104935571D02*
X173614142Y-105735571D01*
X173614142Y-104973666D02*
X173537952Y-104935571D01*
X173385571Y-104935571D01*
X173309380Y-104973666D01*
X173271285Y-105011761D01*
X173233190Y-105087952D01*
X173233190Y-105316523D01*
X173271285Y-105392714D01*
X173309380Y-105430809D01*
X173385571Y-105468904D01*
X173537952Y-105468904D01*
X173614142Y-105430809D01*
X172890333Y-104935571D02*
X172890333Y-105735571D01*
X172890333Y-104973666D02*
X172814142Y-104935571D01*
X172661761Y-104935571D01*
X172585571Y-104973666D01*
X172547476Y-105011761D01*
X172509380Y-105087952D01*
X172509380Y-105316523D01*
X172547476Y-105392714D01*
X172585571Y-105430809D01*
X172661761Y-105468904D01*
X172814142Y-105468904D01*
X172890333Y-105430809D01*
X172052238Y-105468904D02*
X172128428Y-105430809D01*
X172166523Y-105354619D01*
X172166523Y-104668904D01*
X171823666Y-104935571D02*
X171633190Y-105468904D01*
X171442714Y-104935571D02*
X171633190Y-105468904D01*
X171709380Y-105659380D01*
X171747476Y-105697476D01*
X171823666Y-105735571D01*
X177918904Y-106756904D02*
X177918904Y-106223571D01*
X177918904Y-105956904D02*
X177957000Y-105995000D01*
X177918904Y-106033095D01*
X177880809Y-105995000D01*
X177918904Y-105956904D01*
X177918904Y-106033095D01*
X177576047Y-106718809D02*
X177499857Y-106756904D01*
X177347476Y-106756904D01*
X177271285Y-106718809D01*
X177233190Y-106642619D01*
X177233190Y-106604523D01*
X177271285Y-106528333D01*
X177347476Y-106490238D01*
X177461761Y-106490238D01*
X177537952Y-106452142D01*
X177576047Y-106375952D01*
X177576047Y-106337857D01*
X177537952Y-106261666D01*
X177461761Y-106223571D01*
X177347476Y-106223571D01*
X177271285Y-106261666D01*
X175976047Y-106718809D02*
X176052238Y-106756904D01*
X176204619Y-106756904D01*
X176280809Y-106718809D01*
X176318904Y-106642619D01*
X176318904Y-106337857D01*
X176280809Y-106261666D01*
X176204619Y-106223571D01*
X176052238Y-106223571D01*
X175976047Y-106261666D01*
X175937952Y-106337857D01*
X175937952Y-106414047D01*
X176318904Y-106490238D01*
X175671285Y-106223571D02*
X175480809Y-106756904D01*
X175290333Y-106223571D01*
X174680809Y-106718809D02*
X174757000Y-106756904D01*
X174909380Y-106756904D01*
X174985571Y-106718809D01*
X175023666Y-106642619D01*
X175023666Y-106337857D01*
X174985571Y-106261666D01*
X174909380Y-106223571D01*
X174757000Y-106223571D01*
X174680809Y-106261666D01*
X174642714Y-106337857D01*
X174642714Y-106414047D01*
X175023666Y-106490238D01*
X174299857Y-106756904D02*
X174299857Y-106223571D01*
X174299857Y-106375952D02*
X174261761Y-106299761D01*
X174223666Y-106261666D01*
X174147476Y-106223571D01*
X174071285Y-106223571D01*
X172852238Y-106223571D02*
X172852238Y-106756904D01*
X173195095Y-106223571D02*
X173195095Y-106642619D01*
X173157000Y-106718809D01*
X173080809Y-106756904D01*
X172966523Y-106756904D01*
X172890333Y-106718809D01*
X172852238Y-106680714D01*
X172509380Y-106718809D02*
X172433190Y-106756904D01*
X172280809Y-106756904D01*
X172204619Y-106718809D01*
X172166523Y-106642619D01*
X172166523Y-106604523D01*
X172204619Y-106528333D01*
X172280809Y-106490238D01*
X172395095Y-106490238D01*
X172471285Y-106452142D01*
X172509380Y-106375952D01*
X172509380Y-106337857D01*
X172471285Y-106261666D01*
X172395095Y-106223571D01*
X172280809Y-106223571D01*
X172204619Y-106261666D01*
X171518904Y-106718809D02*
X171595095Y-106756904D01*
X171747476Y-106756904D01*
X171823666Y-106718809D01*
X171861761Y-106642619D01*
X171861761Y-106337857D01*
X171823666Y-106261666D01*
X171747476Y-106223571D01*
X171595095Y-106223571D01*
X171518904Y-106261666D01*
X171480809Y-106337857D01*
X171480809Y-106414047D01*
X171861761Y-106490238D01*
X170795095Y-106756904D02*
X170795095Y-105956904D01*
X170795095Y-106718809D02*
X170871285Y-106756904D01*
X171023666Y-106756904D01*
X171099857Y-106718809D01*
X171137952Y-106680714D01*
X171176047Y-106604523D01*
X171176047Y-106375952D01*
X171137952Y-106299761D01*
X171099857Y-106261666D01*
X171023666Y-106223571D01*
X170871285Y-106223571D01*
X170795095Y-106261666D01*
D11*
X179056000Y-109035000D02*
X180072000Y-109035000D01*
X179056000Y-99891000D02*
X180072000Y-99891000D01*
X174611000Y-99192500D02*
X179056000Y-99192500D01*
X179056000Y-99192500D02*
X179056000Y-100589500D01*
X179056000Y-100589500D02*
X174611000Y-100589500D01*
X174611000Y-100589500D02*
X174611000Y-99192500D01*
X176262000Y-108273000D02*
X179056000Y-108273000D01*
X179056000Y-108273000D02*
X179056000Y-109797000D01*
X179056000Y-109797000D02*
X176262000Y-109797000D01*
X176262000Y-109797000D02*
X176262000Y-108273000D01*
X120128000Y-117417000D02*
X120128000Y-118941000D01*
X130288000Y-117417000D02*
X120128000Y-117417000D01*
X130288000Y-117544000D02*
X130288000Y-117417000D01*
X130288000Y-118941000D02*
X130288000Y-117544000D01*
X130288000Y-118941000D02*
X125208000Y-118941000D01*
X130288000Y-119068000D02*
X130288000Y-118941000D01*
X130288000Y-121608000D02*
X130288000Y-119068000D01*
X125208000Y-121608000D02*
X130288000Y-121608000D01*
X120128000Y-121608000D02*
X125208000Y-121608000D01*
X120128000Y-118941000D02*
X120128000Y-121608000D01*
X125208000Y-118941000D02*
X120128000Y-118941000D01*
D12*
X123715619Y-119255904D02*
X123220380Y-119255904D01*
X123487047Y-119560666D01*
X123372761Y-119560666D01*
X123296571Y-119598761D01*
X123258476Y-119636857D01*
X123220380Y-119713047D01*
X123220380Y-119903523D01*
X123258476Y-119979714D01*
X123296571Y-120017809D01*
X123372761Y-120055904D01*
X123601333Y-120055904D01*
X123677523Y-120017809D01*
X123715619Y-119979714D01*
X122953714Y-119255904D02*
X122458476Y-119255904D01*
X122725142Y-119560666D01*
X122610857Y-119560666D01*
X122534666Y-119598761D01*
X122496571Y-119636857D01*
X122458476Y-119713047D01*
X122458476Y-119903523D01*
X122496571Y-119979714D01*
X122534666Y-120017809D01*
X122610857Y-120055904D01*
X122839428Y-120055904D01*
X122915619Y-120017809D01*
X122953714Y-119979714D01*
X121658476Y-120055904D02*
X121925142Y-119674952D01*
X122115619Y-120055904D02*
X122115619Y-119255904D01*
X121810857Y-119255904D01*
X121734666Y-119294000D01*
X121696571Y-119332095D01*
X121658476Y-119408285D01*
X121658476Y-119522571D01*
X121696571Y-119598761D01*
X121734666Y-119636857D01*
X121810857Y-119674952D01*
X122115619Y-119674952D01*
X124896571Y-120620095D02*
X124858476Y-120582000D01*
X124782285Y-120543904D01*
X124629904Y-120620095D01*
X124553714Y-120582000D01*
X124515619Y-120543904D01*
X123791809Y-121343904D02*
X124248952Y-121343904D01*
X124020380Y-121343904D02*
X124020380Y-120543904D01*
X124096571Y-120658190D01*
X124172761Y-120734380D01*
X124248952Y-120772476D01*
X123296571Y-120543904D02*
X123220380Y-120543904D01*
X123144190Y-120582000D01*
X123106095Y-120620095D01*
X123068000Y-120696285D01*
X123029904Y-120848666D01*
X123029904Y-121039142D01*
X123068000Y-121191523D01*
X123106095Y-121267714D01*
X123144190Y-121305809D01*
X123220380Y-121343904D01*
X123296571Y-121343904D01*
X123372761Y-121305809D01*
X123410857Y-121267714D01*
X123448952Y-121191523D01*
X123487047Y-121039142D01*
X123487047Y-120848666D01*
X123448952Y-120696285D01*
X123410857Y-120620095D01*
X123372761Y-120582000D01*
X123296571Y-120543904D01*
X122534666Y-120543904D02*
X122458476Y-120543904D01*
X122382285Y-120582000D01*
X122344190Y-120620095D01*
X122306095Y-120696285D01*
X122268000Y-120848666D01*
X122268000Y-121039142D01*
X122306095Y-121191523D01*
X122344190Y-121267714D01*
X122382285Y-121305809D01*
X122458476Y-121343904D01*
X122534666Y-121343904D01*
X122610857Y-121305809D01*
X122648952Y-121267714D01*
X122687047Y-121191523D01*
X122725142Y-121039142D01*
X122725142Y-120848666D01*
X122687047Y-120696285D01*
X122648952Y-120620095D01*
X122610857Y-120582000D01*
X122534666Y-120543904D01*
X121925142Y-121343904D02*
X121925142Y-120810571D01*
X121925142Y-120886761D02*
X121887047Y-120848666D01*
X121810857Y-120810571D01*
X121696571Y-120810571D01*
X121620380Y-120848666D01*
X121582285Y-120924857D01*
X121582285Y-121343904D01*
X121582285Y-120924857D02*
X121544190Y-120848666D01*
X121468000Y-120810571D01*
X121353714Y-120810571D01*
X121277523Y-120848666D01*
X121239428Y-120924857D01*
X121239428Y-121343904D01*
X120896571Y-121115333D02*
X120515619Y-121115333D01*
X120972761Y-121343904D02*
X120706095Y-120543904D01*
X120439428Y-121343904D01*
X128681333Y-120055904D02*
X129138476Y-120055904D01*
X128909904Y-120055904D02*
X128909904Y-119255904D01*
X128986095Y-119370190D01*
X129062285Y-119446380D01*
X129138476Y-119484476D01*
X128224190Y-119598761D02*
X128300380Y-119560666D01*
X128338476Y-119522571D01*
X128376571Y-119446380D01*
X128376571Y-119408285D01*
X128338476Y-119332095D01*
X128300380Y-119294000D01*
X128224190Y-119255904D01*
X128071809Y-119255904D01*
X127995619Y-119294000D01*
X127957523Y-119332095D01*
X127919428Y-119408285D01*
X127919428Y-119446380D01*
X127957523Y-119522571D01*
X127995619Y-119560666D01*
X128071809Y-119598761D01*
X128224190Y-119598761D01*
X128300380Y-119636857D01*
X128338476Y-119674952D01*
X128376571Y-119751142D01*
X128376571Y-119903523D01*
X128338476Y-119979714D01*
X128300380Y-120017809D01*
X128224190Y-120055904D01*
X128071809Y-120055904D01*
X127995619Y-120017809D01*
X127957523Y-119979714D01*
X127919428Y-119903523D01*
X127919428Y-119751142D01*
X127957523Y-119674952D01*
X127995619Y-119636857D01*
X128071809Y-119598761D01*
X127424190Y-119255904D02*
X127348000Y-119255904D01*
X127271809Y-119294000D01*
X127233714Y-119332095D01*
X127195619Y-119408285D01*
X127157523Y-119560666D01*
X127157523Y-119751142D01*
X127195619Y-119903523D01*
X127233714Y-119979714D01*
X127271809Y-120017809D01*
X127348000Y-120055904D01*
X127424190Y-120055904D01*
X127500380Y-120017809D01*
X127538476Y-119979714D01*
X127576571Y-119903523D01*
X127614666Y-119751142D01*
X127614666Y-119560666D01*
X127576571Y-119408285D01*
X127538476Y-119332095D01*
X127500380Y-119294000D01*
X127424190Y-119255904D01*
X126357523Y-120055904D02*
X126624190Y-119674952D01*
X126814666Y-120055904D02*
X126814666Y-119255904D01*
X126509904Y-119255904D01*
X126433714Y-119294000D01*
X126395619Y-119332095D01*
X126357523Y-119408285D01*
X126357523Y-119522571D01*
X126395619Y-119598761D01*
X126433714Y-119636857D01*
X126509904Y-119674952D01*
X126814666Y-119674952D01*
X129595619Y-120620095D02*
X129557523Y-120582000D01*
X129481333Y-120543904D01*
X129328952Y-120620095D01*
X129252761Y-120582000D01*
X129214666Y-120543904D01*
X128948000Y-120620095D02*
X128909904Y-120582000D01*
X128833714Y-120543904D01*
X128643238Y-120543904D01*
X128567047Y-120582000D01*
X128528952Y-120620095D01*
X128490857Y-120696285D01*
X128490857Y-120772476D01*
X128528952Y-120886761D01*
X128986095Y-121343904D01*
X128490857Y-121343904D01*
X127995619Y-120543904D02*
X127919428Y-120543904D01*
X127843238Y-120582000D01*
X127805142Y-120620095D01*
X127767047Y-120696285D01*
X127728952Y-120848666D01*
X127728952Y-121039142D01*
X127767047Y-121191523D01*
X127805142Y-121267714D01*
X127843238Y-121305809D01*
X127919428Y-121343904D01*
X127995619Y-121343904D01*
X128071809Y-121305809D01*
X128109904Y-121267714D01*
X128148000Y-121191523D01*
X128186095Y-121039142D01*
X128186095Y-120848666D01*
X128148000Y-120696285D01*
X128109904Y-120620095D01*
X128071809Y-120582000D01*
X127995619Y-120543904D01*
X127386095Y-121343904D02*
X127386095Y-120810571D01*
X127386095Y-120886761D02*
X127348000Y-120848666D01*
X127271809Y-120810571D01*
X127157523Y-120810571D01*
X127081333Y-120848666D01*
X127043238Y-120924857D01*
X127043238Y-121343904D01*
X127043238Y-120924857D02*
X127005142Y-120848666D01*
X126928952Y-120810571D01*
X126814666Y-120810571D01*
X126738476Y-120848666D01*
X126700380Y-120924857D01*
X126700380Y-121343904D01*
X126357523Y-121115333D02*
X125976571Y-121115333D01*
X126433714Y-121343904D02*
X126167047Y-120543904D01*
X125900380Y-121343904D01*
X128179428Y-118540904D02*
X128179428Y-117740904D01*
X127341333Y-118540904D02*
X127608000Y-118159952D01*
X127798476Y-118540904D02*
X127798476Y-117740904D01*
X127493714Y-117740904D01*
X127417523Y-117779000D01*
X127379428Y-117817095D01*
X127341333Y-117893285D01*
X127341333Y-118007571D01*
X127379428Y-118083761D01*
X127417523Y-118121857D01*
X127493714Y-118159952D01*
X127798476Y-118159952D01*
X126388952Y-118540904D02*
X126388952Y-118007571D01*
X126388952Y-118159952D02*
X126350857Y-118083761D01*
X126312761Y-118045666D01*
X126236571Y-118007571D01*
X126160380Y-118007571D01*
X125588952Y-118502809D02*
X125665142Y-118540904D01*
X125817523Y-118540904D01*
X125893714Y-118502809D01*
X125931809Y-118426619D01*
X125931809Y-118121857D01*
X125893714Y-118045666D01*
X125817523Y-118007571D01*
X125665142Y-118007571D01*
X125588952Y-118045666D01*
X125550857Y-118121857D01*
X125550857Y-118198047D01*
X125931809Y-118274238D01*
X125246095Y-118502809D02*
X125169904Y-118540904D01*
X125017523Y-118540904D01*
X124941333Y-118502809D01*
X124903238Y-118426619D01*
X124903238Y-118388523D01*
X124941333Y-118312333D01*
X125017523Y-118274238D01*
X125131809Y-118274238D01*
X125208000Y-118236142D01*
X125246095Y-118159952D01*
X125246095Y-118121857D01*
X125208000Y-118045666D01*
X125131809Y-118007571D01*
X125017523Y-118007571D01*
X124941333Y-118045666D01*
X124560380Y-118540904D02*
X124560380Y-118007571D01*
X124560380Y-117740904D02*
X124598476Y-117779000D01*
X124560380Y-117817095D01*
X124522285Y-117779000D01*
X124560380Y-117740904D01*
X124560380Y-117817095D01*
X124217523Y-118502809D02*
X124141333Y-118540904D01*
X123988952Y-118540904D01*
X123912761Y-118502809D01*
X123874666Y-118426619D01*
X123874666Y-118388523D01*
X123912761Y-118312333D01*
X123988952Y-118274238D01*
X124103238Y-118274238D01*
X124179428Y-118236142D01*
X124217523Y-118159952D01*
X124217523Y-118121857D01*
X124179428Y-118045666D01*
X124103238Y-118007571D01*
X123988952Y-118007571D01*
X123912761Y-118045666D01*
X123646095Y-118007571D02*
X123341333Y-118007571D01*
X123531809Y-117740904D02*
X123531809Y-118426619D01*
X123493714Y-118502809D01*
X123417523Y-118540904D01*
X123341333Y-118540904D01*
X122960380Y-118540904D02*
X123036571Y-118502809D01*
X123074666Y-118464714D01*
X123112761Y-118388523D01*
X123112761Y-118159952D01*
X123074666Y-118083761D01*
X123036571Y-118045666D01*
X122960380Y-118007571D01*
X122846095Y-118007571D01*
X122769904Y-118045666D01*
X122731809Y-118083761D01*
X122693714Y-118159952D01*
X122693714Y-118388523D01*
X122731809Y-118464714D01*
X122769904Y-118502809D01*
X122846095Y-118540904D01*
X122960380Y-118540904D01*
X122350857Y-118540904D02*
X122350857Y-118007571D01*
X122350857Y-118159952D02*
X122312761Y-118083761D01*
X122274666Y-118045666D01*
X122198476Y-118007571D01*
X122122285Y-118007571D01*
D11*
X125208000Y-121624000D02*
X125208000Y-118941000D01*
D13*
X138800000Y-89969000D02*
X153275000Y-89969000D01*
X153275000Y-91636000D02*
X153275000Y-89985000D01*
X136000000Y-91636000D02*
X153275000Y-91636000D01*
X136000000Y-89969000D02*
X136000000Y-91636000D01*
D12*
X152658047Y-90689857D02*
X152543761Y-90727952D01*
X152505666Y-90766047D01*
X152467571Y-90842238D01*
X152467571Y-90956523D01*
X152505666Y-91032714D01*
X152543761Y-91070809D01*
X152619952Y-91108904D01*
X152924714Y-91108904D01*
X152924714Y-90308904D01*
X152658047Y-90308904D01*
X152581857Y-90347000D01*
X152543761Y-90385095D01*
X152505666Y-90461285D01*
X152505666Y-90537476D01*
X152543761Y-90613666D01*
X152581857Y-90651761D01*
X152658047Y-90689857D01*
X152924714Y-90689857D01*
X152124714Y-91108904D02*
X152124714Y-90575571D01*
X152124714Y-90727952D02*
X152086619Y-90651761D01*
X152048523Y-90613666D01*
X151972333Y-90575571D01*
X151896142Y-90575571D01*
X151629476Y-91108904D02*
X151629476Y-90575571D01*
X151629476Y-90308904D02*
X151667571Y-90347000D01*
X151629476Y-90385095D01*
X151591380Y-90347000D01*
X151629476Y-90308904D01*
X151629476Y-90385095D01*
X150905666Y-91108904D02*
X150905666Y-90308904D01*
X150905666Y-91070809D02*
X150981857Y-91108904D01*
X151134238Y-91108904D01*
X151210428Y-91070809D01*
X151248523Y-91032714D01*
X151286619Y-90956523D01*
X151286619Y-90727952D01*
X151248523Y-90651761D01*
X151210428Y-90613666D01*
X151134238Y-90575571D01*
X150981857Y-90575571D01*
X150905666Y-90613666D01*
X150181857Y-90575571D02*
X150181857Y-91223190D01*
X150219952Y-91299380D01*
X150258047Y-91337476D01*
X150334238Y-91375571D01*
X150448523Y-91375571D01*
X150524714Y-91337476D01*
X150181857Y-91070809D02*
X150258047Y-91108904D01*
X150410428Y-91108904D01*
X150486619Y-91070809D01*
X150524714Y-91032714D01*
X150562809Y-90956523D01*
X150562809Y-90727952D01*
X150524714Y-90651761D01*
X150486619Y-90613666D01*
X150410428Y-90575571D01*
X150258047Y-90575571D01*
X150181857Y-90613666D01*
X149496142Y-91070809D02*
X149572333Y-91108904D01*
X149724714Y-91108904D01*
X149800904Y-91070809D01*
X149839000Y-90994619D01*
X149839000Y-90689857D01*
X149800904Y-90613666D01*
X149724714Y-90575571D01*
X149572333Y-90575571D01*
X149496142Y-90613666D01*
X149458047Y-90689857D01*
X149458047Y-90766047D01*
X149839000Y-90842238D01*
X148619952Y-90575571D02*
X148315190Y-90575571D01*
X148505666Y-90308904D02*
X148505666Y-90994619D01*
X148467571Y-91070809D01*
X148391380Y-91108904D01*
X148315190Y-91108904D01*
X147934238Y-91108904D02*
X148010428Y-91070809D01*
X148048523Y-91032714D01*
X148086619Y-90956523D01*
X148086619Y-90727952D01*
X148048523Y-90651761D01*
X148010428Y-90613666D01*
X147934238Y-90575571D01*
X147819952Y-90575571D01*
X147743761Y-90613666D01*
X147705666Y-90651761D01*
X147667571Y-90727952D01*
X147667571Y-90956523D01*
X147705666Y-91032714D01*
X147743761Y-91070809D01*
X147819952Y-91108904D01*
X147934238Y-91108904D01*
X146410428Y-91070809D02*
X146486619Y-91108904D01*
X146639000Y-91108904D01*
X146715190Y-91070809D01*
X146753285Y-90994619D01*
X146753285Y-90689857D01*
X146715190Y-90613666D01*
X146639000Y-90575571D01*
X146486619Y-90575571D01*
X146410428Y-90613666D01*
X146372333Y-90689857D01*
X146372333Y-90766047D01*
X146753285Y-90842238D01*
X146029476Y-90575571D02*
X146029476Y-91108904D01*
X146029476Y-90651761D02*
X145991380Y-90613666D01*
X145915190Y-90575571D01*
X145800904Y-90575571D01*
X145724714Y-90613666D01*
X145686619Y-90689857D01*
X145686619Y-91108904D01*
X144962809Y-91108904D02*
X144962809Y-90689857D01*
X145000904Y-90613666D01*
X145077095Y-90575571D01*
X145229476Y-90575571D01*
X145305666Y-90613666D01*
X144962809Y-91070809D02*
X145039000Y-91108904D01*
X145229476Y-91108904D01*
X145305666Y-91070809D01*
X145343761Y-90994619D01*
X145343761Y-90918428D01*
X145305666Y-90842238D01*
X145229476Y-90804142D01*
X145039000Y-90804142D01*
X144962809Y-90766047D01*
X144581857Y-91108904D02*
X144581857Y-90308904D01*
X144581857Y-90613666D02*
X144505666Y-90575571D01*
X144353285Y-90575571D01*
X144277095Y-90613666D01*
X144239000Y-90651761D01*
X144200904Y-90727952D01*
X144200904Y-90956523D01*
X144239000Y-91032714D01*
X144277095Y-91070809D01*
X144353285Y-91108904D01*
X144505666Y-91108904D01*
X144581857Y-91070809D01*
X143743761Y-91108904D02*
X143819952Y-91070809D01*
X143858047Y-90994619D01*
X143858047Y-90308904D01*
X143134238Y-91070809D02*
X143210428Y-91108904D01*
X143362809Y-91108904D01*
X143439000Y-91070809D01*
X143477095Y-90994619D01*
X143477095Y-90689857D01*
X143439000Y-90613666D01*
X143362809Y-90575571D01*
X143210428Y-90575571D01*
X143134238Y-90613666D01*
X143096142Y-90689857D01*
X143096142Y-90766047D01*
X143477095Y-90842238D01*
X142143761Y-91108904D02*
X142143761Y-90308904D01*
X141953285Y-90308904D01*
X141839000Y-90347000D01*
X141762809Y-90423190D01*
X141724714Y-90499380D01*
X141686619Y-90651761D01*
X141686619Y-90766047D01*
X141724714Y-90918428D01*
X141762809Y-90994619D01*
X141839000Y-91070809D01*
X141953285Y-91108904D01*
X142143761Y-91108904D01*
X141039000Y-91070809D02*
X141115190Y-91108904D01*
X141267571Y-91108904D01*
X141343761Y-91070809D01*
X141381857Y-90994619D01*
X141381857Y-90689857D01*
X141343761Y-90613666D01*
X141267571Y-90575571D01*
X141115190Y-90575571D01*
X141039000Y-90613666D01*
X141000904Y-90689857D01*
X141000904Y-90766047D01*
X141381857Y-90842238D01*
X140353285Y-91070809D02*
X140429476Y-91108904D01*
X140581857Y-91108904D01*
X140658047Y-91070809D01*
X140696142Y-90994619D01*
X140696142Y-90689857D01*
X140658047Y-90613666D01*
X140581857Y-90575571D01*
X140429476Y-90575571D01*
X140353285Y-90613666D01*
X140315190Y-90689857D01*
X140315190Y-90766047D01*
X140696142Y-90842238D01*
X139972333Y-90575571D02*
X139972333Y-91375571D01*
X139972333Y-90613666D02*
X139896142Y-90575571D01*
X139743761Y-90575571D01*
X139667571Y-90613666D01*
X139629476Y-90651761D01*
X139591380Y-90727952D01*
X139591380Y-90956523D01*
X139629476Y-91032714D01*
X139667571Y-91070809D01*
X139743761Y-91108904D01*
X139896142Y-91108904D01*
X139972333Y-91070809D01*
X139286619Y-91070809D02*
X139172333Y-91108904D01*
X138981857Y-91108904D01*
X138905666Y-91070809D01*
X138867571Y-91032714D01*
X138829476Y-90956523D01*
X138829476Y-90880333D01*
X138867571Y-90804142D01*
X138905666Y-90766047D01*
X138981857Y-90727952D01*
X139134238Y-90689857D01*
X139210428Y-90651761D01*
X139248523Y-90613666D01*
X139286619Y-90537476D01*
X139286619Y-90461285D01*
X139248523Y-90385095D01*
X139210428Y-90347000D01*
X139134238Y-90308904D01*
X138943761Y-90308904D01*
X138829476Y-90347000D01*
X138372333Y-91108904D02*
X138448523Y-91070809D01*
X138486619Y-90994619D01*
X138486619Y-90308904D01*
X137762809Y-91070809D02*
X137839000Y-91108904D01*
X137991380Y-91108904D01*
X138067571Y-91070809D01*
X138105666Y-90994619D01*
X138105666Y-90689857D01*
X138067571Y-90613666D01*
X137991380Y-90575571D01*
X137839000Y-90575571D01*
X137762809Y-90613666D01*
X137724714Y-90689857D01*
X137724714Y-90766047D01*
X138105666Y-90842238D01*
X137077095Y-91070809D02*
X137153285Y-91108904D01*
X137305666Y-91108904D01*
X137381857Y-91070809D01*
X137419952Y-90994619D01*
X137419952Y-90689857D01*
X137381857Y-90613666D01*
X137305666Y-90575571D01*
X137153285Y-90575571D01*
X137077095Y-90613666D01*
X137039000Y-90689857D01*
X137039000Y-90766047D01*
X137419952Y-90842238D01*
X136696142Y-90575571D02*
X136696142Y-91375571D01*
X136696142Y-90613666D02*
X136619952Y-90575571D01*
X136467571Y-90575571D01*
X136391380Y-90613666D01*
X136353285Y-90651761D01*
X136315190Y-90727952D01*
X136315190Y-90956523D01*
X136353285Y-91032714D01*
X136391380Y-91070809D01*
X136467571Y-91108904D01*
X136619952Y-91108904D01*
X136696142Y-91070809D01*
D13*
X173883000Y-125910000D02*
X173883000Y-126942000D01*
X171312000Y-125910000D02*
X171312000Y-126815000D01*
D11*
X182485000Y-128466000D02*
X182485000Y-126942000D01*
X162800000Y-128466000D02*
X182485000Y-128466000D01*
X162800000Y-126942000D02*
X162800000Y-128466000D01*
X182485000Y-126942000D02*
X162800000Y-126942000D01*
X181925047Y-127646857D02*
X181810761Y-127684952D01*
X181772666Y-127723047D01*
X181734571Y-127799238D01*
X181734571Y-127913523D01*
X181772666Y-127989714D01*
X181810761Y-128027809D01*
X181886952Y-128065904D01*
X182191714Y-128065904D01*
X182191714Y-127265904D01*
X181925047Y-127265904D01*
X181848857Y-127304000D01*
X181810761Y-127342095D01*
X181772666Y-127418285D01*
X181772666Y-127494476D01*
X181810761Y-127570666D01*
X181848857Y-127608761D01*
X181925047Y-127646857D01*
X182191714Y-127646857D01*
X181391714Y-128065904D02*
X181391714Y-127532571D01*
X181391714Y-127684952D02*
X181353619Y-127608761D01*
X181315523Y-127570666D01*
X181239333Y-127532571D01*
X181163142Y-127532571D01*
X180896476Y-128065904D02*
X180896476Y-127532571D01*
X180896476Y-127265904D02*
X180934571Y-127304000D01*
X180896476Y-127342095D01*
X180858380Y-127304000D01*
X180896476Y-127265904D01*
X180896476Y-127342095D01*
X180172666Y-128065904D02*
X180172666Y-127265904D01*
X180172666Y-128027809D02*
X180248857Y-128065904D01*
X180401238Y-128065904D01*
X180477428Y-128027809D01*
X180515523Y-127989714D01*
X180553619Y-127913523D01*
X180553619Y-127684952D01*
X180515523Y-127608761D01*
X180477428Y-127570666D01*
X180401238Y-127532571D01*
X180248857Y-127532571D01*
X180172666Y-127570666D01*
X179448857Y-127532571D02*
X179448857Y-128180190D01*
X179486952Y-128256380D01*
X179525047Y-128294476D01*
X179601238Y-128332571D01*
X179715523Y-128332571D01*
X179791714Y-128294476D01*
X179448857Y-128027809D02*
X179525047Y-128065904D01*
X179677428Y-128065904D01*
X179753619Y-128027809D01*
X179791714Y-127989714D01*
X179829809Y-127913523D01*
X179829809Y-127684952D01*
X179791714Y-127608761D01*
X179753619Y-127570666D01*
X179677428Y-127532571D01*
X179525047Y-127532571D01*
X179448857Y-127570666D01*
X178763142Y-128027809D02*
X178839333Y-128065904D01*
X178991714Y-128065904D01*
X179067904Y-128027809D01*
X179106000Y-127951619D01*
X179106000Y-127646857D01*
X179067904Y-127570666D01*
X178991714Y-127532571D01*
X178839333Y-127532571D01*
X178763142Y-127570666D01*
X178725047Y-127646857D01*
X178725047Y-127723047D01*
X179106000Y-127799238D01*
X177772666Y-128065904D02*
X177772666Y-127265904D01*
X177772666Y-127570666D02*
X177696476Y-127532571D01*
X177544095Y-127532571D01*
X177467904Y-127570666D01*
X177429809Y-127608761D01*
X177391714Y-127684952D01*
X177391714Y-127913523D01*
X177429809Y-127989714D01*
X177467904Y-128027809D01*
X177544095Y-128065904D01*
X177696476Y-128065904D01*
X177772666Y-128027809D01*
X176934571Y-128065904D02*
X177010761Y-128027809D01*
X177048857Y-127989714D01*
X177086952Y-127913523D01*
X177086952Y-127684952D01*
X177048857Y-127608761D01*
X177010761Y-127570666D01*
X176934571Y-127532571D01*
X176820285Y-127532571D01*
X176744095Y-127570666D01*
X176706000Y-127608761D01*
X176667904Y-127684952D01*
X176667904Y-127913523D01*
X176706000Y-127989714D01*
X176744095Y-128027809D01*
X176820285Y-128065904D01*
X176934571Y-128065904D01*
X176439333Y-127532571D02*
X176134571Y-127532571D01*
X176325047Y-127265904D02*
X176325047Y-127951619D01*
X176286952Y-128027809D01*
X176210761Y-128065904D01*
X176134571Y-128065904D01*
X175867904Y-128065904D02*
X175867904Y-127265904D01*
X175525047Y-128065904D02*
X175525047Y-127646857D01*
X175563142Y-127570666D01*
X175639333Y-127532571D01*
X175753619Y-127532571D01*
X175829809Y-127570666D01*
X175867904Y-127608761D01*
X174648857Y-127532571D02*
X174344095Y-127532571D01*
X174534571Y-127265904D02*
X174534571Y-127951619D01*
X174496476Y-128027809D01*
X174420285Y-128065904D01*
X174344095Y-128065904D01*
X173963142Y-128065904D02*
X174039333Y-128027809D01*
X174077428Y-127989714D01*
X174115523Y-127913523D01*
X174115523Y-127684952D01*
X174077428Y-127608761D01*
X174039333Y-127570666D01*
X173963142Y-127532571D01*
X173848857Y-127532571D01*
X173772666Y-127570666D01*
X173734571Y-127608761D01*
X173696476Y-127684952D01*
X173696476Y-127913523D01*
X173734571Y-127989714D01*
X173772666Y-128027809D01*
X173848857Y-128065904D01*
X173963142Y-128065904D01*
X172439333Y-128027809D02*
X172515523Y-128065904D01*
X172667904Y-128065904D01*
X172744095Y-128027809D01*
X172782190Y-127951619D01*
X172782190Y-127646857D01*
X172744095Y-127570666D01*
X172667904Y-127532571D01*
X172515523Y-127532571D01*
X172439333Y-127570666D01*
X172401238Y-127646857D01*
X172401238Y-127723047D01*
X172782190Y-127799238D01*
X172058380Y-127532571D02*
X172058380Y-128065904D01*
X172058380Y-127608761D02*
X172020285Y-127570666D01*
X171944095Y-127532571D01*
X171829809Y-127532571D01*
X171753619Y-127570666D01*
X171715523Y-127646857D01*
X171715523Y-128065904D01*
X170991714Y-128065904D02*
X170991714Y-127646857D01*
X171029809Y-127570666D01*
X171106000Y-127532571D01*
X171258380Y-127532571D01*
X171334571Y-127570666D01*
X170991714Y-128027809D02*
X171067904Y-128065904D01*
X171258380Y-128065904D01*
X171334571Y-128027809D01*
X171372666Y-127951619D01*
X171372666Y-127875428D01*
X171334571Y-127799238D01*
X171258380Y-127761142D01*
X171067904Y-127761142D01*
X170991714Y-127723047D01*
X170610761Y-128065904D02*
X170610761Y-127265904D01*
X170610761Y-127570666D02*
X170534571Y-127532571D01*
X170382190Y-127532571D01*
X170306000Y-127570666D01*
X170267904Y-127608761D01*
X170229809Y-127684952D01*
X170229809Y-127913523D01*
X170267904Y-127989714D01*
X170306000Y-128027809D01*
X170382190Y-128065904D01*
X170534571Y-128065904D01*
X170610761Y-128027809D01*
X169772666Y-128065904D02*
X169848857Y-128027809D01*
X169886952Y-127951619D01*
X169886952Y-127265904D01*
X169163142Y-128027809D02*
X169239333Y-128065904D01*
X169391714Y-128065904D01*
X169467904Y-128027809D01*
X169506000Y-127951619D01*
X169506000Y-127646857D01*
X169467904Y-127570666D01*
X169391714Y-127532571D01*
X169239333Y-127532571D01*
X169163142Y-127570666D01*
X169125047Y-127646857D01*
X169125047Y-127723047D01*
X169506000Y-127799238D01*
X168172666Y-128065904D02*
X168172666Y-127265904D01*
X167867904Y-127265904D01*
X167791714Y-127304000D01*
X167753619Y-127342095D01*
X167715523Y-127418285D01*
X167715523Y-127532571D01*
X167753619Y-127608761D01*
X167791714Y-127646857D01*
X167867904Y-127684952D01*
X168172666Y-127684952D01*
X166915523Y-127989714D02*
X166953619Y-128027809D01*
X167067904Y-128065904D01*
X167144095Y-128065904D01*
X167258380Y-128027809D01*
X167334571Y-127951619D01*
X167372666Y-127875428D01*
X167410761Y-127723047D01*
X167410761Y-127608761D01*
X167372666Y-127456380D01*
X167334571Y-127380190D01*
X167258380Y-127304000D01*
X167144095Y-127265904D01*
X167067904Y-127265904D01*
X166953619Y-127304000D01*
X166915523Y-127342095D01*
X166306000Y-127646857D02*
X166572666Y-127646857D01*
X166572666Y-128065904D02*
X166572666Y-127265904D01*
X166191714Y-127265904D01*
X165772666Y-127608761D02*
X165848857Y-127570666D01*
X165886952Y-127532571D01*
X165925047Y-127456380D01*
X165925047Y-127418285D01*
X165886952Y-127342095D01*
X165848857Y-127304000D01*
X165772666Y-127265904D01*
X165620285Y-127265904D01*
X165544095Y-127304000D01*
X165506000Y-127342095D01*
X165467904Y-127418285D01*
X165467904Y-127456380D01*
X165506000Y-127532571D01*
X165544095Y-127570666D01*
X165620285Y-127608761D01*
X165772666Y-127608761D01*
X165848857Y-127646857D01*
X165886952Y-127684952D01*
X165925047Y-127761142D01*
X165925047Y-127913523D01*
X165886952Y-127989714D01*
X165848857Y-128027809D01*
X165772666Y-128065904D01*
X165620285Y-128065904D01*
X165544095Y-128027809D01*
X165506000Y-127989714D01*
X165467904Y-127913523D01*
X165467904Y-127761142D01*
X165506000Y-127684952D01*
X165544095Y-127646857D01*
X165620285Y-127608761D01*
X164744095Y-127265904D02*
X165125047Y-127265904D01*
X165163142Y-127646857D01*
X165125047Y-127608761D01*
X165048857Y-127570666D01*
X164858380Y-127570666D01*
X164782190Y-127608761D01*
X164744095Y-127646857D01*
X164706000Y-127723047D01*
X164706000Y-127913523D01*
X164744095Y-127989714D01*
X164782190Y-128027809D01*
X164858380Y-128065904D01*
X165048857Y-128065904D01*
X165125047Y-128027809D01*
X165163142Y-127989714D01*
X164439333Y-127265904D02*
X163906000Y-127265904D01*
X164248857Y-128065904D01*
X163258380Y-127532571D02*
X163258380Y-128065904D01*
X163448857Y-127227809D02*
X163639333Y-127799238D01*
X163144095Y-127799238D01*
X173932000Y-110813000D02*
X168432000Y-110813000D01*
D12*
X173658190Y-112054904D02*
X173658190Y-111254904D01*
X173353428Y-111254904D01*
X173277238Y-111293000D01*
X173239142Y-111331095D01*
X173201047Y-111407285D01*
X173201047Y-111521571D01*
X173239142Y-111597761D01*
X173277238Y-111635857D01*
X173353428Y-111673952D01*
X173658190Y-111673952D01*
X172401047Y-111978714D02*
X172439142Y-112016809D01*
X172553428Y-112054904D01*
X172629619Y-112054904D01*
X172743904Y-112016809D01*
X172820095Y-111940619D01*
X172858190Y-111864428D01*
X172896285Y-111712047D01*
X172896285Y-111597761D01*
X172858190Y-111445380D01*
X172820095Y-111369190D01*
X172743904Y-111293000D01*
X172629619Y-111254904D01*
X172553428Y-111254904D01*
X172439142Y-111293000D01*
X172401047Y-111331095D01*
X171791523Y-111635857D02*
X172058190Y-111635857D01*
X172058190Y-112054904D02*
X172058190Y-111254904D01*
X171677238Y-111254904D01*
X171258190Y-111597761D02*
X171334380Y-111559666D01*
X171372476Y-111521571D01*
X171410571Y-111445380D01*
X171410571Y-111407285D01*
X171372476Y-111331095D01*
X171334380Y-111293000D01*
X171258190Y-111254904D01*
X171105809Y-111254904D01*
X171029619Y-111293000D01*
X170991523Y-111331095D01*
X170953428Y-111407285D01*
X170953428Y-111445380D01*
X170991523Y-111521571D01*
X171029619Y-111559666D01*
X171105809Y-111597761D01*
X171258190Y-111597761D01*
X171334380Y-111635857D01*
X171372476Y-111673952D01*
X171410571Y-111750142D01*
X171410571Y-111902523D01*
X171372476Y-111978714D01*
X171334380Y-112016809D01*
X171258190Y-112054904D01*
X171105809Y-112054904D01*
X171029619Y-112016809D01*
X170991523Y-111978714D01*
X170953428Y-111902523D01*
X170953428Y-111750142D01*
X170991523Y-111673952D01*
X171029619Y-111635857D01*
X171105809Y-111597761D01*
X170229619Y-111254904D02*
X170610571Y-111254904D01*
X170648666Y-111635857D01*
X170610571Y-111597761D01*
X170534380Y-111559666D01*
X170343904Y-111559666D01*
X170267714Y-111597761D01*
X170229619Y-111635857D01*
X170191523Y-111712047D01*
X170191523Y-111902523D01*
X170229619Y-111978714D01*
X170267714Y-112016809D01*
X170343904Y-112054904D01*
X170534380Y-112054904D01*
X170610571Y-112016809D01*
X170648666Y-111978714D01*
X169924857Y-111254904D02*
X169391523Y-111254904D01*
X169734380Y-112054904D01*
X168743904Y-111521571D02*
X168743904Y-112054904D01*
X168934380Y-111216809D02*
X169124857Y-111788238D01*
X168629619Y-111788238D01*
X172972476Y-113342904D02*
X172972476Y-112923857D01*
X173010571Y-112847666D01*
X173086761Y-112809571D01*
X173239142Y-112809571D01*
X173315333Y-112847666D01*
X172972476Y-113304809D02*
X173048666Y-113342904D01*
X173239142Y-113342904D01*
X173315333Y-113304809D01*
X173353428Y-113228619D01*
X173353428Y-113152428D01*
X173315333Y-113076238D01*
X173239142Y-113038142D01*
X173048666Y-113038142D01*
X172972476Y-113000047D01*
X172248666Y-113342904D02*
X172248666Y-112542904D01*
X172248666Y-113304809D02*
X172324857Y-113342904D01*
X172477238Y-113342904D01*
X172553428Y-113304809D01*
X172591523Y-113266714D01*
X172629619Y-113190523D01*
X172629619Y-112961952D01*
X172591523Y-112885761D01*
X172553428Y-112847666D01*
X172477238Y-112809571D01*
X172324857Y-112809571D01*
X172248666Y-112847666D01*
X171524857Y-113342904D02*
X171524857Y-112542904D01*
X171524857Y-113304809D02*
X171601047Y-113342904D01*
X171753428Y-113342904D01*
X171829619Y-113304809D01*
X171867714Y-113266714D01*
X171905809Y-113190523D01*
X171905809Y-112961952D01*
X171867714Y-112885761D01*
X171829619Y-112847666D01*
X171753428Y-112809571D01*
X171601047Y-112809571D01*
X171524857Y-112847666D01*
X171143904Y-113342904D02*
X171143904Y-112809571D01*
X171143904Y-112961952D02*
X171105809Y-112885761D01*
X171067714Y-112847666D01*
X170991523Y-112809571D01*
X170915333Y-112809571D01*
X170343904Y-113304809D02*
X170420095Y-113342904D01*
X170572476Y-113342904D01*
X170648666Y-113304809D01*
X170686761Y-113228619D01*
X170686761Y-112923857D01*
X170648666Y-112847666D01*
X170572476Y-112809571D01*
X170420095Y-112809571D01*
X170343904Y-112847666D01*
X170305809Y-112923857D01*
X170305809Y-113000047D01*
X170686761Y-113076238D01*
X170001047Y-113304809D02*
X169924857Y-113342904D01*
X169772476Y-113342904D01*
X169696285Y-113304809D01*
X169658190Y-113228619D01*
X169658190Y-113190523D01*
X169696285Y-113114333D01*
X169772476Y-113076238D01*
X169886761Y-113076238D01*
X169962952Y-113038142D01*
X170001047Y-112961952D01*
X170001047Y-112923857D01*
X169962952Y-112847666D01*
X169886761Y-112809571D01*
X169772476Y-112809571D01*
X169696285Y-112847666D01*
X169353428Y-113304809D02*
X169277238Y-113342904D01*
X169124857Y-113342904D01*
X169048666Y-113304809D01*
X169010571Y-113228619D01*
X169010571Y-113190523D01*
X169048666Y-113114333D01*
X169124857Y-113076238D01*
X169239142Y-113076238D01*
X169315333Y-113038142D01*
X169353428Y-112961952D01*
X169353428Y-112923857D01*
X169315333Y-112847666D01*
X169239142Y-112809571D01*
X169124857Y-112809571D01*
X169048666Y-112847666D01*
D11*
X173932000Y-113734000D02*
X173932000Y-110813000D01*
X168432000Y-113734000D02*
X168432000Y-110813000D01*
D12*
X170394523Y-114350000D02*
X170470714Y-114311904D01*
X170585000Y-114311904D01*
X170699285Y-114350000D01*
X170775476Y-114426190D01*
X170813571Y-114502380D01*
X170851666Y-114654761D01*
X170851666Y-114769047D01*
X170813571Y-114921428D01*
X170775476Y-114997619D01*
X170699285Y-115073809D01*
X170585000Y-115111904D01*
X170508809Y-115111904D01*
X170394523Y-115073809D01*
X170356428Y-115035714D01*
X170356428Y-114769047D01*
X170508809Y-114769047D01*
X170013571Y-115111904D02*
X170013571Y-114311904D01*
X169556428Y-115111904D01*
X169556428Y-114311904D01*
X169175476Y-115111904D02*
X169175476Y-114311904D01*
X168985000Y-114311904D01*
X168870714Y-114350000D01*
X168794523Y-114426190D01*
X168756428Y-114502380D01*
X168718333Y-114654761D01*
X168718333Y-114769047D01*
X168756428Y-114921428D01*
X168794523Y-114997619D01*
X168870714Y-115073809D01*
X168985000Y-115111904D01*
X169175476Y-115111904D01*
X173569476Y-114311904D02*
X173074238Y-114311904D01*
X173340904Y-114616666D01*
X173226619Y-114616666D01*
X173150428Y-114654761D01*
X173112333Y-114692857D01*
X173074238Y-114769047D01*
X173074238Y-114959523D01*
X173112333Y-115035714D01*
X173150428Y-115073809D01*
X173226619Y-115111904D01*
X173455190Y-115111904D01*
X173531380Y-115073809D01*
X173569476Y-115035714D01*
X172845666Y-114311904D02*
X172579000Y-115111904D01*
X172312333Y-114311904D01*
X172121857Y-114311904D02*
X171626619Y-114311904D01*
X171893285Y-114616666D01*
X171779000Y-114616666D01*
X171702809Y-114654761D01*
X171664714Y-114692857D01*
X171626619Y-114769047D01*
X171626619Y-114959523D01*
X171664714Y-115035714D01*
X171702809Y-115073809D01*
X171779000Y-115111904D01*
X172007571Y-115111904D01*
X172083761Y-115073809D01*
X172121857Y-115035714D01*
D11*
X168432000Y-123367000D02*
X173932000Y-123367000D01*
X171182000Y-120576000D02*
X171182000Y-121417000D01*
X171182000Y-117782000D02*
X171182000Y-118626000D01*
X173932000Y-113734000D02*
X171182000Y-113734000D01*
X173932000Y-123367000D02*
X173932000Y-113734000D01*
X168432000Y-115832000D02*
X168432000Y-123367000D01*
X168432000Y-113734000D02*
X168432000Y-115832000D01*
X171182000Y-113734000D02*
X168432000Y-113734000D01*
X171182000Y-115832000D02*
X171182000Y-113734000D01*
D12*
X195311904Y-107646000D02*
X195407142Y-107598380D01*
X195550000Y-107598380D01*
X195692857Y-107646000D01*
X195788095Y-107741238D01*
X195835714Y-107836476D01*
X195883333Y-108026952D01*
X195883333Y-108169809D01*
X195835714Y-108360285D01*
X195788095Y-108455523D01*
X195692857Y-108550761D01*
X195550000Y-108598380D01*
X195454761Y-108598380D01*
X195311904Y-108550761D01*
X195264285Y-108503142D01*
X195264285Y-108169809D01*
X195454761Y-108169809D01*
X194835714Y-108598380D02*
X194835714Y-107598380D01*
X194264285Y-108598380D01*
X194264285Y-107598380D01*
X193788095Y-108598380D02*
X193788095Y-107598380D01*
X193550000Y-107598380D01*
X193407142Y-107646000D01*
X193311904Y-107741238D01*
X193264285Y-107836476D01*
X193216666Y-108026952D01*
X193216666Y-108169809D01*
X193264285Y-108360285D01*
X193311904Y-108455523D01*
X193407142Y-108550761D01*
X193550000Y-108598380D01*
X193788095Y-108598380D01*
X193446380Y-95723880D02*
X193113047Y-96723880D01*
X192779714Y-95723880D01*
X192446380Y-96342928D02*
X191684476Y-96342928D01*
X191208285Y-95723880D02*
X191208285Y-96533404D01*
X191160666Y-96628642D01*
X191113047Y-96676261D01*
X191017809Y-96723880D01*
X190827333Y-96723880D01*
X190732095Y-96676261D01*
X190684476Y-96628642D01*
X190636857Y-96533404D01*
X190636857Y-95723880D01*
X190208285Y-96676261D02*
X190065428Y-96723880D01*
X189827333Y-96723880D01*
X189732095Y-96676261D01*
X189684476Y-96628642D01*
X189636857Y-96533404D01*
X189636857Y-96438166D01*
X189684476Y-96342928D01*
X189732095Y-96295309D01*
X189827333Y-96247690D01*
X190017809Y-96200071D01*
X190113047Y-96152452D01*
X190160666Y-96104833D01*
X190208285Y-96009595D01*
X190208285Y-95914357D01*
X190160666Y-95819119D01*
X190113047Y-95771500D01*
X190017809Y-95723880D01*
X189779714Y-95723880D01*
X189636857Y-95771500D01*
X188874952Y-96200071D02*
X188732095Y-96247690D01*
X188684476Y-96295309D01*
X188636857Y-96390547D01*
X188636857Y-96533404D01*
X188684476Y-96628642D01*
X188732095Y-96676261D01*
X188827333Y-96723880D01*
X189208285Y-96723880D01*
X189208285Y-95723880D01*
X188874952Y-95723880D01*
X188779714Y-95771500D01*
X188732095Y-95819119D01*
X188684476Y-95914357D01*
X188684476Y-96009595D01*
X188732095Y-96104833D01*
X188779714Y-96152452D01*
X188874952Y-96200071D01*
X189208285Y-96200071D01*
X195430952Y-93993380D02*
X195430952Y-92993380D01*
X195192857Y-92993380D01*
X195050000Y-93041000D01*
X194954761Y-93136238D01*
X194907142Y-93231476D01*
X194859523Y-93421952D01*
X194859523Y-93564809D01*
X194907142Y-93755285D01*
X194954761Y-93850523D01*
X195050000Y-93945761D01*
X195192857Y-93993380D01*
X195430952Y-93993380D01*
X194430952Y-93612428D02*
X193669047Y-93612428D01*
X195430952Y-91834380D02*
X195430952Y-90834380D01*
X195192857Y-90834380D01*
X195050000Y-90882000D01*
X194954761Y-90977238D01*
X194907142Y-91072476D01*
X194859523Y-91262952D01*
X194859523Y-91405809D01*
X194907142Y-91596285D01*
X194954761Y-91691523D01*
X195050000Y-91786761D01*
X195192857Y-91834380D01*
X195430952Y-91834380D01*
X194430952Y-91453428D02*
X193669047Y-91453428D01*
X194050000Y-91834380D02*
X194050000Y-91072476D01*
X185024976Y-89183380D02*
X185501166Y-89183380D01*
X185548785Y-89659571D01*
X185501166Y-89611952D01*
X185405928Y-89564333D01*
X185167833Y-89564333D01*
X185072595Y-89611952D01*
X185024976Y-89659571D01*
X184977357Y-89754809D01*
X184977357Y-89992904D01*
X185024976Y-90088142D01*
X185072595Y-90135761D01*
X185167833Y-90183380D01*
X185405928Y-90183380D01*
X185501166Y-90135761D01*
X185548785Y-90088142D01*
X184691642Y-89183380D02*
X184358309Y-90183380D01*
X184024976Y-89183380D01*
X151973095Y-115853380D02*
X151354047Y-115853380D01*
X151687380Y-116234333D01*
X151544523Y-116234333D01*
X151449285Y-116281952D01*
X151401666Y-116329571D01*
X151354047Y-116424809D01*
X151354047Y-116662904D01*
X151401666Y-116758142D01*
X151449285Y-116805761D01*
X151544523Y-116853380D01*
X151830238Y-116853380D01*
X151925476Y-116805761D01*
X151973095Y-116758142D01*
X151068333Y-115853380D02*
X150735000Y-116853380D01*
X150401666Y-115853380D01*
X150163571Y-115853380D02*
X149544523Y-115853380D01*
X149877857Y-116234333D01*
X149735000Y-116234333D01*
X149639761Y-116281952D01*
X149592142Y-116329571D01*
X149544523Y-116424809D01*
X149544523Y-116662904D01*
X149592142Y-116758142D01*
X149639761Y-116805761D01*
X149735000Y-116853380D01*
X150020714Y-116853380D01*
X150115952Y-116805761D01*
X150163571Y-116758142D01*
D11*
X180707000Y-109035000D02*
G75*
G03*
X180707000Y-109035000I-127000J0D01*
G01*
X180759605Y-99891000D02*
G75*
G03*
X180759605Y-99891000I-179605J0D01*
G01*
X180580000Y-107638000D02*
X180580000Y-109035000D01*
X180580000Y-101288000D02*
X180580000Y-99891000D01*
D12*
X178687571Y-109092142D02*
X178078047Y-109092142D01*
X178382809Y-109396904D02*
X178382809Y-108787380D01*
X177316142Y-108596904D02*
X177697095Y-108596904D01*
X177735190Y-108977857D01*
X177697095Y-108939761D01*
X177620904Y-108901666D01*
X177430428Y-108901666D01*
X177354238Y-108939761D01*
X177316142Y-108977857D01*
X177278047Y-109054047D01*
X177278047Y-109244523D01*
X177316142Y-109320714D01*
X177354238Y-109358809D01*
X177430428Y-109396904D01*
X177620904Y-109396904D01*
X177697095Y-109358809D01*
X177735190Y-109320714D01*
X177049476Y-108596904D02*
X176782809Y-109396904D01*
X176516142Y-108596904D01*
X178731904Y-99516404D02*
X178465238Y-100316404D01*
X178198571Y-99516404D01*
X177931904Y-100011642D02*
X177322380Y-100011642D01*
X176941428Y-99516404D02*
X176941428Y-100164023D01*
X176903333Y-100240214D01*
X176865238Y-100278309D01*
X176789047Y-100316404D01*
X176636666Y-100316404D01*
X176560476Y-100278309D01*
X176522380Y-100240214D01*
X176484285Y-100164023D01*
X176484285Y-99516404D01*
X176141428Y-100278309D02*
X176027142Y-100316404D01*
X175836666Y-100316404D01*
X175760476Y-100278309D01*
X175722380Y-100240214D01*
X175684285Y-100164023D01*
X175684285Y-100087833D01*
X175722380Y-100011642D01*
X175760476Y-99973547D01*
X175836666Y-99935452D01*
X175989047Y-99897357D01*
X176065238Y-99859261D01*
X176103333Y-99821166D01*
X176141428Y-99744976D01*
X176141428Y-99668785D01*
X176103333Y-99592595D01*
X176065238Y-99554500D01*
X175989047Y-99516404D01*
X175798571Y-99516404D01*
X175684285Y-99554500D01*
X175074761Y-99897357D02*
X174960476Y-99935452D01*
X174922380Y-99973547D01*
X174884285Y-100049738D01*
X174884285Y-100164023D01*
X174922380Y-100240214D01*
X174960476Y-100278309D01*
X175036666Y-100316404D01*
X175341428Y-100316404D01*
X175341428Y-99516404D01*
X175074761Y-99516404D01*
X174998571Y-99554500D01*
X174960476Y-99592595D01*
X174922380Y-99668785D01*
X174922380Y-99744976D01*
X174960476Y-99821166D01*
X174998571Y-99859261D01*
X175074761Y-99897357D01*
X175341428Y-99897357D01*
D11*
X184390000Y-107638000D02*
X184390000Y-105863000D01*
X180580000Y-107638000D02*
X184390000Y-107638000D01*
X184390000Y-101288000D02*
X184390000Y-103063000D01*
X180580000Y-101288000D02*
X184390000Y-101288000D01*
D12*
%TO.C,JP1*%
X183318333Y-101756380D02*
X183318333Y-102470666D01*
X183365952Y-102613523D01*
X183461190Y-102708761D01*
X183604047Y-102756380D01*
X183699285Y-102756380D01*
X182842142Y-102756380D02*
X182842142Y-101756380D01*
X182461190Y-101756380D01*
X182365952Y-101804000D01*
X182318333Y-101851619D01*
X182270714Y-101946857D01*
X182270714Y-102089714D01*
X182318333Y-102184952D01*
X182365952Y-102232571D01*
X182461190Y-102280190D01*
X182842142Y-102280190D01*
X181318333Y-102756380D02*
X181889761Y-102756380D01*
X181604047Y-102756380D02*
X181604047Y-101756380D01*
X181699285Y-101899238D01*
X181794523Y-101994476D01*
X181889761Y-102042095D01*
%TO.C,JP2*%
X121215333Y-122076380D02*
X121215333Y-122790666D01*
X121262952Y-122933523D01*
X121358190Y-123028761D01*
X121501047Y-123076380D01*
X121596285Y-123076380D01*
X120739142Y-123076380D02*
X120739142Y-122076380D01*
X120358190Y-122076380D01*
X120262952Y-122124000D01*
X120215333Y-122171619D01*
X120167714Y-122266857D01*
X120167714Y-122409714D01*
X120215333Y-122504952D01*
X120262952Y-122552571D01*
X120358190Y-122600190D01*
X120739142Y-122600190D01*
X119786761Y-122171619D02*
X119739142Y-122124000D01*
X119643904Y-122076380D01*
X119405809Y-122076380D01*
X119310571Y-122124000D01*
X119262952Y-122171619D01*
X119215333Y-122266857D01*
X119215333Y-122362095D01*
X119262952Y-122504952D01*
X119834380Y-123076380D01*
X119215333Y-123076380D01*
%TO.C,A0*%
X175706285Y-116948666D02*
X175230095Y-116948666D01*
X175801523Y-117234380D02*
X175468190Y-116234380D01*
X175134857Y-117234380D01*
X174611047Y-116234380D02*
X174515809Y-116234380D01*
X174420571Y-116282000D01*
X174372952Y-116329619D01*
X174325333Y-116424857D01*
X174277714Y-116615333D01*
X174277714Y-116853428D01*
X174325333Y-117043904D01*
X174372952Y-117139142D01*
X174420571Y-117186761D01*
X174515809Y-117234380D01*
X174611047Y-117234380D01*
X174706285Y-117186761D01*
X174753904Y-117139142D01*
X174801523Y-117043904D01*
X174849142Y-116853428D01*
X174849142Y-116615333D01*
X174801523Y-116424857D01*
X174753904Y-116329619D01*
X174706285Y-116282000D01*
X174611047Y-116234380D01*
%TO.C,JP6*%
X179000333Y-124489380D02*
X179000333Y-125203666D01*
X179047952Y-125346523D01*
X179143190Y-125441761D01*
X179286047Y-125489380D01*
X179381285Y-125489380D01*
X178524142Y-125489380D02*
X178524142Y-124489380D01*
X178143190Y-124489380D01*
X178047952Y-124537000D01*
X178000333Y-124584619D01*
X177952714Y-124679857D01*
X177952714Y-124822714D01*
X178000333Y-124917952D01*
X178047952Y-124965571D01*
X178143190Y-125013190D01*
X178524142Y-125013190D01*
X177095571Y-124489380D02*
X177286047Y-124489380D01*
X177381285Y-124537000D01*
X177428904Y-124584619D01*
X177524142Y-124727476D01*
X177571761Y-124917952D01*
X177571761Y-125298904D01*
X177524142Y-125394142D01*
X177476523Y-125441761D01*
X177381285Y-125489380D01*
X177190809Y-125489380D01*
X177095571Y-125441761D01*
X177047952Y-125394142D01*
X177000333Y-125298904D01*
X177000333Y-125060809D01*
X177047952Y-124965571D01*
X177095571Y-124917952D01*
X177190809Y-124870333D01*
X177381285Y-124870333D01*
X177476523Y-124917952D01*
X177524142Y-124965571D01*
X177571761Y-125060809D01*
%TO.C,A1*%
X175706285Y-119742666D02*
X175230095Y-119742666D01*
X175801523Y-120028380D02*
X175468190Y-119028380D01*
X175134857Y-120028380D01*
X174277714Y-120028380D02*
X174849142Y-120028380D01*
X174563428Y-120028380D02*
X174563428Y-119028380D01*
X174658666Y-119171238D01*
X174753904Y-119266476D01*
X174849142Y-119314095D01*
%TO.C,JP8*%
X166808333Y-124362380D02*
X166808333Y-125076666D01*
X166855952Y-125219523D01*
X166951190Y-125314761D01*
X167094047Y-125362380D01*
X167189285Y-125362380D01*
X166332142Y-125362380D02*
X166332142Y-124362380D01*
X165951190Y-124362380D01*
X165855952Y-124410000D01*
X165808333Y-124457619D01*
X165760714Y-124552857D01*
X165760714Y-124695714D01*
X165808333Y-124790952D01*
X165855952Y-124838571D01*
X165951190Y-124886190D01*
X166332142Y-124886190D01*
X165189285Y-124790952D02*
X165284523Y-124743333D01*
X165332142Y-124695714D01*
X165379761Y-124600476D01*
X165379761Y-124552857D01*
X165332142Y-124457619D01*
X165284523Y-124410000D01*
X165189285Y-124362380D01*
X164998809Y-124362380D01*
X164903571Y-124410000D01*
X164855952Y-124457619D01*
X164808333Y-124552857D01*
X164808333Y-124600476D01*
X164855952Y-124695714D01*
X164903571Y-124743333D01*
X164998809Y-124790952D01*
X165189285Y-124790952D01*
X165284523Y-124838571D01*
X165332142Y-124886190D01*
X165379761Y-124981428D01*
X165379761Y-125171904D01*
X165332142Y-125267142D01*
X165284523Y-125314761D01*
X165189285Y-125362380D01*
X164998809Y-125362380D01*
X164903571Y-125314761D01*
X164855952Y-125267142D01*
X164808333Y-125171904D01*
X164808333Y-124981428D01*
X164855952Y-124886190D01*
X164903571Y-124838571D01*
X164998809Y-124790952D01*
%TO.C,A2*%
X175706285Y-122536666D02*
X175230095Y-122536666D01*
X175801523Y-122822380D02*
X175468190Y-121822380D01*
X175134857Y-122822380D01*
X174849142Y-121917619D02*
X174801523Y-121870000D01*
X174706285Y-121822380D01*
X174468190Y-121822380D01*
X174372952Y-121870000D01*
X174325333Y-121917619D01*
X174277714Y-122012857D01*
X174277714Y-122108095D01*
X174325333Y-122250952D01*
X174896761Y-122822380D01*
X174277714Y-122822380D01*
D14*
%TO.C,LOGO2*%
X118210043Y-87900571D02*
X118113768Y-87924809D01*
X118113768Y-87924809D02*
X118027184Y-87967641D01*
X118027184Y-87967641D02*
X117952373Y-88027419D01*
X117952373Y-88027419D02*
X117891418Y-88102494D01*
X117891418Y-88102494D02*
X117846399Y-88191220D01*
X117846399Y-88191220D02*
X117820136Y-88287530D01*
X117820136Y-88287530D02*
X117814286Y-88384795D01*
X117814286Y-88384795D02*
X117829140Y-88478654D01*
X117829140Y-88478654D02*
X117862840Y-88566511D01*
X117862840Y-88566511D02*
X117913528Y-88645770D01*
X117913528Y-88645770D02*
X117979345Y-88713836D01*
X117979345Y-88713836D02*
X118058434Y-88768112D01*
X118058434Y-88768112D02*
X118148934Y-88806002D01*
X118148934Y-88806002D02*
X118200200Y-88818426D01*
X118200200Y-88818426D02*
X118244698Y-88825947D01*
X118244698Y-88825947D02*
X118278999Y-88828919D01*
X118278999Y-88828919D02*
X118311960Y-88827094D01*
X118311960Y-88827094D02*
X118352434Y-88820225D01*
X118352434Y-88820225D02*
X118385531Y-88813250D01*
X118385531Y-88813250D02*
X118478947Y-88781741D01*
X118478947Y-88781741D02*
X118562619Y-88730617D01*
X118562619Y-88730617D02*
X118634665Y-88661429D01*
X118634665Y-88661429D02*
X118693200Y-88575728D01*
X118693200Y-88575728D02*
X118707148Y-88548489D01*
X118707148Y-88548489D02*
X118723586Y-88512122D01*
X118723586Y-88512122D02*
X118733894Y-88481582D01*
X118733894Y-88481582D02*
X118739460Y-88449450D01*
X118739460Y-88449450D02*
X118741669Y-88408307D01*
X118741669Y-88408307D02*
X118741948Y-88362222D01*
X118741948Y-88362222D02*
X118737861Y-88277865D01*
X118737861Y-88277865D02*
X118724446Y-88208586D01*
X118724446Y-88208586D02*
X118699256Y-88147961D01*
X118699256Y-88147961D02*
X118659846Y-88089567D01*
X118659846Y-88089567D02*
X118621298Y-88045302D01*
X118621298Y-88045302D02*
X118549406Y-87979484D01*
X118549406Y-87979484D02*
X118474313Y-87934053D01*
X118474313Y-87934053D02*
X118391562Y-87906850D01*
X118391562Y-87906850D02*
X118313928Y-87896576D01*
X118313928Y-87896576D02*
X118210043Y-87900571D01*
X118210043Y-87900571D02*
X118210043Y-87900571D01*
G36*
X118391562Y-87906850D02*
G01*
X118474313Y-87934053D01*
X118549406Y-87979484D01*
X118621298Y-88045302D01*
X118659846Y-88089567D01*
X118699256Y-88147961D01*
X118724446Y-88208586D01*
X118737861Y-88277865D01*
X118741948Y-88362222D01*
X118741669Y-88408307D01*
X118739460Y-88449450D01*
X118733894Y-88481582D01*
X118723586Y-88512122D01*
X118707148Y-88548489D01*
X118693200Y-88575728D01*
X118634665Y-88661429D01*
X118562619Y-88730617D01*
X118478947Y-88781741D01*
X118385531Y-88813250D01*
X118352434Y-88820225D01*
X118311960Y-88827094D01*
X118278999Y-88828919D01*
X118244698Y-88825947D01*
X118200200Y-88818426D01*
X118148934Y-88806002D01*
X118058434Y-88768112D01*
X117979345Y-88713836D01*
X117913528Y-88645770D01*
X117862840Y-88566511D01*
X117829140Y-88478654D01*
X117814286Y-88384795D01*
X117820136Y-88287530D01*
X117846399Y-88191220D01*
X117891418Y-88102494D01*
X117952373Y-88027419D01*
X118027184Y-87967641D01*
X118113768Y-87924809D01*
X118210043Y-87900571D01*
X118313928Y-87896576D01*
X118391562Y-87906850D01*
G37*
X118391562Y-87906850D02*
X118474313Y-87934053D01*
X118549406Y-87979484D01*
X118621298Y-88045302D01*
X118659846Y-88089567D01*
X118699256Y-88147961D01*
X118724446Y-88208586D01*
X118737861Y-88277865D01*
X118741948Y-88362222D01*
X118741669Y-88408307D01*
X118739460Y-88449450D01*
X118733894Y-88481582D01*
X118723586Y-88512122D01*
X118707148Y-88548489D01*
X118693200Y-88575728D01*
X118634665Y-88661429D01*
X118562619Y-88730617D01*
X118478947Y-88781741D01*
X118385531Y-88813250D01*
X118352434Y-88820225D01*
X118311960Y-88827094D01*
X118278999Y-88828919D01*
X118244698Y-88825947D01*
X118200200Y-88818426D01*
X118148934Y-88806002D01*
X118058434Y-88768112D01*
X117979345Y-88713836D01*
X117913528Y-88645770D01*
X117862840Y-88566511D01*
X117829140Y-88478654D01*
X117814286Y-88384795D01*
X117820136Y-88287530D01*
X117846399Y-88191220D01*
X117891418Y-88102494D01*
X117952373Y-88027419D01*
X118027184Y-87967641D01*
X118113768Y-87924809D01*
X118210043Y-87900571D01*
X118313928Y-87896576D01*
X118391562Y-87906850D01*
X109750493Y-90346245D02*
X109750474Y-90580662D01*
X109750474Y-90580662D02*
X109750448Y-90793603D01*
X109750448Y-90793603D02*
X109750375Y-90986168D01*
X109750375Y-90986168D02*
X109750218Y-91159459D01*
X109750218Y-91159459D02*
X109749936Y-91314576D01*
X109749936Y-91314576D02*
X109749491Y-91452620D01*
X109749491Y-91452620D02*
X109748844Y-91574692D01*
X109748844Y-91574692D02*
X109747955Y-91681894D01*
X109747955Y-91681894D02*
X109746787Y-91775326D01*
X109746787Y-91775326D02*
X109745299Y-91856090D01*
X109745299Y-91856090D02*
X109743454Y-91925286D01*
X109743454Y-91925286D02*
X109741211Y-91984015D01*
X109741211Y-91984015D02*
X109738531Y-92033379D01*
X109738531Y-92033379D02*
X109735377Y-92074478D01*
X109735377Y-92074478D02*
X109731708Y-92108413D01*
X109731708Y-92108413D02*
X109727487Y-92136286D01*
X109727487Y-92136286D02*
X109722673Y-92159198D01*
X109722673Y-92159198D02*
X109717227Y-92178249D01*
X109717227Y-92178249D02*
X109711112Y-92194540D01*
X109711112Y-92194540D02*
X109704288Y-92209173D01*
X109704288Y-92209173D02*
X109696715Y-92223249D01*
X109696715Y-92223249D02*
X109688355Y-92237868D01*
X109688355Y-92237868D02*
X109683161Y-92246974D01*
X109683161Y-92246974D02*
X109648896Y-92307689D01*
X109648896Y-92307689D02*
X110507045Y-92307689D01*
X110507045Y-92307689D02*
X110507045Y-92211733D01*
X110507045Y-92211733D02*
X110507776Y-92168370D01*
X110507776Y-92168370D02*
X110509728Y-92135205D01*
X110509728Y-92135205D02*
X110512537Y-92117424D01*
X110512537Y-92117424D02*
X110513779Y-92115778D01*
X110513779Y-92115778D02*
X110525201Y-92122662D01*
X110525201Y-92122662D02*
X110547916Y-92140505D01*
X110547916Y-92140505D02*
X110570615Y-92159879D01*
X110570615Y-92159879D02*
X110625200Y-92200614D01*
X110625200Y-92200614D02*
X110694679Y-92241617D01*
X110694679Y-92241617D02*
X110771730Y-92279123D01*
X110771730Y-92279123D02*
X110849035Y-92309364D01*
X110849035Y-92309364D02*
X110879887Y-92319012D01*
X110879887Y-92319012D02*
X110948384Y-92333578D01*
X110948384Y-92333578D02*
X111031236Y-92343539D01*
X111031236Y-92343539D02*
X111120629Y-92348583D01*
X111120629Y-92348583D02*
X111208752Y-92348396D01*
X111208752Y-92348396D02*
X111287793Y-92342666D01*
X111287793Y-92342666D02*
X111325489Y-92336858D01*
X111325489Y-92336858D02*
X111463586Y-92298797D01*
X111463586Y-92298797D02*
X111590887Y-92241073D01*
X111590887Y-92241073D02*
X111706708Y-92164211D01*
X111706708Y-92164211D02*
X111810363Y-92068739D01*
X111810363Y-92068739D02*
X111901167Y-91955179D01*
X111901167Y-91955179D02*
X111967969Y-91844381D01*
X111967969Y-91844381D02*
X112022836Y-91727625D01*
X112022836Y-91727625D02*
X112064837Y-91608276D01*
X112064837Y-91608276D02*
X112094833Y-91482283D01*
X112094833Y-91482283D02*
X112113689Y-91345594D01*
X112113689Y-91345594D02*
X112122268Y-91194158D01*
X112122268Y-91194158D02*
X112122994Y-91116711D01*
X112122994Y-91116711D02*
X112120900Y-91059934D01*
X112120900Y-91059934D02*
X111291783Y-91059934D01*
X111291783Y-91059934D02*
X111291576Y-91153002D01*
X111291576Y-91153002D02*
X111288663Y-91240692D01*
X111288663Y-91240692D02*
X111283000Y-91317772D01*
X111283000Y-91317772D02*
X111274545Y-91379009D01*
X111274545Y-91379009D02*
X111271962Y-91391350D01*
X111271962Y-91391350D02*
X111240160Y-91498633D01*
X111240160Y-91498633D02*
X111198502Y-91585658D01*
X111198502Y-91585658D02*
X111146637Y-91652642D01*
X111146637Y-91652642D02*
X111084219Y-91699805D01*
X111084219Y-91699805D02*
X111010900Y-91727365D01*
X111010900Y-91727365D02*
X110926331Y-91735541D01*
X110926331Y-91735541D02*
X110830165Y-91724551D01*
X110830165Y-91724551D02*
X110766689Y-91708829D01*
X110766689Y-91708829D02*
X110717546Y-91690639D01*
X110717546Y-91690639D02*
X110663417Y-91664791D01*
X110663417Y-91664791D02*
X110622756Y-91641089D01*
X110622756Y-91641089D02*
X110552200Y-91594721D01*
X110552200Y-91594721D02*
X110552200Y-90444530D01*
X110552200Y-90444530D02*
X110619608Y-90400962D01*
X110619608Y-90400962D02*
X110698133Y-90360040D01*
X110698133Y-90360040D02*
X110782319Y-90333389D01*
X110782319Y-90333389D02*
X110867443Y-90321465D01*
X110867443Y-90321465D02*
X110948784Y-90324722D01*
X110948784Y-90324722D02*
X111021620Y-90343615D01*
X111021620Y-90343615D02*
X111053574Y-90359184D01*
X111053574Y-90359184D02*
X111111499Y-90402181D01*
X111111499Y-90402181D02*
X111160456Y-90458953D01*
X111160456Y-90458953D02*
X111201610Y-90531575D01*
X111201610Y-90531575D02*
X111236126Y-90622121D01*
X111236126Y-90622121D02*
X111265167Y-90732666D01*
X111265167Y-90732666D02*
X111266448Y-90738533D01*
X111266448Y-90738533D02*
X111276619Y-90800788D01*
X111276619Y-90800788D02*
X111284261Y-90878594D01*
X111284261Y-90878594D02*
X111289330Y-90966720D01*
X111289330Y-90966720D02*
X111291783Y-91059934D01*
X111291783Y-91059934D02*
X112120900Y-91059934D01*
X112120900Y-91059934D02*
X112115143Y-90903895D01*
X112115143Y-90903895D02*
X112093198Y-90708059D01*
X112093198Y-90708059D02*
X112057214Y-90529332D01*
X112057214Y-90529332D02*
X112007241Y-90367845D01*
X112007241Y-90367845D02*
X111943332Y-90223726D01*
X111943332Y-90223726D02*
X111865538Y-90097106D01*
X111865538Y-90097106D02*
X111773911Y-89988115D01*
X111773911Y-89988115D02*
X111668503Y-89896883D01*
X111668503Y-89896883D02*
X111623338Y-89865932D01*
X111623338Y-89865932D02*
X111522389Y-89809785D01*
X111522389Y-89809785D02*
X111419099Y-89770174D01*
X111419099Y-89770174D02*
X111309011Y-89746014D01*
X111309011Y-89746014D02*
X111187670Y-89736219D01*
X111187670Y-89736219D02*
X111095164Y-89737265D01*
X111095164Y-89737265D02*
X110965510Y-89748231D01*
X110965510Y-89748231D02*
X110852916Y-89770046D01*
X110852916Y-89770046D02*
X110754125Y-89803714D01*
X110754125Y-89803714D02*
X110665879Y-89850236D01*
X110665879Y-89850236D02*
X110617014Y-89884448D01*
X110617014Y-89884448D02*
X110587647Y-89906362D01*
X110587647Y-89906362D02*
X110565957Y-89921333D01*
X110565957Y-89921333D02*
X110557747Y-89925733D01*
X110557747Y-89925733D02*
X110556132Y-89914904D01*
X110556132Y-89914904D02*
X110554841Y-89884251D01*
X110554841Y-89884251D02*
X110553862Y-89836526D01*
X110553862Y-89836526D02*
X110553183Y-89774479D01*
X110553183Y-89774479D02*
X110552790Y-89700862D01*
X110552790Y-89700862D02*
X110552670Y-89618427D01*
X110552670Y-89618427D02*
X110552812Y-89529925D01*
X110552812Y-89529925D02*
X110553203Y-89438107D01*
X110553203Y-89438107D02*
X110553829Y-89345724D01*
X110553829Y-89345724D02*
X110554680Y-89255528D01*
X110554680Y-89255528D02*
X110555740Y-89170271D01*
X110555740Y-89170271D02*
X110556999Y-89092703D01*
X110556999Y-89092703D02*
X110558444Y-89025576D01*
X110558444Y-89025576D02*
X110560062Y-88971641D01*
X110560062Y-88971641D02*
X110561839Y-88933650D01*
X110561839Y-88933650D02*
X110562331Y-88926667D01*
X110562331Y-88926667D02*
X110569908Y-88856251D01*
X110569908Y-88856251D02*
X110581469Y-88801102D01*
X110581469Y-88801102D02*
X110599208Y-88753981D01*
X110599208Y-88753981D02*
X110625318Y-88707647D01*
X110625318Y-88707647D02*
X110631585Y-88698067D01*
X110631585Y-88698067D02*
X110656017Y-88661378D01*
X110656017Y-88661378D02*
X109750689Y-88661378D01*
X109750689Y-88661378D02*
X109750493Y-90346245D01*
X109750493Y-90346245D02*
X109750493Y-90346245D01*
G36*
X112122268Y-91194158D02*
G01*
X112113689Y-91345594D01*
X112094833Y-91482283D01*
X112064837Y-91608276D01*
X112022836Y-91727625D01*
X111967969Y-91844381D01*
X111901167Y-91955179D01*
X111810363Y-92068739D01*
X111706708Y-92164211D01*
X111590887Y-92241073D01*
X111463586Y-92298797D01*
X111325489Y-92336858D01*
X111287793Y-92342666D01*
X111208752Y-92348396D01*
X111120629Y-92348583D01*
X111031236Y-92343539D01*
X110948384Y-92333578D01*
X110879887Y-92319012D01*
X110849035Y-92309364D01*
X110771730Y-92279123D01*
X110694679Y-92241617D01*
X110625200Y-92200614D01*
X110570615Y-92159879D01*
X110547916Y-92140505D01*
X110525201Y-92122662D01*
X110513779Y-92115778D01*
X110512537Y-92117424D01*
X110509728Y-92135205D01*
X110507776Y-92168370D01*
X110507045Y-92211733D01*
X110507045Y-92307689D01*
X109648896Y-92307689D01*
X109683161Y-92246974D01*
X109688355Y-92237868D01*
X109696715Y-92223249D01*
X109704288Y-92209173D01*
X109711112Y-92194540D01*
X109717227Y-92178249D01*
X109722673Y-92159198D01*
X109727487Y-92136286D01*
X109731708Y-92108413D01*
X109735377Y-92074478D01*
X109738531Y-92033379D01*
X109741211Y-91984015D01*
X109743454Y-91925286D01*
X109745299Y-91856090D01*
X109746787Y-91775326D01*
X109747955Y-91681894D01*
X109748844Y-91574692D01*
X109749491Y-91452620D01*
X109749936Y-91314576D01*
X109750218Y-91159459D01*
X109750375Y-90986168D01*
X109750448Y-90793603D01*
X109750474Y-90580662D01*
X109750485Y-90444530D01*
X110552200Y-90444530D01*
X110552200Y-91594721D01*
X110622756Y-91641089D01*
X110663417Y-91664791D01*
X110717546Y-91690639D01*
X110766689Y-91708829D01*
X110830165Y-91724551D01*
X110926331Y-91735541D01*
X111010900Y-91727365D01*
X111084219Y-91699805D01*
X111146637Y-91652642D01*
X111198502Y-91585658D01*
X111240160Y-91498633D01*
X111271962Y-91391350D01*
X111274545Y-91379009D01*
X111283000Y-91317772D01*
X111288663Y-91240692D01*
X111291576Y-91153002D01*
X111291783Y-91059934D01*
X111289330Y-90966720D01*
X111284261Y-90878594D01*
X111276619Y-90800788D01*
X111266448Y-90738533D01*
X111265167Y-90732666D01*
X111236126Y-90622121D01*
X111201610Y-90531575D01*
X111160456Y-90458953D01*
X111111499Y-90402181D01*
X111053574Y-90359184D01*
X111021620Y-90343615D01*
X110948784Y-90324722D01*
X110867443Y-90321465D01*
X110782319Y-90333389D01*
X110698133Y-90360040D01*
X110619608Y-90400962D01*
X110552200Y-90444530D01*
X109750485Y-90444530D01*
X109750493Y-90346245D01*
X109750689Y-88661378D01*
X110656017Y-88661378D01*
X110631585Y-88698067D01*
X110625318Y-88707647D01*
X110599208Y-88753981D01*
X110581469Y-88801102D01*
X110569908Y-88856251D01*
X110562331Y-88926667D01*
X110561839Y-88933650D01*
X110560062Y-88971641D01*
X110558444Y-89025576D01*
X110556999Y-89092703D01*
X110555740Y-89170271D01*
X110554680Y-89255528D01*
X110553829Y-89345724D01*
X110553203Y-89438107D01*
X110552812Y-89529925D01*
X110552670Y-89618427D01*
X110552790Y-89700862D01*
X110553183Y-89774479D01*
X110553862Y-89836526D01*
X110554841Y-89884251D01*
X110556132Y-89914904D01*
X110557747Y-89925733D01*
X110565957Y-89921333D01*
X110587647Y-89906362D01*
X110617014Y-89884448D01*
X110665879Y-89850236D01*
X110754125Y-89803714D01*
X110852916Y-89770046D01*
X110965510Y-89748231D01*
X111095164Y-89737265D01*
X111187670Y-89736219D01*
X111309011Y-89746014D01*
X111419099Y-89770174D01*
X111522389Y-89809785D01*
X111623338Y-89865932D01*
X111668503Y-89896883D01*
X111773911Y-89988115D01*
X111865538Y-90097106D01*
X111943332Y-90223726D01*
X112007241Y-90367845D01*
X112057214Y-90529332D01*
X112093198Y-90708059D01*
X112115143Y-90903895D01*
X112120900Y-91059934D01*
X112122994Y-91116711D01*
X112122268Y-91194158D01*
G37*
X112122268Y-91194158D02*
X112113689Y-91345594D01*
X112094833Y-91482283D01*
X112064837Y-91608276D01*
X112022836Y-91727625D01*
X111967969Y-91844381D01*
X111901167Y-91955179D01*
X111810363Y-92068739D01*
X111706708Y-92164211D01*
X111590887Y-92241073D01*
X111463586Y-92298797D01*
X111325489Y-92336858D01*
X111287793Y-92342666D01*
X111208752Y-92348396D01*
X111120629Y-92348583D01*
X111031236Y-92343539D01*
X110948384Y-92333578D01*
X110879887Y-92319012D01*
X110849035Y-92309364D01*
X110771730Y-92279123D01*
X110694679Y-92241617D01*
X110625200Y-92200614D01*
X110570615Y-92159879D01*
X110547916Y-92140505D01*
X110525201Y-92122662D01*
X110513779Y-92115778D01*
X110512537Y-92117424D01*
X110509728Y-92135205D01*
X110507776Y-92168370D01*
X110507045Y-92211733D01*
X110507045Y-92307689D01*
X109648896Y-92307689D01*
X109683161Y-92246974D01*
X109688355Y-92237868D01*
X109696715Y-92223249D01*
X109704288Y-92209173D01*
X109711112Y-92194540D01*
X109717227Y-92178249D01*
X109722673Y-92159198D01*
X109727487Y-92136286D01*
X109731708Y-92108413D01*
X109735377Y-92074478D01*
X109738531Y-92033379D01*
X109741211Y-91984015D01*
X109743454Y-91925286D01*
X109745299Y-91856090D01*
X109746787Y-91775326D01*
X109747955Y-91681894D01*
X109748844Y-91574692D01*
X109749491Y-91452620D01*
X109749936Y-91314576D01*
X109750218Y-91159459D01*
X109750375Y-90986168D01*
X109750448Y-90793603D01*
X109750474Y-90580662D01*
X109750485Y-90444530D01*
X110552200Y-90444530D01*
X110552200Y-91594721D01*
X110622756Y-91641089D01*
X110663417Y-91664791D01*
X110717546Y-91690639D01*
X110766689Y-91708829D01*
X110830165Y-91724551D01*
X110926331Y-91735541D01*
X111010900Y-91727365D01*
X111084219Y-91699805D01*
X111146637Y-91652642D01*
X111198502Y-91585658D01*
X111240160Y-91498633D01*
X111271962Y-91391350D01*
X111274545Y-91379009D01*
X111283000Y-91317772D01*
X111288663Y-91240692D01*
X111291576Y-91153002D01*
X111291783Y-91059934D01*
X111289330Y-90966720D01*
X111284261Y-90878594D01*
X111276619Y-90800788D01*
X111266448Y-90738533D01*
X111265167Y-90732666D01*
X111236126Y-90622121D01*
X111201610Y-90531575D01*
X111160456Y-90458953D01*
X111111499Y-90402181D01*
X111053574Y-90359184D01*
X111021620Y-90343615D01*
X110948784Y-90324722D01*
X110867443Y-90321465D01*
X110782319Y-90333389D01*
X110698133Y-90360040D01*
X110619608Y-90400962D01*
X110552200Y-90444530D01*
X109750485Y-90444530D01*
X109750493Y-90346245D01*
X109750689Y-88661378D01*
X110656017Y-88661378D01*
X110631585Y-88698067D01*
X110625318Y-88707647D01*
X110599208Y-88753981D01*
X110581469Y-88801102D01*
X110569908Y-88856251D01*
X110562331Y-88926667D01*
X110561839Y-88933650D01*
X110560062Y-88971641D01*
X110558444Y-89025576D01*
X110556999Y-89092703D01*
X110555740Y-89170271D01*
X110554680Y-89255528D01*
X110553829Y-89345724D01*
X110553203Y-89438107D01*
X110552812Y-89529925D01*
X110552670Y-89618427D01*
X110552790Y-89700862D01*
X110553183Y-89774479D01*
X110553862Y-89836526D01*
X110554841Y-89884251D01*
X110556132Y-89914904D01*
X110557747Y-89925733D01*
X110565957Y-89921333D01*
X110587647Y-89906362D01*
X110617014Y-89884448D01*
X110665879Y-89850236D01*
X110754125Y-89803714D01*
X110852916Y-89770046D01*
X110965510Y-89748231D01*
X111095164Y-89737265D01*
X111187670Y-89736219D01*
X111309011Y-89746014D01*
X111419099Y-89770174D01*
X111522389Y-89809785D01*
X111623338Y-89865932D01*
X111668503Y-89896883D01*
X111773911Y-89988115D01*
X111865538Y-90097106D01*
X111943332Y-90223726D01*
X112007241Y-90367845D01*
X112057214Y-90529332D01*
X112093198Y-90708059D01*
X112115143Y-90903895D01*
X112120900Y-91059934D01*
X112122994Y-91116711D01*
X112122268Y-91194158D01*
X113263426Y-89740552D02*
X113111508Y-89760567D01*
X113111508Y-89760567D02*
X112976244Y-89794202D01*
X112976244Y-89794202D02*
X112856761Y-89841725D01*
X112856761Y-89841725D02*
X112752185Y-89903405D01*
X112752185Y-89903405D02*
X112674576Y-89966965D01*
X112674576Y-89966965D02*
X112605735Y-90041099D01*
X112605735Y-90041099D02*
X112551994Y-90120871D01*
X112551994Y-90120871D02*
X112509090Y-90213091D01*
X112509090Y-90213091D02*
X112493616Y-90256161D01*
X112493616Y-90256161D02*
X112480756Y-90295142D01*
X112480756Y-90295142D02*
X112469554Y-90331289D01*
X112469554Y-90331289D02*
X112459880Y-90366434D01*
X112459880Y-90366434D02*
X112451604Y-90402410D01*
X112451604Y-90402410D02*
X112444597Y-90441050D01*
X112444597Y-90441050D02*
X112438728Y-90484185D01*
X112438728Y-90484185D02*
X112433869Y-90533649D01*
X112433869Y-90533649D02*
X112429890Y-90591273D01*
X112429890Y-90591273D02*
X112426660Y-90658891D01*
X112426660Y-90658891D02*
X112424051Y-90738334D01*
X112424051Y-90738334D02*
X112421933Y-90831436D01*
X112421933Y-90831436D02*
X112420176Y-90940027D01*
X112420176Y-90940027D02*
X112418651Y-91065942D01*
X112418651Y-91065942D02*
X112417228Y-91211012D01*
X112417228Y-91211012D02*
X112415975Y-91353778D01*
X112415975Y-91353778D02*
X112414649Y-91509968D01*
X112414649Y-91509968D02*
X112413444Y-91645239D01*
X112413444Y-91645239D02*
X112412234Y-91761246D01*
X112412234Y-91761246D02*
X112410894Y-91859645D01*
X112410894Y-91859645D02*
X112409300Y-91942093D01*
X112409300Y-91942093D02*
X112407325Y-92010246D01*
X112407325Y-92010246D02*
X112404844Y-92065760D01*
X112404844Y-92065760D02*
X112401731Y-92110292D01*
X112401731Y-92110292D02*
X112397862Y-92145498D01*
X112397862Y-92145498D02*
X112393111Y-92173034D01*
X112393111Y-92173034D02*
X112387352Y-92194556D01*
X112387352Y-92194556D02*
X112380461Y-92211722D01*
X112380461Y-92211722D02*
X112372311Y-92226186D01*
X112372311Y-92226186D02*
X112362777Y-92239606D01*
X112362777Y-92239606D02*
X112351734Y-92253638D01*
X112351734Y-92253638D02*
X112347434Y-92259071D01*
X112347434Y-92259071D02*
X112331614Y-92281910D01*
X112331614Y-92281910D02*
X112324578Y-92297463D01*
X112324578Y-92297463D02*
X112324556Y-92297922D01*
X112324556Y-92297922D02*
X112335433Y-92300121D01*
X112335433Y-92300121D02*
X112366418Y-92302147D01*
X112366418Y-92302147D02*
X112415043Y-92303942D01*
X112415043Y-92303942D02*
X112478837Y-92305451D01*
X112478837Y-92305451D02*
X112555331Y-92306616D01*
X112555331Y-92306616D02*
X112642056Y-92307380D01*
X112642056Y-92307380D02*
X112736543Y-92307686D01*
X112736543Y-92307686D02*
X112747450Y-92307689D01*
X112747450Y-92307689D02*
X113170343Y-92307689D01*
X113170343Y-92307689D02*
X113173605Y-92211622D01*
X113173605Y-92211622D02*
X113176867Y-92115556D01*
X113176867Y-92115556D02*
X113238956Y-92166543D01*
X113238956Y-92166543D02*
X113336286Y-92234057D01*
X113336286Y-92234057D02*
X113446187Y-92288749D01*
X113446187Y-92288749D02*
X113532651Y-92318978D01*
X113532651Y-92318978D02*
X113601722Y-92333666D01*
X113601722Y-92333666D02*
X113685075Y-92343659D01*
X113685075Y-92343659D02*
X113774841Y-92348646D01*
X113774841Y-92348646D02*
X113863155Y-92348313D01*
X113863155Y-92348313D02*
X113942149Y-92342351D01*
X113942149Y-92342351D02*
X113978378Y-92336638D01*
X113978378Y-92336638D02*
X114118397Y-92298776D01*
X114118397Y-92298776D02*
X114244822Y-92243932D01*
X114244822Y-92243932D02*
X114356740Y-92172924D01*
X114356740Y-92172924D02*
X114453238Y-92086568D01*
X114453238Y-92086568D02*
X114533400Y-91985679D01*
X114533400Y-91985679D02*
X114596313Y-91871076D01*
X114596313Y-91871076D02*
X114640688Y-91744984D01*
X114640688Y-91744984D02*
X114653022Y-91688401D01*
X114653022Y-91688401D02*
X114660632Y-91626202D01*
X114660632Y-91626202D02*
X114664261Y-91551363D01*
X114664261Y-91551363D02*
X114664755Y-91517467D01*
X114664755Y-91517467D02*
X114664690Y-91514282D01*
X114664690Y-91514282D02*
X113904752Y-91514282D01*
X113904752Y-91514282D02*
X113895459Y-91589333D01*
X113895459Y-91589333D02*
X113867272Y-91653160D01*
X113867272Y-91653160D02*
X113818803Y-91708798D01*
X113818803Y-91708798D02*
X113813746Y-91713211D01*
X113813746Y-91713211D02*
X113765452Y-91748037D01*
X113765452Y-91748037D02*
X113713743Y-91770620D01*
X113713743Y-91770620D02*
X113653011Y-91782540D01*
X113653011Y-91782540D02*
X113577648Y-91785383D01*
X113577648Y-91785383D02*
X113559541Y-91784978D01*
X113559541Y-91784978D02*
X113505722Y-91782325D01*
X113505722Y-91782325D02*
X113465692Y-91776909D01*
X113465692Y-91776909D02*
X113430676Y-91766745D01*
X113430676Y-91766745D02*
X113391897Y-91749850D01*
X113391897Y-91749850D02*
X113381255Y-91744672D01*
X113381255Y-91744672D02*
X113320604Y-91708844D01*
X113320604Y-91708844D02*
X113273785Y-91666212D01*
X113273785Y-91666212D02*
X113261048Y-91650973D01*
X113261048Y-91650973D02*
X113216378Y-91594462D01*
X113216378Y-91594462D02*
X113216378Y-91398586D01*
X113216378Y-91398586D02*
X113216914Y-91319939D01*
X113216914Y-91319939D02*
X113218604Y-91261988D01*
X113218604Y-91261988D02*
X113221572Y-91222875D01*
X113221572Y-91222875D02*
X113225943Y-91200741D01*
X113225943Y-91200741D02*
X113230028Y-91194274D01*
X113230028Y-91194274D02*
X113245953Y-91191111D01*
X113245953Y-91191111D02*
X113279736Y-91188488D01*
X113279736Y-91188488D02*
X113326660Y-91186655D01*
X113326660Y-91186655D02*
X113382007Y-91185857D01*
X113382007Y-91185857D02*
X113390894Y-91185842D01*
X113390894Y-91185842D02*
X113511670Y-91191096D01*
X113511670Y-91191096D02*
X113614340Y-91207263D01*
X113614340Y-91207263D02*
X113700894Y-91234961D01*
X113700894Y-91234961D02*
X113773319Y-91274808D01*
X113773319Y-91274808D02*
X113828249Y-91321758D01*
X113828249Y-91321758D02*
X113872796Y-91379645D01*
X113872796Y-91379645D02*
X113897520Y-91442693D01*
X113897520Y-91442693D02*
X113904752Y-91514282D01*
X113904752Y-91514282D02*
X114664690Y-91514282D01*
X114664690Y-91514282D02*
X114662822Y-91423712D01*
X114662822Y-91423712D02*
X114654478Y-91344812D01*
X114654478Y-91344812D02*
X114638232Y-91273590D01*
X114638232Y-91273590D02*
X114612595Y-91202864D01*
X114612595Y-91202864D02*
X114588599Y-91150493D01*
X114588599Y-91150493D02*
X114529980Y-91055196D01*
X114529980Y-91055196D02*
X114451883Y-90967170D01*
X114451883Y-90967170D02*
X114356685Y-90888017D01*
X114356685Y-90888017D02*
X114246762Y-90819340D01*
X114246762Y-90819340D02*
X114124490Y-90762741D01*
X114124490Y-90762741D02*
X113992245Y-90719821D01*
X113992245Y-90719821D02*
X113927578Y-90704882D01*
X113927578Y-90704882D02*
X113791396Y-90682777D01*
X113791396Y-90682777D02*
X113642951Y-90668194D01*
X113642951Y-90668194D02*
X113491495Y-90661813D01*
X113491495Y-90661813D02*
X113364936Y-90663445D01*
X113364936Y-90663445D02*
X113203050Y-90670224D01*
X113203050Y-90670224D02*
X113210470Y-90611245D01*
X113210470Y-90611245D02*
X113229762Y-90512092D01*
X113229762Y-90512092D02*
X113260896Y-90431372D01*
X113260896Y-90431372D02*
X113304731Y-90368466D01*
X113304731Y-90368466D02*
X113362129Y-90322756D01*
X113362129Y-90322756D02*
X113433952Y-90293622D01*
X113433952Y-90293622D02*
X113521059Y-90280447D01*
X113521059Y-90280447D02*
X113624314Y-90282611D01*
X113624314Y-90282611D02*
X113662289Y-90286612D01*
X113662289Y-90286612D02*
X113803480Y-90311780D01*
X113803480Y-90311780D02*
X113940293Y-90352814D01*
X113940293Y-90352814D02*
X114034822Y-90390815D01*
X114034822Y-90390815D02*
X114079982Y-90410190D01*
X114079982Y-90410190D02*
X114118415Y-90425760D01*
X114118415Y-90425760D02*
X114144766Y-90435405D01*
X114144766Y-90435405D02*
X114152454Y-90437452D01*
X114152454Y-90437452D02*
X114162198Y-90428374D01*
X114162198Y-90428374D02*
X114178917Y-90399405D01*
X114178917Y-90399405D02*
X114202768Y-90350217D01*
X114202768Y-90350217D02*
X114233907Y-90280484D01*
X114233907Y-90280484D02*
X114272493Y-90189879D01*
X114272493Y-90189879D02*
X114279090Y-90174089D01*
X114279090Y-90174089D02*
X114309147Y-90101772D01*
X114309147Y-90101772D02*
X114336126Y-90036425D01*
X114336126Y-90036425D02*
X114358864Y-89980906D01*
X114358864Y-89980906D02*
X114376194Y-89938072D01*
X114376194Y-89938072D02*
X114386952Y-89910781D01*
X114386952Y-89910781D02*
X114390059Y-89901942D01*
X114390059Y-89901942D02*
X114380060Y-89897187D01*
X114380060Y-89897187D02*
X114353783Y-89891910D01*
X114353783Y-89891910D02*
X114325511Y-89888231D01*
X114325511Y-89888231D02*
X114295354Y-89883474D01*
X114295354Y-89883474D02*
X114247567Y-89874028D01*
X114247567Y-89874028D02*
X114186388Y-89860820D01*
X114186388Y-89860820D02*
X114116054Y-89844776D01*
X114116054Y-89844776D02*
X114040806Y-89826820D01*
X114040806Y-89826820D02*
X114012245Y-89819797D01*
X114012245Y-89819797D02*
X113907184Y-89794209D01*
X113907184Y-89794209D02*
X113819520Y-89774147D01*
X113819520Y-89774147D02*
X113744932Y-89758969D01*
X113744932Y-89758969D02*
X113679097Y-89748035D01*
X113679097Y-89748035D02*
X113617693Y-89740704D01*
X113617693Y-89740704D02*
X113556398Y-89736335D01*
X113556398Y-89736335D02*
X113490890Y-89734287D01*
X113490890Y-89734287D02*
X113432872Y-89733889D01*
X113432872Y-89733889D02*
X113263426Y-89740552D01*
X113263426Y-89740552D02*
X113263426Y-89740552D01*
G36*
X114664261Y-91551363D02*
G01*
X114660632Y-91626202D01*
X114653022Y-91688401D01*
X114640688Y-91744984D01*
X114596313Y-91871076D01*
X114533400Y-91985679D01*
X114453238Y-92086568D01*
X114356740Y-92172924D01*
X114244822Y-92243932D01*
X114118397Y-92298776D01*
X113978378Y-92336638D01*
X113942149Y-92342351D01*
X113863155Y-92348313D01*
X113774841Y-92348646D01*
X113685075Y-92343659D01*
X113601722Y-92333666D01*
X113532651Y-92318978D01*
X113446187Y-92288749D01*
X113336286Y-92234057D01*
X113238956Y-92166543D01*
X113176867Y-92115556D01*
X113173605Y-92211622D01*
X113170343Y-92307689D01*
X112747450Y-92307689D01*
X112736543Y-92307686D01*
X112642056Y-92307380D01*
X112555331Y-92306616D01*
X112478837Y-92305451D01*
X112415043Y-92303942D01*
X112366418Y-92302147D01*
X112335433Y-92300121D01*
X112324556Y-92297922D01*
X112324578Y-92297463D01*
X112331614Y-92281910D01*
X112347434Y-92259071D01*
X112351734Y-92253638D01*
X112362777Y-92239606D01*
X112372311Y-92226186D01*
X112380461Y-92211722D01*
X112387352Y-92194556D01*
X112393111Y-92173034D01*
X112397862Y-92145498D01*
X112401731Y-92110292D01*
X112404844Y-92065760D01*
X112407325Y-92010246D01*
X112409300Y-91942093D01*
X112410894Y-91859645D01*
X112412234Y-91761246D01*
X112413444Y-91645239D01*
X112414649Y-91509968D01*
X112415595Y-91398586D01*
X113216378Y-91398586D01*
X113216378Y-91594462D01*
X113261048Y-91650973D01*
X113273785Y-91666212D01*
X113320604Y-91708844D01*
X113381255Y-91744672D01*
X113391897Y-91749850D01*
X113430676Y-91766745D01*
X113465692Y-91776909D01*
X113505722Y-91782325D01*
X113559541Y-91784978D01*
X113577648Y-91785383D01*
X113653011Y-91782540D01*
X113713743Y-91770620D01*
X113765452Y-91748037D01*
X113813746Y-91713211D01*
X113818803Y-91708798D01*
X113867272Y-91653160D01*
X113895459Y-91589333D01*
X113904752Y-91514282D01*
X113897520Y-91442693D01*
X113872796Y-91379645D01*
X113828249Y-91321758D01*
X113773319Y-91274808D01*
X113700894Y-91234961D01*
X113614340Y-91207263D01*
X113511670Y-91191096D01*
X113390894Y-91185842D01*
X113382007Y-91185857D01*
X113326660Y-91186655D01*
X113279736Y-91188488D01*
X113245953Y-91191111D01*
X113230028Y-91194274D01*
X113225943Y-91200741D01*
X113221572Y-91222875D01*
X113218604Y-91261988D01*
X113216914Y-91319939D01*
X113216378Y-91398586D01*
X112415595Y-91398586D01*
X112415975Y-91353778D01*
X112417228Y-91211012D01*
X112418651Y-91065942D01*
X112420176Y-90940027D01*
X112421933Y-90831436D01*
X112424051Y-90738334D01*
X112426660Y-90658891D01*
X112429890Y-90591273D01*
X112433869Y-90533649D01*
X112438728Y-90484185D01*
X112444597Y-90441050D01*
X112451604Y-90402410D01*
X112459880Y-90366434D01*
X112469554Y-90331289D01*
X112480756Y-90295142D01*
X112493616Y-90256161D01*
X112509090Y-90213091D01*
X112551994Y-90120871D01*
X112605735Y-90041099D01*
X112674576Y-89966965D01*
X112752185Y-89903405D01*
X112856761Y-89841725D01*
X112976244Y-89794202D01*
X113111508Y-89760567D01*
X113263426Y-89740552D01*
X113432872Y-89733889D01*
X113490890Y-89734287D01*
X113556398Y-89736335D01*
X113617693Y-89740704D01*
X113679097Y-89748035D01*
X113744932Y-89758969D01*
X113819520Y-89774147D01*
X113907184Y-89794209D01*
X114012245Y-89819797D01*
X114040806Y-89826820D01*
X114116054Y-89844776D01*
X114186388Y-89860820D01*
X114247567Y-89874028D01*
X114295354Y-89883474D01*
X114325511Y-89888231D01*
X114353783Y-89891910D01*
X114380060Y-89897187D01*
X114390059Y-89901942D01*
X114386952Y-89910781D01*
X114376194Y-89938072D01*
X114358864Y-89980906D01*
X114336126Y-90036425D01*
X114309147Y-90101772D01*
X114279090Y-90174089D01*
X114272493Y-90189879D01*
X114233907Y-90280484D01*
X114202768Y-90350217D01*
X114178917Y-90399405D01*
X114162198Y-90428374D01*
X114152454Y-90437452D01*
X114144766Y-90435405D01*
X114118415Y-90425760D01*
X114079982Y-90410190D01*
X114034822Y-90390815D01*
X113940293Y-90352814D01*
X113803480Y-90311780D01*
X113662289Y-90286612D01*
X113624314Y-90282611D01*
X113521059Y-90280447D01*
X113433952Y-90293622D01*
X113362129Y-90322756D01*
X113304731Y-90368466D01*
X113260896Y-90431372D01*
X113229762Y-90512092D01*
X113210470Y-90611245D01*
X113203050Y-90670224D01*
X113364936Y-90663445D01*
X113491495Y-90661813D01*
X113642951Y-90668194D01*
X113791396Y-90682777D01*
X113927578Y-90704882D01*
X113992245Y-90719821D01*
X114124490Y-90762741D01*
X114246762Y-90819340D01*
X114356685Y-90888017D01*
X114451883Y-90967170D01*
X114529980Y-91055196D01*
X114588599Y-91150493D01*
X114612595Y-91202864D01*
X114638232Y-91273590D01*
X114654478Y-91344812D01*
X114662822Y-91423712D01*
X114664690Y-91514282D01*
X114664755Y-91517467D01*
X114664261Y-91551363D01*
G37*
X114664261Y-91551363D02*
X114660632Y-91626202D01*
X114653022Y-91688401D01*
X114640688Y-91744984D01*
X114596313Y-91871076D01*
X114533400Y-91985679D01*
X114453238Y-92086568D01*
X114356740Y-92172924D01*
X114244822Y-92243932D01*
X114118397Y-92298776D01*
X113978378Y-92336638D01*
X113942149Y-92342351D01*
X113863155Y-92348313D01*
X113774841Y-92348646D01*
X113685075Y-92343659D01*
X113601722Y-92333666D01*
X113532651Y-92318978D01*
X113446187Y-92288749D01*
X113336286Y-92234057D01*
X113238956Y-92166543D01*
X113176867Y-92115556D01*
X113173605Y-92211622D01*
X113170343Y-92307689D01*
X112747450Y-92307689D01*
X112736543Y-92307686D01*
X112642056Y-92307380D01*
X112555331Y-92306616D01*
X112478837Y-92305451D01*
X112415043Y-92303942D01*
X112366418Y-92302147D01*
X112335433Y-92300121D01*
X112324556Y-92297922D01*
X112324578Y-92297463D01*
X112331614Y-92281910D01*
X112347434Y-92259071D01*
X112351734Y-92253638D01*
X112362777Y-92239606D01*
X112372311Y-92226186D01*
X112380461Y-92211722D01*
X112387352Y-92194556D01*
X112393111Y-92173034D01*
X112397862Y-92145498D01*
X112401731Y-92110292D01*
X112404844Y-92065760D01*
X112407325Y-92010246D01*
X112409300Y-91942093D01*
X112410894Y-91859645D01*
X112412234Y-91761246D01*
X112413444Y-91645239D01*
X112414649Y-91509968D01*
X112415595Y-91398586D01*
X113216378Y-91398586D01*
X113216378Y-91594462D01*
X113261048Y-91650973D01*
X113273785Y-91666212D01*
X113320604Y-91708844D01*
X113381255Y-91744672D01*
X113391897Y-91749850D01*
X113430676Y-91766745D01*
X113465692Y-91776909D01*
X113505722Y-91782325D01*
X113559541Y-91784978D01*
X113577648Y-91785383D01*
X113653011Y-91782540D01*
X113713743Y-91770620D01*
X113765452Y-91748037D01*
X113813746Y-91713211D01*
X113818803Y-91708798D01*
X113867272Y-91653160D01*
X113895459Y-91589333D01*
X113904752Y-91514282D01*
X113897520Y-91442693D01*
X113872796Y-91379645D01*
X113828249Y-91321758D01*
X113773319Y-91274808D01*
X113700894Y-91234961D01*
X113614340Y-91207263D01*
X113511670Y-91191096D01*
X113390894Y-91185842D01*
X113382007Y-91185857D01*
X113326660Y-91186655D01*
X113279736Y-91188488D01*
X113245953Y-91191111D01*
X113230028Y-91194274D01*
X113225943Y-91200741D01*
X113221572Y-91222875D01*
X113218604Y-91261988D01*
X113216914Y-91319939D01*
X113216378Y-91398586D01*
X112415595Y-91398586D01*
X112415975Y-91353778D01*
X112417228Y-91211012D01*
X112418651Y-91065942D01*
X112420176Y-90940027D01*
X112421933Y-90831436D01*
X112424051Y-90738334D01*
X112426660Y-90658891D01*
X112429890Y-90591273D01*
X112433869Y-90533649D01*
X112438728Y-90484185D01*
X112444597Y-90441050D01*
X112451604Y-90402410D01*
X112459880Y-90366434D01*
X112469554Y-90331289D01*
X112480756Y-90295142D01*
X112493616Y-90256161D01*
X112509090Y-90213091D01*
X112551994Y-90120871D01*
X112605735Y-90041099D01*
X112674576Y-89966965D01*
X112752185Y-89903405D01*
X112856761Y-89841725D01*
X112976244Y-89794202D01*
X113111508Y-89760567D01*
X113263426Y-89740552D01*
X113432872Y-89733889D01*
X113490890Y-89734287D01*
X113556398Y-89736335D01*
X113617693Y-89740704D01*
X113679097Y-89748035D01*
X113744932Y-89758969D01*
X113819520Y-89774147D01*
X113907184Y-89794209D01*
X114012245Y-89819797D01*
X114040806Y-89826820D01*
X114116054Y-89844776D01*
X114186388Y-89860820D01*
X114247567Y-89874028D01*
X114295354Y-89883474D01*
X114325511Y-89888231D01*
X114353783Y-89891910D01*
X114380060Y-89897187D01*
X114390059Y-89901942D01*
X114386952Y-89910781D01*
X114376194Y-89938072D01*
X114358864Y-89980906D01*
X114336126Y-90036425D01*
X114309147Y-90101772D01*
X114279090Y-90174089D01*
X114272493Y-90189879D01*
X114233907Y-90280484D01*
X114202768Y-90350217D01*
X114178917Y-90399405D01*
X114162198Y-90428374D01*
X114152454Y-90437452D01*
X114144766Y-90435405D01*
X114118415Y-90425760D01*
X114079982Y-90410190D01*
X114034822Y-90390815D01*
X113940293Y-90352814D01*
X113803480Y-90311780D01*
X113662289Y-90286612D01*
X113624314Y-90282611D01*
X113521059Y-90280447D01*
X113433952Y-90293622D01*
X113362129Y-90322756D01*
X113304731Y-90368466D01*
X113260896Y-90431372D01*
X113229762Y-90512092D01*
X113210470Y-90611245D01*
X113203050Y-90670224D01*
X113364936Y-90663445D01*
X113491495Y-90661813D01*
X113642951Y-90668194D01*
X113791396Y-90682777D01*
X113927578Y-90704882D01*
X113992245Y-90719821D01*
X114124490Y-90762741D01*
X114246762Y-90819340D01*
X114356685Y-90888017D01*
X114451883Y-90967170D01*
X114529980Y-91055196D01*
X114588599Y-91150493D01*
X114612595Y-91202864D01*
X114638232Y-91273590D01*
X114654478Y-91344812D01*
X114662822Y-91423712D01*
X114664690Y-91514282D01*
X114664755Y-91517467D01*
X114664261Y-91551363D01*
X115608571Y-88823071D02*
X115448430Y-88844245D01*
X115448430Y-88844245D02*
X115284490Y-88884385D01*
X115284490Y-88884385D02*
X115114687Y-88943889D01*
X115114687Y-88943889D02*
X114936957Y-89023154D01*
X114936957Y-89023154D02*
X114925690Y-89028699D01*
X114925690Y-89028699D02*
X114867995Y-89056725D01*
X114867995Y-89056725D02*
X114816448Y-89080802D01*
X114816448Y-89080802D02*
X114774809Y-89099249D01*
X114774809Y-89099249D02*
X114746838Y-89110386D01*
X114746838Y-89110386D02*
X114737267Y-89112933D01*
X114737267Y-89112933D02*
X114718050Y-89117941D01*
X114718050Y-89117941D02*
X114713439Y-89122147D01*
X114713439Y-89122147D02*
X114718542Y-89132580D01*
X114718542Y-89132580D02*
X114734582Y-89158868D01*
X114734582Y-89158868D02*
X114759712Y-89198257D01*
X114759712Y-89198257D02*
X114792086Y-89247991D01*
X114792086Y-89247991D02*
X114829857Y-89305315D01*
X114829857Y-89305315D02*
X114871178Y-89367476D01*
X114871178Y-89367476D02*
X114914202Y-89431718D01*
X114914202Y-89431718D02*
X114957083Y-89495285D01*
X114957083Y-89495285D02*
X114997974Y-89555425D01*
X114997974Y-89555425D02*
X115035029Y-89609380D01*
X115035029Y-89609380D02*
X115066400Y-89654397D01*
X115066400Y-89654397D02*
X115090241Y-89687721D01*
X115090241Y-89687721D02*
X115104706Y-89706597D01*
X115104706Y-89706597D02*
X115106691Y-89708787D01*
X115106691Y-89708787D02*
X115116809Y-89704138D01*
X115116809Y-89704138D02*
X115139150Y-89686962D01*
X115139150Y-89686962D02*
X115169720Y-89660440D01*
X115169720Y-89660440D02*
X115185464Y-89645964D01*
X115185464Y-89645964D02*
X115281953Y-89570682D01*
X115281953Y-89570682D02*
X115388664Y-89515241D01*
X115388664Y-89515241D02*
X115504168Y-89480141D01*
X115504168Y-89480141D02*
X115627038Y-89465880D01*
X115627038Y-89465880D02*
X115696439Y-89467051D01*
X115696439Y-89467051D02*
X115817577Y-89484212D01*
X115817577Y-89484212D02*
X115926795Y-89520094D01*
X115926795Y-89520094D02*
X116024418Y-89574959D01*
X116024418Y-89574959D02*
X116110772Y-89649070D01*
X116110772Y-89649070D02*
X116186185Y-89742688D01*
X116186185Y-89742688D02*
X116250982Y-89856076D01*
X116250982Y-89856076D02*
X116288399Y-89942667D01*
X116288399Y-89942667D02*
X116332252Y-90078366D01*
X116332252Y-90078366D02*
X116364572Y-90225850D01*
X116364572Y-90225850D02*
X116385443Y-90381314D01*
X116385443Y-90381314D02*
X116394949Y-90540956D01*
X116394949Y-90540956D02*
X116393173Y-90700973D01*
X116393173Y-90700973D02*
X116380197Y-90857561D01*
X116380197Y-90857561D02*
X116356106Y-91006918D01*
X116356106Y-91006918D02*
X116320982Y-91145240D01*
X116320982Y-91145240D02*
X116274908Y-91268724D01*
X116274908Y-91268724D02*
X116258627Y-91302978D01*
X116258627Y-91302978D02*
X116190380Y-91417064D01*
X116190380Y-91417064D02*
X116109921Y-91513557D01*
X116109921Y-91513557D02*
X116018430Y-91591670D01*
X116018430Y-91591670D02*
X115917089Y-91650617D01*
X115917089Y-91650617D02*
X115807080Y-91689612D01*
X115807080Y-91689612D02*
X115689585Y-91707868D01*
X115689585Y-91707868D02*
X115648117Y-91709211D01*
X115648117Y-91709211D02*
X115526559Y-91698290D01*
X115526559Y-91698290D02*
X115406122Y-91665474D01*
X115406122Y-91665474D02*
X115288334Y-91611439D01*
X115288334Y-91611439D02*
X115174723Y-91536865D01*
X115174723Y-91536865D02*
X115083315Y-91458539D01*
X115083315Y-91458539D02*
X115036785Y-91414008D01*
X115036785Y-91414008D02*
X114855517Y-91711271D01*
X114855517Y-91711271D02*
X114810420Y-91785433D01*
X114810420Y-91785433D02*
X114769181Y-91853646D01*
X114769181Y-91853646D02*
X114733265Y-91913459D01*
X114733265Y-91913459D02*
X114704134Y-91962420D01*
X114704134Y-91962420D02*
X114683250Y-91998079D01*
X114683250Y-91998079D02*
X114672076Y-92017984D01*
X114672076Y-92017984D02*
X114670625Y-92021079D01*
X114670625Y-92021079D02*
X114678854Y-92030718D01*
X114678854Y-92030718D02*
X114704433Y-92047999D01*
X114704433Y-92047999D02*
X114744127Y-92071283D01*
X114744127Y-92071283D02*
X114794703Y-92098934D01*
X114794703Y-92098934D02*
X114852926Y-92129315D01*
X114852926Y-92129315D02*
X114915563Y-92160790D01*
X114915563Y-92160790D02*
X114979379Y-92191722D01*
X114979379Y-92191722D02*
X115041140Y-92220473D01*
X115041140Y-92220473D02*
X115097612Y-92245408D01*
X115097612Y-92245408D02*
X115145562Y-92264889D01*
X115145562Y-92264889D02*
X115169014Y-92273318D01*
X115169014Y-92273318D02*
X115302779Y-92311133D01*
X115302779Y-92311133D02*
X115440673Y-92336136D01*
X115440673Y-92336136D02*
X115588378Y-92349140D01*
X115588378Y-92349140D02*
X115715167Y-92351468D01*
X115715167Y-92351468D02*
X115783122Y-92350373D01*
X115783122Y-92350373D02*
X115848723Y-92348275D01*
X115848723Y-92348275D02*
X115906153Y-92345434D01*
X115906153Y-92345434D02*
X115949597Y-92342106D01*
X115949597Y-92342106D02*
X115963702Y-92340422D01*
X115963702Y-92340422D02*
X116102716Y-92311587D01*
X116102716Y-92311587D02*
X116244243Y-92266468D01*
X116244243Y-92266468D02*
X116381725Y-92207750D01*
X116381725Y-92207750D02*
X116508606Y-92138120D01*
X116508606Y-92138120D02*
X116586111Y-92085441D01*
X116586111Y-92085441D02*
X116713519Y-91977239D01*
X116713519Y-91977239D02*
X116831822Y-91850671D01*
X116831822Y-91850671D02*
X116938828Y-91708866D01*
X116938828Y-91708866D02*
X117032348Y-91554951D01*
X117032348Y-91554951D02*
X117110190Y-91392053D01*
X117110190Y-91392053D02*
X117154044Y-91274756D01*
X117154044Y-91274756D02*
X117204292Y-91091128D01*
X117204292Y-91091128D02*
X117237791Y-90896581D01*
X117237791Y-90896581D02*
X117254551Y-90695325D01*
X117254551Y-90695325D02*
X117254584Y-90491568D01*
X117254584Y-90491568D02*
X117237899Y-90289521D01*
X117237899Y-90289521D02*
X117204507Y-90093392D01*
X117204507Y-90093392D02*
X117154420Y-89907391D01*
X117154420Y-89907391D02*
X117150603Y-89895803D01*
X117150603Y-89895803D02*
X117087719Y-89733750D01*
X117087719Y-89733750D02*
X117010972Y-89585832D01*
X117010972Y-89585832D02*
X116917758Y-89447865D01*
X116917758Y-89447865D02*
X116805473Y-89315661D01*
X116805473Y-89315661D02*
X116761608Y-89270399D01*
X116761608Y-89270399D02*
X116625466Y-89146457D01*
X116625466Y-89146457D02*
X116485509Y-89043915D01*
X116485509Y-89043915D02*
X116339589Y-88961656D01*
X116339589Y-88961656D02*
X116185558Y-88898564D01*
X116185558Y-88898564D02*
X116021268Y-88853523D01*
X116021268Y-88853523D02*
X115925711Y-88836033D01*
X115925711Y-88836033D02*
X115766977Y-88820466D01*
X115766977Y-88820466D02*
X115608571Y-88823071D01*
X115608571Y-88823071D02*
X115608571Y-88823071D01*
G36*
X115925711Y-88836033D02*
G01*
X116021268Y-88853523D01*
X116185558Y-88898564D01*
X116339589Y-88961656D01*
X116485509Y-89043915D01*
X116625466Y-89146457D01*
X116761608Y-89270399D01*
X116805473Y-89315661D01*
X116917758Y-89447865D01*
X117010972Y-89585832D01*
X117087719Y-89733750D01*
X117150603Y-89895803D01*
X117154420Y-89907391D01*
X117204507Y-90093392D01*
X117237899Y-90289521D01*
X117254584Y-90491568D01*
X117254551Y-90695325D01*
X117237791Y-90896581D01*
X117204292Y-91091128D01*
X117154044Y-91274756D01*
X117110190Y-91392053D01*
X117032348Y-91554951D01*
X116938828Y-91708866D01*
X116831822Y-91850671D01*
X116713519Y-91977239D01*
X116586111Y-92085441D01*
X116508606Y-92138120D01*
X116381725Y-92207750D01*
X116244243Y-92266468D01*
X116102716Y-92311587D01*
X115963702Y-92340422D01*
X115949597Y-92342106D01*
X115906153Y-92345434D01*
X115848723Y-92348275D01*
X115783122Y-92350373D01*
X115715167Y-92351468D01*
X115588378Y-92349140D01*
X115440673Y-92336136D01*
X115302779Y-92311133D01*
X115169014Y-92273318D01*
X115145562Y-92264889D01*
X115097612Y-92245408D01*
X115041140Y-92220473D01*
X114979379Y-92191722D01*
X114915563Y-92160790D01*
X114852926Y-92129315D01*
X114794703Y-92098934D01*
X114744127Y-92071283D01*
X114704433Y-92047999D01*
X114678854Y-92030718D01*
X114670625Y-92021079D01*
X114672076Y-92017984D01*
X114683250Y-91998079D01*
X114704134Y-91962420D01*
X114733265Y-91913459D01*
X114769181Y-91853646D01*
X114810420Y-91785433D01*
X114855517Y-91711271D01*
X115036785Y-91414008D01*
X115083315Y-91458539D01*
X115174723Y-91536865D01*
X115288334Y-91611439D01*
X115406122Y-91665474D01*
X115526559Y-91698290D01*
X115648117Y-91709211D01*
X115689585Y-91707868D01*
X115807080Y-91689612D01*
X115917089Y-91650617D01*
X116018430Y-91591670D01*
X116109921Y-91513557D01*
X116190380Y-91417064D01*
X116258627Y-91302978D01*
X116274908Y-91268724D01*
X116320982Y-91145240D01*
X116356106Y-91006918D01*
X116380197Y-90857561D01*
X116393173Y-90700973D01*
X116394949Y-90540956D01*
X116385443Y-90381314D01*
X116364572Y-90225850D01*
X116332252Y-90078366D01*
X116288399Y-89942667D01*
X116250982Y-89856076D01*
X116186185Y-89742688D01*
X116110772Y-89649070D01*
X116024418Y-89574959D01*
X115926795Y-89520094D01*
X115817577Y-89484212D01*
X115696439Y-89467051D01*
X115627038Y-89465880D01*
X115504168Y-89480141D01*
X115388664Y-89515241D01*
X115281953Y-89570682D01*
X115185464Y-89645964D01*
X115169720Y-89660440D01*
X115139150Y-89686962D01*
X115116809Y-89704138D01*
X115106691Y-89708787D01*
X115104706Y-89706597D01*
X115090241Y-89687721D01*
X115066400Y-89654397D01*
X115035029Y-89609380D01*
X114997974Y-89555425D01*
X114957083Y-89495285D01*
X114914202Y-89431718D01*
X114871178Y-89367476D01*
X114829857Y-89305315D01*
X114792086Y-89247991D01*
X114759712Y-89198257D01*
X114734582Y-89158868D01*
X114718542Y-89132580D01*
X114713439Y-89122147D01*
X114718050Y-89117941D01*
X114737267Y-89112933D01*
X114746838Y-89110386D01*
X114774809Y-89099249D01*
X114816448Y-89080802D01*
X114867995Y-89056725D01*
X114925690Y-89028699D01*
X114936957Y-89023154D01*
X115114687Y-88943889D01*
X115284490Y-88884385D01*
X115448430Y-88844245D01*
X115608571Y-88823071D01*
X115766977Y-88820466D01*
X115925711Y-88836033D01*
G37*
X115925711Y-88836033D02*
X116021268Y-88853523D01*
X116185558Y-88898564D01*
X116339589Y-88961656D01*
X116485509Y-89043915D01*
X116625466Y-89146457D01*
X116761608Y-89270399D01*
X116805473Y-89315661D01*
X116917758Y-89447865D01*
X117010972Y-89585832D01*
X117087719Y-89733750D01*
X117150603Y-89895803D01*
X117154420Y-89907391D01*
X117204507Y-90093392D01*
X117237899Y-90289521D01*
X117254584Y-90491568D01*
X117254551Y-90695325D01*
X117237791Y-90896581D01*
X117204292Y-91091128D01*
X117154044Y-91274756D01*
X117110190Y-91392053D01*
X117032348Y-91554951D01*
X116938828Y-91708866D01*
X116831822Y-91850671D01*
X116713519Y-91977239D01*
X116586111Y-92085441D01*
X116508606Y-92138120D01*
X116381725Y-92207750D01*
X116244243Y-92266468D01*
X116102716Y-92311587D01*
X115963702Y-92340422D01*
X115949597Y-92342106D01*
X115906153Y-92345434D01*
X115848723Y-92348275D01*
X115783122Y-92350373D01*
X115715167Y-92351468D01*
X115588378Y-92349140D01*
X115440673Y-92336136D01*
X115302779Y-92311133D01*
X115169014Y-92273318D01*
X115145562Y-92264889D01*
X115097612Y-92245408D01*
X115041140Y-92220473D01*
X114979379Y-92191722D01*
X114915563Y-92160790D01*
X114852926Y-92129315D01*
X114794703Y-92098934D01*
X114744127Y-92071283D01*
X114704433Y-92047999D01*
X114678854Y-92030718D01*
X114670625Y-92021079D01*
X114672076Y-92017984D01*
X114683250Y-91998079D01*
X114704134Y-91962420D01*
X114733265Y-91913459D01*
X114769181Y-91853646D01*
X114810420Y-91785433D01*
X114855517Y-91711271D01*
X115036785Y-91414008D01*
X115083315Y-91458539D01*
X115174723Y-91536865D01*
X115288334Y-91611439D01*
X115406122Y-91665474D01*
X115526559Y-91698290D01*
X115648117Y-91709211D01*
X115689585Y-91707868D01*
X115807080Y-91689612D01*
X115917089Y-91650617D01*
X116018430Y-91591670D01*
X116109921Y-91513557D01*
X116190380Y-91417064D01*
X116258627Y-91302978D01*
X116274908Y-91268724D01*
X116320982Y-91145240D01*
X116356106Y-91006918D01*
X116380197Y-90857561D01*
X116393173Y-90700973D01*
X116394949Y-90540956D01*
X116385443Y-90381314D01*
X116364572Y-90225850D01*
X116332252Y-90078366D01*
X116288399Y-89942667D01*
X116250982Y-89856076D01*
X116186185Y-89742688D01*
X116110772Y-89649070D01*
X116024418Y-89574959D01*
X115926795Y-89520094D01*
X115817577Y-89484212D01*
X115696439Y-89467051D01*
X115627038Y-89465880D01*
X115504168Y-89480141D01*
X115388664Y-89515241D01*
X115281953Y-89570682D01*
X115185464Y-89645964D01*
X115169720Y-89660440D01*
X115139150Y-89686962D01*
X115116809Y-89704138D01*
X115106691Y-89708787D01*
X115104706Y-89706597D01*
X115090241Y-89687721D01*
X115066400Y-89654397D01*
X115035029Y-89609380D01*
X114997974Y-89555425D01*
X114957083Y-89495285D01*
X114914202Y-89431718D01*
X114871178Y-89367476D01*
X114829857Y-89305315D01*
X114792086Y-89247991D01*
X114759712Y-89198257D01*
X114734582Y-89158868D01*
X114718542Y-89132580D01*
X114713439Y-89122147D01*
X114718050Y-89117941D01*
X114737267Y-89112933D01*
X114746838Y-89110386D01*
X114774809Y-89099249D01*
X114816448Y-89080802D01*
X114867995Y-89056725D01*
X114925690Y-89028699D01*
X114936957Y-89023154D01*
X115114687Y-88943889D01*
X115284490Y-88884385D01*
X115448430Y-88844245D01*
X115608571Y-88823071D01*
X115766977Y-88820466D01*
X115925711Y-88836033D01*
X118883400Y-88363054D02*
X118872535Y-88476993D01*
X118872535Y-88476993D02*
X118840918Y-88584616D01*
X118840918Y-88584616D02*
X118790015Y-88683615D01*
X118790015Y-88683615D02*
X118721293Y-88771684D01*
X118721293Y-88771684D02*
X118636219Y-88846516D01*
X118636219Y-88846516D02*
X118539232Y-88904384D01*
X118539232Y-88904384D02*
X118432964Y-88944005D01*
X118432964Y-88944005D02*
X118325950Y-88962573D01*
X118325950Y-88962573D02*
X118220300Y-88961434D01*
X118220300Y-88961434D02*
X118118125Y-88941930D01*
X118118125Y-88941930D02*
X118021534Y-88905406D01*
X118021534Y-88905406D02*
X117932638Y-88853205D01*
X117932638Y-88853205D02*
X117853546Y-88786673D01*
X117853546Y-88786673D02*
X117786369Y-88707152D01*
X117786369Y-88707152D02*
X117733217Y-88615987D01*
X117733217Y-88615987D02*
X117696199Y-88514523D01*
X117696199Y-88514523D02*
X117677427Y-88404102D01*
X117677427Y-88404102D02*
X117675489Y-88354206D01*
X117675489Y-88354206D02*
X117675489Y-88266267D01*
X117675489Y-88266267D02*
X117623560Y-88266267D01*
X117623560Y-88266267D02*
X117587253Y-88269111D01*
X117587253Y-88269111D02*
X117560355Y-88280911D01*
X117560355Y-88280911D02*
X117533249Y-88304649D01*
X117533249Y-88304649D02*
X117494867Y-88343031D01*
X117494867Y-88343031D02*
X117494867Y-90534602D01*
X117494867Y-90534602D02*
X117494876Y-90796739D01*
X117494876Y-90796739D02*
X117494908Y-91037241D01*
X117494908Y-91037241D02*
X117494972Y-91257048D01*
X117494972Y-91257048D02*
X117495076Y-91457101D01*
X117495076Y-91457101D02*
X117495227Y-91638344D01*
X117495227Y-91638344D02*
X117495434Y-91801716D01*
X117495434Y-91801716D02*
X117495706Y-91948160D01*
X117495706Y-91948160D02*
X117496050Y-92078617D01*
X117496050Y-92078617D02*
X117496474Y-92194029D01*
X117496474Y-92194029D02*
X117496987Y-92295338D01*
X117496987Y-92295338D02*
X117497597Y-92383484D01*
X117497597Y-92383484D02*
X117498312Y-92459410D01*
X117498312Y-92459410D02*
X117499140Y-92524057D01*
X117499140Y-92524057D02*
X117500089Y-92578367D01*
X117500089Y-92578367D02*
X117501167Y-92623280D01*
X117501167Y-92623280D02*
X117502383Y-92659740D01*
X117502383Y-92659740D02*
X117503745Y-92688687D01*
X117503745Y-92688687D02*
X117505261Y-92711063D01*
X117505261Y-92711063D02*
X117506938Y-92727809D01*
X117506938Y-92727809D02*
X117508786Y-92739868D01*
X117508786Y-92739868D02*
X117510813Y-92748180D01*
X117510813Y-92748180D02*
X117513025Y-92753687D01*
X117513025Y-92753687D02*
X117514108Y-92755537D01*
X117514108Y-92755537D02*
X117518271Y-92762549D01*
X117518271Y-92762549D02*
X117521805Y-92768996D01*
X117521805Y-92768996D02*
X117525635Y-92774900D01*
X117525635Y-92774900D02*
X117530682Y-92780286D01*
X117530682Y-92780286D02*
X117537871Y-92785178D01*
X117537871Y-92785178D02*
X117548123Y-92789598D01*
X117548123Y-92789598D02*
X117562364Y-92793572D01*
X117562364Y-92793572D02*
X117581514Y-92797121D01*
X117581514Y-92797121D02*
X117606499Y-92800270D01*
X117606499Y-92800270D02*
X117638240Y-92803042D01*
X117638240Y-92803042D02*
X117677662Y-92805461D01*
X117677662Y-92805461D02*
X117725686Y-92807551D01*
X117725686Y-92807551D02*
X117783237Y-92809335D01*
X117783237Y-92809335D02*
X117851237Y-92810837D01*
X117851237Y-92810837D02*
X117930610Y-92812080D01*
X117930610Y-92812080D02*
X118022279Y-92813089D01*
X118022279Y-92813089D02*
X118127166Y-92813885D01*
X118127166Y-92813885D02*
X118246196Y-92814494D01*
X118246196Y-92814494D02*
X118380290Y-92814939D01*
X118380290Y-92814939D02*
X118530373Y-92815243D01*
X118530373Y-92815243D02*
X118697367Y-92815430D01*
X118697367Y-92815430D02*
X118882196Y-92815524D01*
X118882196Y-92815524D02*
X119085783Y-92815548D01*
X119085783Y-92815548D02*
X119309050Y-92815525D01*
X119309050Y-92815525D02*
X119552922Y-92815480D01*
X119552922Y-92815480D02*
X119818321Y-92815437D01*
X119818321Y-92815437D02*
X119856704Y-92815432D01*
X119856704Y-92815432D02*
X120123682Y-92815389D01*
X120123682Y-92815389D02*
X120369002Y-92815318D01*
X120369002Y-92815318D02*
X120593583Y-92815213D01*
X120593583Y-92815213D02*
X120798345Y-92815066D01*
X120798345Y-92815066D02*
X120984206Y-92814869D01*
X120984206Y-92814869D02*
X121152088Y-92814616D01*
X121152088Y-92814616D02*
X121302908Y-92814300D01*
X121302908Y-92814300D02*
X121437587Y-92813913D01*
X121437587Y-92813913D02*
X121557044Y-92813447D01*
X121557044Y-92813447D02*
X121662199Y-92812897D01*
X121662199Y-92812897D02*
X121753971Y-92812253D01*
X121753971Y-92812253D02*
X121833279Y-92811511D01*
X121833279Y-92811511D02*
X121901043Y-92810661D01*
X121901043Y-92810661D02*
X121958182Y-92809697D01*
X121958182Y-92809697D02*
X122005617Y-92808611D01*
X122005617Y-92808611D02*
X122044266Y-92807397D01*
X122044266Y-92807397D02*
X122075049Y-92806047D01*
X122075049Y-92806047D02*
X122098885Y-92804555D01*
X122098885Y-92804555D02*
X122116694Y-92802911D01*
X122116694Y-92802911D02*
X122129395Y-92801111D01*
X122129395Y-92801111D02*
X122137908Y-92799145D01*
X122137908Y-92799145D02*
X122142266Y-92797477D01*
X122142266Y-92797477D02*
X122150728Y-92793906D01*
X122150728Y-92793906D02*
X122158497Y-92791270D01*
X122158497Y-92791270D02*
X122165602Y-92788634D01*
X122165602Y-92788634D02*
X122172073Y-92785062D01*
X122172073Y-92785062D02*
X122177939Y-92779621D01*
X122177939Y-92779621D02*
X122183229Y-92771375D01*
X122183229Y-92771375D02*
X122187974Y-92759390D01*
X122187974Y-92759390D02*
X122192202Y-92742731D01*
X122192202Y-92742731D02*
X122195943Y-92720463D01*
X122195943Y-92720463D02*
X122199227Y-92691652D01*
X122199227Y-92691652D02*
X122202083Y-92655363D01*
X122202083Y-92655363D02*
X122204540Y-92610661D01*
X122204540Y-92610661D02*
X122206629Y-92556611D01*
X122206629Y-92556611D02*
X122208378Y-92492279D01*
X122208378Y-92492279D02*
X122209817Y-92416730D01*
X122209817Y-92416730D02*
X122210976Y-92329030D01*
X122210976Y-92329030D02*
X122211883Y-92228243D01*
X122211883Y-92228243D02*
X122212569Y-92113434D01*
X122212569Y-92113434D02*
X122213063Y-91983670D01*
X122213063Y-91983670D02*
X122213395Y-91838015D01*
X122213395Y-91838015D02*
X122213593Y-91675535D01*
X122213593Y-91675535D02*
X122213687Y-91495295D01*
X122213687Y-91495295D02*
X122213708Y-91296360D01*
X122213708Y-91296360D02*
X122213685Y-91077796D01*
X122213685Y-91077796D02*
X122213646Y-90838668D01*
X122213646Y-90838668D02*
X122213622Y-90578040D01*
X122213622Y-90578040D02*
X122213622Y-90535889D01*
X122213622Y-90535889D02*
X122213636Y-90272992D01*
X122213636Y-90272992D02*
X122213661Y-90031732D01*
X122213661Y-90031732D02*
X122213671Y-89811165D01*
X122213671Y-89811165D02*
X122213642Y-89610352D01*
X122213642Y-89610352D02*
X122213548Y-89428349D01*
X122213548Y-89428349D02*
X122213362Y-89264216D01*
X122213362Y-89264216D02*
X122213059Y-89117011D01*
X122213059Y-89117011D02*
X122212614Y-88985792D01*
X122212614Y-88985792D02*
X122212034Y-88875867D01*
X122212034Y-88875867D02*
X121909197Y-88875867D01*
X121909197Y-88875867D02*
X121869407Y-88933711D01*
X121869407Y-88933711D02*
X121858236Y-88949479D01*
X121858236Y-88949479D02*
X121848166Y-88963441D01*
X121848166Y-88963441D02*
X121839138Y-88976784D01*
X121839138Y-88976784D02*
X121831097Y-88990693D01*
X121831097Y-88990693D02*
X121823986Y-89006356D01*
X121823986Y-89006356D02*
X121817747Y-89024958D01*
X121817747Y-89024958D02*
X121812325Y-89047686D01*
X121812325Y-89047686D02*
X121807662Y-89075727D01*
X121807662Y-89075727D02*
X121803701Y-89110267D01*
X121803701Y-89110267D02*
X121800385Y-89152492D01*
X121800385Y-89152492D02*
X121797659Y-89203589D01*
X121797659Y-89203589D02*
X121795464Y-89264744D01*
X121795464Y-89264744D02*
X121793745Y-89337144D01*
X121793745Y-89337144D02*
X121792444Y-89421975D01*
X121792444Y-89421975D02*
X121791505Y-89520422D01*
X121791505Y-89520422D02*
X121790870Y-89633674D01*
X121790870Y-89633674D02*
X121790484Y-89762916D01*
X121790484Y-89762916D02*
X121790288Y-89909334D01*
X121790288Y-89909334D02*
X121790227Y-90074116D01*
X121790227Y-90074116D02*
X121790243Y-90258447D01*
X121790243Y-90258447D02*
X121790280Y-90463513D01*
X121790280Y-90463513D02*
X121790289Y-90586133D01*
X121790289Y-90586133D02*
X121790265Y-90803082D01*
X121790265Y-90803082D02*
X121790231Y-90998642D01*
X121790231Y-90998642D02*
X121790243Y-91173999D01*
X121790243Y-91173999D02*
X121790358Y-91330341D01*
X121790358Y-91330341D02*
X121790630Y-91468857D01*
X121790630Y-91468857D02*
X121791118Y-91590734D01*
X121791118Y-91590734D02*
X121791876Y-91697160D01*
X121791876Y-91697160D02*
X121792962Y-91789322D01*
X121792962Y-91789322D02*
X121794431Y-91868409D01*
X121794431Y-91868409D02*
X121796340Y-91935608D01*
X121796340Y-91935608D02*
X121798744Y-91992107D01*
X121798744Y-91992107D02*
X121801701Y-92039093D01*
X121801701Y-92039093D02*
X121805266Y-92077755D01*
X121805266Y-92077755D02*
X121809495Y-92109280D01*
X121809495Y-92109280D02*
X121814446Y-92134855D01*
X121814446Y-92134855D02*
X121820173Y-92155670D01*
X121820173Y-92155670D02*
X121826733Y-92172911D01*
X121826733Y-92172911D02*
X121834183Y-92187765D01*
X121834183Y-92187765D02*
X121842579Y-92201422D01*
X121842579Y-92201422D02*
X121851976Y-92215069D01*
X121851976Y-92215069D02*
X121862432Y-92229893D01*
X121862432Y-92229893D02*
X121868523Y-92238783D01*
X121868523Y-92238783D02*
X121907296Y-92296400D01*
X121907296Y-92296400D02*
X121375732Y-92296400D01*
X121375732Y-92296400D02*
X121252483Y-92296365D01*
X121252483Y-92296365D02*
X121149987Y-92296215D01*
X121149987Y-92296215D02*
X121066420Y-92295878D01*
X121066420Y-92295878D02*
X120999956Y-92295286D01*
X120999956Y-92295286D02*
X120948771Y-92294367D01*
X120948771Y-92294367D02*
X120911041Y-92293051D01*
X120911041Y-92293051D02*
X120884940Y-92291269D01*
X120884940Y-92291269D02*
X120868644Y-92288951D01*
X120868644Y-92288951D02*
X120860328Y-92286026D01*
X120860328Y-92286026D02*
X120858168Y-92282424D01*
X120858168Y-92282424D02*
X120860339Y-92278075D01*
X120860339Y-92278075D02*
X120861535Y-92276645D01*
X120861535Y-92276645D02*
X120886685Y-92239573D01*
X120886685Y-92239573D02*
X120912583Y-92186772D01*
X120912583Y-92186772D02*
X120936192Y-92124770D01*
X120936192Y-92124770D02*
X120944461Y-92098357D01*
X120944461Y-92098357D02*
X120949078Y-92080416D01*
X120949078Y-92080416D02*
X120952979Y-92059355D01*
X120952979Y-92059355D02*
X120956248Y-92033089D01*
X120956248Y-92033089D02*
X120958966Y-91999532D01*
X120958966Y-91999532D02*
X120961215Y-91956599D01*
X120961215Y-91956599D02*
X120963077Y-91902204D01*
X120963077Y-91902204D02*
X120964636Y-91834262D01*
X120964636Y-91834262D02*
X120965972Y-91750688D01*
X120965972Y-91750688D02*
X120967169Y-91649395D01*
X120967169Y-91649395D02*
X120968308Y-91528300D01*
X120968308Y-91528300D02*
X120968685Y-91483600D01*
X120968685Y-91483600D02*
X120969702Y-91358449D01*
X120969702Y-91358449D02*
X120970460Y-91254082D01*
X120970460Y-91254082D02*
X120970903Y-91168707D01*
X120970903Y-91168707D02*
X120970970Y-91100533D01*
X120970970Y-91100533D02*
X120970605Y-91047765D01*
X120970605Y-91047765D02*
X120969748Y-91008614D01*
X120969748Y-91008614D02*
X120968341Y-90981285D01*
X120968341Y-90981285D02*
X120966325Y-90963986D01*
X120966325Y-90963986D02*
X120963643Y-90954926D01*
X120963643Y-90954926D02*
X120960236Y-90952312D01*
X120960236Y-90952312D02*
X120956044Y-90954351D01*
X120956044Y-90954351D02*
X120951571Y-90958667D01*
X120951571Y-90958667D02*
X120941216Y-90971602D01*
X120941216Y-90971602D02*
X120919158Y-91000676D01*
X120919158Y-91000676D02*
X120886957Y-91043759D01*
X120886957Y-91043759D02*
X120846174Y-91098718D01*
X120846174Y-91098718D02*
X120798370Y-91163423D01*
X120798370Y-91163423D02*
X120745105Y-91235742D01*
X120745105Y-91235742D02*
X120687940Y-91313544D01*
X120687940Y-91313544D02*
X120628437Y-91394698D01*
X120628437Y-91394698D02*
X120568155Y-91477072D01*
X120568155Y-91477072D02*
X120508655Y-91558536D01*
X120508655Y-91558536D02*
X120451498Y-91636957D01*
X120451498Y-91636957D02*
X120398245Y-91710204D01*
X120398245Y-91710204D02*
X120350457Y-91776147D01*
X120350457Y-91776147D02*
X120309693Y-91832654D01*
X120309693Y-91832654D02*
X120277516Y-91877593D01*
X120277516Y-91877593D02*
X120255485Y-91908834D01*
X120255485Y-91908834D02*
X120250917Y-91915466D01*
X120250917Y-91915466D02*
X120227996Y-91952369D01*
X120227996Y-91952369D02*
X120201188Y-92000359D01*
X120201188Y-92000359D02*
X120175789Y-92049897D01*
X120175789Y-92049897D02*
X120172568Y-92056577D01*
X120172568Y-92056577D02*
X120150890Y-92104772D01*
X120150890Y-92104772D02*
X120138304Y-92142334D01*
X120138304Y-92142334D02*
X120132574Y-92178160D01*
X120132574Y-92178160D02*
X120131456Y-92220200D01*
X120131456Y-92220200D02*
X120132090Y-92296400D01*
X120132090Y-92296400D02*
X118977651Y-92296400D01*
X118977651Y-92296400D02*
X119068815Y-92202669D01*
X119068815Y-92202669D02*
X119115612Y-92152775D01*
X119115612Y-92152775D02*
X119165899Y-92096295D01*
X119165899Y-92096295D02*
X119211944Y-92042026D01*
X119211944Y-92042026D02*
X119232369Y-92016673D01*
X119232369Y-92016673D02*
X119262807Y-91977128D01*
X119262807Y-91977128D02*
X119302862Y-91923916D01*
X119302862Y-91923916D02*
X119351361Y-91858667D01*
X119351361Y-91858667D02*
X119407135Y-91783011D01*
X119407135Y-91783011D02*
X119469011Y-91698577D01*
X119469011Y-91698577D02*
X119535819Y-91606994D01*
X119535819Y-91606994D02*
X119606387Y-91509892D01*
X119606387Y-91509892D02*
X119679545Y-91408901D01*
X119679545Y-91408901D02*
X119754121Y-91305650D01*
X119754121Y-91305650D02*
X119828944Y-91201768D01*
X119828944Y-91201768D02*
X119902843Y-91098885D01*
X119902843Y-91098885D02*
X119974646Y-90998631D01*
X119974646Y-90998631D02*
X120043184Y-90902636D01*
X120043184Y-90902636D02*
X120107284Y-90812527D01*
X120107284Y-90812527D02*
X120165775Y-90729936D01*
X120165775Y-90729936D02*
X120217486Y-90656492D01*
X120217486Y-90656492D02*
X120261247Y-90593824D01*
X120261247Y-90593824D02*
X120295885Y-90543561D01*
X120295885Y-90543561D02*
X120320230Y-90507334D01*
X120320230Y-90507334D02*
X120333111Y-90486771D01*
X120333111Y-90486771D02*
X120334869Y-90482668D01*
X120334869Y-90482668D02*
X120326910Y-90471342D01*
X120326910Y-90471342D02*
X120306115Y-90444162D01*
X120306115Y-90444162D02*
X120273847Y-90402829D01*
X120273847Y-90402829D02*
X120231470Y-90349044D01*
X120231470Y-90349044D02*
X120180347Y-90284506D01*
X120180347Y-90284506D02*
X120121841Y-90210918D01*
X120121841Y-90210918D02*
X120057314Y-90129978D01*
X120057314Y-90129978D02*
X119988131Y-90043388D01*
X119988131Y-90043388D02*
X119915653Y-89952848D01*
X119915653Y-89952848D02*
X119841246Y-89860060D01*
X119841246Y-89860060D02*
X119781517Y-89785702D01*
X119781517Y-89785702D02*
X118770511Y-89785702D01*
X118770511Y-89785702D02*
X118764602Y-89798659D01*
X118764602Y-89798659D02*
X118750272Y-89820908D01*
X118750272Y-89820908D02*
X118749225Y-89822391D01*
X118749225Y-89822391D02*
X118730438Y-89852544D01*
X118730438Y-89852544D02*
X118710791Y-89889375D01*
X118710791Y-89889375D02*
X118706892Y-89897511D01*
X118706892Y-89897511D02*
X118703356Y-89905940D01*
X118703356Y-89905940D02*
X118700230Y-89916059D01*
X118700230Y-89916059D02*
X118697486Y-89929260D01*
X118697486Y-89929260D02*
X118695092Y-89946938D01*
X118695092Y-89946938D02*
X118693019Y-89970484D01*
X118693019Y-89970484D02*
X118691235Y-90001293D01*
X118691235Y-90001293D02*
X118689712Y-90040757D01*
X118689712Y-90040757D02*
X118688419Y-90090269D01*
X118688419Y-90090269D02*
X118687326Y-90151223D01*
X118687326Y-90151223D02*
X118686403Y-90225011D01*
X118686403Y-90225011D02*
X118685619Y-90313028D01*
X118685619Y-90313028D02*
X118684945Y-90416665D01*
X118684945Y-90416665D02*
X118684350Y-90537316D01*
X118684350Y-90537316D02*
X118683805Y-90676374D01*
X118683805Y-90676374D02*
X118683279Y-90835232D01*
X118683279Y-90835232D02*
X118682745Y-91014089D01*
X118682745Y-91014089D02*
X118682206Y-91199207D01*
X118682206Y-91199207D02*
X118681772Y-91363145D01*
X118681772Y-91363145D02*
X118681509Y-91507303D01*
X118681509Y-91507303D02*
X118681484Y-91633079D01*
X118681484Y-91633079D02*
X118681765Y-91741871D01*
X118681765Y-91741871D02*
X118682419Y-91835077D01*
X118682419Y-91835077D02*
X118683514Y-91914097D01*
X118683514Y-91914097D02*
X118685118Y-91980328D01*
X118685118Y-91980328D02*
X118687297Y-92035170D01*
X118687297Y-92035170D02*
X118690119Y-92080021D01*
X118690119Y-92080021D02*
X118693651Y-92116278D01*
X118693651Y-92116278D02*
X118697961Y-92145341D01*
X118697961Y-92145341D02*
X118703117Y-92168609D01*
X118703117Y-92168609D02*
X118709185Y-92187479D01*
X118709185Y-92187479D02*
X118716233Y-92203351D01*
X118716233Y-92203351D02*
X118724329Y-92217622D01*
X118724329Y-92217622D02*
X118733540Y-92231691D01*
X118733540Y-92231691D02*
X118742040Y-92244158D01*
X118742040Y-92244158D02*
X118759176Y-92270452D01*
X118759176Y-92270452D02*
X118769322Y-92288037D01*
X118769322Y-92288037D02*
X118770511Y-92291257D01*
X118770511Y-92291257D02*
X118759604Y-92292334D01*
X118759604Y-92292334D02*
X118728411Y-92293335D01*
X118728411Y-92293335D02*
X118679223Y-92294235D01*
X118679223Y-92294235D02*
X118614333Y-92295010D01*
X118614333Y-92295010D02*
X118536030Y-92295637D01*
X118536030Y-92295637D02*
X118446607Y-92296091D01*
X118446607Y-92296091D02*
X118348356Y-92296349D01*
X118348356Y-92296349D02*
X118279445Y-92296400D01*
X118279445Y-92296400D02*
X118174452Y-92296180D01*
X118174452Y-92296180D02*
X118077610Y-92295548D01*
X118077610Y-92295548D02*
X117991107Y-92294549D01*
X117991107Y-92294549D02*
X117917132Y-92293227D01*
X117917132Y-92293227D02*
X117857874Y-92291626D01*
X117857874Y-92291626D02*
X117815520Y-92289791D01*
X117815520Y-92289791D02*
X117792260Y-92287765D01*
X117792260Y-92287765D02*
X117788378Y-92286493D01*
X117788378Y-92286493D02*
X117796076Y-92271591D01*
X117796076Y-92271591D02*
X117804074Y-92263560D01*
X117804074Y-92263560D02*
X117817246Y-92246434D01*
X117817246Y-92246434D02*
X117834485Y-92216183D01*
X117834485Y-92216183D02*
X117846407Y-92191622D01*
X117846407Y-92191622D02*
X117873045Y-92132711D01*
X117873045Y-92132711D02*
X117876120Y-90955845D01*
X117876120Y-90955845D02*
X117879195Y-89778978D01*
X117879195Y-89778978D02*
X118324853Y-89778978D01*
X118324853Y-89778978D02*
X118422670Y-89779142D01*
X118422670Y-89779142D02*
X118513064Y-89779611D01*
X118513064Y-89779611D02*
X118593630Y-89780347D01*
X118593630Y-89780347D02*
X118661962Y-89781316D01*
X118661962Y-89781316D02*
X118715656Y-89782480D01*
X118715656Y-89782480D02*
X118752305Y-89783803D01*
X118752305Y-89783803D02*
X118769504Y-89785249D01*
X118769504Y-89785249D02*
X118770511Y-89785702D01*
X118770511Y-89785702D02*
X119781517Y-89785702D01*
X119781517Y-89785702D02*
X119766270Y-89766722D01*
X119766270Y-89766722D02*
X119692090Y-89674537D01*
X119692090Y-89674537D02*
X119620069Y-89585204D01*
X119620069Y-89585204D02*
X119551569Y-89500424D01*
X119551569Y-89500424D02*
X119487955Y-89421898D01*
X119487955Y-89421898D02*
X119430588Y-89351326D01*
X119430588Y-89351326D02*
X119380833Y-89290409D01*
X119380833Y-89290409D02*
X119340052Y-89240847D01*
X119340052Y-89240847D02*
X119322888Y-89220178D01*
X119322888Y-89220178D02*
X119236596Y-89119516D01*
X119236596Y-89119516D02*
X119159997Y-89036259D01*
X119159997Y-89036259D02*
X119091183Y-88968438D01*
X119091183Y-88968438D02*
X119028248Y-88914089D01*
X119028248Y-88914089D02*
X119018867Y-88906722D01*
X119018867Y-88906722D02*
X118979356Y-88876117D01*
X118979356Y-88876117D02*
X120111116Y-88875867D01*
X120111116Y-88875867D02*
X120105827Y-88923844D01*
X120105827Y-88923844D02*
X120109130Y-88981188D01*
X120109130Y-88981188D02*
X120130661Y-89049463D01*
X120130661Y-89049463D02*
X120170635Y-89129212D01*
X120170635Y-89129212D02*
X120215943Y-89201495D01*
X120215943Y-89201495D02*
X120232161Y-89224140D01*
X120232161Y-89224140D02*
X120260214Y-89261696D01*
X120260214Y-89261696D02*
X120298430Y-89312021D01*
X120298430Y-89312021D02*
X120345137Y-89372973D01*
X120345137Y-89372973D02*
X120398661Y-89442411D01*
X120398661Y-89442411D02*
X120457331Y-89518194D01*
X120457331Y-89518194D02*
X120519475Y-89598180D01*
X120519475Y-89598180D02*
X120583421Y-89680228D01*
X120583421Y-89680228D02*
X120647495Y-89762196D01*
X120647495Y-89762196D02*
X120710027Y-89841943D01*
X120710027Y-89841943D02*
X120769343Y-89917327D01*
X120769343Y-89917327D02*
X120823771Y-89986207D01*
X120823771Y-89986207D02*
X120871639Y-90046442D01*
X120871639Y-90046442D02*
X120911275Y-90095889D01*
X120911275Y-90095889D02*
X120941006Y-90132408D01*
X120941006Y-90132408D02*
X120959161Y-90153858D01*
X120959161Y-90153858D02*
X120962220Y-90157156D01*
X120962220Y-90157156D02*
X120965079Y-90149149D01*
X120965079Y-90149149D02*
X120967293Y-90118855D01*
X120967293Y-90118855D02*
X120968857Y-90066556D01*
X120968857Y-90066556D02*
X120969767Y-89992531D01*
X120969767Y-89992531D02*
X120970020Y-89897063D01*
X120970020Y-89897063D02*
X120969613Y-89780434D01*
X120969613Y-89780434D02*
X120968704Y-89660445D01*
X120968704Y-89660445D02*
X120967382Y-89528333D01*
X120967382Y-89528333D02*
X120965857Y-89416594D01*
X120965857Y-89416594D02*
X120963881Y-89323025D01*
X120963881Y-89323025D02*
X120961206Y-89245419D01*
X120961206Y-89245419D02*
X120957582Y-89181574D01*
X120957582Y-89181574D02*
X120952761Y-89129283D01*
X120952761Y-89129283D02*
X120946494Y-89086344D01*
X120946494Y-89086344D02*
X120938532Y-89050551D01*
X120938532Y-89050551D02*
X120928627Y-89019700D01*
X120928627Y-89019700D02*
X120916531Y-88991586D01*
X120916531Y-88991586D02*
X120901993Y-88964005D01*
X120901993Y-88964005D02*
X120887311Y-88938966D01*
X120887311Y-88938966D02*
X120849314Y-88875867D01*
X120849314Y-88875867D02*
X121909197Y-88875867D01*
X121909197Y-88875867D02*
X122212034Y-88875867D01*
X122212034Y-88875867D02*
X122212001Y-88869617D01*
X122212001Y-88869617D02*
X122211195Y-88767544D01*
X122211195Y-88767544D02*
X122210170Y-88678633D01*
X122210170Y-88678633D02*
X122208900Y-88601941D01*
X122208900Y-88601941D02*
X122207360Y-88536527D01*
X122207360Y-88536527D02*
X122205524Y-88481449D01*
X122205524Y-88481449D02*
X122203367Y-88435765D01*
X122203367Y-88435765D02*
X122200863Y-88398534D01*
X122200863Y-88398534D02*
X122197987Y-88368813D01*
X122197987Y-88368813D02*
X122194713Y-88345662D01*
X122194713Y-88345662D02*
X122191015Y-88328139D01*
X122191015Y-88328139D02*
X122186869Y-88315301D01*
X122186869Y-88315301D02*
X122182247Y-88306208D01*
X122182247Y-88306208D02*
X122177126Y-88299918D01*
X122177126Y-88299918D02*
X122171478Y-88295488D01*
X122171478Y-88295488D02*
X122165279Y-88291978D01*
X122165279Y-88291978D02*
X122158504Y-88288445D01*
X122158504Y-88288445D02*
X122152508Y-88284876D01*
X122152508Y-88284876D02*
X122147275Y-88282300D01*
X122147275Y-88282300D02*
X122139099Y-88279972D01*
X122139099Y-88279972D02*
X122126886Y-88277878D01*
X122126886Y-88277878D02*
X122109541Y-88276007D01*
X122109541Y-88276007D02*
X122085969Y-88274347D01*
X122085969Y-88274347D02*
X122055077Y-88272884D01*
X122055077Y-88272884D02*
X122015768Y-88271608D01*
X122015768Y-88271608D02*
X121966950Y-88270504D01*
X121966950Y-88270504D02*
X121907527Y-88269561D01*
X121907527Y-88269561D02*
X121836404Y-88268767D01*
X121836404Y-88268767D02*
X121752488Y-88268109D01*
X121752488Y-88268109D02*
X121654683Y-88267575D01*
X121654683Y-88267575D02*
X121541894Y-88267153D01*
X121541894Y-88267153D02*
X121413029Y-88266829D01*
X121413029Y-88266829D02*
X121266991Y-88266592D01*
X121266991Y-88266592D02*
X121102686Y-88266430D01*
X121102686Y-88266430D02*
X120919020Y-88266330D01*
X120919020Y-88266330D02*
X120714897Y-88266280D01*
X120714897Y-88266280D02*
X120503753Y-88266267D01*
X120503753Y-88266267D02*
X118883400Y-88266267D01*
X118883400Y-88266267D02*
X118883400Y-88363054D01*
X118883400Y-88363054D02*
X118883400Y-88363054D01*
G36*
X122213059Y-89117011D02*
G01*
X122213362Y-89264216D01*
X122213548Y-89428349D01*
X122213642Y-89610352D01*
X122213671Y-89811165D01*
X122213661Y-90031732D01*
X122213636Y-90272992D01*
X122213622Y-90535889D01*
X122213622Y-90578040D01*
X122213646Y-90838668D01*
X122213685Y-91077796D01*
X122213708Y-91296360D01*
X122213687Y-91495295D01*
X122213593Y-91675535D01*
X122213395Y-91838015D01*
X122213063Y-91983670D01*
X122212569Y-92113434D01*
X122211883Y-92228243D01*
X122210976Y-92329030D01*
X122209817Y-92416730D01*
X122208378Y-92492279D01*
X122206629Y-92556611D01*
X122204540Y-92610661D01*
X122202083Y-92655363D01*
X122199227Y-92691652D01*
X122195943Y-92720463D01*
X122192202Y-92742731D01*
X122187974Y-92759390D01*
X122183229Y-92771375D01*
X122177939Y-92779621D01*
X122172073Y-92785062D01*
X122165602Y-92788634D01*
X122158497Y-92791270D01*
X122150728Y-92793906D01*
X122142266Y-92797477D01*
X122137908Y-92799145D01*
X122129395Y-92801111D01*
X122116694Y-92802911D01*
X122098885Y-92804555D01*
X122075049Y-92806047D01*
X122044266Y-92807397D01*
X122005617Y-92808611D01*
X121958182Y-92809697D01*
X121901043Y-92810661D01*
X121833279Y-92811511D01*
X121753971Y-92812253D01*
X121662199Y-92812897D01*
X121557044Y-92813447D01*
X121437587Y-92813913D01*
X121302908Y-92814300D01*
X121152088Y-92814616D01*
X120984206Y-92814869D01*
X120798345Y-92815066D01*
X120593583Y-92815213D01*
X120369002Y-92815318D01*
X120123682Y-92815389D01*
X119856704Y-92815432D01*
X119818321Y-92815437D01*
X119552922Y-92815480D01*
X119309050Y-92815525D01*
X119085783Y-92815548D01*
X118882196Y-92815524D01*
X118697367Y-92815430D01*
X118530373Y-92815243D01*
X118380290Y-92814939D01*
X118246196Y-92814494D01*
X118127166Y-92813885D01*
X118022279Y-92813089D01*
X117930610Y-92812080D01*
X117851237Y-92810837D01*
X117783237Y-92809335D01*
X117725686Y-92807551D01*
X117677662Y-92805461D01*
X117638240Y-92803042D01*
X117606499Y-92800270D01*
X117581514Y-92797121D01*
X117562364Y-92793572D01*
X117548123Y-92789598D01*
X117537871Y-92785178D01*
X117530682Y-92780286D01*
X117525635Y-92774900D01*
X117521805Y-92768996D01*
X117518271Y-92762549D01*
X117514108Y-92755537D01*
X117513025Y-92753687D01*
X117510813Y-92748180D01*
X117508786Y-92739868D01*
X117506938Y-92727809D01*
X117505261Y-92711063D01*
X117503745Y-92688687D01*
X117502383Y-92659740D01*
X117501167Y-92623280D01*
X117500089Y-92578367D01*
X117499140Y-92524057D01*
X117498312Y-92459410D01*
X117497597Y-92383484D01*
X117496987Y-92295338D01*
X117496942Y-92286493D01*
X117788378Y-92286493D01*
X117792260Y-92287765D01*
X117815520Y-92289791D01*
X117857874Y-92291626D01*
X117917132Y-92293227D01*
X117991107Y-92294549D01*
X118077610Y-92295548D01*
X118174452Y-92296180D01*
X118279445Y-92296400D01*
X118977651Y-92296400D01*
X120132090Y-92296400D01*
X120131456Y-92220200D01*
X120132574Y-92178160D01*
X120138304Y-92142334D01*
X120150890Y-92104772D01*
X120172568Y-92056577D01*
X120175789Y-92049897D01*
X120201188Y-92000359D01*
X120227996Y-91952369D01*
X120250917Y-91915466D01*
X120255485Y-91908834D01*
X120277516Y-91877593D01*
X120309693Y-91832654D01*
X120350457Y-91776147D01*
X120398245Y-91710204D01*
X120451498Y-91636957D01*
X120508655Y-91558536D01*
X120568155Y-91477072D01*
X120628437Y-91394698D01*
X120687940Y-91313544D01*
X120745105Y-91235742D01*
X120798370Y-91163423D01*
X120846174Y-91098718D01*
X120886957Y-91043759D01*
X120919158Y-91000676D01*
X120941216Y-90971602D01*
X120951571Y-90958667D01*
X120956044Y-90954351D01*
X120960236Y-90952312D01*
X120963643Y-90954926D01*
X120966325Y-90963986D01*
X120968341Y-90981285D01*
X120969748Y-91008614D01*
X120970605Y-91047765D01*
X120970970Y-91100533D01*
X120970903Y-91168707D01*
X120970460Y-91254082D01*
X120969702Y-91358449D01*
X120968685Y-91483600D01*
X120968308Y-91528300D01*
X120967169Y-91649395D01*
X120965972Y-91750688D01*
X120964636Y-91834262D01*
X120963077Y-91902204D01*
X120961215Y-91956599D01*
X120958966Y-91999532D01*
X120956248Y-92033089D01*
X120952979Y-92059355D01*
X120949078Y-92080416D01*
X120944461Y-92098357D01*
X120936192Y-92124770D01*
X120912583Y-92186772D01*
X120886685Y-92239573D01*
X120861535Y-92276645D01*
X120860339Y-92278075D01*
X120858168Y-92282424D01*
X120860328Y-92286026D01*
X120868644Y-92288951D01*
X120884940Y-92291269D01*
X120911041Y-92293051D01*
X120948771Y-92294367D01*
X120999956Y-92295286D01*
X121066420Y-92295878D01*
X121149987Y-92296215D01*
X121252483Y-92296365D01*
X121375732Y-92296400D01*
X121907296Y-92296400D01*
X121868523Y-92238783D01*
X121862432Y-92229893D01*
X121851976Y-92215069D01*
X121842579Y-92201422D01*
X121834183Y-92187765D01*
X121826733Y-92172911D01*
X121820173Y-92155670D01*
X121814446Y-92134855D01*
X121809495Y-92109280D01*
X121805266Y-92077755D01*
X121801701Y-92039093D01*
X121798744Y-91992107D01*
X121796340Y-91935608D01*
X121794431Y-91868409D01*
X121792962Y-91789322D01*
X121791876Y-91697160D01*
X121791118Y-91590734D01*
X121790630Y-91468857D01*
X121790358Y-91330341D01*
X121790243Y-91173999D01*
X121790231Y-90998642D01*
X121790265Y-90803082D01*
X121790289Y-90586133D01*
X121790280Y-90463513D01*
X121790243Y-90258447D01*
X121790227Y-90074116D01*
X121790288Y-89909334D01*
X121790484Y-89762916D01*
X121790870Y-89633674D01*
X121791505Y-89520422D01*
X121792444Y-89421975D01*
X121793745Y-89337144D01*
X121795464Y-89264744D01*
X121797659Y-89203589D01*
X121800385Y-89152492D01*
X121803701Y-89110267D01*
X121807662Y-89075727D01*
X121812325Y-89047686D01*
X121817747Y-89024958D01*
X121823986Y-89006356D01*
X121831097Y-88990693D01*
X121839138Y-88976784D01*
X121848166Y-88963441D01*
X121858236Y-88949479D01*
X121869407Y-88933711D01*
X121909197Y-88875867D01*
X120849314Y-88875867D01*
X120887311Y-88938966D01*
X120901993Y-88964005D01*
X120916531Y-88991586D01*
X120928627Y-89019700D01*
X120938532Y-89050551D01*
X120946494Y-89086344D01*
X120952761Y-89129283D01*
X120957582Y-89181574D01*
X120961206Y-89245419D01*
X120963881Y-89323025D01*
X120965857Y-89416594D01*
X120967382Y-89528333D01*
X120968704Y-89660445D01*
X120969613Y-89780434D01*
X120970020Y-89897063D01*
X120969767Y-89992531D01*
X120968857Y-90066556D01*
X120967293Y-90118855D01*
X120965079Y-90149149D01*
X120962220Y-90157156D01*
X120959161Y-90153858D01*
X120941006Y-90132408D01*
X120911275Y-90095889D01*
X120871639Y-90046442D01*
X120823771Y-89986207D01*
X120769343Y-89917327D01*
X120710027Y-89841943D01*
X120647495Y-89762196D01*
X120583421Y-89680228D01*
X120519475Y-89598180D01*
X120457331Y-89518194D01*
X120398661Y-89442411D01*
X120345137Y-89372973D01*
X120298430Y-89312021D01*
X120260214Y-89261696D01*
X120232161Y-89224140D01*
X120215943Y-89201495D01*
X120170635Y-89129212D01*
X120130661Y-89049463D01*
X120109130Y-88981188D01*
X120105827Y-88923844D01*
X120111116Y-88875867D01*
X118979356Y-88876117D01*
X119018867Y-88906722D01*
X119028248Y-88914089D01*
X119091183Y-88968438D01*
X119159997Y-89036259D01*
X119236596Y-89119516D01*
X119322888Y-89220178D01*
X119340052Y-89240847D01*
X119380833Y-89290409D01*
X119430588Y-89351326D01*
X119487955Y-89421898D01*
X119551569Y-89500424D01*
X119620069Y-89585204D01*
X119692090Y-89674537D01*
X119766270Y-89766722D01*
X119781517Y-89785702D01*
X119841246Y-89860060D01*
X119915653Y-89952848D01*
X119988131Y-90043388D01*
X120057314Y-90129978D01*
X120121841Y-90210918D01*
X120180347Y-90284506D01*
X120231470Y-90349044D01*
X120273847Y-90402829D01*
X120306115Y-90444162D01*
X120326910Y-90471342D01*
X120334869Y-90482668D01*
X120333111Y-90486771D01*
X120320230Y-90507334D01*
X120295885Y-90543561D01*
X120261247Y-90593824D01*
X120217486Y-90656492D01*
X120165775Y-90729936D01*
X120107284Y-90812527D01*
X120043184Y-90902636D01*
X119974646Y-90998631D01*
X119902843Y-91098885D01*
X119828944Y-91201768D01*
X119754121Y-91305650D01*
X119679545Y-91408901D01*
X119606387Y-91509892D01*
X119535819Y-91606994D01*
X119469011Y-91698577D01*
X119407135Y-91783011D01*
X119351361Y-91858667D01*
X119302862Y-91923916D01*
X119262807Y-91977128D01*
X119232369Y-92016673D01*
X119211944Y-92042026D01*
X119165899Y-92096295D01*
X119115612Y-92152775D01*
X119068815Y-92202669D01*
X118977651Y-92296400D01*
X118279445Y-92296400D01*
X118348356Y-92296349D01*
X118446607Y-92296091D01*
X118536030Y-92295637D01*
X118614333Y-92295010D01*
X118679223Y-92294235D01*
X118728411Y-92293335D01*
X118759604Y-92292334D01*
X118770511Y-92291257D01*
X118769322Y-92288037D01*
X118759176Y-92270452D01*
X118742040Y-92244158D01*
X118733540Y-92231691D01*
X118724329Y-92217622D01*
X118716233Y-92203351D01*
X118709185Y-92187479D01*
X118703117Y-92168609D01*
X118697961Y-92145341D01*
X118693651Y-92116278D01*
X118690119Y-92080021D01*
X118687297Y-92035170D01*
X118685118Y-91980328D01*
X118683514Y-91914097D01*
X118682419Y-91835077D01*
X118681765Y-91741871D01*
X118681484Y-91633079D01*
X118681509Y-91507303D01*
X118681772Y-91363145D01*
X118682206Y-91199207D01*
X118682745Y-91014089D01*
X118683279Y-90835232D01*
X118683805Y-90676374D01*
X118684350Y-90537316D01*
X118684945Y-90416665D01*
X118685619Y-90313028D01*
X118686403Y-90225011D01*
X118687326Y-90151223D01*
X118688419Y-90090269D01*
X118689712Y-90040757D01*
X118691235Y-90001293D01*
X118693019Y-89970484D01*
X118695092Y-89946938D01*
X118697486Y-89929260D01*
X118700230Y-89916059D01*
X118703356Y-89905940D01*
X118706892Y-89897511D01*
X118710791Y-89889375D01*
X118730438Y-89852544D01*
X118749225Y-89822391D01*
X118750272Y-89820908D01*
X118764602Y-89798659D01*
X118770511Y-89785702D01*
X118769504Y-89785249D01*
X118752305Y-89783803D01*
X118715656Y-89782480D01*
X118661962Y-89781316D01*
X118593630Y-89780347D01*
X118513064Y-89779611D01*
X118422670Y-89779142D01*
X118324853Y-89778978D01*
X117879195Y-89778978D01*
X117876120Y-90955845D01*
X117873045Y-92132711D01*
X117846407Y-92191622D01*
X117834485Y-92216183D01*
X117817246Y-92246434D01*
X117804074Y-92263560D01*
X117796076Y-92271591D01*
X117788378Y-92286493D01*
X117496942Y-92286493D01*
X117496474Y-92194029D01*
X117496050Y-92078617D01*
X117495706Y-91948160D01*
X117495434Y-91801716D01*
X117495227Y-91638344D01*
X117495076Y-91457101D01*
X117494972Y-91257048D01*
X117494908Y-91037241D01*
X117494876Y-90796739D01*
X117494867Y-90534602D01*
X117494867Y-88343031D01*
X117533249Y-88304649D01*
X117560355Y-88280911D01*
X117587253Y-88269111D01*
X117623560Y-88266267D01*
X117675489Y-88266267D01*
X117675489Y-88354206D01*
X117677427Y-88404102D01*
X117696199Y-88514523D01*
X117733217Y-88615987D01*
X117786369Y-88707152D01*
X117853546Y-88786673D01*
X117932638Y-88853205D01*
X118021534Y-88905406D01*
X118118125Y-88941930D01*
X118220300Y-88961434D01*
X118325950Y-88962573D01*
X118432964Y-88944005D01*
X118539232Y-88904384D01*
X118636219Y-88846516D01*
X118721293Y-88771684D01*
X118790015Y-88683615D01*
X118840918Y-88584616D01*
X118872535Y-88476993D01*
X118883400Y-88363054D01*
X118883400Y-88266267D01*
X120503753Y-88266267D01*
X120714897Y-88266280D01*
X120919020Y-88266330D01*
X121102686Y-88266430D01*
X121266991Y-88266592D01*
X121413029Y-88266829D01*
X121541894Y-88267153D01*
X121654683Y-88267575D01*
X121752488Y-88268109D01*
X121836404Y-88268767D01*
X121907527Y-88269561D01*
X121966950Y-88270504D01*
X122015768Y-88271608D01*
X122055077Y-88272884D01*
X122085969Y-88274347D01*
X122109541Y-88276007D01*
X122126886Y-88277878D01*
X122139099Y-88279972D01*
X122147275Y-88282300D01*
X122152508Y-88284876D01*
X122158504Y-88288445D01*
X122165279Y-88291978D01*
X122171478Y-88295488D01*
X122177126Y-88299918D01*
X122182247Y-88306208D01*
X122186869Y-88315301D01*
X122191015Y-88328139D01*
X122194713Y-88345662D01*
X122197987Y-88368813D01*
X122200863Y-88398534D01*
X122203367Y-88435765D01*
X122205524Y-88481449D01*
X122207360Y-88536527D01*
X122208900Y-88601941D01*
X122210170Y-88678633D01*
X122211195Y-88767544D01*
X122212001Y-88869617D01*
X122212034Y-88875867D01*
X122212614Y-88985792D01*
X122213059Y-89117011D01*
G37*
X122213059Y-89117011D02*
X122213362Y-89264216D01*
X122213548Y-89428349D01*
X122213642Y-89610352D01*
X122213671Y-89811165D01*
X122213661Y-90031732D01*
X122213636Y-90272992D01*
X122213622Y-90535889D01*
X122213622Y-90578040D01*
X122213646Y-90838668D01*
X122213685Y-91077796D01*
X122213708Y-91296360D01*
X122213687Y-91495295D01*
X122213593Y-91675535D01*
X122213395Y-91838015D01*
X122213063Y-91983670D01*
X122212569Y-92113434D01*
X122211883Y-92228243D01*
X122210976Y-92329030D01*
X122209817Y-92416730D01*
X122208378Y-92492279D01*
X122206629Y-92556611D01*
X122204540Y-92610661D01*
X122202083Y-92655363D01*
X122199227Y-92691652D01*
X122195943Y-92720463D01*
X122192202Y-92742731D01*
X122187974Y-92759390D01*
X122183229Y-92771375D01*
X122177939Y-92779621D01*
X122172073Y-92785062D01*
X122165602Y-92788634D01*
X122158497Y-92791270D01*
X122150728Y-92793906D01*
X122142266Y-92797477D01*
X122137908Y-92799145D01*
X122129395Y-92801111D01*
X122116694Y-92802911D01*
X122098885Y-92804555D01*
X122075049Y-92806047D01*
X122044266Y-92807397D01*
X122005617Y-92808611D01*
X121958182Y-92809697D01*
X121901043Y-92810661D01*
X121833279Y-92811511D01*
X121753971Y-92812253D01*
X121662199Y-92812897D01*
X121557044Y-92813447D01*
X121437587Y-92813913D01*
X121302908Y-92814300D01*
X121152088Y-92814616D01*
X120984206Y-92814869D01*
X120798345Y-92815066D01*
X120593583Y-92815213D01*
X120369002Y-92815318D01*
X120123682Y-92815389D01*
X119856704Y-92815432D01*
X119818321Y-92815437D01*
X119552922Y-92815480D01*
X119309050Y-92815525D01*
X119085783Y-92815548D01*
X118882196Y-92815524D01*
X118697367Y-92815430D01*
X118530373Y-92815243D01*
X118380290Y-92814939D01*
X118246196Y-92814494D01*
X118127166Y-92813885D01*
X118022279Y-92813089D01*
X117930610Y-92812080D01*
X117851237Y-92810837D01*
X117783237Y-92809335D01*
X117725686Y-92807551D01*
X117677662Y-92805461D01*
X117638240Y-92803042D01*
X117606499Y-92800270D01*
X117581514Y-92797121D01*
X117562364Y-92793572D01*
X117548123Y-92789598D01*
X117537871Y-92785178D01*
X117530682Y-92780286D01*
X117525635Y-92774900D01*
X117521805Y-92768996D01*
X117518271Y-92762549D01*
X117514108Y-92755537D01*
X117513025Y-92753687D01*
X117510813Y-92748180D01*
X117508786Y-92739868D01*
X117506938Y-92727809D01*
X117505261Y-92711063D01*
X117503745Y-92688687D01*
X117502383Y-92659740D01*
X117501167Y-92623280D01*
X117500089Y-92578367D01*
X117499140Y-92524057D01*
X117498312Y-92459410D01*
X117497597Y-92383484D01*
X117496987Y-92295338D01*
X117496942Y-92286493D01*
X117788378Y-92286493D01*
X117792260Y-92287765D01*
X117815520Y-92289791D01*
X117857874Y-92291626D01*
X117917132Y-92293227D01*
X117991107Y-92294549D01*
X118077610Y-92295548D01*
X118174452Y-92296180D01*
X118279445Y-92296400D01*
X118977651Y-92296400D01*
X120132090Y-92296400D01*
X120131456Y-92220200D01*
X120132574Y-92178160D01*
X120138304Y-92142334D01*
X120150890Y-92104772D01*
X120172568Y-92056577D01*
X120175789Y-92049897D01*
X120201188Y-92000359D01*
X120227996Y-91952369D01*
X120250917Y-91915466D01*
X120255485Y-91908834D01*
X120277516Y-91877593D01*
X120309693Y-91832654D01*
X120350457Y-91776147D01*
X120398245Y-91710204D01*
X120451498Y-91636957D01*
X120508655Y-91558536D01*
X120568155Y-91477072D01*
X120628437Y-91394698D01*
X120687940Y-91313544D01*
X120745105Y-91235742D01*
X120798370Y-91163423D01*
X120846174Y-91098718D01*
X120886957Y-91043759D01*
X120919158Y-91000676D01*
X120941216Y-90971602D01*
X120951571Y-90958667D01*
X120956044Y-90954351D01*
X120960236Y-90952312D01*
X120963643Y-90954926D01*
X120966325Y-90963986D01*
X120968341Y-90981285D01*
X120969748Y-91008614D01*
X120970605Y-91047765D01*
X120970970Y-91100533D01*
X120970903Y-91168707D01*
X120970460Y-91254082D01*
X120969702Y-91358449D01*
X120968685Y-91483600D01*
X120968308Y-91528300D01*
X120967169Y-91649395D01*
X120965972Y-91750688D01*
X120964636Y-91834262D01*
X120963077Y-91902204D01*
X120961215Y-91956599D01*
X120958966Y-91999532D01*
X120956248Y-92033089D01*
X120952979Y-92059355D01*
X120949078Y-92080416D01*
X120944461Y-92098357D01*
X120936192Y-92124770D01*
X120912583Y-92186772D01*
X120886685Y-92239573D01*
X120861535Y-92276645D01*
X120860339Y-92278075D01*
X120858168Y-92282424D01*
X120860328Y-92286026D01*
X120868644Y-92288951D01*
X120884940Y-92291269D01*
X120911041Y-92293051D01*
X120948771Y-92294367D01*
X120999956Y-92295286D01*
X121066420Y-92295878D01*
X121149987Y-92296215D01*
X121252483Y-92296365D01*
X121375732Y-92296400D01*
X121907296Y-92296400D01*
X121868523Y-92238783D01*
X121862432Y-92229893D01*
X121851976Y-92215069D01*
X121842579Y-92201422D01*
X121834183Y-92187765D01*
X121826733Y-92172911D01*
X121820173Y-92155670D01*
X121814446Y-92134855D01*
X121809495Y-92109280D01*
X121805266Y-92077755D01*
X121801701Y-92039093D01*
X121798744Y-91992107D01*
X121796340Y-91935608D01*
X121794431Y-91868409D01*
X121792962Y-91789322D01*
X121791876Y-91697160D01*
X121791118Y-91590734D01*
X121790630Y-91468857D01*
X121790358Y-91330341D01*
X121790243Y-91173999D01*
X121790231Y-90998642D01*
X121790265Y-90803082D01*
X121790289Y-90586133D01*
X121790280Y-90463513D01*
X121790243Y-90258447D01*
X121790227Y-90074116D01*
X121790288Y-89909334D01*
X121790484Y-89762916D01*
X121790870Y-89633674D01*
X121791505Y-89520422D01*
X121792444Y-89421975D01*
X121793745Y-89337144D01*
X121795464Y-89264744D01*
X121797659Y-89203589D01*
X121800385Y-89152492D01*
X121803701Y-89110267D01*
X121807662Y-89075727D01*
X121812325Y-89047686D01*
X121817747Y-89024958D01*
X121823986Y-89006356D01*
X121831097Y-88990693D01*
X121839138Y-88976784D01*
X121848166Y-88963441D01*
X121858236Y-88949479D01*
X121869407Y-88933711D01*
X121909197Y-88875867D01*
X120849314Y-88875867D01*
X120887311Y-88938966D01*
X120901993Y-88964005D01*
X120916531Y-88991586D01*
X120928627Y-89019700D01*
X120938532Y-89050551D01*
X120946494Y-89086344D01*
X120952761Y-89129283D01*
X120957582Y-89181574D01*
X120961206Y-89245419D01*
X120963881Y-89323025D01*
X120965857Y-89416594D01*
X120967382Y-89528333D01*
X120968704Y-89660445D01*
X120969613Y-89780434D01*
X120970020Y-89897063D01*
X120969767Y-89992531D01*
X120968857Y-90066556D01*
X120967293Y-90118855D01*
X120965079Y-90149149D01*
X120962220Y-90157156D01*
X120959161Y-90153858D01*
X120941006Y-90132408D01*
X120911275Y-90095889D01*
X120871639Y-90046442D01*
X120823771Y-89986207D01*
X120769343Y-89917327D01*
X120710027Y-89841943D01*
X120647495Y-89762196D01*
X120583421Y-89680228D01*
X120519475Y-89598180D01*
X120457331Y-89518194D01*
X120398661Y-89442411D01*
X120345137Y-89372973D01*
X120298430Y-89312021D01*
X120260214Y-89261696D01*
X120232161Y-89224140D01*
X120215943Y-89201495D01*
X120170635Y-89129212D01*
X120130661Y-89049463D01*
X120109130Y-88981188D01*
X120105827Y-88923844D01*
X120111116Y-88875867D01*
X118979356Y-88876117D01*
X119018867Y-88906722D01*
X119028248Y-88914089D01*
X119091183Y-88968438D01*
X119159997Y-89036259D01*
X119236596Y-89119516D01*
X119322888Y-89220178D01*
X119340052Y-89240847D01*
X119380833Y-89290409D01*
X119430588Y-89351326D01*
X119487955Y-89421898D01*
X119551569Y-89500424D01*
X119620069Y-89585204D01*
X119692090Y-89674537D01*
X119766270Y-89766722D01*
X119781517Y-89785702D01*
X119841246Y-89860060D01*
X119915653Y-89952848D01*
X119988131Y-90043388D01*
X120057314Y-90129978D01*
X120121841Y-90210918D01*
X120180347Y-90284506D01*
X120231470Y-90349044D01*
X120273847Y-90402829D01*
X120306115Y-90444162D01*
X120326910Y-90471342D01*
X120334869Y-90482668D01*
X120333111Y-90486771D01*
X120320230Y-90507334D01*
X120295885Y-90543561D01*
X120261247Y-90593824D01*
X120217486Y-90656492D01*
X120165775Y-90729936D01*
X120107284Y-90812527D01*
X120043184Y-90902636D01*
X119974646Y-90998631D01*
X119902843Y-91098885D01*
X119828944Y-91201768D01*
X119754121Y-91305650D01*
X119679545Y-91408901D01*
X119606387Y-91509892D01*
X119535819Y-91606994D01*
X119469011Y-91698577D01*
X119407135Y-91783011D01*
X119351361Y-91858667D01*
X119302862Y-91923916D01*
X119262807Y-91977128D01*
X119232369Y-92016673D01*
X119211944Y-92042026D01*
X119165899Y-92096295D01*
X119115612Y-92152775D01*
X119068815Y-92202669D01*
X118977651Y-92296400D01*
X118279445Y-92296400D01*
X118348356Y-92296349D01*
X118446607Y-92296091D01*
X118536030Y-92295637D01*
X118614333Y-92295010D01*
X118679223Y-92294235D01*
X118728411Y-92293335D01*
X118759604Y-92292334D01*
X118770511Y-92291257D01*
X118769322Y-92288037D01*
X118759176Y-92270452D01*
X118742040Y-92244158D01*
X118733540Y-92231691D01*
X118724329Y-92217622D01*
X118716233Y-92203351D01*
X118709185Y-92187479D01*
X118703117Y-92168609D01*
X118697961Y-92145341D01*
X118693651Y-92116278D01*
X118690119Y-92080021D01*
X118687297Y-92035170D01*
X118685118Y-91980328D01*
X118683514Y-91914097D01*
X118682419Y-91835077D01*
X118681765Y-91741871D01*
X118681484Y-91633079D01*
X118681509Y-91507303D01*
X118681772Y-91363145D01*
X118682206Y-91199207D01*
X118682745Y-91014089D01*
X118683279Y-90835232D01*
X118683805Y-90676374D01*
X118684350Y-90537316D01*
X118684945Y-90416665D01*
X118685619Y-90313028D01*
X118686403Y-90225011D01*
X118687326Y-90151223D01*
X118688419Y-90090269D01*
X118689712Y-90040757D01*
X118691235Y-90001293D01*
X118693019Y-89970484D01*
X118695092Y-89946938D01*
X118697486Y-89929260D01*
X118700230Y-89916059D01*
X118703356Y-89905940D01*
X118706892Y-89897511D01*
X118710791Y-89889375D01*
X118730438Y-89852544D01*
X118749225Y-89822391D01*
X118750272Y-89820908D01*
X118764602Y-89798659D01*
X118770511Y-89785702D01*
X118769504Y-89785249D01*
X118752305Y-89783803D01*
X118715656Y-89782480D01*
X118661962Y-89781316D01*
X118593630Y-89780347D01*
X118513064Y-89779611D01*
X118422670Y-89779142D01*
X118324853Y-89778978D01*
X117879195Y-89778978D01*
X117876120Y-90955845D01*
X117873045Y-92132711D01*
X117846407Y-92191622D01*
X117834485Y-92216183D01*
X117817246Y-92246434D01*
X117804074Y-92263560D01*
X117796076Y-92271591D01*
X117788378Y-92286493D01*
X117496942Y-92286493D01*
X117496474Y-92194029D01*
X117496050Y-92078617D01*
X117495706Y-91948160D01*
X117495434Y-91801716D01*
X117495227Y-91638344D01*
X117495076Y-91457101D01*
X117494972Y-91257048D01*
X117494908Y-91037241D01*
X117494876Y-90796739D01*
X117494867Y-90534602D01*
X117494867Y-88343031D01*
X117533249Y-88304649D01*
X117560355Y-88280911D01*
X117587253Y-88269111D01*
X117623560Y-88266267D01*
X117675489Y-88266267D01*
X117675489Y-88354206D01*
X117677427Y-88404102D01*
X117696199Y-88514523D01*
X117733217Y-88615987D01*
X117786369Y-88707152D01*
X117853546Y-88786673D01*
X117932638Y-88853205D01*
X118021534Y-88905406D01*
X118118125Y-88941930D01*
X118220300Y-88961434D01*
X118325950Y-88962573D01*
X118432964Y-88944005D01*
X118539232Y-88904384D01*
X118636219Y-88846516D01*
X118721293Y-88771684D01*
X118790015Y-88683615D01*
X118840918Y-88584616D01*
X118872535Y-88476993D01*
X118883400Y-88363054D01*
X118883400Y-88266267D01*
X120503753Y-88266267D01*
X120714897Y-88266280D01*
X120919020Y-88266330D01*
X121102686Y-88266430D01*
X121266991Y-88266592D01*
X121413029Y-88266829D01*
X121541894Y-88267153D01*
X121654683Y-88267575D01*
X121752488Y-88268109D01*
X121836404Y-88268767D01*
X121907527Y-88269561D01*
X121966950Y-88270504D01*
X122015768Y-88271608D01*
X122055077Y-88272884D01*
X122085969Y-88274347D01*
X122109541Y-88276007D01*
X122126886Y-88277878D01*
X122139099Y-88279972D01*
X122147275Y-88282300D01*
X122152508Y-88284876D01*
X122158504Y-88288445D01*
X122165279Y-88291978D01*
X122171478Y-88295488D01*
X122177126Y-88299918D01*
X122182247Y-88306208D01*
X122186869Y-88315301D01*
X122191015Y-88328139D01*
X122194713Y-88345662D01*
X122197987Y-88368813D01*
X122200863Y-88398534D01*
X122203367Y-88435765D01*
X122205524Y-88481449D01*
X122207360Y-88536527D01*
X122208900Y-88601941D01*
X122210170Y-88678633D01*
X122211195Y-88767544D01*
X122212001Y-88869617D01*
X122212034Y-88875867D01*
X122212614Y-88985792D01*
X122213059Y-89117011D01*
D13*
%TO.C,JP7*%
X136000000Y-89969000D02*
X138800000Y-89969000D01*
X138800000Y-89969000D02*
X138800000Y-87969000D01*
X138800000Y-87969000D02*
X136000000Y-87969000D01*
X136000000Y-87969000D02*
X136000000Y-89969000D01*
%TO.C,JP1*%
X185390000Y-103063000D02*
X183390000Y-103063000D01*
X183390000Y-103063000D02*
X183390000Y-105863000D01*
X185390000Y-105863000D02*
X185390000Y-103063000D01*
X183390000Y-105863000D02*
X185390000Y-105863000D01*
%TO.C,JP2*%
X127958000Y-123574000D02*
X127958000Y-121624000D01*
X122458000Y-121624000D02*
X122458000Y-123574000D01*
X126908000Y-124124000D02*
X126308000Y-124124000D01*
X126608000Y-123824000D02*
X126908000Y-124124000D01*
X126308000Y-124124000D02*
X126608000Y-123824000D01*
X127958000Y-121624000D02*
X122458000Y-121624000D01*
X122458000Y-123574000D02*
X127958000Y-123574000D01*
%TO.C,TP6*%
X198290000Y-90620000D02*
G75*
G03*
X198290000Y-90620000I-1200000J0D01*
G01*
%TO.C,TP7*%
X154983000Y-116401000D02*
G75*
G03*
X154983000Y-116401000I-1200000J0D01*
G01*
%TO.C,A0*%
X169782000Y-115582000D02*
X169482000Y-115282000D01*
X173932000Y-117782000D02*
X173932000Y-115832000D01*
X173932000Y-115832000D02*
X168432000Y-115832000D01*
X168432000Y-115832000D02*
X168432000Y-117782000D01*
X168432000Y-117782000D02*
X173932000Y-117782000D01*
X169482000Y-115282000D02*
X170082000Y-115282000D01*
X170082000Y-115282000D02*
X169782000Y-115582000D01*
%TO.C,TP3*%
X196258000Y-97732000D02*
G75*
G03*
X196258000Y-97732000I-1200000J0D01*
G01*
%TO.C,TP5*%
X198290000Y-94176000D02*
G75*
G03*
X198290000Y-94176000I-1200000J0D01*
G01*
%TO.C,JP6*%
X173883000Y-123910000D02*
X173883000Y-125910000D01*
X173883000Y-125910000D02*
X176683000Y-125910000D01*
X176683000Y-125910000D02*
X176683000Y-123910000D01*
X176683000Y-123910000D02*
X173883000Y-123910000D01*
%TO.C,TP4*%
X188511000Y-89604000D02*
G75*
G03*
X188511000Y-89604000I-1200000J0D01*
G01*
%TO.C,A1*%
X169782000Y-118376000D02*
X169482000Y-118076000D01*
X173932000Y-118626000D02*
X168432000Y-118626000D01*
X168432000Y-118626000D02*
X168432000Y-120576000D01*
X173932000Y-120576000D02*
X173932000Y-118626000D01*
X168432000Y-120576000D02*
X173932000Y-120576000D01*
X169482000Y-118076000D02*
X170082000Y-118076000D01*
X170082000Y-118076000D02*
X169782000Y-118376000D01*
%TO.C,JP8*%
X171312000Y-123910000D02*
X168512000Y-123910000D01*
X168512000Y-123910000D02*
X168512000Y-125910000D01*
X171312000Y-125910000D02*
X171312000Y-123910000D01*
X168512000Y-125910000D02*
X171312000Y-125910000D01*
%TO.C,TP1*%
X198798000Y-108146000D02*
G75*
G03*
X198798000Y-108146000I-1200000J0D01*
G01*
%TO.C,A2*%
X169482000Y-120867000D02*
X170082000Y-120867000D01*
X168432000Y-121417000D02*
X168432000Y-123367000D01*
X168432000Y-123367000D02*
X173932000Y-123367000D01*
X173932000Y-123367000D02*
X173932000Y-121417000D01*
X170082000Y-120867000D02*
X169782000Y-121167000D01*
X173932000Y-121417000D02*
X168432000Y-121417000D01*
X169782000Y-121167000D02*
X169482000Y-120867000D01*
%TO.C,TP2*%
X134790000Y-84905000D02*
G75*
G03*
X134790000Y-84905000I-1200000J0D01*
G01*
D11*
%TO.C,LOGO8*%
X181850000Y-105733000D02*
X181850000Y-106368000D01*
X179310000Y-103193000D02*
X180580000Y-105733000D01*
X179310000Y-105733000D02*
X181850000Y-105733000D01*
X181850000Y-106368000D02*
X181215000Y-106368000D01*
X180580000Y-105733000D02*
X181850000Y-103193000D01*
X179945000Y-105098000D02*
X179310000Y-105098000D01*
X179310000Y-105098000D02*
X179310000Y-105733000D01*
X180580000Y-101288000D02*
X180580000Y-107638000D01*
X181850000Y-103193000D02*
X179310000Y-103193000D01*
%TD*%
%LPC*%
D15*
%TO.C,LOGO1*%
X130008600Y-82796800D03*
D16*
X122388600Y-82796800D03*
%TD*%
D17*
%TO.C,J9*%
X169998000Y-84400000D03*
X172538000Y-84400000D03*
X175078000Y-84400000D03*
D18*
X177618000Y-84400000D03*
%TD*%
D17*
%TO.C,J13*%
X150124000Y-125563000D03*
X147584000Y-125563000D03*
X145044000Y-125563000D03*
D18*
X142504000Y-125563000D03*
%TD*%
D17*
%TO.C,J12*%
X137932000Y-125600000D03*
X135392000Y-125600000D03*
X132852000Y-125600000D03*
D18*
X130312000Y-125600000D03*
%TD*%
D17*
%TO.C,J11*%
X157806000Y-84400000D03*
X160346000Y-84400000D03*
X162886000Y-84400000D03*
D18*
X165426000Y-84400000D03*
%TD*%
D17*
%TO.C,J15*%
X125740000Y-125600000D03*
X123200000Y-125600000D03*
X120660000Y-125600000D03*
D18*
X118120000Y-125600000D03*
%TD*%
D17*
%TO.C,J14*%
X162310000Y-125563000D03*
X159770000Y-125563000D03*
X157230000Y-125563000D03*
D18*
X154690000Y-125563000D03*
%TD*%
D17*
%TO.C,J10*%
X182190000Y-84410000D03*
X184730000Y-84410000D03*
X187270000Y-84410000D03*
D18*
X189810000Y-84410000D03*
%TD*%
D19*
%TO.C,J5*%
X104410000Y-127850000D03*
D20*
X104410000Y-122770000D03*
%TD*%
D19*
%TO.C,J2*%
X104410000Y-97370000D03*
D20*
X104410000Y-92290000D03*
%TD*%
D19*
%TO.C,J1*%
X104410000Y-87210000D03*
D20*
X104410000Y-82130000D03*
%TD*%
D19*
%TO.C,J3*%
X104410000Y-107530000D03*
D20*
X104410000Y-102450000D03*
%TD*%
D19*
%TO.C,J4*%
X104410000Y-117690000D03*
D20*
X104410000Y-112610000D03*
%TD*%
D19*
%TO.C,J8*%
X195590000Y-114970000D03*
D21*
X195590000Y-120050000D03*
%TD*%
D22*
%TO.C,J6*%
X195150000Y-95390000D03*
X195150000Y-89610000D03*
%TD*%
D23*
%TO.C,H1*%
X112000000Y-83000000D03*
%TD*%
%TO.C,H4*%
X197000000Y-83000000D03*
%TD*%
%TO.C,H2*%
X112000000Y-127000000D03*
%TD*%
%TO.C,H3*%
X197000000Y-127000000D03*
%TD*%
D24*
%TO.C,J7*%
X188700000Y-105000000D03*
D25*
X194700000Y-105000000D03*
D26*
X191700000Y-100300000D03*
%TD*%
D27*
%TO.C,JP7*%
X138125000Y-88969000D03*
D28*
X136675000Y-88969000D03*
%TD*%
D29*
%TO.C,JP1*%
X184390000Y-103738000D03*
D30*
X184390000Y-105188000D03*
%TD*%
D31*
%TO.C,JP2*%
X124008000Y-122624000D03*
X126408000Y-122624000D03*
D27*
X127208000Y-122624000D03*
D32*
X123208000Y-122624000D03*
%TD*%
D33*
%TO.C,TP6*%
X197090000Y-90620000D03*
%TD*%
%TO.C,TP7*%
X153783000Y-116401000D03*
%TD*%
D31*
%TO.C,A0*%
X169982000Y-116782000D03*
X172382000Y-116782000D03*
D32*
X169182000Y-116782000D03*
D27*
X173182000Y-116782000D03*
%TD*%
D33*
%TO.C,TP3*%
X195058000Y-97732000D03*
%TD*%
%TO.C,TP5*%
X197090000Y-94176000D03*
%TD*%
D32*
%TO.C,JP6*%
X174558000Y-124910000D03*
D34*
X176008000Y-124910000D03*
%TD*%
D33*
%TO.C,TP4*%
X187311000Y-89604000D03*
%TD*%
D31*
%TO.C,A1*%
X172382000Y-119576000D03*
X169982000Y-119576000D03*
D32*
X169182000Y-119576000D03*
D27*
X173182000Y-119576000D03*
%TD*%
D32*
%TO.C,JP8*%
X169187000Y-124910000D03*
D34*
X170637000Y-124910000D03*
%TD*%
D33*
%TO.C,TP1*%
X197598000Y-108146000D03*
%TD*%
D31*
%TO.C,A2*%
X172382000Y-122367000D03*
X169982000Y-122367000D03*
D32*
X169182000Y-122367000D03*
D27*
X173182000Y-122367000D03*
%TD*%
D33*
%TO.C,TP2*%
X133590000Y-84905000D03*
%TD*%
M02*
