%TF.GenerationSoftware,KiCad,Pcbnew,(5.99.0-8805-ge26c912b86)*%
%TF.CreationDate,2021-02-03T20:46:20+01:00*%
%TF.ProjectId,USB-CP2102-only,5553422d-4350-4323-9130-322d6f6e6c79,rev?*%
%TF.SameCoordinates,Original*%
%TF.FileFunction,Copper,L1,Top*%
%TF.FilePolarity,Positive*%
%FSLAX46Y46*%
G04 Gerber Fmt 4.6, Leading zero omitted, Abs format (unit mm)*
G04 Created by KiCad (PCBNEW (5.99.0-8805-ge26c912b86)) date 2021-02-03 20:46:20*
%MOMM*%
%LPD*%
G01*
G04 APERTURE LIST*
G04 Aperture macros list*
%AMRoundRect*
0 Rectangle with rounded corners*
0 $1 Rounding radius*
0 $2 $3 $4 $5 $6 $7 $8 $9 X,Y pos of 4 corners*
0 Add a 4 corners polygon primitive as box body*
4,1,4,$2,$3,$4,$5,$6,$7,$8,$9,$2,$3,0*
0 Add four circle primitives for the rounded corners*
1,1,$1+$1,$2,$3*
1,1,$1+$1,$4,$5*
1,1,$1+$1,$6,$7*
1,1,$1+$1,$8,$9*
0 Add four rect primitives between the rounded corners*
20,1,$1+$1,$2,$3,$4,$5,0*
20,1,$1+$1,$4,$5,$6,$7,0*
20,1,$1+$1,$6,$7,$8,$9,0*
20,1,$1+$1,$8,$9,$2,$3,0*%
G04 Aperture macros list end*
%TA.AperFunction,EtchedComponent*%
%ADD10C,0.381000*%
%TD*%
%TA.AperFunction,SMDPad,CuDef*%
%ADD11RoundRect,0.225000X0.250000X-0.225000X0.250000X0.225000X-0.250000X0.225000X-0.250000X-0.225000X0*%
%TD*%
%TA.AperFunction,ComponentPad*%
%ADD12R,1.700000X1.700000*%
%TD*%
%TA.AperFunction,SMDPad,CuDef*%
%ADD13R,0.900000X0.800000*%
%TD*%
%TA.AperFunction,SMDPad,CuDef*%
%ADD14RoundRect,0.200000X-0.275000X0.200000X-0.275000X-0.200000X0.275000X-0.200000X0.275000X0.200000X0*%
%TD*%
%TA.AperFunction,SMDPad,CuDef*%
%ADD15RoundRect,0.200000X-0.200000X-0.275000X0.200000X-0.275000X0.200000X0.275000X-0.200000X0.275000X0*%
%TD*%
%TA.AperFunction,SMDPad,CuDef*%
%ADD16R,1.060000X0.650000*%
%TD*%
%TA.AperFunction,SMDPad,CuDef*%
%ADD17R,1.450000X0.600000*%
%TD*%
%TA.AperFunction,SMDPad,CuDef*%
%ADD18R,1.450000X0.300000*%
%TD*%
%TA.AperFunction,SMDPad,CuDef*%
%ADD19RoundRect,0.145000X-0.580000X0.755000X-0.580000X-0.755000X0.580000X-0.755000X0.580000X0.755000X0*%
%TD*%
%TA.AperFunction,SMDPad,CuDef*%
%ADD20RoundRect,0.120000X-0.480000X0.780000X-0.480000X-0.780000X0.480000X-0.780000X0.480000X0.780000X0*%
%TD*%
%TA.AperFunction,SMDPad,CuDef*%
%ADD21RoundRect,0.062500X-0.337500X-0.062500X0.337500X-0.062500X0.337500X0.062500X-0.337500X0.062500X0*%
%TD*%
%TA.AperFunction,SMDPad,CuDef*%
%ADD22RoundRect,0.062500X-0.062500X-0.337500X0.062500X-0.337500X0.062500X0.337500X-0.062500X0.337500X0*%
%TD*%
%TA.AperFunction,SMDPad,CuDef*%
%ADD23R,3.350000X3.350000*%
%TD*%
%TA.AperFunction,SMDPad,CuDef*%
%ADD24RoundRect,0.225000X-0.250000X0.225000X-0.250000X-0.225000X0.250000X-0.225000X0.250000X0.225000X0*%
%TD*%
%TA.AperFunction,SMDPad,CuDef*%
%ADD25RoundRect,0.200000X0.275000X-0.200000X0.275000X0.200000X-0.275000X0.200000X-0.275000X-0.200000X0*%
%TD*%
%TA.AperFunction,SMDPad,CuDef*%
%ADD26R,2.500000X1.800000*%
%TD*%
%TA.AperFunction,SMDPad,CuDef*%
%ADD27RoundRect,0.250000X-0.650000X0.325000X-0.650000X-0.325000X0.650000X-0.325000X0.650000X0.325000X0*%
%TD*%
%TA.AperFunction,ViaPad*%
%ADD28C,0.800000*%
%TD*%
%TA.AperFunction,Conductor*%
%ADD29C,0.250000*%
%TD*%
%TA.AperFunction,Conductor*%
%ADD30C,0.350000*%
%TD*%
G04 APERTURE END LIST*
D10*
%TO.C,REF\u002A\u002A*%
X160554000Y-110690000D02*
X160554000Y-111071000D01*
X160554000Y-110309000D02*
X160554000Y-110690000D01*
X160300000Y-109801000D02*
X160554000Y-110309000D01*
X160173000Y-109547000D02*
X160300000Y-109801000D01*
X159792000Y-109420000D02*
X160173000Y-109547000D01*
X159411000Y-109420000D02*
X159792000Y-109420000D01*
X159030000Y-109547000D02*
X159411000Y-109420000D01*
X158522000Y-109801000D02*
X159030000Y-109547000D01*
X158141000Y-110055000D02*
X158522000Y-109801000D01*
X157633000Y-110563000D02*
X158141000Y-110055000D01*
X157379000Y-111198000D02*
X157633000Y-110563000D01*
X157252000Y-111833000D02*
X157379000Y-111198000D01*
X157252000Y-112341000D02*
X157252000Y-111833000D01*
X157506000Y-112976000D02*
X157252000Y-112341000D01*
X157887000Y-113611000D02*
X157506000Y-112976000D01*
X158395000Y-114119000D02*
X157887000Y-113611000D01*
X159030000Y-114373000D02*
X158395000Y-114119000D01*
X159538000Y-114500000D02*
X159030000Y-114373000D01*
X159792000Y-114500000D02*
X159538000Y-114500000D01*
X160554000Y-113103000D02*
X160554000Y-112722000D01*
X160427000Y-113738000D02*
X160554000Y-113103000D01*
X160300000Y-114246000D02*
X160427000Y-113738000D01*
X160046000Y-114373000D02*
X160300000Y-114246000D01*
X159792000Y-114500000D02*
X160046000Y-114373000D01*
X161316000Y-112976000D02*
X160554000Y-112976000D01*
X161697000Y-112976000D02*
X161316000Y-112976000D01*
X162332000Y-111833000D02*
X162332000Y-112214000D01*
X162205000Y-111325000D02*
X162332000Y-111833000D01*
X162078000Y-110944000D02*
X162205000Y-111325000D01*
X161697000Y-110817000D02*
X162078000Y-110944000D01*
X161316000Y-110817000D02*
X161697000Y-110817000D01*
X160554000Y-110817000D02*
X161316000Y-110817000D01*
X162205000Y-112595000D02*
X162332000Y-112214000D01*
X161951000Y-112849000D02*
X162205000Y-112595000D01*
X161697000Y-112976000D02*
X161951000Y-112849000D01*
X160173000Y-112214000D02*
X159411000Y-111960000D01*
X160173000Y-111706000D02*
X160173000Y-112214000D01*
X159411000Y-111960000D02*
X160173000Y-111706000D01*
X159694981Y-110944000D02*
G75*
G03*
X159694981Y-110944000I-283981J0D01*
G01*
X159694981Y-112976000D02*
G75*
G03*
X159694981Y-112976000I-283981J0D01*
G01*
X161443000Y-112468000D02*
X160935000Y-112468000D01*
X161443000Y-111325000D02*
X161443000Y-112468000D01*
X160935000Y-111325000D02*
X161443000Y-111325000D01*
X160935000Y-112468000D02*
X160935000Y-111325000D01*
X161062000Y-111833000D02*
X161316000Y-111833000D01*
X158141000Y-109674000D02*
X157633000Y-109039000D01*
X157633000Y-109039000D02*
X157125000Y-109039000D01*
X157633000Y-109039000D02*
X157506000Y-108531000D01*
X160935000Y-113611000D02*
X161824000Y-114627000D01*
X161824000Y-114627000D02*
X161824000Y-115008000D01*
X161824000Y-114627000D02*
X162332000Y-114627000D01*
X158141000Y-114373000D02*
X157760000Y-114881000D01*
X157760000Y-114881000D02*
X157379000Y-114881000D01*
X157760000Y-114881000D02*
X157887000Y-115262000D01*
X161824000Y-109293000D02*
X161824000Y-109039000D01*
X160935000Y-110182000D02*
X161824000Y-109293000D01*
X162205000Y-109293000D02*
X162205000Y-109166000D01*
X161824000Y-109293000D02*
X162205000Y-109293000D01*
%TD*%
D11*
%TO.P,C15,1*%
%TO.N,GND*%
X160795000Y-126109000D03*
%TO.P,C15,2*%
%TO.N,VBUS*%
X160795000Y-124559000D03*
%TD*%
D12*
%TO.P,J1,1,Pin_1*%
%TO.N,+5V*%
X173520400Y-130109200D03*
%TD*%
%TO.P,J2,1,Pin_1*%
%TO.N,VBUS*%
X170980400Y-130109200D03*
%TD*%
%TO.P,J4,1,Pin_1*%
%TO.N,GND*%
X165900400Y-130109200D03*
%TD*%
%TO.P,J5,1,Pin_1*%
%TO.N,GND*%
X168440400Y-130109200D03*
%TD*%
%TO.P,J8,1,Pin_1*%
%TO.N,DTR*%
X176060400Y-130109200D03*
%TD*%
D13*
%TO.P,Q6,1,B*%
%TO.N,Net-(Q6-Pad1)*%
X173130000Y-119050000D03*
%TO.P,Q6,2,E*%
%TO.N,Net-(JP3-Pad2)*%
X173130000Y-120950000D03*
%TO.P,Q6,3,C*%
%TO.N,GPIO0*%
X175130000Y-120000000D03*
%TD*%
%TO.P,Q7,1,B*%
%TO.N,Net-(Q7-Pad1)*%
X173130000Y-124130000D03*
%TO.P,Q7,2,E*%
%TO.N,Net-(JP1-Pad2)*%
X173130000Y-126030000D03*
%TO.P,Q7,3,C*%
%TO.N,RST*%
X175130000Y-125080000D03*
%TD*%
D14*
%TO.P,R26,1*%
%TO.N,GPIO3*%
X166764000Y-116635000D03*
%TO.P,R26,2*%
%TO.N,Net-(R26-Pad2)*%
X166764000Y-118285000D03*
%TD*%
D15*
%TO.P,R28,1*%
%TO.N,Net-(JP3-Pad2)*%
X173305000Y-122540000D03*
%TO.P,R28,2*%
%TO.N,Net-(Q7-Pad1)*%
X174955000Y-122540000D03*
%TD*%
D16*
%TO.P,U4,1,IN*%
%TO.N,+5V*%
X165664000Y-112446000D03*
%TO.P,U4,2,GND*%
%TO.N,GND*%
X165664000Y-113396000D03*
%TO.P,U4,3,EN*%
%TO.N,+5V*%
X165664000Y-114346000D03*
%TO.P,U4,4,NC*%
%TO.N,unconnected-(U4-Pad4)*%
X167864000Y-114346000D03*
%TO.P,U4,5,OUT*%
%TO.N,+3V3*%
X167864000Y-112446000D03*
%TD*%
D17*
%TO.P,J7,A1,GND*%
%TO.N,GND*%
X157045000Y-116750000D03*
%TO.P,J7,A4,VBUS*%
%TO.N,VBUS*%
X157045000Y-117550000D03*
D18*
%TO.P,J7,A5,CC1*%
%TO.N,Net-(J7-PadA5)*%
X157045000Y-118750000D03*
%TO.P,J7,A6,D+*%
%TO.N,Net-(J7-PadA6)*%
X157045000Y-119750000D03*
%TO.P,J7,A7,D-*%
%TO.N,Net-(J7-PadA7)*%
X157045000Y-120250000D03*
%TO.P,J7,A8,SBU1*%
%TO.N,unconnected-(J7-PadA8)*%
X157045000Y-121250000D03*
D17*
%TO.P,J7,A9,VBUS*%
%TO.N,VBUS*%
X157045000Y-122450000D03*
%TO.P,J7,A12,GND*%
%TO.N,GND*%
X157045000Y-123250000D03*
%TO.P,J7,B1,GND*%
X157045000Y-123250000D03*
%TO.P,J7,B4,VBUS*%
%TO.N,VBUS*%
X157045000Y-122450000D03*
D18*
%TO.P,J7,B5,CC2*%
%TO.N,Net-(J7-PadB5)*%
X157045000Y-121750000D03*
%TO.P,J7,B6,D+*%
%TO.N,Net-(J7-PadA6)*%
X157045000Y-120750000D03*
%TO.P,J7,B7,D-*%
%TO.N,Net-(J7-PadA7)*%
X157045000Y-119250000D03*
%TO.P,J7,B8,SBU2*%
%TO.N,unconnected-(J7-PadB8)*%
X157045000Y-118250000D03*
D17*
%TO.P,J7,B9,VBUS*%
%TO.N,VBUS*%
X157045000Y-117550000D03*
%TO.P,J7,B12,GND*%
%TO.N,GND*%
X157045000Y-116750000D03*
D19*
%TO.P,J7,S1,SHIELD*%
X156130000Y-114930000D03*
D20*
X151950000Y-125070000D03*
X151950000Y-114930000D03*
D19*
X156130000Y-125070000D03*
%TD*%
D21*
%TO.P,U5,1,~DCD*%
%TO.N,unconnected-(U5-Pad1)*%
X164822000Y-121040000D03*
%TO.P,U5,2,~RI~/CLK*%
%TO.N,unconnected-(U5-Pad2)*%
X164822000Y-121540000D03*
%TO.P,U5,3,GND*%
%TO.N,GND*%
X164822000Y-122040000D03*
%TO.P,U5,4,D+*%
%TO.N,Net-(J7-PadA6)*%
X164822000Y-122540000D03*
%TO.P,U5,5,D-*%
%TO.N,Net-(J7-PadA7)*%
X164822000Y-123040000D03*
%TO.P,U5,6,VDD*%
%TO.N,Net-(C17-Pad2)*%
X164822000Y-123540000D03*
%TO.P,U5,7,REGIN*%
%TO.N,VBUS*%
X164822000Y-124040000D03*
D22*
%TO.P,U5,8,VBUS*%
X165772000Y-124990000D03*
%TO.P,U5,9,~RSTb*%
%TO.N,unconnected-(U5-Pad9)*%
X166272000Y-124990000D03*
%TO.P,U5,10,NC*%
%TO.N,unconnected-(U5-Pad10)*%
X166772000Y-124990000D03*
%TO.P,U5,11,~SUSPENDb*%
%TO.N,unconnected-(U5-Pad11)*%
X167272000Y-124990000D03*
%TO.P,U5,12,SUSPEND*%
%TO.N,unconnected-(U5-Pad12)*%
X167772000Y-124990000D03*
%TO.P,U5,13,CHREN*%
%TO.N,unconnected-(U5-Pad13)*%
X168272000Y-124990000D03*
%TO.P,U5,14,CHR1*%
%TO.N,unconnected-(U5-Pad14)*%
X168772000Y-124990000D03*
D21*
%TO.P,U5,15,CHR0*%
%TO.N,unconnected-(U5-Pad15)*%
X169722000Y-124040000D03*
%TO.P,U5,16,~WAKEUP~/GPIO.3*%
%TO.N,unconnected-(U5-Pad16)*%
X169722000Y-123540000D03*
%TO.P,U5,17,RS485/GPIO.2*%
%TO.N,unconnected-(U5-Pad17)*%
X169722000Y-123040000D03*
%TO.P,U5,18,~RXT~/GPIO.1*%
%TO.N,unconnected-(U5-Pad18)*%
X169722000Y-122540000D03*
%TO.P,U5,19,~TXT~/GPIO.0*%
%TO.N,unconnected-(U5-Pad19)*%
X169722000Y-122040000D03*
%TO.P,U5,20,GPIO.6*%
%TO.N,unconnected-(U5-Pad20)*%
X169722000Y-121540000D03*
%TO.P,U5,21,GPIO.5*%
%TO.N,unconnected-(U5-Pad21)*%
X169722000Y-121040000D03*
D22*
%TO.P,U5,22,GPIO.4*%
%TO.N,unconnected-(U5-Pad22)*%
X168772000Y-120090000D03*
%TO.P,U5,23,~CTS*%
%TO.N,unconnected-(U5-Pad23)*%
X168272000Y-120090000D03*
%TO.P,U5,24,~RTS*%
%TO.N,Net-(JP1-Pad1)*%
X167772000Y-120090000D03*
%TO.P,U5,25,RXD*%
%TO.N,GPIO1*%
X167272000Y-120090000D03*
%TO.P,U5,26,TXD*%
%TO.N,Net-(R26-Pad2)*%
X166772000Y-120090000D03*
%TO.P,U5,27,~DSR*%
%TO.N,unconnected-(U5-Pad27)*%
X166272000Y-120090000D03*
%TO.P,U5,28,~DTR*%
%TO.N,DTR*%
X165772000Y-120090000D03*
D23*
%TO.P,U5,29,GND*%
%TO.N,GND*%
X167272000Y-122540000D03*
%TD*%
D15*
%TO.P,R27,1*%
%TO.N,Net-(JP1-Pad2)*%
X173242000Y-117460000D03*
%TO.P,R27,2*%
%TO.N,Net-(Q6-Pad1)*%
X174892000Y-117460000D03*
%TD*%
D24*
%TO.P,C14,1*%
%TO.N,+3V3*%
X169558000Y-113002000D03*
%TO.P,C14,2*%
%TO.N,GND*%
X169558000Y-114552000D03*
%TD*%
%TO.P,C13,1*%
%TO.N,+5V*%
X163970000Y-113002000D03*
%TO.P,C13,2*%
%TO.N,GND*%
X163970000Y-114552000D03*
%TD*%
D25*
%TO.P,R25,1*%
%TO.N,Net-(J7-PadA5)*%
X154699000Y-113078000D03*
%TO.P,R25,2*%
%TO.N,GND*%
X154699000Y-111428000D03*
%TD*%
D26*
%TO.P,D2,1,K*%
%TO.N,+5V*%
X164192000Y-117460000D03*
%TO.P,D2,2,A*%
%TO.N,VBUS*%
X160192000Y-117460000D03*
%TD*%
D27*
%TO.P,C16,1*%
%TO.N,VBUS*%
X162827000Y-124621000D03*
%TO.P,C16,2*%
%TO.N,GND*%
X162827000Y-127571000D03*
%TD*%
D25*
%TO.P,R24,1*%
%TO.N,Net-(J7-PadB5)*%
X153175000Y-113078000D03*
%TO.P,R24,2*%
%TO.N,GND*%
X153175000Y-111428000D03*
%TD*%
D11*
%TO.P,C17,1*%
%TO.N,GND*%
X159271000Y-126109000D03*
%TO.P,C17,2*%
%TO.N,Net-(C17-Pad2)*%
X159271000Y-124559000D03*
%TD*%
D12*
%TO.P,J3,1,Pin_1*%
%TO.N,+3V3*%
X181140400Y-115744000D03*
%TD*%
%TO.P,J11,1,Pin_1*%
%TO.N,RST*%
X181140400Y-125904000D03*
%TD*%
%TO.P,J9,1,Pin_1*%
%TO.N,GPIO1*%
X181140400Y-123364000D03*
%TD*%
%TO.P,J6,1,Pin_1*%
%TO.N,GND*%
X181140400Y-128444000D03*
%TD*%
%TO.P,J10,1,Pin_1*%
%TO.N,GPIO3*%
X181140400Y-118284000D03*
%TD*%
%TO.P,J12,1,Pin_1*%
%TO.N,GPIO0*%
X181140400Y-120824000D03*
%TD*%
D28*
%TO.N,GND*%
X163000000Y-111000000D03*
X177000000Y-113000000D03*
%TO.N,+5V*%
X162954000Y-113523000D03*
X164192000Y-117460000D03*
%TO.N,VBUS*%
X160192000Y-117460000D03*
X160795000Y-124559000D03*
X158178010Y-122339921D03*
%TO.N,Net-(J7-PadA6)*%
X162704653Y-121519347D03*
X160663347Y-121528653D03*
%TO.N,DTR*%
X165748000Y-118984000D03*
%TO.N,GPIO1*%
X175654000Y-121270000D03*
X167780000Y-117206000D03*
%TO.N,Net-(JP1-Pad1)*%
X168796000Y-118222000D03*
%TO.N,Net-(JP1-Pad2)*%
X174130000Y-116190000D03*
%TO.N,Net-(JP3-Pad2)*%
X174418035Y-121501711D03*
%TD*%
D29*
%TO.N,GPIO1*%
X179983200Y-123364000D02*
X181140400Y-123364000D01*
X175654000Y-121270000D02*
X178905200Y-121270000D01*
X179616400Y-122997200D02*
X179983200Y-123364000D01*
X178905200Y-121270000D02*
X179616400Y-121981200D01*
X179616400Y-121981200D02*
X179616400Y-122997200D01*
%TO.N,RST*%
X179464000Y-125904000D02*
X181140400Y-125904000D01*
X175130000Y-125080000D02*
X178640000Y-125080000D01*
X178640000Y-125080000D02*
X179464000Y-125904000D01*
%TO.N,GPIO0*%
X179718000Y-120824000D02*
X181140400Y-120824000D01*
X175130000Y-120000000D02*
X178894000Y-120000000D01*
X178894000Y-120000000D02*
X179718000Y-120824000D01*
%TO.N,GPIO3*%
X179972000Y-118284000D02*
X181140400Y-118284000D01*
X175954888Y-115420008D02*
X178632008Y-115420008D01*
X166764000Y-116635000D02*
X167934001Y-115464999D01*
X167934001Y-115464999D02*
X169897835Y-115464999D01*
X169897835Y-115464999D02*
X171860824Y-113502010D01*
X174036890Y-113502010D02*
X175954888Y-115420008D01*
X171860824Y-113502010D02*
X174036890Y-113502010D01*
X178632008Y-115420008D02*
X179718000Y-116506000D01*
X179718000Y-116506000D02*
X179718000Y-118030000D01*
X179718000Y-118030000D02*
X179972000Y-118284000D01*
D30*
%TO.N,+3V3*%
X179972000Y-115744000D02*
X181140400Y-115744000D01*
X169558000Y-113002000D02*
X174244000Y-113002000D01*
X174244000Y-113002000D02*
X176162000Y-114920000D01*
X176162000Y-114920000D02*
X179148000Y-114920000D01*
X179148000Y-114920000D02*
X179972000Y-115744000D01*
%TO.N,VBUS*%
X165772000Y-127390000D02*
X167018000Y-128636000D01*
%TO.N,GND*%
X163970000Y-114552000D02*
X165126000Y-113396000D01*
X168410999Y-113645999D02*
X168651999Y-113645999D01*
X165900400Y-128534400D02*
X165900400Y-130109200D01*
X168651999Y-113645999D02*
X169558000Y-114552000D01*
X155398000Y-111428000D02*
X154699000Y-111428000D01*
X162827000Y-126604000D02*
X162827000Y-127571000D01*
X163449000Y-114552000D02*
X163970000Y-114552000D01*
X163479654Y-121147346D02*
X162192000Y-119859692D01*
X162192000Y-119859692D02*
X162192000Y-115809000D01*
X164822000Y-122040000D02*
X163932426Y-122040000D01*
X158255000Y-123810000D02*
X158255000Y-125715000D01*
X165126000Y-113396000D02*
X165664000Y-113396000D01*
X162827000Y-127571000D02*
X164937000Y-127571000D01*
X151950000Y-125070000D02*
X156130000Y-125070000D01*
X155398000Y-111428000D02*
X156130000Y-112160000D01*
X156130000Y-114930000D02*
X156130000Y-112160000D01*
X162192000Y-115809000D02*
X163449000Y-114552000D01*
X165900400Y-130109200D02*
X168440400Y-130109200D01*
X156130000Y-115970000D02*
X156130000Y-114930000D01*
X152730000Y-111428000D02*
X153175000Y-111428000D01*
X159271000Y-126109000D02*
X160795000Y-126109000D01*
X151950000Y-112208000D02*
X152730000Y-111428000D01*
X165664000Y-113396000D02*
X168161000Y-113396000D01*
X162332000Y-126109000D02*
X162827000Y-126604000D01*
X164822000Y-122040000D02*
X166772000Y-122040000D01*
X156130000Y-124030000D02*
X156130000Y-125070000D01*
X160795000Y-126109000D02*
X162332000Y-126109000D01*
X157045000Y-116750000D02*
X157695000Y-116750000D01*
X163479654Y-121587228D02*
X163479654Y-121147346D01*
X158636000Y-115809000D02*
X162192000Y-115809000D01*
X158255000Y-125715000D02*
X158649000Y-126109000D01*
X157695000Y-123250000D02*
X158255000Y-123810000D01*
X151950000Y-114930000D02*
X151950000Y-125070000D01*
X153175000Y-111428000D02*
X154699000Y-111428000D01*
X156910000Y-116750000D02*
X156130000Y-115970000D01*
X163932426Y-122040000D02*
X163479654Y-121587228D01*
X157695000Y-116750000D02*
X158636000Y-115809000D01*
X164937000Y-127571000D02*
X165900400Y-128534400D01*
X156910000Y-123250000D02*
X156130000Y-124030000D01*
X151950000Y-114930000D02*
X151950000Y-112208000D01*
X157045000Y-123250000D02*
X157695000Y-123250000D01*
X158649000Y-126109000D02*
X159271000Y-126109000D01*
X168161000Y-113396000D02*
X168410999Y-113645999D01*
%TO.N,+5V*%
X164526000Y-112446000D02*
X165664000Y-112446000D01*
X165664000Y-114877000D02*
X165664000Y-114346000D01*
X162954000Y-113523000D02*
X162954000Y-113269000D01*
X164192000Y-116349000D02*
X165664000Y-114877000D01*
X164192000Y-117460000D02*
X164192000Y-116349000D01*
X162954000Y-113269000D02*
X163221000Y-113002000D01*
X163221000Y-113002000D02*
X163970000Y-113002000D01*
X163970000Y-113002000D02*
X164526000Y-112446000D01*
%TO.N,+3V3*%
X168100000Y-112446000D02*
X168656000Y-113002000D01*
X168656000Y-113002000D02*
X169558000Y-113002000D01*
%TO.N,VBUS*%
X164241000Y-124621000D02*
X164822000Y-124040000D01*
X158067931Y-122450000D02*
X158178010Y-122339921D01*
X170980400Y-129042400D02*
X170980400Y-130109200D01*
X170574000Y-128636000D02*
X170980400Y-129042400D01*
X167018000Y-128636000D02*
X170574000Y-128636000D01*
X160795000Y-124559000D02*
X162765000Y-124559000D01*
X157045000Y-122450000D02*
X158067931Y-122450000D01*
X157045000Y-117550000D02*
X160102000Y-117550000D01*
X165772000Y-124990000D02*
X165772000Y-127390000D01*
X165772000Y-124990000D02*
X164822000Y-124040000D01*
X162827000Y-124621000D02*
X164241000Y-124621000D01*
D29*
%TO.N,Net-(C17-Pad2)*%
X160290000Y-123540000D02*
X159271000Y-124559000D01*
X164822000Y-123540000D02*
X160290000Y-123540000D01*
%TO.N,Net-(J7-PadA5)*%
X156116000Y-118750000D02*
X157045000Y-118750000D01*
X154699000Y-113078000D02*
X154699000Y-117333000D01*
X154699000Y-117333000D02*
X156116000Y-118750000D01*
%TO.N,Net-(J7-PadA7)*%
X158124000Y-119354000D02*
X158124000Y-120250000D01*
X158020000Y-119250000D02*
X158124000Y-119354000D01*
X160410000Y-120250000D02*
X163200000Y-123040000D01*
X163200000Y-123040000D02*
X164822000Y-123040000D01*
X157045000Y-119250000D02*
X158020000Y-119250000D01*
X157045000Y-120250000D02*
X160410000Y-120250000D01*
%TO.N,Net-(J7-PadA6)*%
X163725306Y-122540000D02*
X164822000Y-122540000D01*
X156070000Y-119750000D02*
X155994999Y-119825001D01*
X156084998Y-120750000D02*
X157045000Y-120750000D01*
X162704653Y-121519347D02*
X163725306Y-122540000D01*
X155994999Y-120660001D02*
X156084998Y-120750000D01*
X155994999Y-119825001D02*
X155994999Y-120660001D01*
X157045000Y-119750000D02*
X156070000Y-119750000D01*
X157045000Y-120750000D02*
X159884694Y-120750000D01*
X159884694Y-120750000D02*
X160663347Y-121528653D01*
%TO.N,Net-(J7-PadB5)*%
X155941000Y-121750000D02*
X157045000Y-121750000D01*
X153175000Y-113078000D02*
X153175000Y-118984000D01*
X153175000Y-118984000D02*
X155941000Y-121750000D01*
%TO.N,DTR*%
X165748000Y-118984000D02*
X165748000Y-120066000D01*
X165748000Y-120066000D02*
X165772000Y-120090000D01*
%TO.N,GPIO1*%
X167780000Y-117206000D02*
X167780000Y-118601590D01*
X167780000Y-118601590D02*
X167272000Y-119109590D01*
X167272000Y-119109590D02*
X167272000Y-120090000D01*
%TO.N,Net-(JP1-Pad1)*%
X168796000Y-118222000D02*
X167772000Y-119246000D01*
X167772000Y-119246000D02*
X167772000Y-120090000D01*
%TO.N,Net-(JP1-Pad2)*%
X173242000Y-117460000D02*
X173242000Y-117078000D01*
X172842000Y-117460000D02*
X172354999Y-117947001D01*
X173242000Y-117078000D02*
X174130000Y-116190000D01*
X173242000Y-117460000D02*
X172842000Y-117460000D01*
X172354999Y-125254999D02*
X173130000Y-126030000D01*
X172354999Y-117947001D02*
X172354999Y-125254999D01*
%TO.N,Net-(Q6-Pad1)*%
X174720000Y-117460000D02*
X173130000Y-119050000D01*
%TO.N,Net-(Q7-Pad1)*%
X174720000Y-122540000D02*
X173130000Y-124130000D01*
%TO.N,Net-(R26-Pad2)*%
X166772000Y-120090000D02*
X166772000Y-118293000D01*
%TO.N,Net-(JP3-Pad2)*%
X173130000Y-120950000D02*
X173866324Y-120950000D01*
X173379746Y-122540000D02*
X174418035Y-121501711D01*
X173866324Y-120950000D02*
X174418035Y-121501711D01*
%TD*%
%TA.AperFunction,Conductor*%
%TO.N,GND*%
G36*
X173790417Y-114155512D02*
G01*
X173811391Y-114172415D01*
X175451497Y-115812521D01*
X175458857Y-115820609D01*
X175462915Y-115827003D01*
X175468692Y-115832428D01*
X175511766Y-115872877D01*
X175514608Y-115875632D01*
X175534922Y-115895946D01*
X175538333Y-115898591D01*
X175547353Y-115906295D01*
X175579587Y-115936565D01*
X175586531Y-115940382D01*
X175586533Y-115940384D01*
X175597341Y-115946326D01*
X175613865Y-115957180D01*
X175629865Y-115969591D01*
X175637136Y-115972738D01*
X175637137Y-115972738D01*
X175670439Y-115987149D01*
X175681095Y-115992370D01*
X175719840Y-116013670D01*
X175727523Y-116015642D01*
X175727524Y-116015643D01*
X175739456Y-116018707D01*
X175758160Y-116025111D01*
X175769471Y-116030006D01*
X175769478Y-116030008D01*
X175776752Y-116033156D01*
X175804551Y-116037559D01*
X175820426Y-116040073D01*
X175832051Y-116042481D01*
X175869106Y-116051995D01*
X175869108Y-116051995D01*
X175874863Y-116053473D01*
X175875419Y-116053508D01*
X175895334Y-116053508D01*
X175915044Y-116055059D01*
X175934832Y-116058193D01*
X175942723Y-116057447D01*
X175978478Y-116054067D01*
X175990336Y-116053508D01*
X178317414Y-116053508D01*
X178385535Y-116073510D01*
X178406509Y-116090413D01*
X179047595Y-116731499D01*
X179081621Y-116793811D01*
X179084500Y-116820594D01*
X179084500Y-117951616D01*
X179083986Y-117962520D01*
X179082334Y-117969911D01*
X179082583Y-117977837D01*
X179082583Y-117977838D01*
X179084438Y-118036866D01*
X179084500Y-118040823D01*
X179084500Y-118069578D01*
X179084996Y-118073503D01*
X179084996Y-118073504D01*
X179085039Y-118073843D01*
X179085972Y-118085687D01*
X179087361Y-118129883D01*
X179089573Y-118137495D01*
X179093012Y-118149333D01*
X179097022Y-118168695D01*
X179099560Y-118188788D01*
X179102476Y-118196153D01*
X179102477Y-118196157D01*
X179115837Y-118229901D01*
X179119681Y-118241128D01*
X179132014Y-118283578D01*
X179136052Y-118290406D01*
X179142323Y-118301011D01*
X179151019Y-118318762D01*
X179155558Y-118330226D01*
X179158478Y-118337600D01*
X179163139Y-118344015D01*
X179184465Y-118373367D01*
X179190983Y-118383290D01*
X179213486Y-118421341D01*
X179213855Y-118421759D01*
X179227938Y-118435842D01*
X179240772Y-118450867D01*
X179252554Y-118467083D01*
X179268658Y-118480405D01*
X179286335Y-118495029D01*
X179295115Y-118503019D01*
X179468609Y-118676513D01*
X179475969Y-118684601D01*
X179480027Y-118690995D01*
X179485804Y-118696420D01*
X179528878Y-118736869D01*
X179531720Y-118739624D01*
X179552034Y-118759938D01*
X179555445Y-118762583D01*
X179564465Y-118770287D01*
X179596699Y-118800557D01*
X179603643Y-118804374D01*
X179603645Y-118804376D01*
X179614453Y-118810318D01*
X179630977Y-118821172D01*
X179646977Y-118833583D01*
X179654248Y-118836730D01*
X179654249Y-118836730D01*
X179687551Y-118851141D01*
X179698211Y-118856364D01*
X179711602Y-118863726D01*
X179761660Y-118914072D01*
X179776900Y-118974140D01*
X179776900Y-119134000D01*
X179782127Y-119207079D01*
X179798761Y-119263729D01*
X179819109Y-119333028D01*
X179823304Y-119347316D01*
X179836605Y-119368013D01*
X179897451Y-119462691D01*
X179897453Y-119462694D01*
X179902323Y-119470271D01*
X179907998Y-119475188D01*
X179937176Y-119539077D01*
X179927074Y-119609351D01*
X179907683Y-119639524D01*
X179864318Y-119689569D01*
X179864316Y-119689572D01*
X179858416Y-119696381D01*
X179854672Y-119704578D01*
X179854670Y-119704582D01*
X179817135Y-119786771D01*
X179770642Y-119840426D01*
X179702521Y-119860428D01*
X179634401Y-119840425D01*
X179613427Y-119823523D01*
X179397391Y-119607487D01*
X179390031Y-119599399D01*
X179385973Y-119593005D01*
X179337121Y-119547130D01*
X179334280Y-119544376D01*
X179313966Y-119524062D01*
X179310555Y-119521417D01*
X179301533Y-119513711D01*
X179275077Y-119488867D01*
X179269301Y-119483443D01*
X179262357Y-119479626D01*
X179262355Y-119479624D01*
X179251547Y-119473682D01*
X179235023Y-119462828D01*
X179225286Y-119455275D01*
X179225285Y-119455275D01*
X179219023Y-119450417D01*
X179178447Y-119432858D01*
X179167790Y-119427637D01*
X179165060Y-119426136D01*
X179129048Y-119406338D01*
X179121365Y-119404366D01*
X179121364Y-119404365D01*
X179109432Y-119401301D01*
X179090728Y-119394897D01*
X179079415Y-119390001D01*
X179079408Y-119389999D01*
X179072136Y-119386852D01*
X179064312Y-119385613D01*
X179064309Y-119385612D01*
X179028465Y-119379935D01*
X179016844Y-119377528D01*
X178979782Y-119368013D01*
X178979781Y-119368013D01*
X178974025Y-119366535D01*
X178973469Y-119366500D01*
X178953548Y-119366500D01*
X178933838Y-119364949D01*
X178921886Y-119363056D01*
X178921885Y-119363056D01*
X178914056Y-119361816D01*
X178906164Y-119362562D01*
X178870418Y-119365941D01*
X178858560Y-119366500D01*
X176102925Y-119366500D01*
X176034804Y-119346498D01*
X175996927Y-119308620D01*
X175972951Y-119271312D01*
X175972948Y-119271309D01*
X175968077Y-119263729D01*
X175948200Y-119246505D01*
X175864431Y-119173918D01*
X175864428Y-119173916D01*
X175857619Y-119168016D01*
X175849421Y-119164272D01*
X175732864Y-119111042D01*
X175732863Y-119111042D01*
X175724670Y-119107300D01*
X175715755Y-119106018D01*
X175715754Y-119106018D01*
X175584448Y-119087139D01*
X175584441Y-119087138D01*
X175580000Y-119086500D01*
X174680000Y-119086500D01*
X174606921Y-119091727D01*
X174541140Y-119111042D01*
X174475330Y-119130365D01*
X174475328Y-119130366D01*
X174466684Y-119132904D01*
X174442289Y-119148582D01*
X174351309Y-119207051D01*
X174351306Y-119207053D01*
X174343729Y-119211923D01*
X174337828Y-119218733D01*
X174314724Y-119245396D01*
X174254997Y-119283779D01*
X174184001Y-119283779D01*
X174124275Y-119245395D01*
X174094782Y-119180814D01*
X174093500Y-119162883D01*
X174093500Y-119034594D01*
X174113502Y-118966473D01*
X174130405Y-118945499D01*
X174595499Y-118480405D01*
X174657811Y-118446379D01*
X174684594Y-118443500D01*
X175133317Y-118443500D01*
X175262194Y-118427904D01*
X175422562Y-118367306D01*
X175456451Y-118344015D01*
X175557587Y-118274506D01*
X175557589Y-118274505D01*
X175563846Y-118270204D01*
X175589750Y-118241130D01*
X175672836Y-118147877D01*
X175672838Y-118147875D01*
X175677890Y-118142204D01*
X175681442Y-118135495D01*
X175681445Y-118135491D01*
X175754555Y-117997411D01*
X175754556Y-117997408D01*
X175758110Y-117990696D01*
X175760184Y-117982441D01*
X175793338Y-117850446D01*
X175799874Y-117824425D01*
X175800253Y-117818403D01*
X175800375Y-117816470D01*
X175800376Y-117816454D01*
X175800500Y-117814475D01*
X175800500Y-117143683D01*
X175784904Y-117014806D01*
X175724306Y-116854438D01*
X175671631Y-116777796D01*
X175631506Y-116719413D01*
X175631505Y-116719411D01*
X175627204Y-116713154D01*
X175588445Y-116678621D01*
X175504877Y-116604164D01*
X175504875Y-116604162D01*
X175499204Y-116599110D01*
X175492495Y-116595558D01*
X175492491Y-116595555D01*
X175354411Y-116522445D01*
X175354408Y-116522444D01*
X175347696Y-116518890D01*
X175181425Y-116477126D01*
X175175662Y-116476763D01*
X175175659Y-116476763D01*
X175173470Y-116476625D01*
X175173454Y-116476624D01*
X175171475Y-116476500D01*
X175153325Y-116476500D01*
X175085204Y-116456498D01*
X175038711Y-116402842D01*
X175028015Y-116337329D01*
X175028410Y-116333576D01*
X175043500Y-116190000D01*
X175032988Y-116089987D01*
X175024228Y-116006637D01*
X175024228Y-116006636D01*
X175023538Y-116000073D01*
X175021036Y-115992371D01*
X174966566Y-115824731D01*
X174964524Y-115818446D01*
X174956504Y-115804554D01*
X174898507Y-115704102D01*
X174869037Y-115653058D01*
X174854796Y-115637241D01*
X174745673Y-115516048D01*
X174745672Y-115516047D01*
X174741251Y-115511137D01*
X174735909Y-115507256D01*
X174735907Y-115507254D01*
X174592092Y-115402767D01*
X174592091Y-115402766D01*
X174586750Y-115398886D01*
X174580722Y-115396202D01*
X174580720Y-115396201D01*
X174418318Y-115323895D01*
X174418317Y-115323895D01*
X174412287Y-115321210D01*
X174318887Y-115301357D01*
X174231944Y-115282876D01*
X174231939Y-115282876D01*
X174225487Y-115281504D01*
X174034513Y-115281504D01*
X174028061Y-115282876D01*
X174028056Y-115282876D01*
X173941113Y-115301357D01*
X173847713Y-115321210D01*
X173841683Y-115323895D01*
X173841682Y-115323895D01*
X173679280Y-115396201D01*
X173679278Y-115396202D01*
X173673250Y-115398886D01*
X173667909Y-115402766D01*
X173667908Y-115402767D01*
X173524093Y-115507254D01*
X173524091Y-115507256D01*
X173518749Y-115511137D01*
X173514328Y-115516047D01*
X173514327Y-115516048D01*
X173405205Y-115637241D01*
X173390963Y-115653058D01*
X173361493Y-115704102D01*
X173303497Y-115804554D01*
X173295476Y-115818446D01*
X173293434Y-115824731D01*
X173238965Y-115992371D01*
X173236462Y-116000073D01*
X173235772Y-116006636D01*
X173235772Y-116006637D01*
X173219097Y-116165290D01*
X173192084Y-116230946D01*
X173182882Y-116241214D01*
X172971052Y-116453044D01*
X172908740Y-116487070D01*
X172897114Y-116489033D01*
X172871806Y-116492096D01*
X172711438Y-116552694D01*
X172570154Y-116649796D01*
X172565102Y-116655466D01*
X172565101Y-116655467D01*
X172510725Y-116716498D01*
X172456110Y-116777796D01*
X172452558Y-116784505D01*
X172452555Y-116784509D01*
X172379445Y-116922589D01*
X172375890Y-116929304D01*
X172356198Y-117007703D01*
X172350527Y-117030279D01*
X172317418Y-117088678D01*
X171962486Y-117443610D01*
X171954398Y-117450970D01*
X171948004Y-117455028D01*
X171942579Y-117460805D01*
X171902130Y-117503879D01*
X171899375Y-117506721D01*
X171879061Y-117527035D01*
X171876416Y-117530446D01*
X171868712Y-117539466D01*
X171838442Y-117571700D01*
X171834625Y-117578644D01*
X171834623Y-117578646D01*
X171828681Y-117589454D01*
X171817827Y-117605978D01*
X171805416Y-117621978D01*
X171802269Y-117629249D01*
X171802269Y-117629250D01*
X171787858Y-117662552D01*
X171782637Y-117673208D01*
X171761337Y-117711953D01*
X171759365Y-117719636D01*
X171759364Y-117719637D01*
X171756300Y-117731569D01*
X171749896Y-117750273D01*
X171745000Y-117761586D01*
X171744998Y-117761593D01*
X171741851Y-117768865D01*
X171740612Y-117776689D01*
X171740611Y-117776692D01*
X171734934Y-117812536D01*
X171732527Y-117824157D01*
X171727247Y-117844723D01*
X171721534Y-117866976D01*
X171721499Y-117867532D01*
X171721499Y-117887453D01*
X171719948Y-117907163D01*
X171716815Y-117926945D01*
X171719961Y-117960221D01*
X171720940Y-117970583D01*
X171721499Y-117982441D01*
X171721499Y-125176615D01*
X171720985Y-125187519D01*
X171719333Y-125194910D01*
X171719582Y-125202836D01*
X171719582Y-125202837D01*
X171721437Y-125261865D01*
X171721499Y-125265822D01*
X171721499Y-125294577D01*
X171721995Y-125298502D01*
X171721995Y-125298503D01*
X171722038Y-125298842D01*
X171722971Y-125310686D01*
X171724360Y-125354882D01*
X171726572Y-125362494D01*
X171730011Y-125374332D01*
X171734021Y-125393694D01*
X171736559Y-125413787D01*
X171739475Y-125421152D01*
X171739476Y-125421156D01*
X171752836Y-125454900D01*
X171756680Y-125466127D01*
X171769013Y-125508577D01*
X171773051Y-125515405D01*
X171779322Y-125526010D01*
X171788018Y-125543761D01*
X171792557Y-125555225D01*
X171795477Y-125562599D01*
X171800138Y-125569014D01*
X171821464Y-125598366D01*
X171827982Y-125608289D01*
X171850485Y-125646340D01*
X171850854Y-125646758D01*
X171864937Y-125660841D01*
X171877771Y-125675866D01*
X171889553Y-125692082D01*
X171904263Y-125704251D01*
X171923334Y-125720028D01*
X171932114Y-125728018D01*
X172129595Y-125925499D01*
X172163621Y-125987811D01*
X172166500Y-126014594D01*
X172166500Y-126430000D01*
X172171727Y-126503079D01*
X172185492Y-126549957D01*
X172203462Y-126611158D01*
X172212904Y-126643316D01*
X172217775Y-126650895D01*
X172287051Y-126758691D01*
X172287053Y-126758694D01*
X172291923Y-126766271D01*
X172298733Y-126772172D01*
X172395569Y-126856082D01*
X172395572Y-126856084D01*
X172402381Y-126861984D01*
X172410579Y-126865728D01*
X172518518Y-126915022D01*
X172535330Y-126922700D01*
X172544245Y-126923982D01*
X172544246Y-126923982D01*
X172675552Y-126942861D01*
X172675559Y-126942862D01*
X172680000Y-126943500D01*
X173580000Y-126943500D01*
X173653079Y-126938273D01*
X173745149Y-126911239D01*
X173784670Y-126899635D01*
X173784672Y-126899634D01*
X173793316Y-126897096D01*
X173857135Y-126856082D01*
X173908691Y-126822949D01*
X173908694Y-126822947D01*
X173916271Y-126818077D01*
X173922172Y-126811267D01*
X174006082Y-126714431D01*
X174006084Y-126714428D01*
X174011984Y-126707619D01*
X174046808Y-126631365D01*
X174068958Y-126582864D01*
X174068958Y-126582863D01*
X174072700Y-126574670D01*
X174077371Y-126542184D01*
X174092861Y-126434448D01*
X174092862Y-126434441D01*
X174093500Y-126430000D01*
X174093500Y-125920238D01*
X174113502Y-125852117D01*
X174167158Y-125805624D01*
X174237432Y-125795520D01*
X174302013Y-125825014D01*
X174402381Y-125911984D01*
X174410579Y-125915728D01*
X174431975Y-125925499D01*
X174535330Y-125972700D01*
X174544245Y-125973982D01*
X174544246Y-125973982D01*
X174675552Y-125992861D01*
X174675559Y-125992862D01*
X174680000Y-125993500D01*
X175580000Y-125993500D01*
X175653079Y-125988273D01*
X175731165Y-125965345D01*
X175784670Y-125949635D01*
X175784672Y-125949634D01*
X175793316Y-125947096D01*
X175857135Y-125906082D01*
X175908691Y-125872949D01*
X175908694Y-125872947D01*
X175916271Y-125868077D01*
X176011984Y-125757619D01*
X176014743Y-125760009D01*
X176055251Y-125724896D01*
X176107614Y-125713500D01*
X178325406Y-125713500D01*
X178393527Y-125733502D01*
X178414501Y-125750405D01*
X178960609Y-126296513D01*
X178967969Y-126304601D01*
X178972027Y-126310995D01*
X178977804Y-126316420D01*
X179020878Y-126356869D01*
X179023720Y-126359624D01*
X179044034Y-126379938D01*
X179047445Y-126382583D01*
X179056465Y-126390287D01*
X179088699Y-126420557D01*
X179095643Y-126424374D01*
X179095645Y-126424376D01*
X179106453Y-126430318D01*
X179122977Y-126441172D01*
X179138977Y-126453583D01*
X179146248Y-126456730D01*
X179146249Y-126456730D01*
X179179551Y-126471141D01*
X179190207Y-126476362D01*
X179228952Y-126497662D01*
X179236635Y-126499634D01*
X179236636Y-126499635D01*
X179248568Y-126502699D01*
X179267272Y-126509103D01*
X179278585Y-126513999D01*
X179278592Y-126514001D01*
X179285864Y-126517148D01*
X179293688Y-126518387D01*
X179293691Y-126518388D01*
X179329535Y-126524065D01*
X179341156Y-126526472D01*
X179378218Y-126535987D01*
X179383975Y-126537465D01*
X179384531Y-126537500D01*
X179404452Y-126537500D01*
X179424162Y-126539051D01*
X179436114Y-126540944D01*
X179436115Y-126540944D01*
X179443944Y-126542184D01*
X179451836Y-126541438D01*
X179487582Y-126538059D01*
X179499440Y-126537500D01*
X179650900Y-126537500D01*
X179719021Y-126557502D01*
X179765514Y-126611158D01*
X179776900Y-126663500D01*
X179776900Y-126754000D01*
X179782127Y-126827079D01*
X179802686Y-126897096D01*
X179816319Y-126943526D01*
X179823304Y-126967316D01*
X179848880Y-127007113D01*
X179887368Y-127067000D01*
X179902323Y-127090271D01*
X179908253Y-127095410D01*
X179937503Y-127159457D01*
X179927400Y-127229731D01*
X179908011Y-127259901D01*
X179864738Y-127309840D01*
X179855093Y-127324848D01*
X179801923Y-127441275D01*
X179796898Y-127458388D01*
X179778039Y-127589554D01*
X179777400Y-127598495D01*
X179777400Y-128171885D01*
X179781875Y-128187124D01*
X179783265Y-128188329D01*
X179790948Y-128190000D01*
X181268400Y-128190000D01*
X181336521Y-128210002D01*
X181383014Y-128263658D01*
X181394400Y-128316000D01*
X181394400Y-129788885D01*
X181398875Y-129804124D01*
X181400265Y-129805329D01*
X181407948Y-129807000D01*
X181988143Y-129807000D01*
X181992650Y-129806839D01*
X182056669Y-129802260D01*
X182069891Y-129799874D01*
X182148499Y-129776793D01*
X182219495Y-129776793D01*
X182279221Y-129815177D01*
X182308714Y-129879757D01*
X182300404Y-129945911D01*
X182289682Y-129971794D01*
X182286797Y-129978241D01*
X182190609Y-130177979D01*
X182187370Y-130184250D01*
X182166478Y-130222050D01*
X182162917Y-130228089D01*
X182075209Y-130367675D01*
X182044945Y-130415839D01*
X182041018Y-130421715D01*
X182016044Y-130456912D01*
X182011795Y-130462558D01*
X181873568Y-130635890D01*
X181869009Y-130641290D01*
X181840232Y-130673492D01*
X181835375Y-130678628D01*
X181678628Y-130835375D01*
X181673494Y-130840230D01*
X181641278Y-130869020D01*
X181635905Y-130873557D01*
X181462564Y-131011791D01*
X181456918Y-131016040D01*
X181421718Y-131041016D01*
X181415841Y-131044943D01*
X181228121Y-131162896D01*
X181222034Y-131166487D01*
X181184251Y-131187369D01*
X181177971Y-131190613D01*
X180978238Y-131286798D01*
X180971787Y-131289685D01*
X180931894Y-131306209D01*
X180925291Y-131308729D01*
X180716044Y-131381948D01*
X180709313Y-131384094D01*
X180689299Y-131389860D01*
X180667814Y-131396050D01*
X180660992Y-131397810D01*
X180499307Y-131434714D01*
X180444853Y-131447143D01*
X180437922Y-131448521D01*
X180395349Y-131455755D01*
X180388367Y-131456741D01*
X180263886Y-131470766D01*
X180168052Y-131481563D01*
X180161011Y-131482157D01*
X180101523Y-131485498D01*
X180096123Y-131485685D01*
X180035007Y-131486493D01*
X179958314Y-131487506D01*
X179953903Y-131488197D01*
X179953895Y-131488198D01*
X179939330Y-131490481D01*
X179919822Y-131492000D01*
X177397170Y-131492000D01*
X177329049Y-131471998D01*
X177282556Y-131418342D01*
X177272452Y-131348068D01*
X177301946Y-131283488D01*
X177336479Y-131243635D01*
X177336482Y-131243630D01*
X177342384Y-131236819D01*
X177403100Y-131103870D01*
X177409794Y-131057314D01*
X177423261Y-130963648D01*
X177423262Y-130963641D01*
X177423900Y-130959200D01*
X177423900Y-129259200D01*
X177418673Y-129186121D01*
X177377496Y-129045884D01*
X177329927Y-128971866D01*
X177303349Y-128930509D01*
X177303347Y-128930506D01*
X177298477Y-128922929D01*
X177244875Y-128876482D01*
X177194831Y-128833118D01*
X177194828Y-128833116D01*
X177188019Y-128827216D01*
X177055070Y-128766500D01*
X177046155Y-128765218D01*
X177046154Y-128765218D01*
X176914848Y-128746339D01*
X176914841Y-128746338D01*
X176910400Y-128745700D01*
X175210400Y-128745700D01*
X175137321Y-128750927D01*
X175084284Y-128766500D01*
X175005730Y-128789565D01*
X175005728Y-128789566D01*
X174997084Y-128792104D01*
X174989505Y-128796975D01*
X174881709Y-128866251D01*
X174881706Y-128866253D01*
X174874129Y-128871123D01*
X174869212Y-128876798D01*
X174805323Y-128905976D01*
X174735049Y-128895874D01*
X174704876Y-128876483D01*
X174654831Y-128833118D01*
X174654828Y-128833116D01*
X174648019Y-128827216D01*
X174515070Y-128766500D01*
X174506155Y-128765218D01*
X174506154Y-128765218D01*
X174374848Y-128746339D01*
X174374841Y-128746338D01*
X174370400Y-128745700D01*
X172670400Y-128745700D01*
X172597321Y-128750927D01*
X172544284Y-128766500D01*
X172465730Y-128789565D01*
X172465728Y-128789566D01*
X172457084Y-128792104D01*
X172449505Y-128796975D01*
X172341709Y-128866251D01*
X172341706Y-128866253D01*
X172334129Y-128871123D01*
X172329212Y-128876798D01*
X172265323Y-128905976D01*
X172195049Y-128895874D01*
X172164876Y-128876483D01*
X172114831Y-128833118D01*
X172114828Y-128833116D01*
X172108019Y-128827216D01*
X171975070Y-128766500D01*
X171966155Y-128765218D01*
X171966154Y-128765218D01*
X171834848Y-128746339D01*
X171834841Y-128746338D01*
X171830400Y-128745700D01*
X171675633Y-128745700D01*
X171607512Y-128725698D01*
X171593879Y-128711548D01*
X179777400Y-128711548D01*
X179777400Y-129291743D01*
X179777561Y-129296250D01*
X179782140Y-129360269D01*
X179784526Y-129373491D01*
X179821219Y-129498458D01*
X179828633Y-129514692D01*
X179897826Y-129622360D01*
X179909512Y-129635847D01*
X180006240Y-129719662D01*
X180021248Y-129729307D01*
X180137675Y-129782477D01*
X180154788Y-129787502D01*
X180285954Y-129806361D01*
X180294895Y-129807000D01*
X180868285Y-129807000D01*
X180883524Y-129802525D01*
X180884729Y-129801135D01*
X180886400Y-129793452D01*
X180886400Y-128716115D01*
X180881925Y-128700876D01*
X180880535Y-128699671D01*
X180872852Y-128698000D01*
X179795515Y-128698000D01*
X179780276Y-128702475D01*
X179779071Y-128703865D01*
X179777400Y-128711548D01*
X171593879Y-128711548D01*
X171574142Y-128691063D01*
X171573021Y-128691923D01*
X171535556Y-128643097D01*
X171531680Y-128637763D01*
X171530494Y-128636037D01*
X171496851Y-128587087D01*
X171452331Y-128547421D01*
X171447056Y-128542441D01*
X171076936Y-128172321D01*
X171071082Y-128166055D01*
X171039690Y-128130070D01*
X171034696Y-128124345D01*
X170984367Y-128088973D01*
X170979072Y-128085040D01*
X170936637Y-128051767D01*
X170930662Y-128047082D01*
X170923743Y-128043958D01*
X170919467Y-128041368D01*
X170909980Y-128035957D01*
X170905563Y-128033589D01*
X170899351Y-128029223D01*
X170842039Y-128006878D01*
X170835958Y-128004322D01*
X170830241Y-128001741D01*
X170779890Y-127979006D01*
X170772422Y-127977622D01*
X170767578Y-127976104D01*
X170757192Y-127973145D01*
X170752296Y-127971888D01*
X170745223Y-127969130D01*
X170737693Y-127968139D01*
X170737690Y-127968138D01*
X170684225Y-127961100D01*
X170677708Y-127960068D01*
X170624698Y-127950243D01*
X170617231Y-127948859D01*
X170609651Y-127949296D01*
X170609650Y-127949296D01*
X170557711Y-127952291D01*
X170550458Y-127952500D01*
X167353305Y-127952500D01*
X167285184Y-127932498D01*
X167264210Y-127915595D01*
X166492405Y-127143790D01*
X166458379Y-127081478D01*
X166455500Y-127054695D01*
X166455500Y-126013735D01*
X166475502Y-125945614D01*
X166529158Y-125899121D01*
X166597945Y-125888813D01*
X166671522Y-125898500D01*
X166872478Y-125898500D01*
X166876564Y-125897962D01*
X166876565Y-125897962D01*
X166975387Y-125884952D01*
X166975390Y-125884951D01*
X166983580Y-125883873D01*
X166990033Y-125881200D01*
X167053967Y-125881200D01*
X167060420Y-125883873D01*
X167068610Y-125884951D01*
X167068613Y-125884952D01*
X167167435Y-125897962D01*
X167167436Y-125897962D01*
X167171522Y-125898500D01*
X167372478Y-125898500D01*
X167376564Y-125897962D01*
X167376565Y-125897962D01*
X167475387Y-125884952D01*
X167475390Y-125884951D01*
X167483580Y-125883873D01*
X167490033Y-125881200D01*
X167553967Y-125881200D01*
X167560420Y-125883873D01*
X167568610Y-125884951D01*
X167568613Y-125884952D01*
X167667435Y-125897962D01*
X167667436Y-125897962D01*
X167671522Y-125898500D01*
X167872478Y-125898500D01*
X167876564Y-125897962D01*
X167876565Y-125897962D01*
X167975387Y-125884952D01*
X167975390Y-125884951D01*
X167983580Y-125883873D01*
X167990033Y-125881200D01*
X168053967Y-125881200D01*
X168060420Y-125883873D01*
X168068610Y-125884951D01*
X168068613Y-125884952D01*
X168167435Y-125897962D01*
X168167436Y-125897962D01*
X168171522Y-125898500D01*
X168372478Y-125898500D01*
X168376564Y-125897962D01*
X168376565Y-125897962D01*
X168475387Y-125884952D01*
X168475390Y-125884951D01*
X168483580Y-125883873D01*
X168490033Y-125881200D01*
X168553967Y-125881200D01*
X168560420Y-125883873D01*
X168568610Y-125884951D01*
X168568613Y-125884952D01*
X168667435Y-125897962D01*
X168667436Y-125897962D01*
X168671522Y-125898500D01*
X168872478Y-125898500D01*
X168876564Y-125897962D01*
X168876565Y-125897962D01*
X168946057Y-125888813D01*
X168983580Y-125883873D01*
X168991207Y-125880714D01*
X168991210Y-125880713D01*
X169057320Y-125853329D01*
X169122500Y-125826331D01*
X169241794Y-125734794D01*
X169333331Y-125615500D01*
X169373924Y-125517500D01*
X169387713Y-125484210D01*
X169387714Y-125484207D01*
X169390873Y-125476580D01*
X169402220Y-125390394D01*
X169404962Y-125369565D01*
X169404962Y-125369564D01*
X169405500Y-125365478D01*
X169405500Y-124799500D01*
X169425502Y-124731379D01*
X169479158Y-124684886D01*
X169531500Y-124673500D01*
X170097478Y-124673500D01*
X170101564Y-124672962D01*
X170101565Y-124672962D01*
X170155030Y-124665923D01*
X170208580Y-124658873D01*
X170216207Y-124655714D01*
X170216210Y-124655713D01*
X170304657Y-124619077D01*
X170347500Y-124601331D01*
X170466794Y-124509794D01*
X170558331Y-124390500D01*
X170603778Y-124280780D01*
X170612713Y-124259210D01*
X170612714Y-124259207D01*
X170615873Y-124251580D01*
X170630500Y-124140478D01*
X170630500Y-123939522D01*
X170627085Y-123913584D01*
X170616952Y-123836613D01*
X170616951Y-123836610D01*
X170615873Y-123828420D01*
X170613200Y-123821967D01*
X170613200Y-123758033D01*
X170615873Y-123751580D01*
X170617404Y-123739957D01*
X170629962Y-123644565D01*
X170629962Y-123644564D01*
X170630500Y-123640478D01*
X170630500Y-123439522D01*
X170628966Y-123427873D01*
X170616952Y-123336613D01*
X170616951Y-123336610D01*
X170615873Y-123328420D01*
X170613200Y-123321967D01*
X170613200Y-123258033D01*
X170615873Y-123251580D01*
X170619349Y-123225183D01*
X170629962Y-123144565D01*
X170629962Y-123144564D01*
X170630500Y-123140478D01*
X170630500Y-122939522D01*
X170627774Y-122918816D01*
X170616952Y-122836613D01*
X170616951Y-122836610D01*
X170615873Y-122828420D01*
X170613200Y-122821967D01*
X170613200Y-122758033D01*
X170615873Y-122751580D01*
X170621981Y-122705190D01*
X170629962Y-122644565D01*
X170629962Y-122644564D01*
X170630500Y-122640478D01*
X170630500Y-122439522D01*
X170624607Y-122394758D01*
X170616952Y-122336613D01*
X170616951Y-122336610D01*
X170615873Y-122328420D01*
X170613200Y-122321967D01*
X170613200Y-122258033D01*
X170615873Y-122251580D01*
X170623342Y-122194852D01*
X170629962Y-122144565D01*
X170629962Y-122144564D01*
X170630500Y-122140478D01*
X170630500Y-121939522D01*
X170626153Y-121906500D01*
X170616952Y-121836613D01*
X170616951Y-121836610D01*
X170615873Y-121828420D01*
X170613200Y-121821967D01*
X170613200Y-121758033D01*
X170615873Y-121751580D01*
X170630500Y-121640478D01*
X170630500Y-121439522D01*
X170623556Y-121386775D01*
X170616952Y-121336613D01*
X170616951Y-121336610D01*
X170615873Y-121328420D01*
X170613200Y-121321967D01*
X170613200Y-121258033D01*
X170615873Y-121251580D01*
X170630500Y-121140478D01*
X170630500Y-120939522D01*
X170615873Y-120828420D01*
X170558331Y-120689500D01*
X170466794Y-120570206D01*
X170347500Y-120478669D01*
X170278040Y-120449898D01*
X170216210Y-120424287D01*
X170216207Y-120424286D01*
X170208580Y-120421127D01*
X170139067Y-120411975D01*
X170101565Y-120407038D01*
X170101564Y-120407038D01*
X170097478Y-120406500D01*
X169531500Y-120406500D01*
X169463379Y-120386498D01*
X169416886Y-120332842D01*
X169405500Y-120280500D01*
X169405500Y-119714522D01*
X169390873Y-119603420D01*
X169382418Y-119583006D01*
X169341177Y-119483443D01*
X169333331Y-119464500D01*
X169241794Y-119345206D01*
X169224705Y-119332093D01*
X169139961Y-119267067D01*
X169098094Y-119209729D01*
X169093872Y-119138858D01*
X169128636Y-119076955D01*
X169165417Y-119051997D01*
X169246717Y-119015801D01*
X169246724Y-119015797D01*
X169252750Y-119013114D01*
X169258092Y-119009233D01*
X169401907Y-118904746D01*
X169401909Y-118904744D01*
X169407251Y-118900863D01*
X169421366Y-118885187D01*
X169530618Y-118763850D01*
X169530619Y-118763849D01*
X169535037Y-118758942D01*
X169609816Y-118629421D01*
X169627220Y-118599277D01*
X169627221Y-118599276D01*
X169630524Y-118593554D01*
X169682665Y-118433079D01*
X169687498Y-118418206D01*
X169687498Y-118418205D01*
X169689538Y-118411927D01*
X169709500Y-118222000D01*
X169689538Y-118032073D01*
X169630524Y-117850446D01*
X169618735Y-117830026D01*
X169580425Y-117763673D01*
X169535037Y-117685058D01*
X169488368Y-117633226D01*
X169411673Y-117548048D01*
X169411672Y-117548047D01*
X169407251Y-117543137D01*
X169401909Y-117539256D01*
X169401907Y-117539254D01*
X169258092Y-117434767D01*
X169258091Y-117434766D01*
X169252750Y-117430886D01*
X169246722Y-117428202D01*
X169246720Y-117428201D01*
X169084318Y-117355895D01*
X169084317Y-117355895D01*
X169078287Y-117353210D01*
X168984887Y-117333357D01*
X168897944Y-117314876D01*
X168897939Y-117314876D01*
X168891487Y-117313504D01*
X168818250Y-117313504D01*
X168750129Y-117293502D01*
X168703636Y-117239846D01*
X168692940Y-117200674D01*
X168687349Y-117147472D01*
X168673538Y-117016073D01*
X168670819Y-117007703D01*
X168616566Y-116840731D01*
X168614524Y-116834446D01*
X168519037Y-116669058D01*
X168501694Y-116649796D01*
X168395673Y-116532048D01*
X168395672Y-116532047D01*
X168391251Y-116527137D01*
X168385909Y-116523256D01*
X168385907Y-116523254D01*
X168242092Y-116418767D01*
X168242091Y-116418766D01*
X168236750Y-116414886D01*
X168230724Y-116412203D01*
X168230717Y-116412199D01*
X168173508Y-116386729D01*
X168157396Y-116379555D01*
X168103301Y-116333576D01*
X168082651Y-116265649D01*
X168102003Y-116197341D01*
X168119550Y-116175354D01*
X168159500Y-116135404D01*
X168221812Y-116101378D01*
X168248595Y-116098499D01*
X169819451Y-116098499D01*
X169830355Y-116099013D01*
X169837746Y-116100665D01*
X169845672Y-116100416D01*
X169845673Y-116100416D01*
X169904701Y-116098561D01*
X169908658Y-116098499D01*
X169937413Y-116098499D01*
X169941680Y-116097960D01*
X169953522Y-116097027D01*
X169985170Y-116096032D01*
X169989795Y-116095887D01*
X169997718Y-116095638D01*
X170017169Y-116089987D01*
X170036530Y-116085977D01*
X170039255Y-116085633D01*
X170048765Y-116084432D01*
X170048768Y-116084431D01*
X170056623Y-116083439D01*
X170063988Y-116080523D01*
X170063992Y-116080522D01*
X170097736Y-116067162D01*
X170108965Y-116063317D01*
X170151413Y-116050985D01*
X170158997Y-116046500D01*
X170168846Y-116040676D01*
X170186597Y-116031980D01*
X170198061Y-116027441D01*
X170198064Y-116027439D01*
X170205435Y-116024521D01*
X170241203Y-115998534D01*
X170251126Y-115992015D01*
X170278785Y-115975658D01*
X170289176Y-115969513D01*
X170289594Y-115969144D01*
X170303677Y-115955061D01*
X170318702Y-115942227D01*
X170334918Y-115930445D01*
X170362865Y-115896663D01*
X170370854Y-115887884D01*
X172086323Y-114172415D01*
X172148635Y-114138389D01*
X172175418Y-114135510D01*
X173722296Y-114135510D01*
X173790417Y-114155512D01*
G37*
%TD.AperFunction*%
%TA.AperFunction,Conductor*%
G36*
X156474726Y-108528002D02*
G01*
X156521219Y-108581658D01*
X156531323Y-108651932D01*
X156517959Y-108692959D01*
X156468226Y-108786888D01*
X156427047Y-108950828D01*
X156427007Y-108958426D01*
X156427007Y-108958428D01*
X156426688Y-109019368D01*
X156426162Y-109119858D01*
X156427934Y-109127238D01*
X156427934Y-109127240D01*
X156448637Y-109213474D01*
X156465622Y-109284220D01*
X156543149Y-109434426D01*
X156654267Y-109561802D01*
X156792561Y-109658997D01*
X156871304Y-109689698D01*
X156942967Y-109717638D01*
X156942970Y-109717639D01*
X156950047Y-109720398D01*
X156957580Y-109721390D01*
X156957581Y-109721390D01*
X157004250Y-109727534D01*
X157079950Y-109737500D01*
X157166482Y-109737500D01*
X157234603Y-109757502D01*
X157281096Y-109811158D01*
X157291200Y-109881432D01*
X157261706Y-109946012D01*
X157255577Y-109952595D01*
X157197703Y-110010469D01*
X157189596Y-110017898D01*
X157187175Y-110019929D01*
X157180812Y-110024077D01*
X157175623Y-110029622D01*
X157134351Y-110073724D01*
X157131448Y-110076724D01*
X157109870Y-110098302D01*
X157107535Y-110101280D01*
X157105614Y-110103730D01*
X157098472Y-110112063D01*
X157065314Y-110147495D01*
X157061597Y-110154118D01*
X157061595Y-110154121D01*
X157054995Y-110165882D01*
X157044270Y-110181963D01*
X157035938Y-110192589D01*
X157035934Y-110192595D01*
X157031251Y-110198568D01*
X157028128Y-110205485D01*
X157028126Y-110205488D01*
X157011281Y-110242796D01*
X157006330Y-110252597D01*
X157001190Y-110261756D01*
X156999652Y-110265600D01*
X156999652Y-110265601D01*
X156990324Y-110288922D01*
X156988175Y-110293973D01*
X156961692Y-110352625D01*
X156960307Y-110360097D01*
X156958036Y-110367344D01*
X156957711Y-110367242D01*
X156954342Y-110378876D01*
X156770300Y-110838982D01*
X156759238Y-110866636D01*
X156751708Y-110881285D01*
X156749239Y-110886413D01*
X156745145Y-110892812D01*
X156742697Y-110899999D01*
X156742696Y-110900001D01*
X156725423Y-110950712D01*
X156723140Y-110956881D01*
X156715114Y-110976946D01*
X156711316Y-110991221D01*
X156708827Y-110999433D01*
X156704232Y-111012923D01*
X156704230Y-111012932D01*
X156702899Y-111016838D01*
X156702092Y-111020875D01*
X156702089Y-111020885D01*
X156698832Y-111037174D01*
X156697044Y-111044852D01*
X156682349Y-111100074D01*
X156682203Y-111107670D01*
X156682150Y-111110416D01*
X156679726Y-111132702D01*
X156581089Y-111625888D01*
X156574930Y-111646944D01*
X156573363Y-111650964D01*
X156573362Y-111650969D01*
X156570602Y-111658047D01*
X156569611Y-111665576D01*
X156569610Y-111665579D01*
X156563337Y-111713226D01*
X156561969Y-111721484D01*
X156559706Y-111732800D01*
X156559704Y-111732812D01*
X156558961Y-111736529D01*
X156558669Y-111740313D01*
X156558669Y-111740314D01*
X156557371Y-111757144D01*
X156556666Y-111763899D01*
X156554050Y-111783774D01*
X156553500Y-111787950D01*
X156553500Y-111802489D01*
X156553127Y-111812176D01*
X156549164Y-111863564D01*
X156550403Y-111871055D01*
X156551812Y-111879576D01*
X156553500Y-111900134D01*
X156553500Y-112258235D01*
X156553372Y-112260526D01*
X156552882Y-112262599D01*
X156553404Y-112322221D01*
X156553495Y-112332608D01*
X156553500Y-112333711D01*
X156553500Y-112382318D01*
X156553845Y-112385165D01*
X156553993Y-112389476D01*
X156554295Y-112424028D01*
X156554296Y-112424032D01*
X156554362Y-112431625D01*
X156559832Y-112453081D01*
X156562068Y-112461852D01*
X156565059Y-112477837D01*
X156568807Y-112508808D01*
X156571492Y-112515914D01*
X156582393Y-112544763D01*
X156584271Y-112550720D01*
X156584429Y-112550668D01*
X156585711Y-112554601D01*
X156586728Y-112558589D01*
X156602395Y-112597759D01*
X156603204Y-112599839D01*
X156628556Y-112666929D01*
X156631335Y-112670972D01*
X156633993Y-112676751D01*
X156826824Y-113158830D01*
X156830449Y-113169248D01*
X156831693Y-113176555D01*
X156859289Y-113240132D01*
X156860667Y-113243436D01*
X156872804Y-113273779D01*
X156874632Y-113277117D01*
X156875297Y-113278332D01*
X156880359Y-113288671D01*
X156883863Y-113296745D01*
X156899930Y-113323524D01*
X156902362Y-113327765D01*
X156908160Y-113338353D01*
X156923330Y-113407707D01*
X156898596Y-113474256D01*
X156841810Y-113516868D01*
X156782640Y-113521901D01*
X156782473Y-113523673D01*
X156764776Y-113522000D01*
X156402115Y-113522000D01*
X156386876Y-113526475D01*
X156385671Y-113527865D01*
X156384000Y-113535548D01*
X156384000Y-115058000D01*
X156363998Y-115126121D01*
X156310342Y-115172614D01*
X156258000Y-115184000D01*
X156002000Y-115184000D01*
X155933879Y-115163998D01*
X155887386Y-115110342D01*
X155876000Y-115058000D01*
X155876000Y-113540115D01*
X155871525Y-113524876D01*
X155870135Y-113523671D01*
X155862452Y-113522000D01*
X155804408Y-113522000D01*
X155736287Y-113501998D01*
X155689794Y-113448342D01*
X155679908Y-113376617D01*
X155680467Y-113373026D01*
X155681874Y-113367425D01*
X155682237Y-113361659D01*
X155682375Y-113359470D01*
X155682376Y-113359454D01*
X155682500Y-113357475D01*
X155682500Y-112836683D01*
X155666904Y-112707806D01*
X155606306Y-112547438D01*
X155579756Y-112508808D01*
X155513506Y-112412413D01*
X155513505Y-112412411D01*
X155509204Y-112406154D01*
X155496936Y-112395223D01*
X155445717Y-112349589D01*
X155408161Y-112289339D01*
X155409141Y-112218349D01*
X155446209Y-112161001D01*
X155450567Y-112157159D01*
X155554426Y-112040591D01*
X155563034Y-112028205D01*
X155636088Y-111890230D01*
X155641493Y-111876150D01*
X155679972Y-111722960D01*
X155681741Y-111711600D01*
X155681874Y-111709473D01*
X155682000Y-111705482D01*
X155682000Y-111700115D01*
X155677525Y-111684876D01*
X155676135Y-111683671D01*
X155668452Y-111682000D01*
X152211650Y-111682000D01*
X152197668Y-111686105D01*
X152195625Y-111699271D01*
X152206669Y-111790534D01*
X152210265Y-111805177D01*
X152265453Y-111951227D01*
X152272438Y-111964588D01*
X152360869Y-112093256D01*
X152370842Y-112104568D01*
X152428282Y-112155745D01*
X152465838Y-112215995D01*
X152464858Y-112286985D01*
X152429287Y-112342018D01*
X152428154Y-112342796D01*
X152423103Y-112348465D01*
X152423102Y-112348466D01*
X152322079Y-112461852D01*
X152314110Y-112470796D01*
X152310558Y-112477505D01*
X152310555Y-112477509D01*
X152238677Y-112613263D01*
X152233890Y-112622304D01*
X152192126Y-112788575D01*
X152191763Y-112794338D01*
X152191763Y-112794341D01*
X152191625Y-112796530D01*
X152191624Y-112796546D01*
X152191500Y-112798525D01*
X152191500Y-113319317D01*
X152196118Y-113357475D01*
X152206183Y-113440654D01*
X152206184Y-113440658D01*
X152207096Y-113448194D01*
X152209029Y-113453310D01*
X152209772Y-113509014D01*
X152204000Y-113535548D01*
X152204000Y-116319885D01*
X152208475Y-116335124D01*
X152209865Y-116336329D01*
X152217548Y-116338000D01*
X152415500Y-116338000D01*
X152483621Y-116358002D01*
X152530114Y-116411658D01*
X152541500Y-116464000D01*
X152541500Y-118905616D01*
X152540986Y-118916520D01*
X152539334Y-118923911D01*
X152539583Y-118931837D01*
X152539583Y-118931838D01*
X152541438Y-118990866D01*
X152541500Y-118994823D01*
X152541500Y-119023578D01*
X152541996Y-119027503D01*
X152541996Y-119027504D01*
X152542039Y-119027843D01*
X152542972Y-119039687D01*
X152544361Y-119083883D01*
X152549166Y-119100421D01*
X152550012Y-119103333D01*
X152554022Y-119122696D01*
X152554991Y-119130365D01*
X152556560Y-119142788D01*
X152559476Y-119150153D01*
X152559477Y-119150157D01*
X152572837Y-119183901D01*
X152576681Y-119195128D01*
X152589014Y-119237578D01*
X152593052Y-119244406D01*
X152599323Y-119255011D01*
X152608019Y-119272762D01*
X152612381Y-119283779D01*
X152615478Y-119291600D01*
X152620139Y-119298015D01*
X152641465Y-119327367D01*
X152647983Y-119337290D01*
X152670486Y-119375341D01*
X152670855Y-119375759D01*
X152684938Y-119389842D01*
X152697772Y-119404867D01*
X152709554Y-119421083D01*
X152723789Y-119432859D01*
X152743335Y-119449029D01*
X152752115Y-119457019D01*
X155245225Y-121950129D01*
X155279251Y-122012441D01*
X155274186Y-122083256D01*
X155231639Y-122140092D01*
X155214898Y-122150679D01*
X155131117Y-122194852D01*
X154992782Y-122311754D01*
X154988639Y-122317173D01*
X154988637Y-122317175D01*
X154891944Y-122443644D01*
X154882777Y-122455634D01*
X154879894Y-122461817D01*
X154879892Y-122461820D01*
X154809115Y-122613603D01*
X154806235Y-122619780D01*
X154766726Y-122796533D01*
X154766702Y-122803356D01*
X154766702Y-122803357D01*
X154766586Y-122836613D01*
X154766093Y-122977647D01*
X154767536Y-122984319D01*
X154767536Y-122984323D01*
X154800407Y-123136356D01*
X154804367Y-123154672D01*
X154879762Y-123319348D01*
X154988760Y-123463993D01*
X154993939Y-123468432D01*
X154993940Y-123468433D01*
X155068488Y-123532328D01*
X155126275Y-123581858D01*
X155132294Y-123585086D01*
X155132295Y-123585086D01*
X155134630Y-123586338D01*
X155135785Y-123587476D01*
X155137918Y-123588936D01*
X155137656Y-123589318D01*
X155185212Y-123636157D01*
X155200831Y-123705414D01*
X155176526Y-123772121D01*
X155149148Y-123799317D01*
X155105982Y-123830679D01*
X155094515Y-123841447D01*
X154999484Y-123956319D01*
X154991057Y-123969598D01*
X154927581Y-124104493D01*
X154922719Y-124119454D01*
X154898114Y-124248437D01*
X154897000Y-124260224D01*
X154897000Y-124797885D01*
X154901475Y-124813124D01*
X154902865Y-124814329D01*
X154910548Y-124816000D01*
X157344885Y-124816000D01*
X157360124Y-124811525D01*
X157361329Y-124810135D01*
X157363000Y-124802452D01*
X157363000Y-124279379D01*
X157362504Y-124271502D01*
X157354077Y-124204791D01*
X157365384Y-124134701D01*
X157412790Y-124081850D01*
X157479084Y-124063000D01*
X157767743Y-124063000D01*
X157772250Y-124062839D01*
X157836269Y-124058260D01*
X157849491Y-124055874D01*
X157974458Y-124019181D01*
X157990692Y-124011767D01*
X158098360Y-123942574D01*
X158111850Y-123930885D01*
X158135064Y-123904094D01*
X158194789Y-123865709D01*
X158265786Y-123865709D01*
X158325513Y-123904092D01*
X158355006Y-123968672D01*
X158345999Y-124035653D01*
X158343751Y-124039524D01*
X158294172Y-124203223D01*
X158293598Y-124209659D01*
X158293597Y-124209662D01*
X158289032Y-124260814D01*
X158287500Y-124277978D01*
X158287500Y-124826887D01*
X158302307Y-124953892D01*
X158304803Y-124960769D01*
X158304804Y-124960772D01*
X158334833Y-125043500D01*
X158360667Y-125114670D01*
X158371884Y-125131778D01*
X158450436Y-125251591D01*
X158450439Y-125251594D01*
X158454449Y-125257711D01*
X158454629Y-125257882D01*
X158481818Y-125320310D01*
X158470476Y-125390394D01*
X158448276Y-125422692D01*
X158435094Y-125436607D01*
X158426383Y-125448252D01*
X158347887Y-125583393D01*
X158342087Y-125596731D01*
X158296539Y-125747120D01*
X158294089Y-125759752D01*
X158288249Y-125825185D01*
X158288000Y-125830780D01*
X158288000Y-125836885D01*
X158292475Y-125852124D01*
X158293865Y-125853329D01*
X158301548Y-125855000D01*
X161759885Y-125855000D01*
X161775124Y-125850525D01*
X161776329Y-125849135D01*
X161777847Y-125842153D01*
X161777575Y-125837470D01*
X161773235Y-125800240D01*
X161785214Y-125730262D01*
X161833125Y-125677868D01*
X161901756Y-125659695D01*
X161934906Y-125665059D01*
X162005781Y-125686525D01*
X162035608Y-125695559D01*
X162035609Y-125695559D01*
X162041796Y-125697433D01*
X162048236Y-125698008D01*
X162048237Y-125698008D01*
X162118185Y-125704251D01*
X162118191Y-125704251D01*
X162120978Y-125704500D01*
X163519886Y-125704500D01*
X163626397Y-125692082D01*
X163645371Y-125689870D01*
X163645372Y-125689870D01*
X163652643Y-125689022D01*
X163659521Y-125686526D01*
X163659523Y-125686525D01*
X163811985Y-125631184D01*
X163818864Y-125628687D01*
X163966747Y-125531731D01*
X164088358Y-125403355D01*
X164109158Y-125367545D01*
X164160667Y-125318688D01*
X164226680Y-125305123D01*
X164277033Y-125308556D01*
X164284510Y-125307251D01*
X164284512Y-125307251D01*
X164322130Y-125300685D01*
X164337640Y-125297978D01*
X164344158Y-125297017D01*
X164405230Y-125289626D01*
X164412334Y-125286942D01*
X164417227Y-125285740D01*
X164427694Y-125282876D01*
X164432519Y-125281419D01*
X164439998Y-125280114D01*
X164446951Y-125277062D01*
X164446954Y-125277061D01*
X164496330Y-125255388D01*
X164502433Y-125252897D01*
X164552869Y-125233838D01*
X164552871Y-125233837D01*
X164559979Y-125231151D01*
X164566244Y-125226845D01*
X164570737Y-125224496D01*
X164580170Y-125219246D01*
X164584516Y-125216676D01*
X164591475Y-125213621D01*
X164615860Y-125194910D01*
X164640285Y-125176169D01*
X164645620Y-125172293D01*
X164690048Y-125141758D01*
X164690054Y-125141753D01*
X164696313Y-125137451D01*
X164728389Y-125101450D01*
X164788637Y-125063895D01*
X164859626Y-125064874D01*
X164911559Y-125096174D01*
X165051595Y-125236210D01*
X165085621Y-125298522D01*
X165088500Y-125325305D01*
X165088500Y-127362248D01*
X165088208Y-127370817D01*
X165084444Y-127426033D01*
X165085749Y-127433510D01*
X165085749Y-127433512D01*
X165095021Y-127486636D01*
X165095983Y-127493158D01*
X165103374Y-127554230D01*
X165106058Y-127561334D01*
X165107260Y-127566227D01*
X165110124Y-127576694D01*
X165111581Y-127581519D01*
X165112886Y-127588998D01*
X165115938Y-127595951D01*
X165115939Y-127595954D01*
X165137612Y-127645330D01*
X165140103Y-127651433D01*
X165159162Y-127701869D01*
X165161849Y-127708979D01*
X165166155Y-127715244D01*
X165168504Y-127719737D01*
X165173754Y-127729170D01*
X165176324Y-127733516D01*
X165179379Y-127740475D01*
X165184006Y-127746505D01*
X165216831Y-127789285D01*
X165220707Y-127794620D01*
X165251242Y-127839048D01*
X165251247Y-127839054D01*
X165255549Y-127845313D01*
X165261223Y-127850368D01*
X165300068Y-127884978D01*
X165305344Y-127889959D01*
X166117495Y-128702110D01*
X166151521Y-128764422D01*
X166154400Y-128791205D01*
X166154400Y-129837085D01*
X166158875Y-129852324D01*
X166160265Y-129853529D01*
X166167948Y-129855200D01*
X168568400Y-129855200D01*
X168636521Y-129875202D01*
X168683014Y-129928858D01*
X168694400Y-129981200D01*
X168694400Y-130237200D01*
X168674398Y-130305321D01*
X168620742Y-130351814D01*
X168568400Y-130363200D01*
X164555515Y-130363200D01*
X164540276Y-130367675D01*
X164539071Y-130369065D01*
X164537400Y-130376748D01*
X164537400Y-130956943D01*
X164537561Y-130961450D01*
X164542140Y-131025469D01*
X164544526Y-131038691D01*
X164581219Y-131163658D01*
X164588633Y-131179892D01*
X164662700Y-131295144D01*
X164660318Y-131296675D01*
X164683790Y-131348062D01*
X164673689Y-131418336D01*
X164627199Y-131471994D01*
X164559073Y-131492000D01*
X154811176Y-131492000D01*
X154743055Y-131471998D01*
X154696562Y-131418342D01*
X154686458Y-131348068D01*
X154715952Y-131283488D01*
X154739176Y-131262598D01*
X154762842Y-131246119D01*
X154765865Y-131244014D01*
X154768615Y-131241577D01*
X154768621Y-131241572D01*
X155012864Y-131025103D01*
X155015616Y-131022664D01*
X155237837Y-130773687D01*
X155429491Y-130500484D01*
X155453002Y-130456912D01*
X155586213Y-130210027D01*
X155587962Y-130206786D01*
X155596908Y-130184250D01*
X155709723Y-129900034D01*
X155709723Y-129900033D01*
X155711084Y-129896605D01*
X155766528Y-129688961D01*
X155796224Y-129577748D01*
X155796225Y-129577744D01*
X155797177Y-129574178D01*
X155842195Y-129263695D01*
X164537400Y-129263695D01*
X164537400Y-129837085D01*
X164541875Y-129852324D01*
X164543265Y-129853529D01*
X164550948Y-129855200D01*
X165628285Y-129855200D01*
X165643524Y-129850725D01*
X165644729Y-129849335D01*
X165646400Y-129841652D01*
X165646400Y-128764315D01*
X165641925Y-128749076D01*
X165640535Y-128747871D01*
X165632852Y-128746200D01*
X165052657Y-128746200D01*
X165048150Y-128746361D01*
X164984131Y-128750940D01*
X164970909Y-128753326D01*
X164845942Y-128790019D01*
X164829708Y-128797433D01*
X164722040Y-128866626D01*
X164708553Y-128878312D01*
X164624738Y-128975040D01*
X164615093Y-128990048D01*
X164561923Y-129106475D01*
X164556898Y-129123588D01*
X164538039Y-129254754D01*
X164537400Y-129263695D01*
X155842195Y-129263695D01*
X155843173Y-129256950D01*
X155844606Y-129247068D01*
X155844606Y-129247065D01*
X155845064Y-129243908D01*
X155855500Y-129000000D01*
X155835999Y-128666847D01*
X155833426Y-128652329D01*
X155778404Y-128341865D01*
X155778403Y-128341861D01*
X155777762Y-128338244D01*
X155681584Y-128018680D01*
X155603447Y-127838548D01*
X161419000Y-127838548D01*
X161419000Y-127935223D01*
X161419424Y-127942524D01*
X161433617Y-128064255D01*
X161436963Y-128078410D01*
X161492263Y-128230761D01*
X161498773Y-128243760D01*
X161587641Y-128379306D01*
X161596965Y-128390458D01*
X161714629Y-128501922D01*
X161726276Y-128510635D01*
X161866429Y-128592043D01*
X161879754Y-128597837D01*
X162035700Y-128645068D01*
X162048323Y-128647516D01*
X162118184Y-128653751D01*
X162123779Y-128654000D01*
X162554885Y-128654000D01*
X162570124Y-128649525D01*
X162571329Y-128648135D01*
X162573000Y-128640452D01*
X162573000Y-127843115D01*
X162571659Y-127838548D01*
X163081000Y-127838548D01*
X163081000Y-128635885D01*
X163085475Y-128651124D01*
X163086865Y-128652329D01*
X163094548Y-128654000D01*
X163516223Y-128654000D01*
X163523524Y-128653576D01*
X163645255Y-128639383D01*
X163659410Y-128636037D01*
X163811761Y-128580737D01*
X163824760Y-128574227D01*
X163960306Y-128485359D01*
X163971458Y-128476035D01*
X164082922Y-128358371D01*
X164091635Y-128346724D01*
X164173043Y-128206571D01*
X164178837Y-128193246D01*
X164226068Y-128037300D01*
X164228516Y-128024677D01*
X164234751Y-127954816D01*
X164235000Y-127949221D01*
X164235000Y-127843115D01*
X164230525Y-127827876D01*
X164229135Y-127826671D01*
X164221452Y-127825000D01*
X163099115Y-127825000D01*
X163083876Y-127829475D01*
X163082671Y-127830865D01*
X163081000Y-127838548D01*
X162571659Y-127838548D01*
X162568525Y-127827876D01*
X162567135Y-127826671D01*
X162559452Y-127825000D01*
X161437115Y-127825000D01*
X161421876Y-127829475D01*
X161420671Y-127830865D01*
X161419000Y-127838548D01*
X155603447Y-127838548D01*
X155598295Y-127826671D01*
X155550248Y-127715905D01*
X155550246Y-127715902D01*
X155548779Y-127712519D01*
X155419456Y-127489874D01*
X155383010Y-127427127D01*
X155383009Y-127427125D01*
X155381161Y-127423944D01*
X155334923Y-127362248D01*
X155207913Y-127192779D01*
X155181020Y-127156896D01*
X154951088Y-126915022D01*
X154948256Y-126912666D01*
X154948251Y-126912662D01*
X154709904Y-126714431D01*
X154694508Y-126701626D01*
X154691119Y-126699421D01*
X154417867Y-126521630D01*
X154417864Y-126521628D01*
X154414782Y-126519623D01*
X154411484Y-126517990D01*
X154411478Y-126517986D01*
X154119039Y-126373135D01*
X154119032Y-126373132D01*
X154115733Y-126371498D01*
X154112261Y-126370258D01*
X154112258Y-126370257D01*
X153804922Y-126260518D01*
X153801444Y-126259276D01*
X153734287Y-126243833D01*
X153479798Y-126185313D01*
X153479789Y-126185312D01*
X153476208Y-126184488D01*
X153472551Y-126184087D01*
X153472548Y-126184087D01*
X153150773Y-126148847D01*
X153085234Y-126121548D01*
X153044859Y-126063150D01*
X153040722Y-125999986D01*
X153056886Y-125915252D01*
X153058000Y-125903464D01*
X153058000Y-125342115D01*
X153056659Y-125337548D01*
X154897000Y-125337548D01*
X154897000Y-125860621D01*
X154897497Y-125868511D01*
X154911678Y-125980773D01*
X154915589Y-125996006D01*
X154970473Y-126134625D01*
X154978049Y-126148407D01*
X155065679Y-126269018D01*
X155076447Y-126280485D01*
X155191319Y-126375516D01*
X155204598Y-126383943D01*
X155339493Y-126447419D01*
X155354454Y-126452281D01*
X155483437Y-126476886D01*
X155495224Y-126478000D01*
X155857885Y-126478000D01*
X155873124Y-126473525D01*
X155874329Y-126472135D01*
X155876000Y-126464452D01*
X155876000Y-125342115D01*
X155874659Y-125337548D01*
X156384000Y-125337548D01*
X156384000Y-126459885D01*
X156388475Y-126475124D01*
X156389865Y-126476329D01*
X156397548Y-126478000D01*
X156745621Y-126478000D01*
X156753511Y-126477503D01*
X156865773Y-126463322D01*
X156881006Y-126459411D01*
X157019625Y-126404527D01*
X157033407Y-126396951D01*
X157062454Y-126375847D01*
X158288153Y-126375847D01*
X158288425Y-126380527D01*
X158301946Y-126496505D01*
X158305291Y-126510657D01*
X158358617Y-126657567D01*
X158365127Y-126670566D01*
X158450820Y-126801270D01*
X158460144Y-126812422D01*
X158573607Y-126919906D01*
X158585252Y-126928617D01*
X158720393Y-127007113D01*
X158733731Y-127012913D01*
X158884120Y-127058461D01*
X158896752Y-127060911D01*
X158962185Y-127066751D01*
X158967780Y-127067000D01*
X158998885Y-127067000D01*
X159014124Y-127062525D01*
X159015329Y-127061135D01*
X159017000Y-127053452D01*
X159017000Y-126381115D01*
X159015659Y-126376548D01*
X159525000Y-126376548D01*
X159525000Y-127048885D01*
X159529475Y-127064124D01*
X159530865Y-127065329D01*
X159538548Y-127067000D01*
X159560223Y-127067000D01*
X159567527Y-127066575D01*
X159683505Y-127053054D01*
X159697657Y-127049709D01*
X159844567Y-126996383D01*
X159857566Y-126989873D01*
X159961486Y-126921741D01*
X160029422Y-126901118D01*
X160097722Y-126920498D01*
X160106045Y-126926218D01*
X160109254Y-126928619D01*
X160244393Y-127007113D01*
X160257731Y-127012913D01*
X160408120Y-127058461D01*
X160420752Y-127060911D01*
X160486185Y-127066751D01*
X160491780Y-127067000D01*
X160522885Y-127067000D01*
X160538124Y-127062525D01*
X160539329Y-127061135D01*
X160541000Y-127053452D01*
X160541000Y-126381115D01*
X160539659Y-126376548D01*
X161049000Y-126376548D01*
X161049000Y-127048885D01*
X161053475Y-127064124D01*
X161054865Y-127065329D01*
X161062548Y-127067000D01*
X161084223Y-127067000D01*
X161091527Y-127066575D01*
X161207505Y-127053054D01*
X161221658Y-127049709D01*
X161252454Y-127038530D01*
X161323312Y-127034089D01*
X161385322Y-127068662D01*
X161418797Y-127131271D01*
X161420946Y-127168168D01*
X161419249Y-127187180D01*
X161419000Y-127192779D01*
X161419000Y-127298885D01*
X161423475Y-127314124D01*
X161424865Y-127315329D01*
X161432548Y-127317000D01*
X162554885Y-127317000D01*
X162570124Y-127312525D01*
X162571329Y-127311135D01*
X162573000Y-127303452D01*
X162573000Y-126506115D01*
X162571659Y-126501548D01*
X163081000Y-126501548D01*
X163081000Y-127298885D01*
X163085475Y-127314124D01*
X163086865Y-127315329D01*
X163094548Y-127317000D01*
X164216885Y-127317000D01*
X164232124Y-127312525D01*
X164233329Y-127311135D01*
X164235000Y-127303452D01*
X164235000Y-127206777D01*
X164234576Y-127199476D01*
X164220383Y-127077745D01*
X164217037Y-127063590D01*
X164161737Y-126911239D01*
X164155227Y-126898240D01*
X164066359Y-126762694D01*
X164057035Y-126751542D01*
X163939371Y-126640078D01*
X163927724Y-126631365D01*
X163787571Y-126549957D01*
X163774246Y-126544163D01*
X163618300Y-126496932D01*
X163605677Y-126494484D01*
X163535816Y-126488249D01*
X163530221Y-126488000D01*
X163099115Y-126488000D01*
X163083876Y-126492475D01*
X163082671Y-126493865D01*
X163081000Y-126501548D01*
X162571659Y-126501548D01*
X162568525Y-126490876D01*
X162567135Y-126489671D01*
X162559452Y-126488000D01*
X162137777Y-126488000D01*
X162130476Y-126488424D01*
X162008745Y-126502617D01*
X161994587Y-126505964D01*
X161946144Y-126523547D01*
X161875286Y-126527988D01*
X161813276Y-126493414D01*
X161779802Y-126430805D01*
X161777754Y-126395621D01*
X161777626Y-126395615D01*
X161777681Y-126394370D01*
X161777654Y-126393899D01*
X161777751Y-126392817D01*
X161778000Y-126387220D01*
X161778000Y-126381115D01*
X161773525Y-126365876D01*
X161772135Y-126364671D01*
X161764452Y-126363000D01*
X161067115Y-126363000D01*
X161051876Y-126367475D01*
X161050671Y-126368865D01*
X161049000Y-126376548D01*
X160539659Y-126376548D01*
X160536525Y-126365876D01*
X160535135Y-126364671D01*
X160527452Y-126363000D01*
X159543115Y-126363000D01*
X159527876Y-126367475D01*
X159526671Y-126368865D01*
X159525000Y-126376548D01*
X159015659Y-126376548D01*
X159012525Y-126365876D01*
X159011135Y-126364671D01*
X159003452Y-126363000D01*
X158306115Y-126363000D01*
X158290876Y-126367475D01*
X158289671Y-126368865D01*
X158288153Y-126375847D01*
X157062454Y-126375847D01*
X157154018Y-126309321D01*
X157165485Y-126298553D01*
X157260516Y-126183681D01*
X157268943Y-126170402D01*
X157332419Y-126035507D01*
X157337281Y-126020546D01*
X157361886Y-125891563D01*
X157363000Y-125879776D01*
X157363000Y-125342115D01*
X157358525Y-125326876D01*
X157357135Y-125325671D01*
X157349452Y-125324000D01*
X156402115Y-125324000D01*
X156386876Y-125328475D01*
X156385671Y-125329865D01*
X156384000Y-125337548D01*
X155874659Y-125337548D01*
X155871525Y-125326876D01*
X155870135Y-125325671D01*
X155862452Y-125324000D01*
X154915115Y-125324000D01*
X154899876Y-125328475D01*
X154898671Y-125329865D01*
X154897000Y-125337548D01*
X153056659Y-125337548D01*
X153053525Y-125326876D01*
X153052135Y-125325671D01*
X153044452Y-125324000D01*
X150860115Y-125324000D01*
X150844876Y-125328475D01*
X150843671Y-125329865D01*
X150842000Y-125337548D01*
X150842000Y-125885620D01*
X150842497Y-125893510D01*
X150855893Y-125999556D01*
X150859804Y-126014789D01*
X150912381Y-126147581D01*
X150919957Y-126161363D01*
X151003903Y-126276904D01*
X151014671Y-126288371D01*
X151124715Y-126379408D01*
X151137994Y-126387835D01*
X151267219Y-126448643D01*
X151282183Y-126453506D01*
X151290036Y-126455004D01*
X151353201Y-126487418D01*
X151388814Y-126548836D01*
X151385569Y-126619759D01*
X151344495Y-126677668D01*
X151336789Y-126683291D01*
X151272653Y-126726469D01*
X151272646Y-126726474D01*
X151269600Y-126728525D01*
X151049283Y-126917694D01*
X151019972Y-126942861D01*
X151016403Y-126945925D01*
X150790299Y-127191381D01*
X150762487Y-127229731D01*
X150736001Y-127266253D01*
X150679816Y-127309656D01*
X150609085Y-127315793D01*
X150546265Y-127282716D01*
X150511299Y-127220927D01*
X150508000Y-127192281D01*
X150508000Y-124236536D01*
X150842000Y-124236536D01*
X150842000Y-124797885D01*
X150846475Y-124813124D01*
X150847865Y-124814329D01*
X150855548Y-124816000D01*
X151677885Y-124816000D01*
X151693124Y-124811525D01*
X151694329Y-124810135D01*
X151696000Y-124802452D01*
X151696000Y-123680115D01*
X151694659Y-123675548D01*
X152204000Y-123675548D01*
X152204000Y-124797885D01*
X152208475Y-124813124D01*
X152209865Y-124814329D01*
X152217548Y-124816000D01*
X153039885Y-124816000D01*
X153055124Y-124811525D01*
X153056329Y-124810135D01*
X153058000Y-124802452D01*
X153058000Y-124254380D01*
X153057503Y-124246490D01*
X153044107Y-124140444D01*
X153040196Y-124125211D01*
X152987619Y-123992419D01*
X152980043Y-123978637D01*
X152896097Y-123863096D01*
X152885329Y-123851629D01*
X152775285Y-123760592D01*
X152762006Y-123752165D01*
X152632781Y-123691357D01*
X152617821Y-123686496D01*
X152495252Y-123663114D01*
X152483464Y-123662000D01*
X152222115Y-123662000D01*
X152206876Y-123666475D01*
X152205671Y-123667865D01*
X152204000Y-123675548D01*
X151694659Y-123675548D01*
X151691525Y-123664876D01*
X151690135Y-123663671D01*
X151682452Y-123662000D01*
X151434380Y-123662000D01*
X151426490Y-123662497D01*
X151320444Y-123675893D01*
X151305211Y-123679804D01*
X151172419Y-123732381D01*
X151158637Y-123739957D01*
X151043096Y-123823903D01*
X151031629Y-123834671D01*
X150940592Y-123944715D01*
X150932165Y-123957994D01*
X150871357Y-124087219D01*
X150866496Y-124102179D01*
X150843114Y-124224748D01*
X150842000Y-124236536D01*
X150508000Y-124236536D01*
X150508000Y-115197548D01*
X150842000Y-115197548D01*
X150842000Y-115745620D01*
X150842497Y-115753510D01*
X150855893Y-115859556D01*
X150859804Y-115874789D01*
X150912381Y-116007581D01*
X150919957Y-116021363D01*
X151003903Y-116136904D01*
X151014671Y-116148371D01*
X151124715Y-116239408D01*
X151137994Y-116247835D01*
X151267219Y-116308643D01*
X151282179Y-116313504D01*
X151404748Y-116336886D01*
X151416536Y-116338000D01*
X151677885Y-116338000D01*
X151693124Y-116333525D01*
X151694329Y-116332135D01*
X151696000Y-116324452D01*
X151696000Y-115202115D01*
X151691525Y-115186876D01*
X151690135Y-115185671D01*
X151682452Y-115184000D01*
X150860115Y-115184000D01*
X150844876Y-115188475D01*
X150843671Y-115189865D01*
X150842000Y-115197548D01*
X150508000Y-115197548D01*
X150508000Y-114096536D01*
X150842000Y-114096536D01*
X150842000Y-114657885D01*
X150846475Y-114673124D01*
X150847865Y-114674329D01*
X150855548Y-114676000D01*
X151677885Y-114676000D01*
X151693124Y-114671525D01*
X151694329Y-114670135D01*
X151696000Y-114662452D01*
X151696000Y-113540115D01*
X151691525Y-113524876D01*
X151690135Y-113523671D01*
X151682452Y-113522000D01*
X151434380Y-113522000D01*
X151426490Y-113522497D01*
X151320444Y-113535893D01*
X151305211Y-113539804D01*
X151172419Y-113592381D01*
X151158637Y-113599957D01*
X151043096Y-113683903D01*
X151031629Y-113694671D01*
X150940592Y-113804715D01*
X150932165Y-113817994D01*
X150871357Y-113947219D01*
X150866496Y-113962179D01*
X150843114Y-114084748D01*
X150842000Y-114096536D01*
X150508000Y-114096536D01*
X150508000Y-111150518D01*
X152192000Y-111150518D01*
X152192000Y-111155885D01*
X152196475Y-111171124D01*
X152197865Y-111172329D01*
X152205548Y-111174000D01*
X152902885Y-111174000D01*
X152918124Y-111169525D01*
X152919329Y-111168135D01*
X152921000Y-111160452D01*
X152921000Y-110538115D01*
X152919659Y-110533548D01*
X153429000Y-110533548D01*
X153429000Y-111155885D01*
X153433475Y-111171124D01*
X153434865Y-111172329D01*
X153442548Y-111174000D01*
X154426885Y-111174000D01*
X154442124Y-111169525D01*
X154443329Y-111168135D01*
X154445000Y-111160452D01*
X154445000Y-110538115D01*
X154443659Y-110533548D01*
X154953000Y-110533548D01*
X154953000Y-111155885D01*
X154957475Y-111171124D01*
X154958865Y-111172329D01*
X154966548Y-111174000D01*
X155662350Y-111174000D01*
X155676332Y-111169895D01*
X155678375Y-111156729D01*
X155667331Y-111065466D01*
X155663735Y-111050823D01*
X155608547Y-110904773D01*
X155601562Y-110891412D01*
X155513131Y-110762744D01*
X155503158Y-110751432D01*
X155386591Y-110647574D01*
X155374205Y-110638966D01*
X155236230Y-110565912D01*
X155222150Y-110560507D01*
X155068960Y-110522028D01*
X155057600Y-110520259D01*
X155055473Y-110520126D01*
X155051482Y-110520000D01*
X154971115Y-110520000D01*
X154955876Y-110524475D01*
X154954671Y-110525865D01*
X154953000Y-110533548D01*
X154443659Y-110533548D01*
X154440525Y-110522876D01*
X154439135Y-110521671D01*
X154431452Y-110520000D01*
X154386471Y-110520000D01*
X154378916Y-110520456D01*
X154261466Y-110534669D01*
X154246823Y-110538265D01*
X154100773Y-110593453D01*
X154087412Y-110600438D01*
X154012040Y-110652240D01*
X153944571Y-110674340D01*
X153875864Y-110656455D01*
X153868763Y-110651865D01*
X153850201Y-110638964D01*
X153712230Y-110565912D01*
X153698150Y-110560507D01*
X153544960Y-110522028D01*
X153533600Y-110520259D01*
X153531473Y-110520126D01*
X153527482Y-110520000D01*
X153447115Y-110520000D01*
X153431876Y-110524475D01*
X153430671Y-110525865D01*
X153429000Y-110533548D01*
X152919659Y-110533548D01*
X152916525Y-110522876D01*
X152915135Y-110521671D01*
X152907452Y-110520000D01*
X152862471Y-110520000D01*
X152854916Y-110520456D01*
X152737466Y-110534669D01*
X152722823Y-110538265D01*
X152576773Y-110593453D01*
X152563412Y-110600438D01*
X152434744Y-110688869D01*
X152423432Y-110698842D01*
X152319574Y-110815409D01*
X152310966Y-110827795D01*
X152237912Y-110965770D01*
X152232507Y-110979850D01*
X152194028Y-111133040D01*
X152192259Y-111144400D01*
X152192126Y-111146527D01*
X152192000Y-111150518D01*
X150508000Y-111150518D01*
X150508000Y-111081849D01*
X150509767Y-111060821D01*
X150511639Y-111049762D01*
X150511639Y-111049761D01*
X150512451Y-111044964D01*
X150514314Y-110903891D01*
X150514501Y-110898492D01*
X150517843Y-110838982D01*
X150518437Y-110831940D01*
X150520666Y-110812162D01*
X150543257Y-110611651D01*
X150544245Y-110604651D01*
X150551477Y-110562089D01*
X150552856Y-110555158D01*
X150602190Y-110339011D01*
X150603956Y-110332167D01*
X150615909Y-110290678D01*
X150618055Y-110283945D01*
X150691267Y-110074716D01*
X150693787Y-110068113D01*
X150698172Y-110057527D01*
X150710319Y-110028201D01*
X150713201Y-110021762D01*
X150728466Y-109990064D01*
X150809404Y-109821995D01*
X150812620Y-109815768D01*
X150833522Y-109777950D01*
X150837099Y-109771886D01*
X150846138Y-109757502D01*
X150955060Y-109584154D01*
X150958983Y-109578283D01*
X150983959Y-109543083D01*
X150988194Y-109537454D01*
X151126430Y-109364112D01*
X151130985Y-109358717D01*
X151159769Y-109326507D01*
X151164626Y-109321371D01*
X151321378Y-109164619D01*
X151326515Y-109159762D01*
X151358713Y-109130989D01*
X151364111Y-109126430D01*
X151400117Y-109097716D01*
X151537443Y-108988202D01*
X151543067Y-108983971D01*
X151578291Y-108958978D01*
X151584168Y-108955051D01*
X151771888Y-108837099D01*
X151777975Y-108833508D01*
X151815743Y-108812634D01*
X151822023Y-108809390D01*
X152021772Y-108713196D01*
X152028204Y-108710318D01*
X152040157Y-108705367D01*
X152068106Y-108693791D01*
X152074705Y-108691272D01*
X152167654Y-108658747D01*
X152283971Y-108618045D01*
X152290671Y-108615910D01*
X152311436Y-108609928D01*
X152332187Y-108603950D01*
X152339029Y-108602185D01*
X152555142Y-108552859D01*
X152562072Y-108551480D01*
X152604658Y-108544244D01*
X152611658Y-108543256D01*
X152831947Y-108518437D01*
X152838989Y-108517843D01*
X152898477Y-108514502D01*
X152903877Y-108514315D01*
X152963954Y-108513521D01*
X153041687Y-108512494D01*
X153046098Y-108511803D01*
X153046106Y-108511802D01*
X153060671Y-108509519D01*
X153080179Y-108508000D01*
X156406605Y-108508000D01*
X156474726Y-108528002D01*
G37*
%TD.AperFunction*%
%TA.AperFunction,Conductor*%
G36*
X159638221Y-121403502D02*
G01*
X159659195Y-121420405D01*
X159716229Y-121477439D01*
X159750255Y-121539751D01*
X159752444Y-121553363D01*
X159769809Y-121718580D01*
X159828823Y-121900207D01*
X159832126Y-121905929D01*
X159832127Y-121905930D01*
X159858506Y-121951619D01*
X159924310Y-122065595D01*
X159928728Y-122070502D01*
X159928729Y-122070503D01*
X160040693Y-122194852D01*
X160052096Y-122207516D01*
X160057438Y-122211397D01*
X160057440Y-122211399D01*
X160074348Y-122223683D01*
X160206597Y-122319767D01*
X160212625Y-122322451D01*
X160212627Y-122322452D01*
X160375029Y-122394758D01*
X160381060Y-122397443D01*
X160474460Y-122417296D01*
X160561403Y-122435777D01*
X160561408Y-122435777D01*
X160567860Y-122437149D01*
X160758834Y-122437149D01*
X160765286Y-122435777D01*
X160765291Y-122435777D01*
X160852234Y-122417296D01*
X160945634Y-122397443D01*
X160951665Y-122394758D01*
X161114067Y-122322452D01*
X161114069Y-122322451D01*
X161120097Y-122319767D01*
X161252346Y-122223683D01*
X161269254Y-122211399D01*
X161269256Y-122211397D01*
X161274598Y-122207516D01*
X161279020Y-122202605D01*
X161279105Y-122202511D01*
X161279168Y-122202472D01*
X161283925Y-122198189D01*
X161284709Y-122199059D01*
X161339554Y-122165276D01*
X161410538Y-122166633D01*
X161461830Y-122197734D01*
X161955501Y-122691405D01*
X161989527Y-122753717D01*
X161984462Y-122824532D01*
X161941915Y-122881368D01*
X161875395Y-122906179D01*
X161866406Y-122906500D01*
X160368401Y-122906500D01*
X160357481Y-122905985D01*
X160350089Y-122904333D01*
X160342166Y-122904582D01*
X160283116Y-122906438D01*
X160279158Y-122906500D01*
X160250422Y-122906500D01*
X160246151Y-122907039D01*
X160234322Y-122907971D01*
X160190117Y-122909361D01*
X160182501Y-122911574D01*
X160182499Y-122911574D01*
X160170661Y-122915013D01*
X160151302Y-122919022D01*
X160139079Y-122920566D01*
X160139078Y-122920566D01*
X160131212Y-122921560D01*
X160123836Y-122924480D01*
X160123837Y-122924480D01*
X160090111Y-122937832D01*
X160078882Y-122941677D01*
X160044035Y-122951801D01*
X160044034Y-122951802D01*
X160036422Y-122954013D01*
X160029599Y-122958048D01*
X160018983Y-122964326D01*
X160001231Y-122973022D01*
X159982400Y-122980478D01*
X159959981Y-122996766D01*
X159946629Y-123006467D01*
X159936711Y-123012982D01*
X159898659Y-123035486D01*
X159898241Y-123035855D01*
X159884158Y-123049938D01*
X159869133Y-123062772D01*
X159852917Y-123074554D01*
X159827982Y-123104695D01*
X159824971Y-123108335D01*
X159816981Y-123117115D01*
X159370501Y-123563595D01*
X159308189Y-123597621D01*
X159281406Y-123600500D01*
X158978113Y-123600500D01*
X158889490Y-123610832D01*
X158858380Y-123614459D01*
X158858378Y-123614459D01*
X158851108Y-123615307D01*
X158844231Y-123617803D01*
X158844228Y-123617804D01*
X158710143Y-123666475D01*
X158690330Y-123673667D01*
X158547289Y-123767449D01*
X158481770Y-123836613D01*
X158453052Y-123866928D01*
X158391683Y-123902626D01*
X158320756Y-123899479D01*
X158262790Y-123858485D01*
X158236189Y-123792660D01*
X158246965Y-123727933D01*
X158258477Y-123702725D01*
X158263502Y-123685612D01*
X158282361Y-123554446D01*
X158283000Y-123545505D01*
X158283000Y-123348430D01*
X158303002Y-123280309D01*
X158356658Y-123233816D01*
X158382803Y-123225183D01*
X158460297Y-123208711D01*
X158473978Y-123202620D01*
X158628730Y-123133720D01*
X158628732Y-123133719D01*
X158634760Y-123131035D01*
X158641612Y-123126057D01*
X158783917Y-123022667D01*
X158783919Y-123022665D01*
X158789261Y-123018784D01*
X158860629Y-122939522D01*
X158912628Y-122881771D01*
X158912629Y-122881770D01*
X158917047Y-122876863D01*
X159012534Y-122711475D01*
X159071548Y-122529848D01*
X159091510Y-122339921D01*
X159084057Y-122269011D01*
X159072238Y-122156558D01*
X159072238Y-122156557D01*
X159071548Y-122149994D01*
X159012534Y-121968367D01*
X158917047Y-121802979D01*
X158789261Y-121661058D01*
X158783919Y-121657177D01*
X158783917Y-121657175D01*
X158720962Y-121611436D01*
X158677608Y-121555214D01*
X158671533Y-121484478D01*
X158704664Y-121421686D01*
X158766484Y-121386775D01*
X158795023Y-121383500D01*
X159570100Y-121383500D01*
X159638221Y-121403502D01*
G37*
%TD.AperFunction*%
%TA.AperFunction,Conductor*%
G36*
X160949420Y-114705063D02*
G01*
X160991808Y-114736662D01*
X161094324Y-114853822D01*
X161124129Y-114918259D01*
X161125500Y-114936794D01*
X161125500Y-115049318D01*
X161140807Y-115175808D01*
X161143491Y-115182911D01*
X161143937Y-115184090D01*
X161200556Y-115333929D01*
X161296297Y-115473233D01*
X161422503Y-115585678D01*
X161429215Y-115589232D01*
X161429218Y-115589234D01*
X161519888Y-115637241D01*
X161571888Y-115664774D01*
X161735828Y-115705953D01*
X161743426Y-115705993D01*
X161743428Y-115705993D01*
X161814951Y-115706367D01*
X161904858Y-115706838D01*
X161912238Y-115705066D01*
X161912240Y-115705066D01*
X162061840Y-115669150D01*
X162061842Y-115669149D01*
X162069220Y-115667378D01*
X162219426Y-115589851D01*
X162346802Y-115478733D01*
X162431683Y-115357960D01*
X162487218Y-115313729D01*
X162497100Y-115310521D01*
X162499808Y-115310193D01*
X162506909Y-115307510D01*
X162506912Y-115307509D01*
X162650826Y-115253128D01*
X162657929Y-115250444D01*
X162728248Y-115202115D01*
X162790974Y-115159005D01*
X162790976Y-115159004D01*
X162797233Y-115154703D01*
X162857715Y-115086820D01*
X162917964Y-115049265D01*
X162988954Y-115050244D01*
X163048145Y-115089448D01*
X163060031Y-115107501D01*
X163060114Y-115107446D01*
X163149820Y-115244270D01*
X163159144Y-115255422D01*
X163272607Y-115362906D01*
X163284252Y-115371617D01*
X163419393Y-115450113D01*
X163432731Y-115455913D01*
X163583120Y-115501461D01*
X163595752Y-115503911D01*
X163661185Y-115509751D01*
X163666780Y-115510000D01*
X163760195Y-115510000D01*
X163828316Y-115530002D01*
X163874809Y-115583658D01*
X163884913Y-115653932D01*
X163855419Y-115718512D01*
X163849290Y-115725095D01*
X163728321Y-115846064D01*
X163722055Y-115851918D01*
X163680345Y-115888304D01*
X163647455Y-115935101D01*
X163644973Y-115938633D01*
X163641040Y-115943928D01*
X163603082Y-115992338D01*
X163601931Y-115991435D01*
X163555729Y-116033678D01*
X163500350Y-116046500D01*
X162942000Y-116046500D01*
X162868921Y-116051727D01*
X162816354Y-116067162D01*
X162737330Y-116090365D01*
X162737328Y-116090366D01*
X162728684Y-116092904D01*
X162690528Y-116117426D01*
X162613309Y-116167051D01*
X162613306Y-116167053D01*
X162605729Y-116171923D01*
X162599828Y-116178733D01*
X162515918Y-116275569D01*
X162515916Y-116275572D01*
X162510016Y-116282381D01*
X162506272Y-116290579D01*
X162484616Y-116338000D01*
X162449300Y-116415330D01*
X162448018Y-116424245D01*
X162448018Y-116424246D01*
X162429139Y-116555552D01*
X162429138Y-116555559D01*
X162428500Y-116560000D01*
X162428500Y-118360000D01*
X162433727Y-118433079D01*
X162474904Y-118573316D01*
X162479775Y-118580895D01*
X162549051Y-118688691D01*
X162549053Y-118688694D01*
X162553923Y-118696271D01*
X162560733Y-118702172D01*
X162657569Y-118786082D01*
X162657572Y-118786084D01*
X162664381Y-118791984D01*
X162672579Y-118795728D01*
X162728294Y-118821172D01*
X162797330Y-118852700D01*
X162806245Y-118853982D01*
X162806246Y-118853982D01*
X162937552Y-118872861D01*
X162937559Y-118872862D01*
X162942000Y-118873500D01*
X164709435Y-118873500D01*
X164777556Y-118893502D01*
X164824049Y-118947158D01*
X164834745Y-118986329D01*
X164854462Y-119173927D01*
X164856502Y-119180205D01*
X164856502Y-119180206D01*
X164875143Y-119237578D01*
X164913476Y-119355554D01*
X164916779Y-119361276D01*
X164916780Y-119361277D01*
X164930830Y-119385612D01*
X165008963Y-119520942D01*
X165013381Y-119525849D01*
X165013382Y-119525850D01*
X165082136Y-119602209D01*
X165112854Y-119666216D01*
X165114500Y-119686519D01*
X165114500Y-119987616D01*
X165113986Y-119998520D01*
X165112334Y-120005911D01*
X165112583Y-120013837D01*
X165112583Y-120013838D01*
X165114438Y-120072866D01*
X165114500Y-120076823D01*
X165114500Y-120105578D01*
X165114996Y-120109503D01*
X165114996Y-120109504D01*
X165115039Y-120109843D01*
X165115972Y-120121687D01*
X165117361Y-120165883D01*
X165123012Y-120185333D01*
X165127022Y-120204695D01*
X165129560Y-120224788D01*
X165132478Y-120232157D01*
X165134449Y-120239835D01*
X165132562Y-120240320D01*
X165138500Y-120271403D01*
X165138500Y-120280500D01*
X165118498Y-120348621D01*
X165064842Y-120395114D01*
X165012500Y-120406500D01*
X164446522Y-120406500D01*
X164442436Y-120407038D01*
X164442435Y-120407038D01*
X164404933Y-120411975D01*
X164335420Y-120421127D01*
X164327793Y-120424286D01*
X164327790Y-120424287D01*
X164265960Y-120449898D01*
X164196500Y-120478669D01*
X164077206Y-120570206D01*
X163985669Y-120689500D01*
X163928127Y-120828420D01*
X163913500Y-120939522D01*
X163913500Y-121140478D01*
X163928127Y-121251580D01*
X163930800Y-121258033D01*
X163930800Y-121321967D01*
X163928127Y-121328420D01*
X163927049Y-121336610D01*
X163927048Y-121336613D01*
X163920444Y-121386775D01*
X163913500Y-121439522D01*
X163913500Y-121528100D01*
X163893498Y-121596221D01*
X163839842Y-121642714D01*
X163769568Y-121652818D01*
X163704988Y-121623324D01*
X163698405Y-121617195D01*
X163651771Y-121570561D01*
X163617745Y-121508249D01*
X163615556Y-121494637D01*
X163598881Y-121335984D01*
X163598881Y-121335983D01*
X163598191Y-121329420D01*
X163574787Y-121257388D01*
X163541219Y-121154078D01*
X163539177Y-121147793D01*
X163443690Y-120982405D01*
X163315904Y-120840484D01*
X163310562Y-120836603D01*
X163310560Y-120836601D01*
X163166745Y-120732114D01*
X163166744Y-120732113D01*
X163161403Y-120728233D01*
X163155375Y-120725549D01*
X163155373Y-120725548D01*
X162992971Y-120653242D01*
X162992970Y-120653242D01*
X162986940Y-120650557D01*
X162893540Y-120630704D01*
X162806597Y-120612223D01*
X162806592Y-120612223D01*
X162800140Y-120610851D01*
X162609166Y-120610851D01*
X162602714Y-120612223D01*
X162602709Y-120612223D01*
X162515766Y-120630704D01*
X162422366Y-120650557D01*
X162416336Y-120653242D01*
X162416335Y-120653242D01*
X162253933Y-120725548D01*
X162253931Y-120725549D01*
X162247903Y-120728233D01*
X162242562Y-120732113D01*
X162242561Y-120732114D01*
X162098746Y-120836601D01*
X162098744Y-120836603D01*
X162093402Y-120840484D01*
X162088981Y-120845394D01*
X162088980Y-120845395D01*
X162088895Y-120845489D01*
X162088832Y-120845528D01*
X162084075Y-120849811D01*
X162083291Y-120848941D01*
X162028446Y-120882724D01*
X161957462Y-120881367D01*
X161906170Y-120850266D01*
X160913391Y-119857487D01*
X160906031Y-119849399D01*
X160901973Y-119843005D01*
X160853105Y-119797115D01*
X160850280Y-119794376D01*
X160829966Y-119774062D01*
X160826555Y-119771417D01*
X160817533Y-119763711D01*
X160798175Y-119745532D01*
X160785301Y-119733443D01*
X160778357Y-119729626D01*
X160778355Y-119729624D01*
X160767547Y-119723682D01*
X160751023Y-119712828D01*
X160741286Y-119705275D01*
X160741285Y-119705275D01*
X160735023Y-119700417D01*
X160725697Y-119696381D01*
X160694449Y-119682859D01*
X160683790Y-119677637D01*
X160645048Y-119656338D01*
X160637365Y-119654366D01*
X160637364Y-119654365D01*
X160625432Y-119651301D01*
X160606728Y-119644897D01*
X160595415Y-119640001D01*
X160595408Y-119639999D01*
X160588136Y-119636852D01*
X160580312Y-119635613D01*
X160580309Y-119635612D01*
X160544465Y-119629935D01*
X160532844Y-119627528D01*
X160495782Y-119618013D01*
X160495781Y-119618013D01*
X160490025Y-119616535D01*
X160489469Y-119616500D01*
X160469548Y-119616500D01*
X160449838Y-119614949D01*
X160437886Y-119613056D01*
X160437885Y-119613056D01*
X160430056Y-119611816D01*
X160422164Y-119612562D01*
X160386418Y-119615941D01*
X160374560Y-119616500D01*
X158883500Y-119616500D01*
X158815379Y-119596498D01*
X158768886Y-119542842D01*
X158757500Y-119490500D01*
X158757500Y-119432383D01*
X158758014Y-119421479D01*
X158759666Y-119414088D01*
X158759377Y-119404875D01*
X158757562Y-119347134D01*
X158757500Y-119343176D01*
X158757500Y-119314422D01*
X158756961Y-119310155D01*
X158756027Y-119298305D01*
X158755817Y-119291600D01*
X158754639Y-119254117D01*
X158748988Y-119234666D01*
X158744978Y-119215304D01*
X158743936Y-119207051D01*
X158742440Y-119195212D01*
X158726166Y-119154108D01*
X158722321Y-119142878D01*
X158712198Y-119108034D01*
X158712197Y-119108032D01*
X158709986Y-119100421D01*
X158699677Y-119082989D01*
X158690980Y-119065236D01*
X158686442Y-119053774D01*
X158686441Y-119053772D01*
X158683522Y-119046400D01*
X158678861Y-119039984D01*
X158678595Y-119039501D01*
X158663306Y-118970170D01*
X158687927Y-118903579D01*
X158744641Y-118860871D01*
X158806941Y-118854082D01*
X158937552Y-118872861D01*
X158937559Y-118872862D01*
X158942000Y-118873500D01*
X161442000Y-118873500D01*
X161515079Y-118868273D01*
X161601135Y-118843005D01*
X161646670Y-118829635D01*
X161646672Y-118829634D01*
X161655316Y-118827096D01*
X161743709Y-118770289D01*
X161770691Y-118752949D01*
X161770694Y-118752947D01*
X161778271Y-118748077D01*
X161819569Y-118700417D01*
X161868082Y-118644431D01*
X161868084Y-118644428D01*
X161873984Y-118637619D01*
X161934700Y-118504670D01*
X161941026Y-118460673D01*
X161954861Y-118364448D01*
X161954862Y-118364441D01*
X161955500Y-118360000D01*
X161955500Y-116560000D01*
X161950273Y-116486921D01*
X161918748Y-116379556D01*
X161911635Y-116355330D01*
X161911634Y-116355328D01*
X161909096Y-116346684D01*
X161882173Y-116304792D01*
X161834949Y-116231309D01*
X161834947Y-116231306D01*
X161830077Y-116223729D01*
X161799624Y-116197341D01*
X161726431Y-116133918D01*
X161726428Y-116133916D01*
X161719619Y-116128016D01*
X161659184Y-116100416D01*
X161594864Y-116071042D01*
X161594863Y-116071042D01*
X161586670Y-116067300D01*
X161577755Y-116066018D01*
X161577754Y-116066018D01*
X161446448Y-116047139D01*
X161446441Y-116047138D01*
X161442000Y-116046500D01*
X158942000Y-116046500D01*
X158868921Y-116051727D01*
X158816354Y-116067162D01*
X158737330Y-116090365D01*
X158737328Y-116090366D01*
X158728684Y-116092904D01*
X158690528Y-116117426D01*
X158613309Y-116167051D01*
X158613306Y-116167053D01*
X158605729Y-116171923D01*
X158599828Y-116178733D01*
X158515918Y-116275569D01*
X158515916Y-116275572D01*
X158510016Y-116282381D01*
X158506272Y-116290578D01*
X158506270Y-116290582D01*
X158492087Y-116321638D01*
X158445594Y-116375293D01*
X158377473Y-116395295D01*
X158309352Y-116375292D01*
X158262860Y-116321636D01*
X158256578Y-116304792D01*
X158239181Y-116245543D01*
X158231767Y-116229308D01*
X158162574Y-116121640D01*
X158144986Y-116101342D01*
X158146347Y-116100162D01*
X158113847Y-116049589D01*
X158113847Y-115978593D01*
X158152231Y-115918867D01*
X158179713Y-115901040D01*
X158184701Y-115899406D01*
X158314317Y-115818617D01*
X158321704Y-115814013D01*
X158321705Y-115814012D01*
X158328150Y-115809995D01*
X158409085Y-115726956D01*
X158440827Y-115694389D01*
X158440827Y-115694388D01*
X158446131Y-115688947D01*
X158449983Y-115682399D01*
X158449985Y-115682396D01*
X158527979Y-115549802D01*
X158531832Y-115543252D01*
X158580307Y-115381319D01*
X158582422Y-115339069D01*
X158588376Y-115220090D01*
X158588756Y-115212498D01*
X158577330Y-115153360D01*
X158584046Y-115082683D01*
X158627908Y-115026856D01*
X158694989Y-115003604D01*
X158747285Y-115012252D01*
X158752600Y-115014349D01*
X158753154Y-115014569D01*
X158805409Y-115035472D01*
X158805421Y-115035476D01*
X158808946Y-115036886D01*
X158810668Y-115037344D01*
X158812950Y-115038172D01*
X158813042Y-115038202D01*
X158816884Y-115039718D01*
X158820891Y-115040720D01*
X158820895Y-115040721D01*
X158840128Y-115045529D01*
X158860644Y-115050658D01*
X158862458Y-115051126D01*
X158924733Y-115067698D01*
X158924737Y-115067699D01*
X158932074Y-115069651D01*
X158935898Y-115069725D01*
X158940470Y-115070615D01*
X159084929Y-115106730D01*
X159318551Y-115165136D01*
X159333759Y-115169980D01*
X159355972Y-115178640D01*
X159355975Y-115178641D01*
X159363047Y-115181398D01*
X159385722Y-115184383D01*
X159404780Y-115186892D01*
X159406977Y-115187242D01*
X159408673Y-115187666D01*
X159412429Y-115188136D01*
X159412433Y-115188137D01*
X159428761Y-115190181D01*
X159448860Y-115192697D01*
X159449392Y-115192766D01*
X159492950Y-115198500D01*
X159494692Y-115198500D01*
X159496856Y-115198706D01*
X159535099Y-115203494D01*
X159542640Y-115202613D01*
X159542643Y-115202613D01*
X159570560Y-115199351D01*
X159585181Y-115198500D01*
X159731120Y-115198500D01*
X159749820Y-115199895D01*
X159764417Y-115202086D01*
X159764420Y-115202086D01*
X159771929Y-115203213D01*
X159779493Y-115202516D01*
X159779496Y-115202516D01*
X159817300Y-115199032D01*
X159828862Y-115198500D01*
X159833318Y-115198500D01*
X159843716Y-115197242D01*
X159864249Y-115194757D01*
X159867824Y-115194376D01*
X159932686Y-115188399D01*
X159932687Y-115188399D01*
X159940248Y-115187702D01*
X159947409Y-115185227D01*
X159948379Y-115185064D01*
X159951335Y-115184383D01*
X159952279Y-115184104D01*
X159959808Y-115183193D01*
X159966917Y-115180507D01*
X159966920Y-115180506D01*
X160027873Y-115157474D01*
X160031252Y-115156252D01*
X160060186Y-115146252D01*
X160060193Y-115146249D01*
X160064085Y-115144904D01*
X160067769Y-115143062D01*
X160068998Y-115142545D01*
X160079246Y-115138061D01*
X160110827Y-115126128D01*
X160110830Y-115126127D01*
X160117929Y-115123444D01*
X160139893Y-115108349D01*
X160154910Y-115099492D01*
X160395335Y-114979279D01*
X160538352Y-114907770D01*
X160540439Y-114906868D01*
X160542500Y-114906383D01*
X160604795Y-114874555D01*
X160605772Y-114874061D01*
X160645946Y-114853974D01*
X160649335Y-114852279D01*
X160651722Y-114850701D01*
X160655455Y-114848671D01*
X160693023Y-114829476D01*
X160716625Y-114809058D01*
X160729579Y-114799238D01*
X160749283Y-114786213D01*
X160749284Y-114786212D01*
X160755626Y-114782020D01*
X160781703Y-114753794D01*
X160791805Y-114744018D01*
X160814550Y-114724342D01*
X160879155Y-114694902D01*
X160949420Y-114705063D01*
G37*
%TD.AperFunction*%
%TA.AperFunction,Conductor*%
G36*
X157241121Y-115922002D02*
G01*
X157287614Y-115975658D01*
X157299000Y-116028000D01*
X157299000Y-116610500D01*
X157278998Y-116678621D01*
X157225342Y-116725114D01*
X157173000Y-116736500D01*
X156830166Y-116736500D01*
X156762045Y-116716498D01*
X156715552Y-116662842D01*
X156705448Y-116592568D01*
X156734942Y-116527988D01*
X156783657Y-116496680D01*
X156789329Y-116490135D01*
X156791000Y-116482452D01*
X156791000Y-116028000D01*
X156811002Y-115959879D01*
X156864658Y-115913386D01*
X156917000Y-115902000D01*
X157173000Y-115902000D01*
X157241121Y-115922002D01*
G37*
%TD.AperFunction*%
%TA.AperFunction,Conductor*%
G36*
X178254391Y-108528002D02*
G01*
X178300884Y-108581658D01*
X178310988Y-108651932D01*
X178281494Y-108716512D01*
X178268351Y-108729596D01*
X178019207Y-108943517D01*
X178019203Y-108943521D01*
X178016403Y-108945925D01*
X177790299Y-109191381D01*
X177594377Y-109461540D01*
X177592582Y-109464746D01*
X177592579Y-109464750D01*
X177525675Y-109584217D01*
X177431313Y-109752712D01*
X177429905Y-109756102D01*
X177429901Y-109756111D01*
X177308855Y-110047623D01*
X177303333Y-110060921D01*
X177302331Y-110064450D01*
X177302329Y-110064456D01*
X177213401Y-110377682D01*
X177212187Y-110381957D01*
X177211604Y-110385576D01*
X177211603Y-110385581D01*
X177203217Y-110437646D01*
X177159118Y-110711434D01*
X177144852Y-111044852D01*
X177169584Y-111377658D01*
X177170283Y-111381272D01*
X177170284Y-111381278D01*
X177223841Y-111658090D01*
X177232976Y-111705306D01*
X177234089Y-111708804D01*
X177234091Y-111708812D01*
X177328839Y-112006595D01*
X177334161Y-112023320D01*
X177335678Y-112026673D01*
X177335680Y-112026677D01*
X177467656Y-112318291D01*
X177471759Y-112327356D01*
X177643888Y-112613263D01*
X177646134Y-112616164D01*
X177646139Y-112616171D01*
X177845943Y-112874221D01*
X177845950Y-112874228D01*
X177848200Y-112877135D01*
X178081902Y-113115368D01*
X178341803Y-113324707D01*
X178344918Y-113326665D01*
X178344921Y-113326667D01*
X178608723Y-113492471D01*
X178624352Y-113502294D01*
X178925692Y-113645703D01*
X179241705Y-113752974D01*
X179568075Y-113822644D01*
X179681554Y-113833271D01*
X179896678Y-113853418D01*
X179896683Y-113853418D01*
X179900344Y-113853761D01*
X180105754Y-113848920D01*
X180230290Y-113845985D01*
X180230293Y-113845985D01*
X180233975Y-113845898D01*
X180564411Y-113799164D01*
X180567967Y-113798228D01*
X180567971Y-113798227D01*
X180883574Y-113715136D01*
X180883573Y-113715136D01*
X180887137Y-113714198D01*
X181056410Y-113647690D01*
X181194318Y-113593506D01*
X181194325Y-113593503D01*
X181197745Y-113592159D01*
X181491995Y-113434714D01*
X181596912Y-113361659D01*
X181762842Y-113246119D01*
X181765865Y-113244014D01*
X181768615Y-113241577D01*
X181768621Y-113241572D01*
X182012864Y-113025103D01*
X182015616Y-113022664D01*
X182237837Y-112773687D01*
X182241639Y-112768268D01*
X182262850Y-112738031D01*
X182318346Y-112693751D01*
X182388972Y-112686504D01*
X182452304Y-112718590D01*
X182488235Y-112779823D01*
X182492000Y-112810392D01*
X182492000Y-114380195D01*
X182471998Y-114448316D01*
X182418342Y-114494809D01*
X182348068Y-114504913D01*
X182283488Y-114475420D01*
X182274830Y-114467918D01*
X182268019Y-114462016D01*
X182255549Y-114456321D01*
X182143264Y-114405042D01*
X182143263Y-114405042D01*
X182135070Y-114401300D01*
X182126155Y-114400018D01*
X182126154Y-114400018D01*
X181994848Y-114381139D01*
X181994841Y-114381138D01*
X181990400Y-114380500D01*
X180290400Y-114380500D01*
X180217321Y-114385727D01*
X180151540Y-114405042D01*
X180085730Y-114424365D01*
X180085728Y-114424366D01*
X180077084Y-114426904D01*
X180069505Y-114431775D01*
X179961709Y-114501051D01*
X179961706Y-114501053D01*
X179954129Y-114505923D01*
X179925026Y-114539510D01*
X179865301Y-114577893D01*
X179794304Y-114577893D01*
X179740707Y-114546092D01*
X179650936Y-114456321D01*
X179645082Y-114450055D01*
X179613690Y-114414070D01*
X179608696Y-114408345D01*
X179558367Y-114372973D01*
X179553072Y-114369040D01*
X179510637Y-114335767D01*
X179504662Y-114331082D01*
X179497743Y-114327958D01*
X179493467Y-114325368D01*
X179483980Y-114319957D01*
X179479563Y-114317589D01*
X179473351Y-114313223D01*
X179416039Y-114290878D01*
X179409958Y-114288322D01*
X179404241Y-114285741D01*
X179353890Y-114263006D01*
X179346422Y-114261622D01*
X179341578Y-114260104D01*
X179331192Y-114257145D01*
X179326296Y-114255888D01*
X179319223Y-114253130D01*
X179311693Y-114252139D01*
X179311690Y-114252138D01*
X179258225Y-114245100D01*
X179251708Y-114244068D01*
X179198698Y-114234243D01*
X179191231Y-114232859D01*
X179183651Y-114233296D01*
X179183650Y-114233296D01*
X179131711Y-114236291D01*
X179124458Y-114236500D01*
X176497305Y-114236500D01*
X176429184Y-114216498D01*
X176408210Y-114199595D01*
X174746936Y-112538321D01*
X174741082Y-112532055D01*
X174709690Y-112496070D01*
X174704696Y-112490345D01*
X174654367Y-112454973D01*
X174649072Y-112451040D01*
X174606637Y-112417767D01*
X174600662Y-112413082D01*
X174593743Y-112409958D01*
X174589467Y-112407368D01*
X174579980Y-112401957D01*
X174575563Y-112399589D01*
X174569351Y-112395223D01*
X174512039Y-112372878D01*
X174505958Y-112370322D01*
X174500241Y-112367741D01*
X174449890Y-112345006D01*
X174442422Y-112343622D01*
X174437578Y-112342104D01*
X174427192Y-112339145D01*
X174422296Y-112337888D01*
X174415223Y-112335130D01*
X174407693Y-112334139D01*
X174407690Y-112334138D01*
X174354225Y-112327100D01*
X174347708Y-112326068D01*
X174294698Y-112316243D01*
X174287231Y-112314859D01*
X174279651Y-112315296D01*
X174279650Y-112315296D01*
X174227711Y-112318291D01*
X174220458Y-112318500D01*
X170440814Y-112318500D01*
X170372693Y-112298498D01*
X170354161Y-112283973D01*
X170269351Y-112203632D01*
X170250379Y-112185660D01*
X170102476Y-112099751D01*
X169938777Y-112050172D01*
X169932341Y-112049598D01*
X169932338Y-112049597D01*
X169866815Y-112043749D01*
X169866809Y-112043749D01*
X169864022Y-112043500D01*
X169265113Y-112043500D01*
X169176490Y-112053832D01*
X169145380Y-112057459D01*
X169145378Y-112057459D01*
X169138108Y-112058307D01*
X169053837Y-112088896D01*
X168982981Y-112093337D01*
X168920971Y-112058765D01*
X168889951Y-112005955D01*
X168863635Y-111916330D01*
X168863634Y-111916328D01*
X168861096Y-111907684D01*
X168822585Y-111847760D01*
X168786949Y-111792309D01*
X168786947Y-111792306D01*
X168782077Y-111784729D01*
X168773589Y-111777374D01*
X168678431Y-111694918D01*
X168678428Y-111694916D01*
X168671619Y-111689016D01*
X168635945Y-111672724D01*
X168546864Y-111632042D01*
X168546863Y-111632042D01*
X168538670Y-111628300D01*
X168529755Y-111627018D01*
X168529754Y-111627018D01*
X168398448Y-111608139D01*
X168398441Y-111608138D01*
X168394000Y-111607500D01*
X167334000Y-111607500D01*
X167260921Y-111612727D01*
X167195964Y-111631800D01*
X167129330Y-111651365D01*
X167129328Y-111651366D01*
X167120684Y-111653904D01*
X167091400Y-111672724D01*
X167005309Y-111728051D01*
X167005306Y-111728053D01*
X166997729Y-111732923D01*
X166991828Y-111739733D01*
X166907918Y-111836569D01*
X166907916Y-111836572D01*
X166902016Y-111843381D01*
X166898272Y-111851578D01*
X166898270Y-111851582D01*
X166880624Y-111890221D01*
X166834131Y-111943876D01*
X166766010Y-111963878D01*
X166697890Y-111943876D01*
X166660013Y-111905999D01*
X166586949Y-111792309D01*
X166586947Y-111792306D01*
X166582077Y-111784729D01*
X166573589Y-111777374D01*
X166478431Y-111694918D01*
X166478428Y-111694916D01*
X166471619Y-111689016D01*
X166435945Y-111672724D01*
X166346864Y-111632042D01*
X166346863Y-111632042D01*
X166338670Y-111628300D01*
X166329755Y-111627018D01*
X166329754Y-111627018D01*
X166198448Y-111608139D01*
X166198441Y-111608138D01*
X166194000Y-111607500D01*
X165134000Y-111607500D01*
X165060921Y-111612727D01*
X164995964Y-111631800D01*
X164929330Y-111651365D01*
X164929328Y-111651366D01*
X164920684Y-111653904D01*
X164797729Y-111732923D01*
X164797260Y-111733465D01*
X164736490Y-111761217D01*
X164718558Y-111762500D01*
X164553752Y-111762500D01*
X164545183Y-111762208D01*
X164497543Y-111758960D01*
X164497539Y-111758960D01*
X164489967Y-111758444D01*
X164482490Y-111759749D01*
X164482488Y-111759749D01*
X164458711Y-111763899D01*
X164429360Y-111769022D01*
X164422842Y-111769983D01*
X164361770Y-111777374D01*
X164354666Y-111780058D01*
X164349773Y-111781260D01*
X164339306Y-111784124D01*
X164334481Y-111785581D01*
X164327002Y-111786886D01*
X164320049Y-111789938D01*
X164320046Y-111789939D01*
X164270670Y-111811612D01*
X164264567Y-111814103D01*
X164214131Y-111833162D01*
X164214129Y-111833163D01*
X164207021Y-111835849D01*
X164200756Y-111840155D01*
X164196263Y-111842504D01*
X164186819Y-111847760D01*
X164182479Y-111850326D01*
X164175525Y-111853379D01*
X164169501Y-111858001D01*
X164169500Y-111858002D01*
X164126716Y-111890832D01*
X164121378Y-111894710D01*
X164102501Y-111907684D01*
X164070687Y-111929549D01*
X164057922Y-111943876D01*
X164031022Y-111974067D01*
X164026042Y-111979342D01*
X163998789Y-112006595D01*
X163936477Y-112040621D01*
X163909694Y-112043500D01*
X163677113Y-112043500D01*
X163588490Y-112053832D01*
X163557380Y-112057459D01*
X163557378Y-112057459D01*
X163550108Y-112058307D01*
X163543231Y-112060803D01*
X163543228Y-112060804D01*
X163396209Y-112114170D01*
X163389330Y-112116667D01*
X163246289Y-112210449D01*
X163241257Y-112215761D01*
X163237322Y-112219051D01*
X163172232Y-112247402D01*
X163102147Y-112236062D01*
X163049318Y-112188631D01*
X163030500Y-112122388D01*
X163030500Y-111884576D01*
X163031511Y-111868646D01*
X163034525Y-111844997D01*
X163035485Y-111837466D01*
X163030690Y-111795612D01*
X163030500Y-111793438D01*
X163030500Y-111791682D01*
X163029585Y-111784124D01*
X163025660Y-111751684D01*
X163025566Y-111750890D01*
X163021042Y-111711401D01*
X163021041Y-111711396D01*
X163020571Y-111707293D01*
X163020145Y-111705590D01*
X163019827Y-111703484D01*
X163015193Y-111665192D01*
X163002574Y-111631795D01*
X162998203Y-111617822D01*
X162995623Y-111607500D01*
X162887630Y-111175531D01*
X162886156Y-111168875D01*
X162883646Y-111155885D01*
X162881901Y-111146853D01*
X162880598Y-111142945D01*
X162880596Y-111142936D01*
X162877667Y-111134151D01*
X162874963Y-111124865D01*
X162872623Y-111115505D01*
X162864506Y-111094288D01*
X162862658Y-111089123D01*
X162762300Y-110788050D01*
X162757339Y-110767624D01*
X162756207Y-110760364D01*
X162756207Y-110760363D01*
X162755037Y-110752863D01*
X162734690Y-110704141D01*
X162731431Y-110695444D01*
X162727589Y-110683917D01*
X162717449Y-110662500D01*
X162715061Y-110657135D01*
X162692829Y-110603897D01*
X162689901Y-110596885D01*
X162685386Y-110590776D01*
X162681637Y-110584166D01*
X162681771Y-110584090D01*
X162680501Y-110581968D01*
X162680371Y-110582050D01*
X162676317Y-110575622D01*
X162673068Y-110568759D01*
X162631849Y-110518102D01*
X162628252Y-110513466D01*
X162589439Y-110460946D01*
X162583601Y-110456093D01*
X162578383Y-110450568D01*
X162578494Y-110450463D01*
X162576749Y-110448700D01*
X162576643Y-110448810D01*
X162571179Y-110443539D01*
X162566383Y-110437646D01*
X162514256Y-110398272D01*
X162509662Y-110394631D01*
X162465294Y-110357750D01*
X162465293Y-110357750D01*
X162459452Y-110352894D01*
X162452622Y-110349572D01*
X162446237Y-110345452D01*
X162446320Y-110345323D01*
X162444208Y-110344029D01*
X162444130Y-110344162D01*
X162437568Y-110340348D01*
X162431503Y-110335767D01*
X162371501Y-110309969D01*
X162366179Y-110307533D01*
X162341623Y-110295591D01*
X162337718Y-110294289D01*
X162337712Y-110294287D01*
X162330799Y-110291983D01*
X162320882Y-110288206D01*
X162276216Y-110269002D01*
X162257232Y-110265837D01*
X162238113Y-110261087D01*
X162187955Y-110244368D01*
X162165952Y-110237034D01*
X162107652Y-110196518D01*
X162080512Y-110130913D01*
X162093149Y-110061050D01*
X162141550Y-110009110D01*
X162205796Y-109991500D01*
X162221024Y-109991500D01*
X162221684Y-109991502D01*
X162285858Y-109991838D01*
X162293245Y-109990064D01*
X162293249Y-109990064D01*
X162321813Y-109983206D01*
X162336091Y-109980637D01*
X162365257Y-109977108D01*
X162365268Y-109977105D01*
X162372808Y-109976193D01*
X162403361Y-109964648D01*
X162418456Y-109960004D01*
X162450220Y-109952378D01*
X162456968Y-109948895D01*
X162456971Y-109948894D01*
X162483085Y-109935416D01*
X162496335Y-109929516D01*
X162523829Y-109919127D01*
X162523830Y-109919127D01*
X162530929Y-109916444D01*
X162557841Y-109897948D01*
X162571415Y-109889825D01*
X162593674Y-109878336D01*
X162600426Y-109874851D01*
X162628290Y-109850544D01*
X162639749Y-109841655D01*
X162663976Y-109825004D01*
X162663979Y-109825001D01*
X162670233Y-109820703D01*
X162678737Y-109811158D01*
X162691954Y-109796324D01*
X162703196Y-109785198D01*
X162727802Y-109763733D01*
X162732169Y-109757520D01*
X162732173Y-109757515D01*
X162749069Y-109733474D01*
X162758080Y-109722105D01*
X162777627Y-109700167D01*
X162777630Y-109700163D01*
X162782678Y-109694497D01*
X162797960Y-109665633D01*
X162806217Y-109652159D01*
X162824997Y-109625439D01*
X162838429Y-109590987D01*
X162844467Y-109577801D01*
X162858219Y-109551827D01*
X162858220Y-109551824D01*
X162861774Y-109545112D01*
X162869730Y-109513439D01*
X162874539Y-109498369D01*
X162886398Y-109467953D01*
X162887635Y-109458562D01*
X162891225Y-109431291D01*
X162893943Y-109417045D01*
X162901101Y-109388545D01*
X162902953Y-109381172D01*
X162903154Y-109342694D01*
X162903252Y-109339932D01*
X162903500Y-109338050D01*
X162903500Y-109276840D01*
X162903502Y-109276316D01*
X162903821Y-109215459D01*
X162903821Y-109215453D01*
X162903838Y-109212142D01*
X162903564Y-109210999D01*
X162903500Y-109209898D01*
X162903500Y-109124682D01*
X162888193Y-108998192D01*
X162828444Y-108840071D01*
X162735864Y-108705366D01*
X162713764Y-108637898D01*
X162731649Y-108569191D01*
X162783841Y-108521061D01*
X162839704Y-108508000D01*
X178186270Y-108508000D01*
X178254391Y-108528002D01*
G37*
%TD.AperFunction*%
%TA.AperFunction,Conductor*%
G36*
X166873355Y-113040841D02*
G01*
X166930191Y-113083386D01*
X166935321Y-113090775D01*
X166941050Y-113099689D01*
X166945923Y-113107271D01*
X166952733Y-113113172D01*
X167049569Y-113197082D01*
X167049572Y-113197084D01*
X167056381Y-113202984D01*
X167064579Y-113206728D01*
X167140877Y-113241572D01*
X167189330Y-113263700D01*
X167198245Y-113264982D01*
X167198246Y-113264982D01*
X167233399Y-113270036D01*
X167297980Y-113299529D01*
X167336364Y-113359255D01*
X167336364Y-113430252D01*
X167297981Y-113489978D01*
X167250966Y-113515650D01*
X167129330Y-113551365D01*
X167129328Y-113551366D01*
X167120684Y-113553904D01*
X167113105Y-113558775D01*
X167005309Y-113628051D01*
X167005306Y-113628053D01*
X166997729Y-113632923D01*
X166991828Y-113639733D01*
X166923974Y-113718040D01*
X166864248Y-113756423D01*
X166793251Y-113756423D01*
X166733525Y-113718039D01*
X166707854Y-113671024D01*
X166702525Y-113652876D01*
X166701135Y-113651671D01*
X166693452Y-113650000D01*
X166588994Y-113650000D01*
X166520873Y-113629998D01*
X166506482Y-113619225D01*
X166494176Y-113608562D01*
X166471619Y-113589016D01*
X166338670Y-113528300D01*
X166329755Y-113527018D01*
X166329754Y-113527018D01*
X166298308Y-113522497D01*
X166294601Y-113521964D01*
X166230020Y-113492471D01*
X166191636Y-113432745D01*
X166191636Y-113361748D01*
X166230019Y-113302022D01*
X166277034Y-113276350D01*
X166398670Y-113240635D01*
X166398672Y-113240634D01*
X166407316Y-113238096D01*
X166525719Y-113162002D01*
X166593841Y-113142000D01*
X166688885Y-113142000D01*
X166704124Y-113137525D01*
X166705329Y-113136135D01*
X166706203Y-113132116D01*
X166740227Y-113069803D01*
X166802539Y-113035777D01*
X166873355Y-113040841D01*
G37*
%TD.AperFunction*%
%TD*%
M02*
