M48
; DRILL file {KiCad (5.99.0-8805-ge26c912b86)} date Wed Feb  3 20:47:43 2021
; FORMAT={-:-/ absolute / inch / decimal}
; #@! TF.CreationDate,2021-02-03T20:47:43+01:00
; #@! TF.GenerationSoftware,Kicad,Pcbnew,(5.99.0-8805-ge26c912b86)
FMAT,2
INCH
T1C0.0157
T2C0.0394
T3C0.0256
T4C0.1063
%
G90
G05
T1
X6.2275Y-4.8165
X6.3068Y-4.6244
X6.3253Y-4.7846
X6.3305Y-4.9039
X6.4057Y-4.7842
X6.4155Y-4.4694
X6.4173Y-4.3701
X6.4643Y-4.6244
X6.5255Y-4.6844
X6.6055Y-4.6144
X6.6455Y-4.6544
X6.8555Y-4.5744
X6.8669Y-4.7835
X6.9155Y-4.7744
X6.9685Y-4.4488
T2
X6.5315Y-5.1224
X6.6315Y-5.1224
X6.7315Y-5.1224
X6.8315Y-5.1224
X6.9315Y-5.1224
X7.1315Y-4.5569
X7.1315Y-4.6569
X7.1315Y-4.7569
X7.1315Y-4.8569
X7.1315Y-4.9569
X7.1315Y-5.0569
T3
X6.126Y-4.6106
X6.126Y-4.8382
T4
X6.0236Y-5.0787
X7.0866Y-4.3701
T0
M30
