G04 #@! TF.GenerationSoftware,KiCad,Pcbnew,(5.99.0-9568-gb9d26a55f2)*
G04 #@! TF.CreationDate,2021-03-08T10:56:08+01:00*
G04 #@! TF.ProjectId,ESP-Hiro,4553502d-4869-4726-9f2e-6b696361645f,rev?*
G04 #@! TF.SameCoordinates,PX5f5e100PY7bfa480*
G04 #@! TF.FileFunction,Paste,Top*
G04 #@! TF.FilePolarity,Positive*
%FSLAX46Y46*%
G04 Gerber Fmt 4.6, Leading zero omitted, Abs format (unit mm)*
G04 Created by KiCad (PCBNEW (5.99.0-9568-gb9d26a55f2)) date 2021-03-08 10:56:08*
%MOMM*%
%LPD*%
G01*
G04 APERTURE LIST*
G04 Aperture macros list*
%AMRoundRect*
0 Rectangle with rounded corners*
0 $1 Rounding radius*
0 $2 $3 $4 $5 $6 $7 $8 $9 X,Y pos of 4 corners*
0 Add a 4 corners polygon primitive as box body*
4,1,4,$2,$3,$4,$5,$6,$7,$8,$9,$2,$3,0*
0 Add four circle primitives for the rounded corners*
1,1,$1+$1,$2,$3*
1,1,$1+$1,$4,$5*
1,1,$1+$1,$6,$7*
1,1,$1+$1,$8,$9*
0 Add four rect primitives between the rounded corners*
20,1,$1+$1,$2,$3,$4,$5,0*
20,1,$1+$1,$4,$5,$6,$7,0*
20,1,$1+$1,$6,$7,$8,$9,0*
20,1,$1+$1,$8,$9,$2,$3,0*%
G04 Aperture macros list end*
%ADD10RoundRect,0.250000X0.650000X-0.325000X0.650000X0.325000X-0.650000X0.325000X-0.650000X-0.325000X0*%
%ADD11RoundRect,0.225000X-0.250000X0.225000X-0.250000X-0.225000X0.250000X-0.225000X0.250000X0.225000X0*%
%ADD12RoundRect,0.225000X0.250000X-0.225000X0.250000X0.225000X-0.250000X0.225000X-0.250000X-0.225000X0*%
%ADD13RoundRect,0.225000X-0.225000X-0.250000X0.225000X-0.250000X0.225000X0.250000X-0.225000X0.250000X0*%
%ADD14R,2.500000X1.800000*%
%ADD15RoundRect,0.150000X0.587500X0.150000X-0.587500X0.150000X-0.587500X-0.150000X0.587500X-0.150000X0*%
%ADD16RoundRect,0.200000X0.200000X0.275000X-0.200000X0.275000X-0.200000X-0.275000X0.200000X-0.275000X0*%
%ADD17RoundRect,0.200000X0.275000X-0.200000X0.275000X0.200000X-0.275000X0.200000X-0.275000X-0.200000X0*%
%ADD18RoundRect,0.200000X-0.200000X-0.275000X0.200000X-0.275000X0.200000X0.275000X-0.200000X0.275000X0*%
%ADD19RoundRect,0.200000X-0.275000X0.200000X-0.275000X-0.200000X0.275000X-0.200000X0.275000X0.200000X0*%
%ADD20RoundRect,0.150000X0.825000X0.150000X-0.825000X0.150000X-0.825000X-0.150000X0.825000X-0.150000X0*%
%ADD21R,2.500000X1.100000*%
%ADD22R,1.100000X2.500000*%
%ADD23RoundRect,0.150000X0.512500X0.150000X-0.512500X0.150000X-0.512500X-0.150000X0.512500X-0.150000X0*%
%ADD24RoundRect,0.250000X0.325000X0.650000X-0.325000X0.650000X-0.325000X-0.650000X0.325000X-0.650000X0*%
%ADD25RoundRect,0.225000X0.225000X0.250000X-0.225000X0.250000X-0.225000X-0.250000X0.225000X-0.250000X0*%
%ADD26R,1.800000X2.500000*%
%ADD27RoundRect,0.225000X0.225000X0.225000X-0.225000X0.225000X-0.225000X-0.225000X0.225000X-0.225000X0*%
%ADD28RoundRect,0.062500X0.337500X0.062500X-0.337500X0.062500X-0.337500X-0.062500X0.337500X-0.062500X0*%
%ADD29RoundRect,0.062500X0.062500X0.337500X-0.062500X0.337500X-0.062500X-0.337500X0.062500X-0.337500X0*%
%ADD30R,1.450000X0.600000*%
%ADD31R,1.450000X0.300000*%
%ADD32RoundRect,0.120000X0.480000X-0.780000X0.480000X0.780000X-0.480000X0.780000X-0.480000X-0.780000X0*%
%ADD33RoundRect,0.145000X0.580000X-0.755000X0.580000X0.755000X-0.580000X0.755000X-0.580000X-0.755000X0*%
%ADD34R,1.950000X3.000000*%
%ADD35RoundRect,0.100000X-0.637500X-0.100000X0.637500X-0.100000X0.637500X0.100000X-0.637500X0.100000X0*%
%ADD36RoundRect,0.250000X1.500000X0.550000X-1.500000X0.550000X-1.500000X-0.550000X1.500000X-0.550000X0*%
G04 APERTURE END LIST*
D10*
X90959000Y16315000D03*
X90959000Y19265000D03*
X88419000Y16315000D03*
X88419000Y19265000D03*
D11*
X86387000Y16266000D03*
X86387000Y14716000D03*
D12*
X77243000Y14923998D03*
X77243000Y16473998D03*
X86387000Y17777000D03*
X86387000Y19327000D03*
X77243000Y17984998D03*
X77243000Y19534998D03*
X75719000Y17984998D03*
X75719000Y19534998D03*
D10*
X68099000Y18113998D03*
X68099000Y21063998D03*
X70639000Y18113998D03*
X70639000Y21063998D03*
D13*
X31418000Y41158000D03*
X32968000Y41158000D03*
X31418000Y27061000D03*
X32968000Y27061000D03*
D12*
X60260000Y10919000D03*
X60260000Y12469000D03*
X53783000Y10919000D03*
X53783000Y12469000D03*
D14*
X77564000Y12396998D03*
X81564000Y12396998D03*
D15*
X11843000Y40970000D03*
X11843000Y42870000D03*
X9968000Y41920000D03*
D16*
X77306000Y21045998D03*
X75656000Y21045998D03*
D17*
X72671000Y17909998D03*
X72671000Y19559998D03*
X74195000Y17909998D03*
X74195000Y19559998D03*
D18*
X72608000Y21045998D03*
X74258000Y21045998D03*
D17*
X61657000Y33157000D03*
X61657000Y34807000D03*
X63181000Y33157000D03*
X63181000Y34807000D03*
D16*
X57656000Y33157000D03*
X56006000Y33157000D03*
X57656000Y31125000D03*
X56006000Y31125000D03*
D18*
X31368000Y37094000D03*
X33018000Y37094000D03*
X31368000Y39126000D03*
X33018000Y39126000D03*
D16*
X57656000Y29093000D03*
X56006000Y29093000D03*
D19*
X19747000Y10741000D03*
X19747000Y9091000D03*
X19747000Y14043000D03*
X19747000Y12393000D03*
D18*
X13816600Y41005600D03*
X15466600Y41005600D03*
X13842000Y36840000D03*
X15492000Y36840000D03*
X13867400Y26730800D03*
X15517400Y26730800D03*
X13867400Y16520000D03*
X15517400Y16520000D03*
X13816600Y10830400D03*
X15466600Y10830400D03*
D16*
X15415800Y42885200D03*
X13765800Y42885200D03*
X15492000Y38618000D03*
X13842000Y38618000D03*
X15517400Y28458000D03*
X13867400Y28458000D03*
X15529600Y18247200D03*
X13879600Y18247200D03*
X15454400Y12506800D03*
X13804400Y12506800D03*
D20*
X84325000Y15221000D03*
X84325000Y16491000D03*
X84325000Y17761000D03*
X84325000Y19031000D03*
X79375000Y19031000D03*
X79375000Y17761000D03*
X79375000Y16491000D03*
X79375000Y15221000D03*
D21*
X37258000Y41100000D03*
X37258000Y39100000D03*
X37258000Y37100000D03*
X37258000Y35100000D03*
X37258000Y33100000D03*
X37258000Y31100000D03*
X37258000Y29100000D03*
X37258000Y27100000D03*
X52658000Y27100000D03*
X52658000Y29100000D03*
X52658000Y31100000D03*
X52658000Y33100000D03*
X52658000Y35100000D03*
X52658000Y37100000D03*
X52658000Y39100000D03*
X52658000Y41100000D03*
D22*
X39948000Y25400000D03*
X41948000Y25400000D03*
X43948000Y25400000D03*
X45948000Y25400000D03*
X47948000Y25400000D03*
X49948000Y25400000D03*
D23*
X58127500Y10744000D03*
X58127500Y11694000D03*
X58127500Y12644000D03*
X55852500Y12644000D03*
X55852500Y10744000D03*
D11*
X90994000Y40663000D03*
X90994000Y39113000D03*
D24*
X81475000Y29601000D03*
X78525000Y29601000D03*
D25*
X90372000Y33919000D03*
X88822000Y33919000D03*
D26*
X84390000Y23650200D03*
X84390000Y27650200D03*
D15*
X75865500Y31191500D03*
X75865500Y33091500D03*
X73990500Y32141500D03*
X75865500Y36334000D03*
X75865500Y38234000D03*
X73990500Y37284000D03*
D17*
X93026000Y44905000D03*
X93026000Y46555000D03*
D16*
X96200000Y30490000D03*
X94550000Y30490000D03*
D19*
X78675000Y36585000D03*
X78675000Y34935000D03*
D16*
X75499000Y29601500D03*
X73849000Y29601500D03*
X75499000Y34744000D03*
X73849000Y34744000D03*
D27*
X85383000Y37250000D03*
X83143000Y38370000D03*
X84263000Y37250000D03*
X85383000Y38370000D03*
X84263000Y36130000D03*
X83143000Y36130000D03*
X83143000Y37250000D03*
X85383000Y36130000D03*
X84263000Y38370000D03*
D28*
X86713000Y35750000D03*
X86713000Y36250000D03*
X86713000Y36750000D03*
X86713000Y37250000D03*
X86713000Y37750000D03*
X86713000Y38250000D03*
X86713000Y38750000D03*
D29*
X85763000Y39700000D03*
X85263000Y39700000D03*
X84763000Y39700000D03*
X84263000Y39700000D03*
X83763000Y39700000D03*
X83263000Y39700000D03*
X82763000Y39700000D03*
D28*
X81813000Y38750000D03*
X81813000Y38250000D03*
X81813000Y37750000D03*
X81813000Y37250000D03*
X81813000Y36750000D03*
X81813000Y36250000D03*
X81813000Y35750000D03*
D29*
X82763000Y34800000D03*
X83263000Y34800000D03*
X83763000Y34800000D03*
X84263000Y34800000D03*
X84763000Y34800000D03*
X85263000Y34800000D03*
X85763000Y34800000D03*
D30*
X93705000Y34250000D03*
X93705000Y35050000D03*
D31*
X93705000Y36250000D03*
X93705000Y37250000D03*
X93705000Y37750000D03*
X93705000Y38750000D03*
D30*
X93705000Y39950000D03*
X93705000Y40750000D03*
X93705000Y40750000D03*
X93705000Y39950000D03*
D31*
X93705000Y39250000D03*
X93705000Y38250000D03*
X93705000Y36750000D03*
X93705000Y35750000D03*
D30*
X93705000Y35050000D03*
X93705000Y34250000D03*
D32*
X98800000Y32430000D03*
X98800000Y42570000D03*
D33*
X94620000Y32430000D03*
X94620000Y42570000D03*
D34*
X73424000Y13218000D03*
X67924000Y13218000D03*
D15*
X11794500Y36779000D03*
X11794500Y38679000D03*
X9919500Y37729000D03*
D13*
X7923000Y14640400D03*
X9473000Y14640400D03*
D18*
X25844000Y9662000D03*
X27494000Y9662000D03*
D15*
X11870700Y10744000D03*
X11870700Y12644000D03*
X9995700Y11694000D03*
D13*
X7923000Y22514400D03*
X9473000Y22514400D03*
D12*
X74484000Y4061000D03*
X74484000Y5611000D03*
D16*
X24446000Y9662000D03*
X22796000Y9662000D03*
D15*
X11794500Y26619000D03*
X11794500Y28519000D03*
X9919500Y27569000D03*
D13*
X9751800Y9001600D03*
X11301800Y9001600D03*
X7923000Y32649000D03*
X9473000Y32649000D03*
X88174000Y14547002D03*
X89724000Y14547002D03*
D11*
X7885200Y41577400D03*
X7885200Y40027400D03*
D35*
X66033500Y9031000D03*
X66033500Y8381000D03*
X66033500Y7731000D03*
X66033500Y7081000D03*
X66033500Y6431000D03*
X66033500Y5781000D03*
X66033500Y5131000D03*
X66033500Y4481000D03*
X66033500Y3831000D03*
X66033500Y3181000D03*
X71758500Y3181000D03*
X71758500Y3831000D03*
X71758500Y4481000D03*
X71758500Y5131000D03*
X71758500Y5781000D03*
X71758500Y6431000D03*
X71758500Y7081000D03*
X71758500Y7731000D03*
X71758500Y8381000D03*
X71758500Y9031000D03*
D36*
X90900000Y10170000D03*
X85500000Y10170000D03*
D15*
X11794500Y16459000D03*
X11794500Y18359000D03*
X9919500Y17409000D03*
M02*
